#N canvas 29 22 1100 856 10;
#X declare -lib iem_tab;
#X declare -lib iem_tab;
#X obj 116 280 centroidL2;
#X obj 104 300 SFVarianceL2;
#X obj 14 320 SpectralFrequencySkewnessL2;
#X obj 14 340 SpectralFrequencyKurtosisL2;
#X obj 14 360 SpectralIrregularity_Jensen;
#X obj 98 380 SFlux_Peeters;
#X obj 104 400 loudness-nrt;
#X msg 127 460 250;
#X msg 156 460 4000;
#X obj 127 420 loadbang;
#X obj 127 440 t b b;
#X floatatom 127 507 5 0 1024 1 min_bin - -;
#X floatatom 171 525 5 0 1024 1 max_bin - -;
#N canvas 530 495 317 170 bins 0;
#X obj 138 42 t b f;
#X obj 48 27 inlet;
#X obj 142 0 inlet;
#X obj 49 130 outlet;
#X obj 173 129 outlet;
#X obj 249 87 inlet;
#X obj 48 86 expr int($f1/(44100/$f3)) \; int($f2/(44100/$f3));
#X obj 206 39 loadbang;
#X msg 212 64 1024;
#X connect 0 0 6 0;
#X connect 0 1 6 1;
#X connect 1 0 6 0;
#X connect 2 0 0 0;
#X connect 5 0 6 2;
#X connect 6 0 3 0;
#X connect 6 1 4 0;
#X connect 7 0 8 0;
#X connect 8 0 6 2;
#X restore 127 480 pd bins;
#X obj 167 440 r flatness-global-i;
#X obj 190 460 r flatness-global-ii;
#X obj 103 585 Srolloff-nrt;
#X obj 172 565 r rolloff-idx;
#X obj 86 605 sdecrease;
#X obj 305 280 == 0;
#X obj 223 280 spigot;
#X obj 223 300 spigot;
#X obj 223 320 spigot;
#X obj 223 340 spigot;
#X obj 223 360 spigot;
#X obj 223 380 spigot;
#X obj 223 400 spigot;
#X obj 223 545 spigot;
#X obj 223 585 spigot;
#X obj 8 625 odd-even-ratio 1024 16;
#X obj 223 605 spigot;
#X obj 223 625 spigot;
#X obj 305 300 == 1;
#X obj 305 320 == 2;
#X obj 305 340 == 3;
#X obj 305 360 == 4;
#X obj 305 380 == 5;
#X obj 305 400 == 6;
#X obj 268 155 arraysize;
#X obj 223 135 t a b a;
#X obj 223 17 tgl 15 0 empty empty empty 17 7 0 10 -262144 -1 -1 0
1;
#X obj 223 54 counter;
#X floatatom 291 55 5 0 0 0 - - -;
#X obj 276 74 ==;
#X obj 223 94 spigot;
#X obj 223 74 t f b f;
#X floatatom 373 114 5 0 0 0 - - -;
#X obj 223 34 metro;
#X obj 321 35 r pop;
#X obj 291 35 - 1;
#X msg 250 260 set;
#X obj 223 199 pack s f;
#X obj 143 -4 inlet;
#X obj 223 -4 t b b b;
#X obj 223 239 t a b;
#X floatatom 321 17 5 0 0 0 - - -;
#X obj 768 155 arraysize;
#X obj 723 135 t a b a;
#X obj 723 17 tgl 15 0 empty empty empty 17 7 0 10 -262144 -1 -1 0
1;
#X obj 723 54 counter;
#X floatatom 791 55 5 0 0 0 - - -;
#X obj 776 74 ==;
#X obj 723 94 spigot;
#X obj 723 74 t f b f;
#X floatatom 893 114 5 0 0 0 - - -;
#X obj 723 34 metro;
#X obj 821 35 r pop;
#X obj 791 35 - 1;
#X obj 723 199 pack s f;
#X obj 723 -4 t b b b;
#X floatatom 843 6 5 0 0 0 - - -;
#X obj 667 -4 inlet;
#X obj 184 280 t b a;
#X obj 184 300 t b a;
#X obj 184 320 t b a;
#X obj 184 340 t b a;
#X obj 184 360 t b a;
#X obj 184 380 t b a;
#X obj 184 400 t b a;
#X obj 184 543 t b a;
#X obj 184 583 t b a;
#X obj 184 603 t b a;
#X obj 184 623 t b a;
#X obj 616 280 centroidL2;
#X obj 604 300 SFVarianceL2;
#X obj 514 320 SpectralFrequencySkewnessL2;
#X obj 514 340 SpectralFrequencyKurtosisL2;
#X obj 514 360 SpectralIrregularity_Jensen;
#X obj 598 380 SFlux_Peeters;
#X obj 604 400 loudness-nrt;
#X msg 627 460 250;
#X msg 656 460 4000;
#X obj 627 420 loadbang;
#X obj 627 440 t b b;
#X floatatom 627 507 5 0 1024 1 min_bin - -;
#X floatatom 671 525 5 0 1024 1 max_bin - -;
#N canvas 530 495 317 170 bins 0;
#X obj 138 42 t b f;
#X obj 48 27 inlet;
#X obj 142 0 inlet;
#X obj 49 130 outlet;
#X obj 173 129 outlet;
#X obj 249 87 inlet;
#X obj 48 86 expr int($f1/(44100/$f3)) \; int($f2/(44100/$f3));
#X obj 206 39 loadbang;
#X msg 212 64 1024;
#X connect 0 0 6 0;
#X connect 0 1 6 1;
#X connect 1 0 6 0;
#X connect 2 0 0 0;
#X connect 5 0 6 2;
#X connect 6 0 3 0;
#X connect 6 1 4 0;
#X connect 7 0 8 0;
#X connect 8 0 6 2;
#X restore 627 480 pd bins;
#X obj 667 440 r flatness-global-i;
#X obj 690 460 r flatness-global-ii;
#X obj 603 585 Srolloff-nrt;
#X obj 672 565 r rolloff-idx;
#X obj 586 605 sdecrease;
#X obj 823 280 == 0;
#X obj 723 280 spigot;
#X obj 723 300 spigot;
#X obj 723 320 spigot;
#X obj 723 340 spigot;
#X obj 723 360 spigot;
#X obj 723 380 spigot;
#X obj 723 400 spigot;
#X obj 723 545 spigot;
#X obj 723 585 spigot;
#X obj 508 625 odd-even-ratio 1024 16;
#X obj 723 605 spigot;
#X obj 723 625 spigot;
#X obj 823 300 == 1;
#X obj 823 320 == 2;
#X obj 823 340 == 3;
#X obj 823 360 == 4;
#X obj 823 380 == 5;
#X obj 823 400 == 6;
#X msg 750 260 set;
#X obj 723 239 t a b;
#X obj 684 280 t b a;
#X obj 684 300 t b a;
#X obj 684 320 t b a;
#X obj 684 340 t b a;
#X obj 684 360 t b a;
#X obj 684 380 t b a;
#X obj 684 400 t b a;
#X obj 684 543 t b a;
#X obj 684 583 t b a;
#X obj 684 603 t b a;
#X obj 684 623 t b a;
#X obj 184 758 rtc/collect;
#N canvas 691 22 406 814 acum-symbols 0;
#X obj 5 0 inlet;
#X obj 146 4 inlet;
#X obj 146 25 t b;
#X msg 146 46 set;
#X obj 32 367 list-minmax;
#X obj 5 327 t a a;
#X obj 5 384 list-math /;
#X obj 32 347 list-math abs;
#X obj 5 734 outlet;
#X obj 5 634 s2l;
#X obj 5 654 prepend 0;
#X obj 5 20 t b a;
#X obj 5 714 list trim;
#X msg 5 68 1.17386 2.44633 5.68548 0.130056;
#X floatatom 193 238 5 0 0 0 - - -;
#X obj 175 277 list-idx;
#X obj 193 257 t b f;
#X floatatom 175 296 5 0 0 0 - - mean-feature-x;
#X obj 193 217 r plot-mean;
#X obj 5 674 s norm_feature_5;
#X obj 5 694 table norm_feature_5;
#X obj 5 534 list-math *;
#X msg 68 510 4;
#X obj 5 594 l2s;
#X obj 5 574 list;
#X symbolatom 5 614 10 0 0 0 - - -;
#X obj 68 490 loadbang;
#X msg 108 530 4;
#X obj 108 510 loadbang;
#X obj 5 554 list-math -;
#X obj 193 427 list;
#X obj 193 447 list-idx;
#X obj 193 407 t b f;
#X floatatom 193 468 5 0 0 0 - - -;
#X floatatom 193 388 5 0 0 0 - - -;
#X obj 193 367 r hist_feat;
#X obj 233 467 s 5f;
#X connect 0 0 11 0;
#X connect 1 0 2 0;
#X connect 2 0 3 0;
#X connect 3 0 13 0;
#X connect 4 1 6 1;
#X connect 5 0 6 0;
#X connect 5 1 7 0;
#X connect 6 0 21 0;
#X connect 6 0 30 0;
#X connect 7 0 4 0;
#X connect 9 0 10 0;
#X connect 9 0 12 0;
#X connect 10 0 19 0;
#X connect 11 0 13 0;
#X connect 11 1 13 0;
#X connect 12 0 8 0;
#X connect 13 0 5 0;
#X connect 13 0 15 0;
#X connect 14 0 16 0;
#X connect 15 0 17 0;
#X connect 16 0 13 0;
#X connect 16 1 15 1;
#X connect 18 0 14 0;
#X connect 21 0 29 0;
#X connect 22 0 21 1;
#X connect 23 0 25 0;
#X connect 24 0 23 0;
#X connect 25 0 9 0;
#X connect 26 0 22 0;
#X connect 27 0 29 1;
#X connect 28 0 27 0;
#X connect 29 0 24 0;
#X connect 30 0 31 0;
#X connect 31 0 33 0;
#X connect 31 0 36 0;
#X connect 32 0 30 0;
#X connect 32 1 31 1;
#X connect 34 0 32 0;
#X connect 35 0 34 0;
#X restore 184 778 pd acum-symbols;
#X msg 271 758 set;
#X obj 684 758 rtc/collect;
#N canvas 263 23 365 855 acum-symbols 0;
#X obj -14 0 inlet;
#X obj -44 696 outlet;
#X msg -44 80 1.17386 2.44633 5.68548 0.130056;
#X obj 146 4 inlet;
#X obj 146 25 t b;
#X msg 146 46 set;
#X obj -44 30 t b a;
#X obj -17 349 list-minmax;
#X obj -44 309 t a a;
#X obj -44 366 list-math /;
#X obj -17 329 list-math abs;
#X obj -44 596 s2l;
#X obj -44 616 prepend 0;
#X obj -44 676 list trim;
#X floatatom 174 231 5 0 0 0 - - -;
#X obj 156 270 list-idx;
#X obj 174 250 t b f;
#X floatatom 156 289 5 0 0 0 - - mean-feature-y;
#X obj 174 210 r plot-mean;
#X obj -44 495 list-math *;
#X msg 19 471 4;
#X obj -44 555 l2s;
#X obj -44 535 list;
#X symbolatom -44 575 10 0 0 0 - - -;
#X obj 19 451 loadbang;
#X msg 59 491 4;
#X obj 59 471 loadbang;
#X obj -44 515 list-math -;
#X obj -44 636 s norm_feature_4;
#X obj -44 656 table norm_feature_4;
#X obj 173 407 list;
#X obj 173 427 list-idx;
#X obj 173 387 t b f;
#X floatatom 173 448 5 0 0 0 - - -;
#X floatatom 173 368 5 0 0 0 - - -;
#X obj 173 347 r hist_feat;
#X obj 213 447 s 4f;
#X connect 0 0 6 0;
#X connect 2 0 8 0;
#X connect 2 0 15 0;
#X connect 3 0 4 0;
#X connect 4 0 5 0;
#X connect 5 0 2 0;
#X connect 6 0 2 0;
#X connect 6 1 2 0;
#X connect 7 1 9 1;
#X connect 8 0 9 0;
#X connect 8 1 10 0;
#X connect 9 0 19 0;
#X connect 9 0 30 0;
#X connect 10 0 7 0;
#X connect 11 0 12 0;
#X connect 11 0 13 0;
#X connect 12 0 28 0;
#X connect 13 0 1 0;
#X connect 14 0 16 0;
#X connect 15 0 17 0;
#X connect 16 0 2 0;
#X connect 16 1 15 1;
#X connect 18 0 14 0;
#X connect 19 0 27 0;
#X connect 20 0 19 1;
#X connect 21 0 23 0;
#X connect 22 0 21 0;
#X connect 23 0 11 0;
#X connect 24 0 20 0;
#X connect 25 0 27 1;
#X connect 26 0 25 0;
#X connect 27 0 22 0;
#X connect 30 0 31 0;
#X connect 31 0 33 0;
#X connect 31 0 36 0;
#X connect 32 0 30 0;
#X connect 32 1 31 1;
#X connect 34 0 32 0;
#X connect 35 0 34 0;
#X restore 684 778 pd acum-symbols;
#X msg 771 741 set;
#X obj 278 16 t b f;
#X obj 784 6 t b b f;
#X obj 184 798 outlet;
#X obj 684 798 outlet;
#X obj 361 35 r pop1;
#X obj 861 35 r pop1;
#X msg 223 114 symbol \$1mixture_II;
#X msg 723 114 symbol \$1mixture_II;
#X obj 223 645 spigot;
#X obj 184 643 t b a;
#X obj 8 645 energyRMS;
#X obj 723 645 spigot;
#X obj 684 643 t b a;
#X obj 508 645 energyRMS;
#X obj 78 545 flatness-nrt-iii;
#X obj 578 545 flatness-nrt-iii;
#X obj 271 737 r set1;
#X obj 771 716 r set1;
#X obj 305 545 == 7;
#X obj 305 585 == 8;
#X obj 305 605 == 9;
#X obj 305 625 == 10;
#X obj 305 645 == 11;
#X obj 823 545 == 7;
#X obj 823 585 == 8;
#X obj 823 605 == 9;
#X obj 823 625 == 10;
#X msg 321 76 \; norm_feature_5 resize \$1;
#X obj 278 -4 r feat_5;
#X obj 184 702 statistics feature_5;
#X obj 784 -14 r feat_6;
#X msg 821 75 \; norm_feature_4 resize \$1;
#X obj 684 685 statistics feature_4;
#X obj 223 665 spigot;
#X obj 305 665 == 12;
#X obj 184 663 t b a;
#X obj 8 665 Tcentroidq 1mixture_II;
#X obj 723 665 spigot;
#X obj 823 665 == 12;
#X obj 684 663 t b a;
#X obj 508 665 Tcentroidq 1mixture_II;
#X obj 823 645 == 11;
#X obj 268 179 expr int($f1/1024);
#X msg 223 219 table \$1 0 feature_5 \$2 1024 1024;
#X obj 768 179 expr int($f1/1024);
#X msg 723 219 table \$1 0 feature_4 \$2 1024 1024;
#X connect 7 0 13 0;
#X connect 8 0 13 1;
#X connect 9 0 10 0;
#X connect 10 0 7 0;
#X connect 10 1 8 0;
#X connect 11 0 154 1;
#X connect 12 0 154 2;
#X connect 13 0 11 0;
#X connect 13 1 12 0;
#X connect 14 0 13 0;
#X connect 15 0 13 1;
#X connect 17 0 16 2;
#X connect 19 0 20 1;
#X connect 20 0 72 0;
#X connect 21 0 73 0;
#X connect 22 0 74 0;
#X connect 23 0 75 0;
#X connect 24 0 76 0;
#X connect 25 0 77 0;
#X connect 26 0 78 0;
#X connect 27 0 79 0;
#X connect 28 0 80 0;
#X connect 30 0 81 0;
#X connect 31 0 82 0;
#X connect 32 0 21 1;
#X connect 33 0 22 1;
#X connect 34 0 23 1;
#X connect 35 0 24 1;
#X connect 36 0 25 1;
#X connect 37 0 26 1;
#X connect 38 0 182 0;
#X connect 39 0 51 0;
#X connect 39 0 173 0;
#X connect 39 1 38 0;
#X connect 39 2 38 1;
#X connect 40 0 47 0;
#X connect 41 0 45 0;
#X connect 42 0 41 4;
#X connect 42 0 43 1;
#X connect 43 0 44 1;
#X connect 44 0 40 0;
#X connect 45 0 146 0;
#X connect 45 1 44 0;
#X connect 45 2 43 0;
#X connect 46 0 146 0;
#X connect 47 0 41 0;
#X connect 49 0 42 0;
#X connect 51 0 183 0;
#X connect 52 0 53 0;
#X connect 53 0 40 0;
#X connect 53 1 41 2;
#X connect 53 2 136 0;
#X connect 54 0 20 0;
#X connect 54 0 21 0;
#X connect 54 0 22 0;
#X connect 54 0 23 0;
#X connect 54 0 24 0;
#X connect 54 0 25 0;
#X connect 54 0 26 0;
#X connect 54 0 27 0;
#X connect 54 0 28 0;
#X connect 54 0 30 0;
#X connect 54 0 31 0;
#X connect 54 0 148 0;
#X connect 54 1 50 0;
#X connect 56 0 184 0;
#X connect 57 0 68 0;
#X connect 57 0 177 0;
#X connect 57 1 56 0;
#X connect 57 2 56 1;
#X connect 58 0 65 0;
#X connect 59 0 63 0;
#X connect 60 0 59 4;
#X connect 60 0 61 1;
#X connect 61 0 62 1;
#X connect 62 0 58 0;
#X connect 63 0 147 0;
#X connect 63 1 62 0;
#X connect 63 2 61 0;
#X connect 64 0 147 0;
#X connect 65 0 59 0;
#X connect 67 0 60 0;
#X connect 68 0 185 0;
#X connect 69 0 58 0;
#X connect 69 1 59 2;
#X connect 69 2 139 0;
#X connect 71 0 69 0;
#X connect 72 0 169 0;
#X connect 72 1 0 1;
#X connect 73 0 169 0;
#X connect 73 1 1 1;
#X connect 74 0 169 0;
#X connect 74 1 2 1;
#X connect 75 0 169 0;
#X connect 75 1 3 1;
#X connect 76 0 169 0;
#X connect 76 1 4 1;
#X connect 77 0 169 0;
#X connect 77 1 5 1;
#X connect 78 0 169 0;
#X connect 78 1 6 1;
#X connect 79 0 169 0;
#X connect 79 1 154 0;
#X connect 80 0 169 0;
#X connect 80 1 16 1;
#X connect 81 0 169 0;
#X connect 81 1 18 1;
#X connect 82 0 169 0;
#X connect 82 1 29 1;
#X connect 90 0 96 0;
#X connect 91 0 96 1;
#X connect 92 0 93 0;
#X connect 93 0 90 0;
#X connect 93 1 91 0;
#X connect 94 0 155 1;
#X connect 95 0 155 2;
#X connect 96 0 94 0;
#X connect 96 1 95 0;
#X connect 97 0 96 0;
#X connect 98 0 96 1;
#X connect 100 0 99 2;
#X connect 102 0 103 1;
#X connect 103 0 123 0;
#X connect 104 0 124 0;
#X connect 105 0 125 0;
#X connect 106 0 126 0;
#X connect 107 0 127 0;
#X connect 108 0 128 0;
#X connect 109 0 129 0;
#X connect 110 0 130 0;
#X connect 111 0 131 0;
#X connect 113 0 132 0;
#X connect 114 0 133 0;
#X connect 115 0 104 1;
#X connect 116 0 105 1;
#X connect 117 0 106 1;
#X connect 118 0 107 1;
#X connect 119 0 108 1;
#X connect 120 0 109 1;
#X connect 122 0 103 0;
#X connect 122 0 104 0;
#X connect 122 0 105 0;
#X connect 122 0 106 0;
#X connect 122 0 107 0;
#X connect 122 0 108 0;
#X connect 122 0 109 0;
#X connect 122 0 110 0;
#X connect 122 0 111 0;
#X connect 122 0 113 0;
#X connect 122 0 114 0;
#X connect 122 0 151 0;
#X connect 122 1 121 0;
#X connect 123 0 172 0;
#X connect 123 1 83 1;
#X connect 124 0 172 0;
#X connect 124 1 84 1;
#X connect 125 0 172 0;
#X connect 125 1 85 1;
#X connect 126 0 172 0;
#X connect 126 1 86 1;
#X connect 127 0 172 0;
#X connect 127 1 87 1;
#X connect 128 0 172 0;
#X connect 128 1 88 1;
#X connect 129 0 172 0;
#X connect 129 1 89 1;
#X connect 130 0 172 0;
#X connect 130 1 155 0;
#X connect 131 0 172 0;
#X connect 131 1 99 1;
#X connect 132 0 172 0;
#X connect 132 1 101 1;
#X connect 133 0 172 0;
#X connect 133 1 112 1;
#X connect 134 0 135 0;
#X connect 135 0 142 0;
#X connect 136 0 135 1;
#X connect 136 0 134 1;
#X connect 137 0 138 0;
#X connect 138 0 143 0;
#X connect 139 0 138 1;
#X connect 139 0 137 1;
#X connect 140 0 53 0;
#X connect 140 1 19 0;
#X connect 140 1 32 0;
#X connect 140 1 33 0;
#X connect 140 1 34 0;
#X connect 140 1 35 0;
#X connect 140 1 36 0;
#X connect 140 1 37 0;
#X connect 140 1 55 0;
#X connect 140 1 158 0;
#X connect 140 1 159 0;
#X connect 140 1 160 0;
#X connect 140 1 161 0;
#X connect 140 1 162 0;
#X connect 140 1 174 0;
#X connect 141 0 53 0;
#X connect 141 1 69 0;
#X connect 141 2 102 0;
#X connect 141 2 115 0;
#X connect 141 2 116 0;
#X connect 141 2 117 0;
#X connect 141 2 118 0;
#X connect 141 2 119 0;
#X connect 141 2 120 0;
#X connect 141 2 70 0;
#X connect 141 2 163 0;
#X connect 141 2 164 0;
#X connect 141 2 165 0;
#X connect 141 2 166 0;
#X connect 141 2 178 0;
#X connect 141 2 181 0;
#X connect 144 0 49 0;
#X connect 144 0 167 0;
#X connect 145 0 171 0;
#X connect 145 0 67 0;
#X connect 146 0 39 0;
#X connect 147 0 57 0;
#X connect 148 0 149 0;
#X connect 149 0 169 0;
#X connect 149 1 150 1;
#X connect 151 0 152 0;
#X connect 152 0 172 0;
#X connect 152 1 153 1;
#X connect 156 0 136 0;
#X connect 157 0 139 0;
#X connect 158 0 27 1;
#X connect 159 0 28 1;
#X connect 160 0 30 1;
#X connect 161 0 31 1;
#X connect 162 0 148 1;
#X connect 163 0 110 1;
#X connect 164 0 111 1;
#X connect 165 0 113 1;
#X connect 166 0 114 1;
#X connect 168 0 140 0;
#X connect 169 0 134 0;
#X connect 170 0 141 0;
#X connect 172 0 137 0;
#X connect 173 0 175 0;
#X connect 174 0 173 1;
#X connect 175 0 176 0;
#X connect 175 1 176 1;
#X connect 176 0 134 0;
#X connect 177 0 179 0;
#X connect 178 0 177 1;
#X connect 179 0 180 0;
#X connect 179 1 180 1;
#X connect 180 0 137 0;
#X connect 181 0 151 1;
#X connect 182 0 51 1;
#X connect 183 0 54 0;
#X connect 184 0 68 1;
#X connect 185 0 122 0;
