#N canvas 0 62 1012 718 10;
#X obj 267 61 inlet;
#X obj 117 589 outlet;
#X obj 449 60 inlet;
#X obj 361 45 inlet;
#X obj 560 65 inlet;
#X text 559 37 refresh;
#X text 362 25 add item;
#X text 249 39 get at index;
#N canvas 588 256 328 321 1008gui 0;
#X obj 304 3 vradio 17 1 0 1 1008sels1 1008selr1 empty 0 -6 0 8 -262144
-1 -1 0;
#X obj 3 3 cnv 16 317 17 empty 1008sel empty 4 9 0 7 -1 -262144 0;
#X text 21 20 NO ITEMS;
#X restore 758 76 pd \$0gui;
#X msg 474 296 clear;
#X msg 377 130 add \$1;
#N canvas 0 0 516 500 msgfile 0;
#X obj 154 261 msgfile;
#X msg 55 244 goto \$1 \, this;
#X obj 156 426 outlet;
#X obj 211 77 inlet;
#X obj 33 34 inlet;
#X obj 213 427 outlet;
#X connect 0 0 2 0;
#X connect 0 1 5 0;
#X connect 1 0 0 0;
#X connect 3 0 0 0;
#X connect 4 0 1 0;
#X restore 252 427 pd msgfile;
#X text 428 42 clear(new box name);
#X obj 448 92 route bang;
#X obj 483 164 t s b;
#X obj 446 450 msgfile;
#X obj 579 437 f;
#X obj 581 457 + 1;
#X obj 588 494 t f f;
#X msg 602 401 0;
#X obj 432 381 t a b;
#X msg 526 335 flush;
#N canvas 0 0 815 624 makegui 0;
#X text 239 257 h v send rcv empty;
#X msg 117 280 obj \$1 \$2 cnv 15 300 15 \$3 \$4 empty 2 8 0 7 -233017
-1;
#N canvas 0 0 454 304 enum 0;
#X obj 46 106 until;
#X obj 46 156 f;
#X obj 95 180 + 1;
#X obj 46 181 t f f;
#X msg 64 134 0;
#X obj 46 57 t f b f;
#X obj 46 20 inlet;
#X obj 44 212 outlet;
#X obj 45 38 route float;
#X connect 0 0 1 0;
#X connect 1 0 3 0;
#X connect 2 0 1 1;
#X connect 3 0 7 0;
#X connect 3 1 2 0;
#X connect 4 0 1 1;
#X connect 5 0 0 0;
#X connect 5 1 4 0;
#X connect 6 0 8 0;
#X connect 8 0 5 0;
#X restore 123 92 pd enum;
#X obj 564 369 makesymbol pd-%sgui;
#X obj 564 344 f \$0;
#X obj 398 540 send13;
#X msg 561 395 set \$1;
#X obj 256 197 makesymbol %sguis%s;
#X obj 428 198 makesymbol %sguir%s;
#X obj 117 253 pack f f s s;
#X obj 296 91 pack f \$0;
#X msg 296 116 \$2 \$1;
#X obj 292 150 t l l;
#X obj 353 399 pack f \$0;
#X obj 125 126 t f f f f b;
#X obj 126 67 t f f b;
#X obj 143 39 inlet;
#X obj 321 354 + 1;
#X obj 134 152 * 17;
#X obj 543 53 inlet;
#X msg 545 87 0;
#X obj 552 120 t f b;
#X msg 85 195 3;
#X obj 137 189 + 21;
#X msg 355 419 clear \, obj 304 3 vradio 17 1 0 \$1 \$2sels1 \$2selr1
empty 0 -6 0 8 -262144 -1 -1 0 \, obj 3 3 cnv 16 317 17 empty \$2sel
empty 4 9 0 7 -1 -262144 0 \, text 21 20 NO ITEMS;
#X connect 1 0 5 0;
#X connect 2 0 14 0;
#X connect 3 0 6 0;
#X connect 4 0 3 0;
#X connect 6 0 5 0;
#X connect 7 0 9 2;
#X connect 8 0 9 3;
#X connect 9 0 1 0;
#X connect 10 0 11 0;
#X connect 11 0 12 0;
#X connect 12 0 7 0;
#X connect 12 1 8 0;
#X connect 13 0 24 0;
#X connect 14 0 22 0;
#X connect 14 1 18 0;
#X connect 14 2 10 0;
#X connect 15 0 2 0;
#X connect 15 1 17 0;
#X connect 15 2 4 0;
#X connect 16 0 15 0;
#X connect 17 0 13 0;
#X connect 18 0 23 0;
#X connect 19 0 20 0;
#X connect 20 0 21 0;
#X connect 21 0 17 0;
#X connect 21 1 4 0;
#X connect 22 0 9 0;
#X connect 23 0 9 1;
#X connect 24 0 5 0;
#X restore 668 201 pd makegui;
#X obj 596 160 f;
#N canvas 0 0 466 316 putnames 0;
#X msg 202 54 -1;
#X msg 262 163 \$2 \$1;
#X obj 262 138 pack f \$0;
#X obj 262 112 unpack f s;
#X obj 263 213 pack s s;
#X msg 263 237 \; \$1 label \$2;
#X obj 262 188 makesymbol %sguir%s;
#X obj 107 92 stripdir;
#X obj 107 172 f;
#X obj 107 194 + 1;
#X obj 108 214 t f f;
#X obj 107 236 pack f s;
#X obj 114 144 t b s;
#N canvas 0 0 1008 686 replace_spaces 0;
#N canvas 0 0 466 316 l2s_fixed 0;
#X obj 130 188 l2s;
#X obj 140 261 spigot;
#X msg 210 198 1;
#X msg 127 234 0;
#X obj 132 209 t b a;
#X obj 142 71 inlet;
#X obj 154 285 outlet;
#X obj 140 120 t a b;
#X obj 251 79 inlet;
#X connect 0 0 4 0;
#X connect 1 0 6 0;
#X connect 2 0 1 1;
#X connect 3 0 1 1;
#X connect 4 0 3 0;
#X connect 4 1 1 0;
#X connect 5 0 7 0;
#X connect 7 0 0 0;
#X connect 7 1 2 0;
#X connect 8 0 0 1;
#X restore 101 168 pd l2s_fixed;
#X obj 98 107 s2l;
#X msg 157 146 symbol _;
#X obj 99 132 t a b;
#X obj 105 76 inlet;
#X obj 117 237 outlet;
#X connect 0 0 5 0;
#X connect 1 0 3 0;
#X connect 2 0 0 1;
#X connect 3 0 0 0;
#X connect 3 1 2 0;
#X connect 4 0 1 0;
#X restore 108 116 pd replace_spaces;
#X obj 85 21 inlet;
#X obj 236 9 inlet;
#X connect 0 0 8 1;
#X connect 1 0 6 0;
#X connect 2 0 1 0;
#X connect 3 0 2 0;
#X connect 3 1 4 1;
#X connect 4 0 5 0;
#X connect 6 0 4 0;
#X connect 7 0 13 0;
#X connect 8 0 9 0;
#X connect 9 0 10 0;
#X connect 10 0 11 0;
#X connect 10 1 8 1;
#X connect 11 0 3 0;
#X connect 12 0 8 0;
#X connect 12 1 11 1;
#X connect 13 0 12 0;
#X connect 14 0 7 0;
#X connect 15 0 0 0;
#X restore 450 508 pd putnames;
#X obj 411 592 outlet;
#X obj 265 94 route bang;
#X msg 543 289 0;
#X obj 247 283 + 1;
#X obj 270 346 s \$0selr1;
#X msg 653 312 label \$1;
#N canvas 0 0 1012 694 replace_spaces 0;
#N canvas 0 0 466 316 l2s_fixed 0;
#X obj 130 188 l2s;
#X obj 140 261 spigot;
#X msg 210 198 1;
#X msg 127 234 0;
#X obj 132 209 t b a;
#X obj 142 71 inlet;
#X obj 154 285 outlet;
#X obj 140 120 t a b;
#X obj 251 79 inlet;
#X connect 0 0 4 0;
#X connect 1 0 6 0;
#X connect 2 0 1 1;
#X connect 3 0 1 1;
#X connect 4 0 3 0;
#X connect 4 1 1 0;
#X connect 5 0 7 0;
#X connect 7 0 0 0;
#X connect 7 1 2 0;
#X connect 8 0 0 1;
#X restore 101 168 pd l2s_fixed;
#X obj 98 107 s2l;
#X msg 157 146 symbol _;
#X obj 99 132 t a b;
#X obj 105 76 inlet;
#X obj 117 237 outlet;
#X connect 0 0 5 0;
#X connect 1 0 3 0;
#X connect 2 0 0 1;
#X connect 3 0 0 0;
#X connect 3 1 2 0;
#X connect 4 0 1 0;
#X restore 653 289 pd replace_spaces;
#X obj 653 333 s \$0sel;
#X obj 653 266 symbol;
#X obj 545 128 t b b b;
#X msg 727 169 bang;
#X text 763 170 CLEAR IT;
#X obj 54 167 - 1;
#X obj 30 45 r \$0sels1;
#X obj 29 138 sel 0;
#X msg 23 167 1;
#X obj 288 119 moses 0;
#X obj 321 148 moses 0;
#X msg 361 305 bang;
#X msg 180 153 1;
#N canvas 0 0 462 312 show-hide 0;
#X obj 15 143 makesymbol pd-%sgui;
#X obj 16 171 pack s f;
#X msg 17 206 \; \$1 vis \$2;
#X obj 16 119 f \$0;
#X obj 15 87 t b f;
#X obj 27 44 inlet;
#X connect 0 0 1 0;
#X connect 1 0 2 0;
#X connect 3 0 0 0;
#X connect 4 0 3 0;
#X connect 4 1 1 1;
#X connect 5 0 4 0;
#X restore 177 181 pd show-hide;
#X obj 61 110 spigot;
#X obj 92 70 loadbang;
#X obj 92 90 f \$1;
#X msg 272 327 set \$1;
#X obj 247 307 t f f;
#X msg 93 167 0;
#X obj 30 83 t b f;
#X obj 86 137 delay 125;
#X connect 0 0 26 0;
#X connect 2 0 13 0;
#X connect 3 0 10 0;
#X connect 4 0 34 0;
#X connect 9 0 11 1;
#X connect 9 0 15 0;
#X connect 9 0 19 0;
#X connect 9 0 24 1;
#X connect 9 0 27 0;
#X connect 10 0 11 1;
#X connect 10 0 20 0;
#X connect 11 0 1 0;
#X connect 11 1 25 0;
#X connect 13 0 9 0;
#X connect 13 1 14 0;
#X connect 14 0 33 1;
#X connect 14 1 9 0;
#X connect 15 0 24 0;
#X connect 16 0 17 0;
#X connect 17 0 18 0;
#X connect 18 0 23 1;
#X connect 18 0 42 1;
#X connect 18 1 16 1;
#X connect 19 0 16 1;
#X connect 20 0 15 0;
#X connect 20 1 16 0;
#X connect 21 0 15 0;
#X connect 23 0 22 0;
#X connect 26 0 44 0;
#X connect 26 1 41 0;
#X connect 27 0 23 1;
#X connect 28 0 50 0;
#X connect 30 0 32 0;
#X connect 31 0 30 0;
#X connect 33 0 31 0;
#X connect 34 0 21 0;
#X connect 34 1 33 0;
#X connect 34 2 23 0;
#X connect 35 0 22 1;
#X connect 37 0 11 0;
#X connect 38 0 52 0;
#X connect 39 0 40 0;
#X connect 39 1 37 0;
#X connect 40 0 37 1;
#X connect 41 0 43 0;
#X connect 41 1 42 0;
#X connect 42 0 28 0;
#X connect 42 1 43 0;
#X connect 43 0 25 0;
#X connect 44 0 45 0;
#X connect 46 0 53 0;
#X connect 47 0 48 0;
#X connect 48 0 46 1;
#X connect 49 0 29 0;
#X connect 50 0 11 0;
#X connect 50 1 49 0;
#X connect 51 0 45 0;
#X connect 52 0 46 0;
#X connect 52 1 39 0;
#X connect 53 0 51 0;
