#N canvas 0 22 450 300 10;
#X obj 38 143 tof/pmenu;
#X obj 38 46 loadbang;
#X obj 38 119 inlet;
#X obj 38 244 outlet;
#X obj 38 184 list-idx;
#X obj 38 204 outlet;
#X obj 82 123 loadbang;
#X msg 82 163 0;
#N canvas 901 22 463 698 feature_4 0;
#X obj 23 -572 inlet;
#X obj 23 -47 symbol;
#X obj 23 -17 outlet;
#X obj 23 -551 list-idx;
#X msg 67 -572 0;
#X floatatom 23 -525 5 0 0 0 - - -;
#X obj 223 -438 t b;
#X obj 223 -418 t b;
#X obj 223 -398 t b;
#X msg 253 -438 5000;
#X msg 253 -418 5000;
#X msg 253 -398 10;
#X obj 223 -378 t b;
#X msg 253 -378 50;
#X obj 223 -358 t b;
#X obj 223 -338 t b;
#X msg 253 -338 1;
#X msg 253 -358 1.2;
#X obj 223 -318 t b;
#X msg 253 -318 10000;
#X obj 223 -225 t b;
#X obj 223 -205 t b;
#X msg 253 -205 5000;
#X msg 253 -225 1;
#X obj 223 -168 t b;
#X msg 253 -168 1;
#X obj 223 -148 t b;
#X msg 253 -148 10;
#X obj 223 -128 t b;
#X msg 253 -128 0.5;
#X obj 69 -527 s featnumber_4;
#X obj 253 -17 s scale_feature_4;
#X obj 23 -501 sel 0 1 2 3 4 5 6 7 8 9 10 11 12;
#X obj 223 -108 t b;
#X msg 253 -108 1;
#X msg 23 -438 4-Centroid_in_Hz;
#X msg 23 -418 4-SFspread_in_Hz;
#X msg 23 -398 4-SFskewness;
#X msg 23 -378 4-SFKurtosis;
#X msg 23 -358 4-SIrregularity;
#X msg 23 -338 4-SFlux;
#X msg 23 -318 4-Loudness;
#X msg 23 -225 4-Globa_Flatness;
#X msg 23 -205 4-Roll-Off;
#X msg 23 -168 4-SDecrease;
#X msg 23 -148 4-Odd_to_Even;
#X msg 23 -128 4-Energy_RMS;
#X msg 23 -108 4-TCentroid;
#X connect 0 0 3 0;
#X connect 1 0 2 0;
#X connect 3 0 5 0;
#X connect 4 0 3 1;
#X connect 5 0 30 0;
#X connect 5 0 32 0;
#X connect 6 0 9 0;
#X connect 7 0 10 0;
#X connect 8 0 11 0;
#X connect 9 0 31 0;
#X connect 10 0 31 0;
#X connect 11 0 31 0;
#X connect 12 0 13 0;
#X connect 13 0 31 0;
#X connect 14 0 17 0;
#X connect 15 0 16 0;
#X connect 16 0 31 0;
#X connect 17 0 31 0;
#X connect 18 0 19 0;
#X connect 19 0 31 0;
#X connect 20 0 23 0;
#X connect 21 0 22 0;
#X connect 22 0 31 0;
#X connect 23 0 31 0;
#X connect 24 0 25 0;
#X connect 25 0 31 0;
#X connect 26 0 27 0;
#X connect 27 0 31 0;
#X connect 28 0 29 0;
#X connect 29 0 31 0;
#X connect 32 0 35 0;
#X connect 32 1 36 0;
#X connect 32 2 37 0;
#X connect 32 3 38 0;
#X connect 32 4 39 0;
#X connect 32 5 40 0;
#X connect 32 6 41 0;
#X connect 32 7 42 0;
#X connect 32 8 43 0;
#X connect 32 9 44 0;
#X connect 32 10 45 0;
#X connect 32 11 46 0;
#X connect 32 12 47 0;
#X connect 33 0 34 0;
#X connect 34 0 31 0;
#X connect 35 0 1 0;
#X connect 35 0 6 0;
#X connect 36 0 1 0;
#X connect 36 0 7 0;
#X connect 37 0 8 0;
#X connect 37 0 1 0;
#X connect 38 0 12 0;
#X connect 38 0 1 0;
#X connect 39 0 14 0;
#X connect 39 0 1 0;
#X connect 40 0 15 0;
#X connect 40 0 1 0;
#X connect 41 0 18 0;
#X connect 41 0 1 0;
#X connect 42 0 20 0;
#X connect 42 0 1 0;
#X connect 43 0 21 0;
#X connect 43 0 1 0;
#X connect 44 0 24 0;
#X connect 44 0 1 0;
#X connect 45 0 26 0;
#X connect 45 0 1 0;
#X connect 46 0 28 0;
#X connect 46 0 1 0;
#X connect 47 0 33 0;
#X connect 47 0 1 0;
#X restore 38 224 pd feature_4;
#X msg 38 73 add Centroid_in_Hz SFspread SFskewness SFKurtosis SIrregularity
Sflux Loudness Global_Flatness Roll-Off SDecrease Odd_to_Even Energy_RMS
Temporal_Centroid;
#X connect 0 0 8 0;
#X connect 0 0 4 0;
#X connect 1 0 9 0;
#X connect 2 0 0 0;
#X connect 4 0 5 0;
#X connect 6 0 7 0;
#X connect 7 0 4 1;
#X connect 8 0 3 0;
#X connect 9 0 0 0;
