#N canvas 715 22 459 257 10;
#X obj 28 117 tof/pmenu;
#X obj 28 31 loadbang;
#X obj 28 97 inlet;
#X obj 28 218 outlet;
#N canvas 0 22 671 735 feature_1 0;
#X obj 21 17 inlet;
#X obj 21 542 symbol;
#X obj 21 572 outlet;
#X obj 251 542 s scale_feature_1;
#X obj 21 38 list-idx;
#X msg 65 17 0;
#X floatatom 21 64 5 0 0 0 - - -;
#X obj 221 151 t b;
#X obj 67 62 s featnumber_1;
#X obj 221 171 t b;
#X obj 221 191 t b;
#X msg 251 151 5000;
#X msg 251 171 5000;
#X msg 251 190 10;
#X obj 221 211 t b;
#X msg 251 210 50;
#X msg 21 151 1-Centroid_in_Hz;
#X msg 21 171 1-Spread_in_Hz;
#X msg 21 191 1-Skewness_in_Hz;
#X msg 21 211 1-Kurtosis_in_Hz;
#X obj 221 231 t b;
#X msg 21 231 1-SIrregularity;
#X obj 221 251 t b;
#X msg 251 250 1;
#X msg 21 251 1-SFlux;
#X msg 251 230 1.2;
#X msg 21 271 1-Loudness;
#X obj 221 271 t b;
#X msg 251 270 10000;
#X obj 221 366 t b;
#X obj 221 386 t b;
#X msg 21 386 1-Roll-Off;
#X msg 251 385 5000;
#X msg 21 366 1-Global_Flatness;
#X msg 251 365 1;
#X obj 221 421 t b;
#X msg 21 421 1-Sdecrease;
#X msg 251 421 1;
#X obj 221 441 t b;
#X msg 21 441 1-Odd_to_Even;
#X msg 251 441 10;
#X obj 221 461 t b;
#X msg 21 461 1-Energy_RMS;
#X msg 251 461 0.5;
#X obj 221 481 t b;
#X msg 251 481 1;
#X obj 21 88 sel 0 1 2 3 4 5 6 7 8 9 10 11 12;
#X msg 21 481 1-TCentroid;
#X connect 0 0 4 0;
#X connect 1 0 2 0;
#X connect 4 0 6 0;
#X connect 5 0 4 1;
#X connect 6 0 8 0;
#X connect 6 0 46 0;
#X connect 7 0 11 0;
#X connect 9 0 12 0;
#X connect 10 0 13 0;
#X connect 11 0 3 0;
#X connect 12 0 3 0;
#X connect 13 0 3 0;
#X connect 14 0 15 0;
#X connect 15 0 3 0;
#X connect 16 0 1 0;
#X connect 16 0 7 0;
#X connect 17 0 1 0;
#X connect 17 0 9 0;
#X connect 18 0 10 0;
#X connect 18 0 1 0;
#X connect 19 0 14 0;
#X connect 19 0 1 0;
#X connect 20 0 25 0;
#X connect 21 0 20 0;
#X connect 21 0 1 0;
#X connect 22 0 23 0;
#X connect 23 0 3 0;
#X connect 24 0 22 0;
#X connect 24 0 1 0;
#X connect 25 0 3 0;
#X connect 26 0 27 0;
#X connect 26 0 1 0;
#X connect 27 0 28 0;
#X connect 28 0 3 0;
#X connect 29 0 34 0;
#X connect 30 0 32 0;
#X connect 31 0 30 0;
#X connect 31 0 1 0;
#X connect 32 0 3 0;
#X connect 33 0 29 0;
#X connect 33 0 1 0;
#X connect 34 0 3 0;
#X connect 35 0 37 0;
#X connect 36 0 35 0;
#X connect 36 0 1 0;
#X connect 37 0 3 0;
#X connect 38 0 40 0;
#X connect 39 0 38 0;
#X connect 39 0 1 0;
#X connect 40 0 3 0;
#X connect 41 0 43 0;
#X connect 42 0 41 0;
#X connect 42 0 1 0;
#X connect 43 0 3 0;
#X connect 44 0 45 0;
#X connect 45 0 3 0;
#X connect 46 0 16 0;
#X connect 46 1 17 0;
#X connect 46 2 18 0;
#X connect 46 3 19 0;
#X connect 46 4 21 0;
#X connect 46 5 24 0;
#X connect 46 6 26 0;
#X connect 46 7 33 0;
#X connect 46 8 31 0;
#X connect 46 9 36 0;
#X connect 46 10 39 0;
#X connect 46 11 42 0;
#X connect 46 12 47 0;
#X connect 47 0 44 0;
#X connect 47 0 1 0;
#X restore 28 198 pd feature_1;
#X obj 72 97 loadbang;
#X obj 28 158 list-idx;
#X obj 28 178 outlet;
#X msg 72 137 0;
#X msg 28 51 add Centroid_in_Hz SFspread SFskewness SFKurtosis SIrregularity
SFlux Loudness Global_Flatness Roll-Off SDecrease Odd_to_Even Energy_RMS
Temporal_Centroid;
#X connect 0 0 4 0;
#X connect 0 0 6 0;
#X connect 1 0 9 0;
#X connect 2 0 0 0;
#X connect 4 0 3 0;
#X connect 5 0 8 0;
#X connect 6 0 7 0;
#X connect 8 0 6 1;
#X connect 9 0 0 0;
