#N canvas 969 22 459 257 10;
#X obj 28 133 tof/pmenu;
#X obj 28 36 loadbang;
#X obj 28 109 inlet;
#X obj 28 234 outlet;
#N canvas 901 22 463 698 feature_2 0;
#X obj 23 -572 inlet;
#X obj 23 -47 symbol;
#X obj 23 -17 outlet;
#X obj 23 -551 list-idx;
#X msg 67 -572 0;
#X floatatom 23 -525 5 0 0 0 - - -;
#X obj 223 -438 t b;
#X obj 223 -418 t b;
#X obj 69 -527 s featnumber_2;
#X obj 253 -17 s scale_feature_2;
#X obj 223 -398 t b;
#X msg 253 -438 5000;
#X msg 253 -418 5000;
#X msg 253 -398 10;
#X obj 223 -378 t b;
#X msg 253 -378 50;
#X msg 23 -438 2-Centroid_in_Hz;
#X msg 23 -418 2-SFspread_in_Hz;
#X msg 23 -398 2-SFskewness;
#X msg 23 -378 2-SFKurtosis;
#X obj 223 -358 t b;
#X msg 23 -358 2-SIrregularity;
#X obj 223 -338 t b;
#X msg 253 -338 1;
#X msg 23 -338 2-SFlux;
#X msg 253 -358 1.2;
#X obj 223 -318 t b;
#X msg 23 -318 2-Loudness;
#X msg 253 -318 10000;
#X obj 223 -225 t b;
#X obj 223 -205 t b;
#X msg 253 -205 5000;
#X msg 23 -225 2-Globa_Flatness;
#X msg 23 -205 2-Roll-Off;
#X msg 253 -225 1;
#X obj 223 -168 t b;
#X msg 23 -168 2-SDecrease;
#X msg 253 -168 1;
#X obj 223 -148 t b;
#X msg 23 -148 2-Odd_to_Even;
#X msg 253 -148 10;
#X obj 223 -128 t b;
#X msg 23 -128 2-Energy_RMS;
#X msg 253 -128 0.5;
#X obj 223 -108 t b;
#X obj 23 -501 sel 0 1 2 3 4 5 6 7 8 9 10 11 12;
#X msg 253 -108 1;
#X msg 23 -108 2-TCentroid;
#X connect 0 0 3 0;
#X connect 1 0 2 0;
#X connect 3 0 5 0;
#X connect 4 0 3 1;
#X connect 5 0 8 0;
#X connect 5 0 45 0;
#X connect 6 0 11 0;
#X connect 7 0 12 0;
#X connect 10 0 13 0;
#X connect 11 0 9 0;
#X connect 12 0 9 0;
#X connect 13 0 9 0;
#X connect 14 0 15 0;
#X connect 15 0 9 0;
#X connect 16 0 1 0;
#X connect 16 0 6 0;
#X connect 17 0 1 0;
#X connect 17 0 7 0;
#X connect 18 0 10 0;
#X connect 18 0 1 0;
#X connect 19 0 14 0;
#X connect 19 0 1 0;
#X connect 20 0 25 0;
#X connect 21 0 20 0;
#X connect 21 0 1 0;
#X connect 22 0 23 0;
#X connect 23 0 9 0;
#X connect 24 0 22 0;
#X connect 24 0 1 0;
#X connect 25 0 9 0;
#X connect 26 0 28 0;
#X connect 27 0 26 0;
#X connect 27 0 1 0;
#X connect 28 0 9 0;
#X connect 29 0 34 0;
#X connect 30 0 31 0;
#X connect 31 0 9 0;
#X connect 32 0 29 0;
#X connect 32 0 1 0;
#X connect 33 0 30 0;
#X connect 33 0 1 0;
#X connect 34 0 9 0;
#X connect 35 0 37 0;
#X connect 36 0 35 0;
#X connect 36 0 1 0;
#X connect 37 0 9 0;
#X connect 38 0 40 0;
#X connect 39 0 38 0;
#X connect 39 0 1 0;
#X connect 40 0 9 0;
#X connect 41 0 43 0;
#X connect 42 0 41 0;
#X connect 42 0 1 0;
#X connect 43 0 9 0;
#X connect 44 0 46 0;
#X connect 45 0 16 0;
#X connect 45 1 17 0;
#X connect 45 2 18 0;
#X connect 45 3 19 0;
#X connect 45 4 21 0;
#X connect 45 5 24 0;
#X connect 45 6 27 0;
#X connect 45 7 32 0;
#X connect 45 8 33 0;
#X connect 45 9 36 0;
#X connect 45 10 39 0;
#X connect 45 11 42 0;
#X connect 45 12 47 0;
#X connect 46 0 9 0;
#X connect 47 0 44 0;
#X connect 47 0 1 0;
#X restore 28 214 pd feature_2;
#X obj 28 174 list-idx;
#X obj 28 194 outlet;
#X obj 72 113 loadbang;
#X msg 72 153 0;
#X msg 28 63 add Centroid_in_Hz SFspread SFskewness SFKurtosis SIrregularity
Sflux Loudness Global_Flatness Roll-Off SDecrease Odd_to_Even Energy_RMS
Temporal_Centroid;
#X connect 0 0 4 0;
#X connect 0 0 5 0;
#X connect 1 0 9 0;
#X connect 2 0 0 0;
#X connect 4 0 3 0;
#X connect 5 0 6 0;
#X connect 7 0 8 0;
#X connect 8 0 5 1;
#X connect 9 0 0 0;
