#N canvas 33 23 1012 710 10;
#X obj 142 12 inlet;
#X obj 237 428 tot .;
#X obj 629 298 loadbang;
#X obj 233 639 outlet;
#X obj 621 640 outlet;
#X msg 129 118 query set dir [tk_chooseDirectory] .:;
#X obj 129 140 tot .;
#X obj 238 481 route bang;
#X text 275 640 FILE NAME SYMBOL;
#X text 699 338 FILE SEARCH CRITERIA;
#X obj 10 171 route bang;
#X obj 237 357 pack f s s;
#X obj 265 271 makesymbol "%s";
#X msg 237 386 query set dir \$2 .: if .($dir != "" && ![catch .(glob
[file join $dir \$3].) res].) .(lindex $res \$1.);
#X obj 292 561 t b s;
#X obj 143 40 route panel criteria;
#X text 357 33 OPEN : folderspiller-help.pd for instructions.;
#X msg 10 209 directory can not be selected;
#X obj 10 238 print ERROR:folderspiller;
#X obj 222 578 s \$0next;
#X obj 145 287 r \$0next;
#X obj 163 353 f;
#X obj 163 374 + 1;
#X obj 163 405 t f f;
#X msg 206 316 -1;
#N canvas 0 0 458 308 l2s_fixed 0;
#X obj 130 188 l2s;
#X obj 140 261 spigot;
#X obj 158 148 t a b;
#X msg 183 170 1;
#X msg 127 234 0;
#X obj 132 209 t b a;
#X obj 161 101 inlet;
#X obj 154 285 outlet;
#X connect 0 0 5 0;
#X connect 1 0 7 0;
#X connect 2 0 0 0;
#X connect 2 1 3 0;
#X connect 3 0 1 1;
#X connect 4 0 1 1;
#X connect 5 0 4 0;
#X connect 5 1 1 0;
#X connect 6 0 2 0;
#X restore 293 515 pd l2s_fixed;
#N canvas 0 0 458 308 l2s_fixed 0;
#X obj 130 188 l2s;
#X obj 140 261 spigot;
#X obj 158 148 t a b;
#X msg 183 170 1;
#X msg 127 234 0;
#X obj 132 209 t b a;
#X obj 161 101 inlet;
#X obj 154 285 outlet;
#X connect 0 0 5 0;
#X connect 1 0 7 0;
#X connect 2 0 0 0;
#X connect 2 1 3 0;
#X connect 3 0 1 1;
#X connect 4 0 1 1;
#X connect 5 0 4 0;
#X connect 5 1 1 0;
#X connect 6 0 2 0;
#X restore 265 186 pd l2s_fixed;
#X obj 629 339 symbol *.*;
#X obj 421 640 outlet;
#X text 663 640 FINISHED;
#X text 463 638 STARTED;
#X obj 265 229 t s s;
#X obj 264 295 t b a;
#X connect 0 0 15 0;
#X connect 1 0 7 0;
#X connect 2 0 27 0;
#X connect 5 0 6 0;
#X connect 6 0 10 0;
#X connect 7 0 4 0;
#X connect 7 1 25 0;
#X connect 10 0 17 0;
#X connect 10 1 26 0;
#X connect 11 0 13 0;
#X connect 12 0 32 0;
#X connect 13 0 1 0;
#X connect 14 0 19 0;
#X connect 14 1 3 0;
#X connect 15 0 5 0;
#X connect 15 1 27 0;
#X connect 15 2 26 0;
#X connect 17 0 18 0;
#X connect 20 0 21 0;
#X connect 21 0 22 0;
#X connect 22 0 23 0;
#X connect 23 0 11 0;
#X connect 23 1 21 1;
#X connect 24 0 21 0;
#X connect 25 0 14 0;
#X connect 26 0 31 0;
#X connect 27 0 11 2;
#X connect 31 0 12 0;
#X connect 31 1 28 0;
#X connect 32 0 24 0;
#X connect 32 1 11 1;
