#N canvas 767 22 671 856 10;
#X obj -15 78 repeat;
#X obj -15 18 bng 15 250 50 0 empty empty geração_espontânea 17
7 0 10 -262144 -1 -1;
#X floatatom 18 58 5 0 0 1 Indivíduos_em_cada_geração - -;
#N canvas 84 448 630 418 symbols 0;
#X obj 22 385 outlet;
#X symbolatom 22 5 80 0 0 1 accordion accordion_rdn -;
#X symbolatom 22 25 80 0 0 1 Bass-Tuba Bass-Tuba_rdn -;
#X symbolatom 22 45 80 0 0 1 Bassoon Bassoon_rdn -;
#X symbolatom 22 65 80 0 0 1 Bb-Clarinet Bb-Clarinet_rdn -;
#X symbolatom 22 85 80 0 0 1 Bass-Clarinet Bass-Clarinet -;
#X symbolatom 22 105 80 0 0 1 Trumpet C-Trumpet_rdn -;
#X symbolatom 22 125 80 0 0 1 Contrabass Contrabass_rdn -;
#X symbolatom 22 145 80 0 0 1 Eb-Alto-Saxophone Eb-Alto-Saxophone_rdn
-;
#X symbolatom 22 165 80 0 0 1 Flute Flute_rdn -;
#X symbolatom 22 185 80 0 0 1 Guitar Guitar_rdn -;
#X symbolatom 22 205 80 0 0 1 Harp Harp_rdn -;
#X symbolatom 22 225 80 0 0 1 Horn Horn_rdn -;
#X symbolatom 22 245 80 0 0 1 Oboe Oboe_rdn -;
#X symbolatom 22 265 80 0 0 1 Trombone Trombone_rdn -;
#X symbolatom 22 285 80 0 0 1 Viola Viola_rdn -;
#X symbolatom 22 305 80 0 0 1 Violin Violin_rdn -;
#X symbolatom 22 325 80 0 0 1 Violoncello Violoncello_rdn -;
#X symbolatom 22 345 80 0 0 1 Percussion Percussion_rdn -;
#X symbolatom 22 365 80 0 0 1 Piano Piano_rdn -;
#X connect 1 0 0 0;
#X connect 2 0 0 0;
#X connect 3 0 0 0;
#X connect 4 0 0 0;
#X connect 5 0 0 0;
#X connect 6 0 0 0;
#X connect 7 0 0 0;
#X connect 8 0 0 0;
#X connect 9 0 0 0;
#X connect 10 0 0 0;
#X connect 11 0 0 0;
#X connect 12 0 0 0;
#X connect 13 0 0 0;
#X connect 14 0 0 0;
#X connect 15 0 0 0;
#X connect 16 0 0 0;
#X connect 17 0 0 0;
#X connect 18 0 0 0;
#X connect 19 0 0 0;
#X restore -15 142 pd symbols;
#X obj 4 119 s gen_rdn;
#X obj -15 162 rtc/collect;
#N canvas 14 22 478 343 acum-symbols 0;
#X obj -14 0 inlet;
#X obj 386 259 outlet;
#X msg -14 80;
#X obj 146 4 inlet;
#X obj 146 25 t b;
#X msg 146 46 set;
#X connect 0 0 2 0;
#X connect 2 0 1 0;
#X connect 3 0 4 0;
#X connect 4 0 5 0;
#X connect 5 0 2 0;
#X restore -15 182 pd acum-symbols;
#X obj -15 201 list2symbol;
#N canvas 0 408 507 453 acum-symbols 0;
#X obj -14 2 inlet;
#X obj 386 259 outlet;
#X msg -14 55;
#X obj 82 2 inlet;
#X obj 156 2 r pop-mut;
#X obj 225 26 s tab_mixture;
#X obj 325 26 s chroma-test;
#X obj 362 70 s pop-descriptors;
#X obj 362 100 s pop-descriptors-set;
#X connect 0 0 2 0;
#X connect 0 0 5 0;
#X connect 0 0 6 0;
#X connect 0 0 7 0;
#X connect 2 0 1 0;
#X connect 3 0 2 0;
#X connect 3 0 5 0;
#X connect 3 0 8 0;
#X connect 4 0 2 0;
#X restore -15 282 pd acum-symbols;
#X symbolatom -15 242 10 0 0 0 - - -;
#X msg -15 262 add2 \$1;
#X msg 111 162 set;
#X obj -15 221 t a b;
#X msg 82 122 set;
#X obj 82 102 r ldbng;
#X obj -15 98 t b b b;
#X obj 82 282 s ind-geracao;
#X obj 27 78 s pop;
#X obj -15 342 s2l;
#X obj 378 254 rtc/collect;
#N canvas 854 22 583 856 collect 0;
#X obj 64 -1 inlet;
#X msg 99 88;
#X obj 64 279 outlet;
#X obj 114 -1 inlet;
#X obj 114 19 t b;
#X msg 114 41 set;
#X obj 153 41 s tab_analysis;
#X obj 44 39 t b a;
#X connect 0 0 6 0;
#X connect 0 0 7 0;
#X connect 1 0 2 0;
#X connect 3 0 4 0;
#X connect 4 0 5 0;
#X connect 5 0 1 0;
#X connect 5 0 6 0;
#X connect 7 0 1 0;
#X connect 7 1 1 0;
#X restore 378 274 pd collect;
#X msg 441 234 set;
#X obj -15 457 tgl 15 0 empty empty empty 17 7 0 10 -262144 -1 -1 0
1;
#X obj -15 494 counter;
#X obj -15 437 t b b;
#X floatatom 23 474 5 0 0 0 - - -;
#X obj 38 514 ==;
#X obj -15 534 spigot;
#X obj -15 514 t f b f;
#X floatatom 135 554 5 0 0 0 - - -;
#X obj -15 474 metro;
#X obj 23 434 r pop;
#X obj 23 454 - 1;
#X floatatom 483 274 5 0 0 1 percentage - -;
#X symbolatom 494 295 17 0 0 1 status - -;
#X obj 483 233 r perc;
#X obj 35 494 s status-chroma;
#X obj 67 78 s list_max-array;
#X floatatom 102 342 5 0 0 1 normalize - -;
#X msg 102 321 1;
#X obj 102 301 r ldbng;
#X obj 378 414 list-idx;
#X obj 378 434 rtc/collect;
#X msg 440 414 set;
#N canvas 995 22 407 841 acum-symbols 0;
#X obj -14 2 inlet;
#X obj 907 785 outlet;
#X msg -14 80;
#X obj 99 7 inlet;
#X obj -2 23 r pop-mut;
#X obj 0 46 r chroma-test;
#X msg 99 47 set;
#X obj 99 27 t b;
#X connect 0 0 2 0;
#X connect 2 0 1 0;
#X connect 3 0 7 0;
#X connect 4 0 2 0;
#X connect 5 0 2 0;
#X connect 6 0 2 0;
#X connect 7 0 6 0;
#X restore 378 394 pd acum-symbols;
#X obj 111 259 s clear_init;
#X obj 465 374 r clear_init;
#X obj 340 -27 inlet;
#X obj 289 -27 inlet;
#X obj -15 -32 inlet;
#X obj 19 -2 inlet;
#X obj 82 -8 t b;
#X obj 483 476 outlet;
#X obj 440 476 outlet;
#X obj 388 455 s tab-chroma-mixture;
#N canvas 561 88 637 812 chroma 0;
#X obj 215 100 tof/pmenu;
#X msg 215 80 add C C# D D# E F F# G G# A A# B;
#X obj 188 78 bng 15 250 50 0 empty empty empty 17 7 0 10 -262144 -1
-1;
#X obj 215 120 unpack f s;
#X msg 271 140 add2 \$1;
#X msg 271 160;
#X msg 331 140 set;
#X obj 215 260 list-replace;
#X floatatom 215 141 5 0 0 0 - - -;
#X obj 215 280 l2s;
#X symbolatom 215 300 31 0 0 0 - - -;
#X obj 215 320 s2l;
#X obj 284 220 t b;
#X obj 215 360 s const_2;
#X obj 215 340 prepend 0;
#X obj 215 60 r ldbng;
#X obj 331 120 r ldbng;
#X obj 275 360 s chroma_list;
#X symbolatom 271 200 31 0 0 0 - - -;
#X obj 271 180 l2s;
#X obj 215 163 t b f b;
#X obj 79 66 s perc;
#X floatatom 79 43 5 0 0 1 percentage - -;
#X msg 284 240 0 0 0 0 0 0 0 0 0 0 0 0;
#X msg 215 240 1;
#X obj 180 186 s find-chroma;
#X obj 36 10 inlet;
#X obj 215 20 inlet;
#X obj 381 120 r reset_pitch_sel;
#X obj 381 140 t b;
#X obj 215 387 sel 0 1 2 3 4 5 6 7 8 9 10 11;
#X obj 215 406 s C;
#X obj 243 446 s D;
#X obj 272 426 s E;
#X obj 286 446 s F;
#X obj 314 426 s G;
#X obj 343 406 s A;
#X obj 371 446 s B;
#X obj 229 426 s Cs;
#X obj 257 406 s Ds;
#X obj 300 406 s Fs;
#X obj 329 446 s Gs;
#X obj 357 426 s As;
#X msg 381 360 0;
#X obj 142 104 r pitch;
#X obj 142 124 t b b;
#X connect 0 0 3 0;
#X connect 1 0 0 0;
#X connect 2 0 0 0;
#X connect 3 0 8 0;
#X connect 3 1 4 0;
#X connect 4 0 5 0;
#X connect 5 0 19 0;
#X connect 6 0 5 0;
#X connect 6 0 12 0;
#X connect 7 0 9 0;
#X connect 8 0 20 0;
#X connect 8 0 25 0;
#X connect 8 0 30 0;
#X connect 9 0 10 0;
#X connect 10 0 11 0;
#X connect 11 0 7 2;
#X connect 11 0 14 0;
#X connect 12 0 23 0;
#X connect 14 0 13 0;
#X connect 14 0 17 0;
#X connect 15 0 1 0;
#X connect 16 0 6 0;
#X connect 19 0 18 0;
#X connect 20 0 24 0;
#X connect 20 1 7 1;
#X connect 20 2 5 0;
#X connect 22 0 21 0;
#X connect 23 0 7 2;
#X connect 24 0 7 0;
#X connect 26 0 22 0;
#X connect 27 0 0 0;
#X connect 28 0 29 0;
#X connect 29 0 6 0;
#X connect 29 0 43 0;
#X connect 30 0 31 0;
#X connect 30 1 38 0;
#X connect 30 2 32 0;
#X connect 30 3 39 0;
#X connect 30 4 33 0;
#X connect 30 5 34 0;
#X connect 30 6 40 0;
#X connect 30 7 35 0;
#X connect 30 8 41 0;
#X connect 30 9 36 0;
#X connect 30 10 42 0;
#X connect 30 11 37 0;
#X connect 43 0 31 0;
#X connect 43 0 38 0;
#X connect 43 0 32 0;
#X connect 43 0 39 0;
#X connect 43 0 33 0;
#X connect 43 0 34 0;
#X connect 43 0 40 0;
#X connect 43 0 35 0;
#X connect 43 0 41 0;
#X connect 43 0 36 0;
#X connect 43 0 42 0;
#X connect 43 0 37 0;
#X connect 45 0 8 0;
#X connect 45 1 8 0;
#X restore 289 -7 pd chroma;
#X obj -15 322 t b a;
#X obj 438 314 s t;
#N canvas 646 22 623 256 acum-s 0;
#X obj -14 2 inlet;
#X obj 366 130 outlet;
#X msg -14 130 /Users/ieysimurra/Desktop/sound_db2/Violoncello/ordinario/Vc-ord-G#2-mf-4c.aif /Users/ieysimurra/Desktop/sound_db2/Flute/flatterzunge/Fl-flatt-E6-ff.aif /Users/ieysimurra/Desktop/sound_db2/Bb-Clarinet/ordinario/BbCl-ord-A4-mf.aif
/Users/ieysimurra/Desktop/sound_db2/Violoncello/artificial-harmonic/Vc-art-harm-G5+-mf-2c.aif /Users/ieysimurra/Desktop/sound_db2/Flute/ordinario/Fl-ord-D5-mf.aif /Users/ieysimurra/Desktop/sound_db2/Bb-Clarinet/ordinario/BbCl-ord-C5-ff.aif
/Users/ieysimurra/Desktop/sound_db2/Violoncello/ordinario/Vc-ord-E5-ff-1c.aif /Users/ieysimurra/Desktop/sound_db2/Flute/flatterzunge/Fl-flatt-E6-ff.aif /Users/ieysimurra/Desktop/sound_db2/Bb-Clarinet/ordinario/BbCl-ord-A#3+-mf.aif
/Users/ieysimurra/Desktop/sound_db2/Violoncello/ordinario/Vc-ord-E2-pp-4c.aif /Users/ieysimurra/Desktop/sound_db2/Flute/ordinario/Fl-ord-C#5+-ff.aif /Users/ieysimurra/Desktop/sound_db2/Bb-Clarinet/ordinario/BbCl-ord-D#6+-mf.aif
;
#X obj 82 73 inlet;
#X obj 82 93 t b;
#X msg 82 113 set;
#X connect 0 0 2 0;
#X connect 2 0 1 0;
#X connect 3 0 4 0;
#X connect 4 0 5 0;
#X connect 5 0 2 0;
#X restore 378 476 pd acum-s;
#X obj 378 496 outlet;
#X obj 465 519 outlet;
#X obj -15 594 iHPCP12;
#X obj 24 694 tgl 15 0 empty empty on/off 17 7 0 10 -262144 -1 -1 1
1;
#X msg 24 733 normalize \$1;
#X obj 24 714 tgl 15 0 empty empty empty 17 7 0 10 -262144 -1 -1 1
1;
#X obj 24 654 loadbang;
#X msg 24 674 1;
#X msg 465 499 0;
#X obj 82 -28 r reset_pitch_sel;
#X obj 378 354 list-drip;
#X obj 438 354 list length;
#X obj 378 374 t b f;
#X msg 378 334 27 28 42 46;
#X obj 378 314 t b b a b;
#X obj 378 294 hpcp-constraints_2;
#X obj -15 301 list-drip;
#X obj 43 342 t b;
#X obj -15 38 t b b b b b;
#X obj 57 37 s reset_chroma_mixed_II;
#X msg -15 554 symbol \$1chroma_mixed_II;
#X obj 207 37 s reset_mixture_II;
#X obj 378 576 s tab_mixture_ii;
#X obj 398 556 s pop1;
#X obj 398 536 length;
#X obj 398 516 t a;
#X obj -15 372 play-analysis-chroma_maxt;
#X obj 68 514 s next;
#N canvas 547 194 196 239 chromagram 0;
#X obj 112 45 r next;
#X obj 34 29 inlet;
#N canvas 0 22 450 300 list 0;
#N canvas 0 22 199 262 drip 0;
#X obj 53 174 list split 1;
#X obj 53 91 until;
#X obj 53 129 list append;
#X obj 79 58 t b l;
#X obj 135 176 bang;
#X obj 79 31 inlet;
#X obj 53 199 outlet;
#X connect 0 0 6 0;
#X connect 0 1 2 1;
#X connect 0 2 4 0;
#X connect 1 0 2 0;
#X connect 2 0 0 0;
#X connect 3 0 1 0;
#X connect 3 1 2 1;
#X connect 4 0 1 1;
#X connect 5 0 3 0;
#X restore 152 84 pd drip;
#X obj 153 219 list prepend;
#X obj 251 219 t a;
#N canvas 0 22 450 300 dripslow 0;
#X obj 158 196 list split 1;
#X obj 158 171 list append;
#X obj 158 247 outlet;
#X obj 158 47 inlet;
#X obj 239 247 outlet;
#X obj 232 45 inlet;
#X obj 158 82 b;
#X text 275 46 list;
#X text 113 47 bang;
#X text 283 247 EOL;
#X text 99 246 element;
#X obj 239 217 b;
#X connect 0 0 2 0;
#X connect 0 1 1 1;
#X connect 0 2 11 0;
#X connect 1 0 0 0;
#X connect 3 0 6 0;
#X connect 5 0 1 1;
#X connect 6 0 1 0;
#X connect 11 0 4 0;
#X restore 205 141 pd dripslow;
#X obj 268 106 inlet;
#X obj 152 110 t f b;
#X obj 132 254 list;
#X obj 152 182 + 0;
#X obj 133 24 inlet;
#X obj 132 274 outlet;
#X obj 132 50 t b a b;
#X msg 167 157 0;
#X connect 0 0 5 0;
#X connect 1 0 2 0;
#X connect 1 0 6 1;
#X connect 2 0 1 1;
#X connect 3 0 7 1;
#X connect 4 0 3 1;
#X connect 5 0 7 0;
#X connect 5 1 3 0;
#X connect 6 0 9 0;
#X connect 7 0 1 0;
#X connect 8 0 10 0;
#X connect 10 0 6 0;
#X connect 10 1 0 0;
#X connect 10 2 1 1;
#X connect 10 2 11 0;
#X connect 11 0 7 1;
#X restore 34 76 pd list add;
#X obj 112 77 list;
#N canvas 0 22 579 459 list 0;
#X obj 138 130 route float;
#X obj 116 232 f;
#X obj 116 259 outlet;
#X obj 116 20 inlet;
#N canvas 0 22 450 300 once 0;
#X obj 110 75 inlet;
#X obj 105 187 spigot 1;
#X obj 110 104 t b f;
#X msg 125 151 0;
#X msg 165 99 1;
#X obj 165 63 inlet;
#X obj 102 219 outlet;
#X connect 0 0 2 0;
#X connect 1 0 6 0;
#X connect 2 0 3 0;
#X connect 2 1 1 0;
#X connect 3 0 1 1;
#X connect 4 0 1 1;
#X connect 5 0 4 0;
#X restore 204 158 pd once;
#X obj 177 199 f;
#X obj 146 198 max;
#X obj 116 40 t b a b;
#X text 331 193 prime [min] and [max] with first item once;
#X obj 138 160 t a a;
#N canvas 0 22 199 224 drip 0;
#X obj 53 174 list split 1;
#X obj 53 91 until;
#X obj 53 129 list append;
#X obj 79 58 t b l;
#X obj 135 176 bang;
#X obj 79 31 inlet;
#X obj 53 199 outlet;
#X connect 0 0 6 0;
#X connect 0 1 2 1;
#X connect 0 2 4 0;
#X connect 1 0 2 0;
#X connect 2 0 0 0;
#X connect 3 0 1 0;
#X connect 3 1 2 1;
#X connect 4 0 1 1;
#X connect 5 0 3 0;
#X restore 137 98 pd drip;
#X connect 0 0 9 0;
#X connect 1 0 2 0;
#X connect 3 0 7 0;
#X connect 4 0 6 1;
#X connect 5 0 6 1;
#X connect 6 0 5 0;
#X connect 6 0 1 1;
#X connect 7 0 1 0;
#X connect 7 1 10 0;
#X connect 7 2 4 1;
#X connect 9 0 6 0;
#X connect 9 1 4 0;
#X connect 10 0 0 0;
#X restore 90 125 pd list max;
#X obj 34 102 t l l;
#X obj 112 153 /;
#N canvas 381 107 467 423 list 0;
#X obj 96 43 inlet;
#X obj 285 62 inlet;
#X obj 161 362 outlet;
#X obj 180 258 outlet;
#X obj 161 327 list;
#X obj 285 225 list prepend;
#X obj 364 195 t a;
#X obj 161 165 t b a a b;
#X obj 96 68 route bang;
#X obj 96 93 b;
#X obj 161 94 t b a;
#X obj 161 134 list;
#N canvas 0 22 199 262 drip 0;
#X obj 53 174 list split 1;
#X obj 53 91 until;
#X obj 53 129 list append;
#X obj 79 58 t b l;
#X obj 135 176 bang;
#X obj 79 31 inlet;
#X obj 53 199 outlet;
#X connect 0 0 6 0;
#X connect 0 1 2 1;
#X connect 0 2 4 0;
#X connect 1 0 2 0;
#X connect 2 0 0 0;
#X connect 3 0 1 0;
#X connect 3 1 2 1;
#X connect 4 0 1 1;
#X connect 5 0 3 0;
#X restore 179 218 pd drip;
#X connect 0 0 8 0;
#X connect 1 0 5 0;
#X connect 4 0 2 0;
#X connect 5 0 6 0;
#X connect 5 0 4 1;
#X connect 6 0 5 1;
#X connect 7 0 4 0;
#X connect 7 1 12 0;
#X connect 7 2 4 1;
#X connect 7 3 5 1;
#X connect 8 0 9 0;
#X connect 8 1 10 0;
#X connect 9 0 11 0;
#X connect 10 0 11 0;
#X connect 10 1 11 1;
#X connect 11 0 7 0;
#X connect 12 0 3 0;
#X restore 35 155 pd list map;
#X obj 36 180 list prepend 0;
#X obj 36 220 outlet;
#X obj 36 200 l2s;
#X connect 0 0 3 0;
#X connect 1 0 2 0;
#X connect 2 0 3 0;
#X connect 2 0 5 0;
#X connect 3 0 2 1;
#X connect 4 0 6 1;
#X connect 5 0 7 0;
#X connect 5 1 4 0;
#X connect 6 0 7 1;
#X connect 7 0 8 0;
#X connect 7 1 6 0;
#X connect 8 0 10 0;
#X connect 10 0 9 0;
#X restore -15 614 pd chromagram;
#X obj 418 187 t b a b;
#X obj 378 187 t a b;
#X obj 533 253 t b f;
#X obj 483 253 t f;
#X msg -15 574 list \$1 8192 0 44100 0;
#X connect 0 0 15 0;
#X connect 1 0 77 0;
#X connect 2 0 0 1;
#X connect 2 0 17 0;
#X connect 2 0 37 0;
#X connect 3 0 5 0;
#X connect 5 0 6 0;
#X connect 6 0 7 0;
#X connect 7 0 12 0;
#X connect 8 0 75 0;
#X connect 9 0 10 0;
#X connect 10 0 8 0;
#X connect 10 0 16 0;
#X connect 11 0 8 1;
#X connect 11 0 16 0;
#X connect 11 0 45 0;
#X connect 11 0 20 1;
#X connect 11 0 76 0;
#X connect 12 0 9 0;
#X connect 13 0 5 1;
#X connect 13 0 6 1;
#X connect 14 0 13 0;
#X connect 14 0 11 0;
#X connect 15 0 6 0;
#X connect 15 1 4 0;
#X connect 15 2 13 0;
#X connect 18 0 85 0;
#X connect 19 0 20 0;
#X connect 20 0 74 0;
#X connect 21 0 19 1;
#X connect 22 0 30 0;
#X connect 22 0 36 0;
#X connect 23 0 28 0;
#X connect 24 0 22 0;
#X connect 24 1 23 2;
#X connect 25 0 23 4;
#X connect 25 0 26 1;
#X connect 26 0 27 1;
#X connect 27 0 22 0;
#X connect 28 0 79 0;
#X connect 28 1 27 0;
#X connect 28 1 86 0;
#X connect 28 2 26 0;
#X connect 29 0 79 0;
#X connect 30 0 23 0;
#X connect 31 0 32 0;
#X connect 32 0 25 0;
#X connect 33 0 74 1;
#X connect 35 0 91 0;
#X connect 35 0 90 0;
#X connect 38 0 85 2;
#X connect 39 0 38 0;
#X connect 40 0 39 0;
#X connect 41 0 42 0;
#X connect 42 0 54 0;
#X connect 42 0 58 0;
#X connect 43 0 42 1;
#X connect 43 0 53 0;
#X connect 44 0 41 0;
#X connect 46 0 44 1;
#X connect 47 0 55 1;
#X connect 48 0 55 0;
#X connect 49 0 77 0;
#X connect 50 0 2 0;
#X connect 51 0 13 0;
#X connect 51 0 11 0;
#X connect 56 0 38 0;
#X connect 56 1 18 0;
#X connect 58 0 59 0;
#X connect 58 0 81 0;
#X connect 58 0 84 0;
#X connect 61 0 87 0;
#X connect 62 0 61 1;
#X connect 63 0 61 1;
#X connect 64 0 63 0;
#X connect 65 0 66 0;
#X connect 66 0 62 0;
#X connect 66 0 64 0;
#X connect 67 0 60 0;
#X connect 68 0 51 0;
#X connect 69 0 71 0;
#X connect 70 0 60 0;
#X connect 71 0 44 0;
#X connect 71 1 41 1;
#X connect 72 0 70 0;
#X connect 72 0 69 0;
#X connect 73 0 58 0;
#X connect 73 1 72 0;
#X connect 73 2 57 0;
#X connect 73 2 72 0;
#X connect 73 3 67 0;
#X connect 73 3 43 0;
#X connect 73 3 58 1;
#X connect 74 0 73 0;
#X connect 74 1 34 0;
#X connect 74 1 52 0;
#X connect 75 0 56 0;
#X connect 76 0 85 1;
#X connect 77 0 24 0;
#X connect 77 1 8 0;
#X connect 77 2 0 0;
#X connect 77 3 11 0;
#X connect 77 4 78 0;
#X connect 77 4 80 0;
#X connect 79 0 92 0;
#X connect 83 0 82 0;
#X connect 84 0 83 0;
#X connect 87 0 89 0;
#X connect 88 0 19 0;
#X connect 88 1 19 0;
#X connect 88 2 21 0;
#X connect 89 0 19 0;
#X connect 89 1 21 0;
#X connect 91 0 33 0;
#X connect 92 0 61 0;
