#N canvas 796 22 625 856 10;
#X obj -13 149 s const_1;
#X obj -64 89 list-idx;
#X obj -63 -31 length;
#X obj -63 9 until;
#X obj -63 -11 t f;
#X obj -63 49 t b f;
#X obj -63 29 counter;
#N canvas 10 22 538 832 tab_loop 0;
#X obj 65 9 r tab_analysis;
#X msg 65 80;
#X obj 155 9 inlet;
#X obj 529 607 outlet;
#X connect 0 0 1 0;
#X connect 1 0 3 0;
#X connect 2 0 1 0;
#X restore -64 69 pd tab_loop;
#X obj 17 439 rtc/collect;
#X obj 17 519 s list_max;
#X obj 17 499 prepend 0;
#X obj -64 129 t b b b a;
#N canvas 823 22 611 403 list 0;
#X obj 117 5 inlet;
#X obj 483 370 outlet;
#X msg 117 45;
#X obj 117 25 t b a;
#X connect 0 0 3 0;
#X connect 2 0 1 0;
#X connect 3 0 2 0;
#X connect 3 1 2 0;
#X restore 17 459 pd list;
#X obj -63 -81 inlet;
#X msg 17 -58 set;
#X obj -255 -85 loadbang;
#X obj -255 -65 s ldbng;
#X obj -255 -45 r ldbng;
#X obj -64 189 iem_tab/tab_mul diff diff mul;
#X obj -64 209 iem_tab/tab_sqrt mul sqrt;
#X msg -255 -25 \; const_1 resize 12 \; const_2 resize 12 \; diff resize
12 \; mul resize 12 \; sqrt resize 12 \;;
#X obj 17 -81 r ldbng;
#X floatatom 123 412 5 0 0 0 - - -;
#X obj 98 -81 inlet;
#X obj 230 455 outlet;
#X obj 230 435 l2s;
#X msg 230 415 done!;
#X msg 272 415 in_progress;
#X obj 230 375 spigot;
#X obj 230 338 t b a;
#X obj 263 355 == 0;
#X obj 272 375 spigot;
#X obj 305 355 == 1;
#X obj -64 249 tabletool sqrt;
#X msg -64 229 dump;
#X obj 17 269 l2s;
#X symbolatom 17 289 31 0 0 0 - - -;
#X obj 17 308 s2l;
#X obj 17 419 list-idx;
#X obj 22 338 r find-chroma;
#X obj 230 318 r status-chroma;
#X obj 123 551 tabletool list_max;
#X obj 228 571 rtc/collect;
#X msg 291 551 set;
#X obj 230 395 t b b;
#X obj 185 611 outlet;
#X floatatom 22 359 5 0 0 0 - - -;
#X obj 291 511 r ldbng;
#X msg 291 591 set;
#X obj 272 395 t b b b;
#X floatatom -253 100 5 0 0 0 - - -;
#X obj -253 80 t f;
#X obj -253 60 r list_max-array;
#X msg 228 611;
#X obj -64 109 s2l;
#X msg -253 120 \; list_max resize \$1 \;;
#X obj 291 531 t b;
#X obj -63 -51 t a b;
#X obj 22 399 t b b f;
#X obj 96 392 t b f;
#X obj -64 169 iem_tab/tab_sub const_1 const_2 diff;
#X obj 123 470 + 1;
#X obj 123 450 * -10;
#X obj 123 490 t f;
#X floatatom 123 511 5 0 0 0 - - -;
#X obj 123 430 / 1000;
#X obj 173 430 / 100;
#X floatatom 173 450 5 0 0 0 - - -;
#X msg 123 531 less \$1;
#X connect 1 0 54 0;
#X connect 2 0 4 0;
#X connect 3 0 6 0;
#X connect 4 0 3 0;
#X connect 5 0 7 0;
#X connect 5 1 1 1;
#X connect 6 0 5 0;
#X connect 7 0 1 0;
#X connect 8 0 12 0;
#X connect 10 0 9 0;
#X connect 11 2 60 0;
#X connect 11 3 0 0;
#X connect 12 0 10 0;
#X connect 13 0 57 0;
#X connect 14 0 12 0;
#X connect 15 0 16 0;
#X connect 17 0 20 0;
#X connect 18 0 19 0;
#X connect 19 0 34 0;
#X connect 21 0 14 0;
#X connect 22 0 65 0;
#X connect 22 0 66 0;
#X connect 23 0 59 0;
#X connect 25 0 24 0;
#X connect 26 0 25 0;
#X connect 27 0 25 0;
#X connect 28 0 44 0;
#X connect 29 0 28 0;
#X connect 29 0 31 0;
#X connect 29 1 30 0;
#X connect 29 1 32 0;
#X connect 30 0 28 1;
#X connect 31 0 49 0;
#X connect 32 0 31 1;
#X connect 33 1 35 0;
#X connect 34 0 33 0;
#X connect 35 0 36 0;
#X connect 36 0 37 0;
#X connect 37 0 38 0;
#X connect 38 0 8 0;
#X connect 39 0 46 0;
#X connect 40 0 29 0;
#X connect 41 1 42 0;
#X connect 42 0 53 0;
#X connect 42 0 45 0;
#X connect 43 0 42 1;
#X connect 44 0 26 0;
#X connect 44 1 22 0;
#X connect 46 0 58 0;
#X connect 47 0 56 0;
#X connect 48 0 53 0;
#X connect 48 0 45 0;
#X connect 49 0 27 0;
#X connect 49 1 43 0;
#X connect 49 2 48 0;
#X connect 50 0 55 0;
#X connect 51 0 50 0;
#X connect 52 0 51 0;
#X connect 54 0 11 0;
#X connect 56 0 43 0;
#X connect 56 0 48 0;
#X connect 57 0 2 0;
#X connect 57 1 14 0;
#X connect 57 1 6 2;
#X connect 58 1 36 0;
#X connect 58 2 38 1;
#X connect 59 0 43 0;
#X connect 59 0 48 0;
#X connect 59 1 22 0;
#X connect 60 0 18 0;
#X connect 61 0 63 0;
#X connect 62 0 61 0;
#X connect 63 0 64 0;
#X connect 64 0 68 0;
#X connect 65 0 62 0;
#X connect 66 0 67 0;
#X connect 68 0 41 0;
