#N canvas 378 383 607 481 10;
#X obj 69 404 outlet;
#N canvas 249 115 167 320 normalize 0;
#X obj 52 -148 list split 1;
#X obj 86 -124 list;
#X obj 52 -85 max;
#X obj 52 -107 abs;
#X obj 80 -85 f;
#X msg 68 -169 0;
#X obj 35 -15 /;
#X obj 70 -35 list;
#X obj 33 48 t l b;
#X obj 35 -59 list split 1;
#X obj 35 7 list append;
#X obj 34 -192 t l l b;
#X obj 34 -215 inlet;
#X obj 33 70 outlet;
#X obj 33 28 list split 12;
#X connect 0 0 3 0;
#X connect 0 1 1 0;
#X connect 1 0 0 0;
#X connect 2 0 4 0;
#X connect 2 0 6 1;
#X connect 3 0 2 0;
#X connect 4 0 2 1;
#X connect 5 0 2 1;
#X connect 6 0 10 0;
#X connect 7 0 9 0;
#X connect 8 0 13 0;
#X connect 8 1 10 1;
#X connect 9 0 6 0;
#X connect 9 1 7 0;
#X connect 10 0 14 0;
#X connect 11 0 9 0;
#X connect 11 1 0 0;
#X connect 11 2 5 0;
#X connect 12 0 11 0;
#X connect 14 0 8 0;
#X connect 14 2 10 1;
#X restore 126 368 pd normalize;
#X obj 116 306 == 0;
#X obj 69 261 pack f f;
#X obj 282 134 switch~;
#X obj 346 116 loadbang;
#X obj 195 88 inlet;
#X floatatom 435 210 5 0 0 0 - - -;
#X obj 69 59 ftom;
#X obj 96 182 -;
#X obj 96 203 abs;
#X obj 69 105 t f f;
#X obj 35 34 unpack f f f;
#X obj 69 156 t f f;
#X obj 101 230 expr $f2*if($f1<=$f3 \, pow(cos(($f1/$f3)*1.57079) \,
2) \, 0);
#X obj 35 226 sel;
#X obj 346 165 - 1;
#X obj 69 339 spigot 1;
#X obj 127 342 spigot 0;
#X obj 195 110 route normalize;
#X obj 483 136 bng 15 250 50 0 empty empty empty 17 7 0 10 -262144
-1 -1;
#X obj 436 183 expr 0.5*pow(2 \, 2/12.0);
#N canvas 311 22 719 356 acum 1;
#X obj 200 43 route 0 1 2 3 4 5 6 7 8 9 10 11;
#X obj -33 212 +;
#X obj -8 211 f;
#X obj 22 212 +;
#X obj 47 211 f;
#X obj 82 212 +;
#X obj 110 212 f;
#X obj 142 210 +;
#X obj 171 209 f;
#X obj 200 12 inlet;
#X obj 452 -6 inlet;
#X msg 452 49 0;
#X obj 204 211 +;
#X obj 231 211 f;
#X obj 257 209 +;
#X obj 284 209 f;
#X obj 315 205 +;
#X obj 342 205 f;
#X obj 377 202 +;
#X obj 404 202 f;
#X obj 435 204 +;
#X obj 462 204 f;
#X obj 496 204 +;
#X obj 523 204 f;
#X obj 560 202 +;
#X obj 587 202 f;
#X obj 621 201 +;
#X obj 648 201 f;
#X obj 170 337 outlet;
#X obj 136 285 pack 0 f f f f f f f f f f f f;
#X obj 452 20 t b b;
#X obj 136 314 list split 1;
#X connect 0 0 1 0;
#X connect 0 1 3 0;
#X connect 0 2 5 0;
#X connect 0 3 7 0;
#X connect 0 4 12 0;
#X connect 0 5 14 0;
#X connect 0 6 16 0;
#X connect 0 7 18 0;
#X connect 0 8 20 0;
#X connect 0 9 22 0;
#X connect 0 10 24 0;
#X connect 0 11 26 0;
#X connect 1 0 2 0;
#X connect 1 0 29 1;
#X connect 2 0 1 1;
#X connect 3 0 4 0;
#X connect 3 0 29 2;
#X connect 4 0 3 1;
#X connect 5 0 6 0;
#X connect 5 0 29 3;
#X connect 6 0 5 1;
#X connect 7 0 8 0;
#X connect 7 0 29 4;
#X connect 8 0 7 1;
#X connect 9 0 0 0;
#X connect 10 0 30 0;
#X connect 11 0 1 1;
#X connect 11 0 3 1;
#X connect 11 0 5 1;
#X connect 11 0 7 1;
#X connect 11 0 12 1;
#X connect 11 0 14 1;
#X connect 11 0 16 1;
#X connect 11 0 18 1;
#X connect 11 0 20 1;
#X connect 11 0 22 1;
#X connect 11 0 24 1;
#X connect 11 0 26 1;
#X connect 12 0 13 0;
#X connect 12 0 29 5;
#X connect 13 0 12 1;
#X connect 14 0 15 0;
#X connect 14 0 29 6;
#X connect 15 0 14 1;
#X connect 16 0 17 0;
#X connect 16 0 29 7;
#X connect 17 0 16 1;
#X connect 18 0 19 0;
#X connect 18 0 29 8;
#X connect 19 0 18 1;
#X connect 20 0 21 0;
#X connect 20 0 29 9;
#X connect 21 0 20 1;
#X connect 22 0 23 0;
#X connect 22 0 29 10;
#X connect 23 0 22 1;
#X connect 24 0 25 0;
#X connect 24 0 29 11;
#X connect 25 0 24 1;
#X connect 26 0 27 0;
#X connect 26 0 29 12;
#X connect 27 0 26 1;
#X connect 29 0 31 0;
#X connect 30 0 11 0;
#X connect 30 1 29 0;
#X connect 31 1 28 0;
#X restore 69 285 pd acum;
#N canvas 0 22 230 281 fmod 0;
#X obj 62 46 inlet;
#X obj 62 265 outlet;
#X obj 92 132 int;
#X obj 62 106 t f f;
#X obj 62 158 -;
#X obj 62 185 moses 0;
#X obj 62 213 + 1;
#X obj 62 74 / 12;
#X obj 61 240 * 12;
#X connect 0 0 7 0;
#X connect 2 0 4 1;
#X connect 3 0 4 0;
#X connect 3 1 2 0;
#X connect 4 0 5 0;
#X connect 5 0 6 0;
#X connect 5 1 8 0;
#X connect 6 0 8 0;
#X connect 7 0 3 0;
#X connect 8 0 1 0;
#X restore 69 80 pd fmod 12;
#N canvas 138 107 450 300 quantize 0;
#X obj 170 172 / 2;
#X obj 139 202 >;
#X obj 57 219 +;
#X obj 57 246 *;
#X obj 207 202 t a;
#X obj 57 119 t a a;
#X obj 57 172 /;
#X obj 57 195 int;
#X obj 136 120 t a a a a;
#X obj 57 49 inlet;
#X obj 57 272 outlet;
#X obj 137 64 loadbang;
#X msg 137 87 1;
#X text 203 159 if remainder is > 1/2 \,;
#X text 204 173 quantize to next snappoint;
#X text 192 167 <;
#N canvas 0 22 230 281 fmod 0;
#X obj 62 46 inlet;
#X obj 62 265 outlet;
#X obj 120 46 inlet;
#X obj 62 74 / \$1;
#X obj 62 240 * \$1;
#X obj 92 132 int;
#X obj 62 106 t f f;
#X obj 62 158 -;
#X obj 62 185 moses 0;
#X obj 62 213 + 1;
#X connect 0 0 3 0;
#X connect 2 0 3 1;
#X connect 2 0 4 1;
#X connect 3 0 6 0;
#X connect 4 0 1 0;
#X connect 5 0 7 1;
#X connect 6 0 7 0;
#X connect 6 1 5 0;
#X connect 7 0 8 0;
#X connect 8 0 9 0;
#X connect 8 1 4 0;
#X connect 9 0 4 0;
#X restore 113 172 pd fmod;
#X connect 0 0 1 1;
#X connect 1 0 2 1;
#X connect 2 0 3 0;
#X connect 3 0 10 0;
#X connect 4 0 3 1;
#X connect 5 0 6 0;
#X connect 5 1 16 0;
#X connect 6 0 7 0;
#X connect 7 0 2 0;
#X connect 8 0 6 1;
#X connect 8 1 16 1;
#X connect 8 2 0 0;
#X connect 8 3 4 0;
#X connect 9 0 5 0;
#X connect 11 0 12 0;
#X connect 12 0 8 0;
#X connect 16 0 1 0;
#X restore 69 128 pd quantize 1;
#X obj 35 14 sigmund~ -t -maxfreq 5000 -npeak 20 peaks;
#X obj 35 -33 inlet;
#X obj 346 141 20;
#X connect 1 0 0 0;
#X connect 2 0 17 1;
#X connect 3 0 22 0;
#X connect 5 0 21 0;
#X connect 5 0 27 0;
#X connect 6 0 19 0;
#X connect 7 0 14 2;
#X connect 8 0 23 0;
#X connect 9 0 10 0;
#X connect 10 0 14 0;
#X connect 11 0 24 0;
#X connect 11 1 9 1;
#X connect 12 0 15 0;
#X connect 12 1 8 0;
#X connect 12 2 14 1;
#X connect 13 0 3 0;
#X connect 13 1 9 0;
#X connect 14 0 3 1;
#X connect 15 0 22 1;
#X connect 16 0 15 1;
#X connect 17 0 0 0;
#X connect 18 0 1 0;
#X connect 19 0 2 0;
#X connect 19 0 18 1;
#X connect 19 1 4 0;
#X connect 20 0 21 0;
#X connect 21 0 7 0;
#X connect 22 0 17 0;
#X connect 22 0 18 0;
#X connect 23 0 11 0;
#X connect 24 0 13 0;
#X connect 25 0 12 0;
#X connect 26 0 25 0;
#X connect 27 0 16 0;
