#N canvas 144 22 450 300 10;
#X obj 187 -2 / 1;
#X obj 72 -63 t b b;
#X obj 63 -116 bng 15 250 50 0 empty empty calc-media 17 7 0 10 -262144
-1 -1;
#X obj 50 -36 iem_tab/tab_sum \$1;
#X obj 234 -48 arraysize \$1;
#X obj 62 -146 inlet;
#X obj 183 55 outlet;
#X connect 0 0 6 0;
#X connect 1 0 3 0;
#X connect 1 1 4 0;
#X connect 2 0 1 0;
#X connect 3 1 0 0;
#X connect 4 0 0 1;
#X connect 5 0 2 0;
