#N canvas 837 501 587 358 10;
#X obj 2 -51 inlet;
#X obj 86 -58 inlet;
#X obj 155 -52 inlet;
#X obj 2 206 soundfiler;
#X obj 2 156 pack s f;
#X obj 2 30 counter;
#X floatatom 2 73 5 0 0 0 - - -;
#N canvas 601 135 427 301 calcula 1;
#X obj -26 131 inlet;
#X obj 23 22 inlet;
#X obj 51 62 f;
#X obj 157 23 inlet;
#X obj -41 154 f;
#X obj 233 23 inlet;
#X msg 192 70 0;
#X floatatom 23 120 11 0 0 0 - - -;
#X obj 58 238 list prepend 0;
#X msg 64 40 441000;
#X obj 51 82 t f;
#X obj 23 63 min;
#X obj -41 88 t b b;
#X obj 63 12 loadbang;
#X obj 192 176 / 44100;
#X obj 192 196 s total-duration-ms;
#X obj 192 156 t f;
#X floatatom 99 79 9 0 0 0 - - -;
#X obj 98 119 s mixed-size;
#X msg -41 190 add \$1mix;
#X msg 23 150 \; mixture_III resize \$1;
#X obj -41 218 tabletool mixture_III;
#X obj 58 258 s mixture_III;
#X msg 236 150 \; mixture_III normalize 1;
#X connect 0 0 4 1;
#X connect 1 0 11 0;
#X connect 1 0 12 0;
#X connect 1 0 17 0;
#X connect 2 0 10 0;
#X connect 3 0 6 0;
#X connect 3 0 9 0;
#X connect 4 0 19 0;
#X connect 5 0 23 0;
#X connect 6 0 7 0;
#X connect 6 0 16 0;
#X connect 7 0 20 0;
#X connect 7 0 16 0;
#X connect 8 0 22 0;
#X connect 9 0 11 1;
#X connect 10 0 11 1;
#X connect 11 0 2 0;
#X connect 11 0 7 0;
#X connect 11 0 18 0;
#X connect 12 0 4 0;
#X connect 12 1 4 0;
#X connect 13 0 9 0;
#X connect 14 0 15 0;
#X connect 16 0 14 0;
#X connect 19 0 21 0;
#X connect 21 1 8 0;
#X restore 44 257 pd calcula;
#X msg 82 212 0;
#X obj 2 98 t b f f f;
#N canvas 555 337 342 287 insere 0;
#X obj 41 81 f;
#X obj 72 82 + 20;
#X obj 39 192 pack f f f;
#X msg 134 50 0;
#X obj 39 130 mod 680;
#X obj 94 131 div 680;
#X obj 95 159 * 80;
#X obj 40 102 t f f;
#X obj 49 14 inlet;
#X obj 135 14 inlet;
#X msg 167 179 clear;
#X obj 48 50 t b b f;
#X msg 120 86 0;
#X msg 41 214 obj \$2 \$1 table \$3mix;
#X obj 37 245 s pd-pool_mix;
#X connect 0 0 1 0;
#X connect 0 0 7 0;
#X connect 1 0 0 1;
#X connect 2 0 13 0;
#X connect 3 0 0 1;
#X connect 4 0 2 0;
#X connect 5 0 6 0;
#X connect 6 0 2 1;
#X connect 7 0 4 0;
#X connect 7 1 5 0;
#X connect 8 0 11 0;
#X connect 9 0 3 0;
#X connect 9 0 10 0;
#X connect 10 0 14 0;
#X connect 11 0 0 0;
#X connect 11 1 12 0;
#X connect 11 2 2 2;
#X connect 13 0 14 0;
#X restore 67 129 pd insere;
#X obj 155 240 t f;
#X obj 206 29 symbol;
#X obj 21 -20 t b s;
#X symbolatom 217 68 0 0 0 0 - - -;
#X msg 12 180 read -resize \$1 \$2mix;
#X connect 0 0 13 0;
#X connect 1 0 8 0;
#X connect 1 0 10 1;
#X connect 1 0 5 2;
#X connect 2 0 11 0;
#X connect 3 0 7 1;
#X connect 4 0 15 0;
#X connect 5 0 6 0;
#X connect 6 0 9 0;
#X connect 8 0 7 2;
#X connect 9 0 12 0;
#X connect 9 1 4 1;
#X connect 9 2 7 0;
#X connect 9 3 10 0;
#X connect 11 0 7 3;
#X connect 12 0 14 0;
#X connect 13 0 5 0;
#X connect 13 1 12 1;
#X connect 14 0 4 0;
#X connect 15 0 3 0;
