#N canvas 144 506 587 358 10;
#X obj 2 -51 inlet;
#X obj 86 -58 inlet;
#X obj 155 -52 inlet;
#X obj 2 206 soundfiler;
#X obj 2 156 pack s f;
#X obj 2 30 counter;
#X floatatom 2 73 5 0 0 0 - - -;
#N canvas 157 22 492 534 calcula 0;
#X obj -26 131 inlet;
#X obj 23 22 inlet;
#X obj 51 62 f;
#X obj 157 23 inlet;
#X obj -41 154 f;
#X obj 236 23 inlet;
#X msg 192 70 0;
#X floatatom 23 120 11 0 0 0 - - -;
#X obj 88 418 list prepend 0;
#X msg 64 40 441000;
#X obj 51 82 t f;
#X obj -41 88 t b b;
#X obj 63 12 loadbang;
#X obj 192 186 / 44100;
#X obj 192 206 s total-duration-ms;
#X obj 192 166 t f;
#X floatatom 99 79 9 0 0 0 - - -;
#X obj 98 119 s mixed-size;
#X msg -41 378 add \$1chroma;
#X msg 23 150 \; chroma_mixed resize \$1;
#X obj -41 398 tabletool chroma_mixed;
#X msg 236 150 \; chroma_mixed normalize \$1;
#X obj 231 341 f;
#X obj 262 342 + 20;
#X obj 229 452 pack f f f;
#X msg 324 310 0;
#X obj 229 390 mod 680;
#X obj 284 391 div 680;
#X obj 285 419 * 80;
#X obj 230 362 t f f;
#X msg 327 449 clear;
#X obj 238 310 t b b f;
#X msg 310 346 0;
#X obj 238 261 bng 15 250 50 0 empty empty empty 17 7 0 10 -262144
-1 -1;
#X obj 238 286 counter;
#X obj 229 494 s pd-pool_chroma_mixture;
#X msg 229 474 obj \$2 \$1 table \$3chroma_mixed_II;
#X obj 88 498 s;
#X msg 104 458 \$1chroma_mixed_II;
#X obj 103 478 l2s;
#X obj 23 244 pack f f;
#X obj 23 185 t b f;
#X floatatom 23 205 5 0 0 0 - - -;
#X obj 286 23 inlet;
#X obj 294 229 r reset_chroma_mixed_II;
#X obj 294 249 t b;
#X obj 259 258 bng 15 250 50 0 empty empty empty 17 7 0 10 -262144
-1 -1;
#X obj 88 438 s chroma_mixed;
#X msg 23 264 \; \$1chroma_mixed_II resize \$2 \;;
#X obj 355 421 loadbang;
#X obj 23 63 max;
#X connect 0 0 4 1;
#X connect 1 0 11 0;
#X connect 1 0 16 0;
#X connect 1 0 50 0;
#X connect 2 0 10 0;
#X connect 3 0 6 0;
#X connect 3 0 9 0;
#X connect 4 0 18 0;
#X connect 5 0 21 0;
#X connect 6 0 7 0;
#X connect 6 0 15 0;
#X connect 7 0 19 0;
#X connect 7 0 15 0;
#X connect 7 0 41 0;
#X connect 8 0 37 0;
#X connect 8 0 47 0;
#X connect 9 0 50 1;
#X connect 10 0 50 1;
#X connect 11 0 4 0;
#X connect 11 1 4 0;
#X connect 12 0 9 0;
#X connect 13 0 14 0;
#X connect 15 0 13 0;
#X connect 18 0 20 0;
#X connect 20 1 8 0;
#X connect 22 0 23 0;
#X connect 22 0 29 0;
#X connect 23 0 22 1;
#X connect 24 0 36 0;
#X connect 25 0 22 1;
#X connect 26 0 24 0;
#X connect 27 0 28 0;
#X connect 28 0 24 1;
#X connect 29 0 26 0;
#X connect 29 1 27 0;
#X connect 30 0 35 0;
#X connect 31 0 22 0;
#X connect 31 1 32 0;
#X connect 31 2 24 2;
#X connect 31 2 38 0;
#X connect 33 0 34 0;
#X connect 34 0 31 0;
#X connect 34 0 42 0;
#X connect 36 0 35 0;
#X connect 38 0 39 0;
#X connect 39 0 37 1;
#X connect 40 0 48 0;
#X connect 41 0 42 0;
#X connect 41 1 40 1;
#X connect 42 0 40 0;
#X connect 43 0 34 0;
#X connect 44 0 45 0;
#X connect 45 0 25 0;
#X connect 45 0 30 0;
#X connect 45 0 34 2;
#X connect 46 0 34 2;
#X connect 49 0 30 0;
#X connect 50 0 2 0;
#X connect 50 0 7 0;
#X connect 50 0 17 0;
#X restore 44 257 pd calcula;
#X msg 82 212 0;
#X obj 2 98 t b f f f;
#N canvas 424 592 342 287 insere 0;
#X obj 41 81 f;
#X obj 72 82 + 20;
#X obj 39 192 pack f f f;
#X msg 134 50 0;
#X obj 39 130 mod 680;
#X obj 94 131 div 680;
#X obj 95 159 * 80;
#X obj 40 102 t f f;
#X obj 49 14 inlet;
#X obj 135 14 inlet;
#X msg 167 179 clear;
#X obj 48 50 t b b f;
#X msg 120 86 0;
#X msg 41 214 obj \$2 \$1 table \$3chroma;
#X obj 37 245 s pd-pool_chroma;
#X connect 0 0 1 0;
#X connect 0 0 7 0;
#X connect 1 0 0 1;
#X connect 2 0 13 0;
#X connect 3 0 0 1;
#X connect 4 0 2 0;
#X connect 5 0 6 0;
#X connect 6 0 2 1;
#X connect 7 0 4 0;
#X connect 7 1 5 0;
#X connect 8 0 11 0;
#X connect 9 0 3 0;
#X connect 9 0 10 0;
#X connect 10 0 14 0;
#X connect 11 0 0 0;
#X connect 11 1 12 0;
#X connect 11 2 2 2;
#X connect 13 0 14 0;
#X restore 67 129 pd insere;
#X obj 155 240 t f;
#X obj 206 29 symbol;
#X obj 21 -20 t b s;
#X symbolatom 217 68 0 0 0 0 - - -;
#X msg 12 180 read -resize \$1 \$2chroma;
#X obj 205 -52 inlet;
#X connect 0 0 13 0;
#X connect 1 0 8 0;
#X connect 1 0 10 1;
#X connect 1 0 5 2;
#X connect 2 0 11 0;
#X connect 3 0 7 1;
#X connect 4 0 15 0;
#X connect 5 0 6 0;
#X connect 6 0 9 0;
#X connect 8 0 7 2;
#X connect 9 0 12 0;
#X connect 9 1 4 1;
#X connect 9 2 7 0;
#X connect 9 3 10 0;
#X connect 11 0 7 3;
#X connect 12 0 14 0;
#X connect 13 0 5 0;
#X connect 13 1 12 1;
#X connect 14 0 4 0;
#X connect 15 0 3 0;
#X connect 16 0 7 4;
