#N canvas 0 28 587 358 10;
#X obj 2 -51 inlet;
#X obj 86 -58 inlet;
#X obj 155 -52 inlet;
#X obj 2 206 soundfiler;
#X obj 2 156 pack s f;
#X obj 2 30 counter;
#X floatatom 2 73 5 0 0 0 - - -;
#N canvas 661 22 518 721 calcula 1;
#X obj -26 131 inlet;
#X obj 23 22 inlet;
#X obj 51 62 f;
#X obj 157 23 inlet;
#X msg -41 440 add \$1som;
#X obj -41 154 f;
#X obj 233 23 inlet;
#X msg 23 150 \; mixture resize \$1;
#X obj 58 508 s mixture;
#X msg 236 150 \; mixture normalize \$1;
#X msg 192 70 0;
#X floatatom 23 120 11 0 0 0 - - -;
#X obj 58 488 list prepend 0;
#X obj -41 468 tabletool mixture;
#X msg 64 40 441000;
#X obj 51 82 t f;
#X obj 23 63 min;
#X obj -41 88 t b b;
#X obj 63 12 loadbang;
#X obj 152 176 / 44100;
#X obj 152 196 s total-duration-ms;
#X obj 152 156 t f;
#X floatatom 99 79 9 0 0 0 - - -;
#X obj 98 119 s mixed-size;
#X obj 58 568 s;
#X obj 73 548 l2s;
#X obj 261 331 f;
#X obj 292 332 + 20;
#X obj 259 442 pack f f f;
#X msg 354 300 0;
#X obj 259 380 mod 680;
#X obj 314 381 div 680;
#X obj 315 409 * 80;
#X obj 260 352 t f f;
#X msg 357 439 clear;
#X obj 268 300 t b b f;
#X msg 340 336 0;
#X obj 268 251 bng 15 250 50 0 empty empty empty 17 7 0 10 -262144
-1 -1;
#X obj 268 276 counter;
#X obj 324 239 t b;
#X obj 289 248 bng 15 250 50 0 empty empty empty 17 7 0 10 -262144
-1 -1;
#X obj 385 411 loadbang;
#X msg 74 528 \$1mixture_II;
#X obj 307 22 inlet;
#X obj 324 219 r reset_mixture_II;
#X msg 259 464 obj \$2 \$1 table \$3mixture_II;
#X obj 259 484 s pd-pool_mixture_II;
#X obj 23 254 pack f f;
#X obj 23 195 t b f;
#X floatatom 23 215 5 0 0 0 - - -;
#X msg 23 274 \; \$1mixture_II resize \$2 \;;
#X connect 0 0 5 1;
#X connect 1 0 16 0;
#X connect 1 0 17 0;
#X connect 1 0 22 0;
#X connect 2 0 15 0;
#X connect 3 0 10 0;
#X connect 3 0 14 0;
#X connect 4 0 13 0;
#X connect 5 0 4 0;
#X connect 6 0 9 0;
#X connect 10 0 11 0;
#X connect 10 0 21 0;
#X connect 11 0 7 0;
#X connect 11 0 21 0;
#X connect 11 0 48 0;
#X connect 12 0 8 0;
#X connect 12 0 24 0;
#X connect 13 1 12 0;
#X connect 14 0 16 1;
#X connect 15 0 16 1;
#X connect 16 0 2 0;
#X connect 16 0 11 0;
#X connect 16 0 23 0;
#X connect 17 0 5 0;
#X connect 17 1 5 0;
#X connect 18 0 14 0;
#X connect 19 0 20 0;
#X connect 21 0 19 0;
#X connect 25 0 24 1;
#X connect 26 0 27 0;
#X connect 26 0 33 0;
#X connect 27 0 26 1;
#X connect 28 0 45 0;
#X connect 29 0 26 1;
#X connect 30 0 28 0;
#X connect 31 0 32 0;
#X connect 32 0 28 1;
#X connect 33 0 30 0;
#X connect 33 1 31 0;
#X connect 34 0 46 0;
#X connect 35 0 26 0;
#X connect 35 1 36 0;
#X connect 35 2 28 2;
#X connect 35 2 42 0;
#X connect 37 0 38 0;
#X connect 38 0 35 0;
#X connect 38 0 49 0;
#X connect 39 0 29 0;
#X connect 39 0 34 0;
#X connect 39 0 38 2;
#X connect 40 0 38 2;
#X connect 41 0 34 0;
#X connect 42 0 25 0;
#X connect 43 0 38 0;
#X connect 44 0 39 0;
#X connect 45 0 46 0;
#X connect 47 0 50 0;
#X connect 48 0 49 0;
#X connect 48 1 47 1;
#X connect 49 0 47 0;
#X restore 44 267 pd calcula;
#X msg 82 212 0;
#X obj 2 98 t b f f f;
#N canvas 456 409 342 287 insere 0;
#X obj 37 245 s pd-pool;
#X obj 41 81 f;
#X obj 72 82 + 20;
#X msg 41 214 obj \$2 \$1 table \$3som;
#X obj 39 192 pack f f f;
#X msg 134 50 0;
#X obj 39 130 mod 680;
#X obj 94 131 div 680;
#X obj 95 159 * 80;
#X obj 40 102 t f f;
#X obj 49 14 inlet;
#X obj 135 14 inlet;
#X msg 167 179 clear;
#X obj 48 50 t b b f;
#X msg 120 86 0;
#X connect 1 0 2 0;
#X connect 1 0 9 0;
#X connect 2 0 1 1;
#X connect 3 0 0 0;
#X connect 4 0 3 0;
#X connect 5 0 1 1;
#X connect 6 0 4 0;
#X connect 7 0 8 0;
#X connect 8 0 4 1;
#X connect 9 0 6 0;
#X connect 9 1 7 0;
#X connect 10 0 13 0;
#X connect 11 0 5 0;
#X connect 11 0 12 0;
#X connect 12 0 0 0;
#X connect 13 0 1 0;
#X connect 13 1 14 0;
#X connect 13 2 4 2;
#X restore 67 129 pd insere;
#X obj 155 250 t f;
#X obj 206 29 symbol;
#X obj 21 -20 t b s;
#X msg 12 180 read -resize \$1 \$2som;
#X symbolatom 217 68 0 0 0 0 - - -;
#X obj 225 -52 inlet;
#X connect 0 0 13 0;
#X connect 1 0 8 0;
#X connect 1 0 10 1;
#X connect 1 0 5 2;
#X connect 2 0 11 0;
#X connect 3 0 7 1;
#X connect 4 0 14 0;
#X connect 5 0 6 0;
#X connect 6 0 9 0;
#X connect 8 0 7 2;
#X connect 9 0 12 0;
#X connect 9 1 4 1;
#X connect 9 2 7 0;
#X connect 9 3 10 0;
#X connect 11 0 7 3;
#X connect 12 0 15 0;
#X connect 13 0 5 0;
#X connect 13 1 12 1;
#X connect 14 0 3 0;
#X connect 15 0 4 0;
#X connect 16 0 7 4;
