#N canvas 144 23 1270 712 10;
#X obj -299 88 mainscore;
#X obj -299 48 r \$0-mainin2;
#X obj -259 198 notes 0;
#X obj -259 258 s \$0-mainin2;
#X obj -249 178 r inn0;
#X obj -249 218 s \$0-master-bar-file;
#X obj -259 378 s \$0-mainin2;
#X obj -249 338 s \$0-master-bar-file;
#X obj -259 498 s \$0-mainin2;
#X obj -259 618 s \$0-mainin2;
#X obj -249 578 s \$0-master-bar-file;
#X obj -29 258 s \$0-mainin2;
#X obj -19 218 s \$0-master-bar-file;
#X obj -29 378 s \$0-mainin2;
#X obj -29 498 s \$0-mainin2;
#X obj -19 458 s \$0-master-bar-file;
#X obj -29 618 s \$0-mainin2;
#X obj -19 578 s \$0-master-bar-file;
#X obj 201 258 s \$0-mainin2;
#X obj 211 218 s \$0-master-bar-file;
#X obj 201 378 s \$0-mainin2;
#X obj 211 338 s \$0-master-bar-file;
#X obj 201 498 s \$0-mainin2;
#X obj 211 458 s \$0-master-bar-file;
#X obj 201 618 s \$0-mainin2;
#X obj 211 578 s \$0-master-bar-file;
#X obj 431 258 s \$0-mainin2;
#X obj 441 218 s \$0-master-bar-file;
#X obj 431 378 s \$0-mainin2;
#X obj 441 338 s \$0-master-bar-file;
#X obj 431 498 s \$0-mainin2;
#X obj 441 458 s \$0-master-bar-file;
#X obj 431 618 s \$0-mainin2;
#X obj 441 578 s \$0-master-bar-file;
#X obj 661 258 s \$0-mainin2;
#X obj 671 218 s \$0-master-bar-file;
#X obj 661 378 s \$0-mainin2;
#X obj 671 338 s \$0-master-bar-file;
#X obj -249 298 r inn1;
#X obj -249 418 r inn2;
#X obj -249 538 r inn3;
#X obj -19 178 r inn4;
#X obj -19 298 r inn5;
#X obj -19 418 r inn6;
#X obj -19 538 r inn7;
#X obj 211 178 r inn8;
#X obj 211 298 r inn9;
#X obj 211 418 r inn10;
#X obj 211 538 r inn11;
#X obj 441 178 r inn12;
#X obj 441 298 r inn13;
#X obj 441 418 r inn14;
#X obj 441 538 r inn15;
#X obj 671 178 r inn16;
#X obj 671 298 r inn17;
#X obj -249 458 s \$0-master-bar-file;
#X obj -19 338 s \$0-master-bar-file;
#X obj -259 438 notes 0;
#X obj -259 558 notes 0;
#X obj -29 198 notes 0;
#X obj -29 318 notes 0;
#X obj -29 438 notes 0;
#X obj -29 558 notes 0;
#X obj 201 198 notes 0;
#X obj 201 318 notes 0;
#X obj 201 438 notes 0;
#X obj 201 558 notes 0;
#X obj 431 198 notes 0;
#X obj 431 318 notes 0;
#X obj 431 438 notes 0;
#X obj 431 558 notes 0;
#X obj 661 198 notes 0;
#X obj 661 318 notes 0;
#X msg 661 358 part 1 1 \$1 \$2;
#X obj -259 318 notes 0;
#X msg -259 158 inst \$1 \, render 0 \, write ./\$1;
#X msg -259 278 inst \$1 \, render 0 \, write ./\$1;
#X msg -259 398 inst \$1 \, render 0 \, write ./\$1;
#X msg -259 518 inst \$1 \, render 0 \, write ./\$1;
#X msg -29 158 inst \$1 \, render 0 \, write ./\$1;
#X msg -29 278 inst \$1 \, render 0 \, write ./\$1;
#X msg -29 398 inst \$1 \, render 0 \, write ./\$1;
#X msg -29 518 inst \$1 \, render 0 \, write ./\$1;
#X msg 201 158 inst \$1 \, render 0 \, write ./\$1;
#X msg 201 278 inst \$1 \, render 0 \, write ./\$1;
#X msg 201 398 inst \$1 \, render 0 \, write ./\$1;
#X msg 201 518 inst \$1 \, render 0 \, write ./\$1;
#X msg 431 158 inst \$1 \, render 0 \, write ./\$1;
#X msg 431 277 inst \$1 \, render 0 \, write ./\$1;
#X msg 431 398 inst \$15 \, render 0 \, write ./\$1;
#X msg 431 518 inst \$1 \, render 0 \, write ./\$1;
#X msg 661 158 inst \$1 \, render 0 \, write ./\$1;
#X msg 661 278 inst \$1 \, render 0 \, write ./\$1;
#X obj -219 68 t b;
#X msg -219 88 clear;
#X obj -219 48 r clear_ms;
#X obj -349 148 s \$0-mainin2;
#X msg -349 128 write ./SSC;
#X msg -339 108 title Sound Shizuku Composition - Orchestration \,
paper 3 1;
#X obj -349 68 t b b;
#X obj -349 -42 inlet;
#X obj -349 -22 t b b;
#X obj -299 -42 r gera_partitura;
#X obj -25 3 bng 15 250 50 0 empty empty empty 17 7 0 10 -262144 -1
-1;
#X msg 661 238 part 2 1 \$1 \$2;
#X msg 431 598 part 3 1 \$1 \$2;
#X msg 431 478 part 4 1 \$1 \$2;
#X msg 431 358 part 5 1 \$1 \$2;
#X msg 431 238 part 6 1 \$1 \$2;
#X msg 201 598 part 7 1 \$1 \$2;
#X msg 201 478 part 8 1 \$1 \$2;
#X msg 201 358 part 9 1 \$1 \$2;
#X msg 201 238 part 10 1 \$1 \$2;
#X msg -29 598 part 11 1 \$1 \$2;
#X msg -29 478 part 12 1 \$1 \$2;
#X msg -29 358 part 13 1 \$1 \$2;
#X msg -29 238 part 14 1 \$1 \$2;
#X msg -259 598 part 15 1 \$1 \$2;
#X msg -259 478 part 16 1 \$1 \$2;
#X msg -259 358 part 17 1 \$1 \$2;
#X msg -259 238 part 18 1 \$1 \$2;
#X obj -259 128 score_scc1 ------------------------------------------------
;
#X connect 1 0 0 0;
#X connect 2 0 120 0;
#X connect 2 1 5 0;
#X connect 4 0 2 0;
#X connect 38 0 74 0;
#X connect 39 0 57 0;
#X connect 40 0 58 0;
#X connect 41 0 59 0;
#X connect 42 0 60 0;
#X connect 43 0 61 0;
#X connect 44 0 62 0;
#X connect 45 0 63 0;
#X connect 46 0 64 0;
#X connect 47 0 65 0;
#X connect 48 0 66 0;
#X connect 49 0 67 0;
#X connect 50 0 68 0;
#X connect 51 0 69 0;
#X connect 52 0 70 0;
#X connect 53 0 71 0;
#X connect 54 0 72 0;
#X connect 57 0 118 0;
#X connect 57 1 55 0;
#X connect 58 0 117 0;
#X connect 58 1 10 0;
#X connect 59 0 116 0;
#X connect 59 1 12 0;
#X connect 60 0 115 0;
#X connect 60 1 56 0;
#X connect 61 0 114 0;
#X connect 61 1 15 0;
#X connect 62 0 113 0;
#X connect 62 1 17 0;
#X connect 63 0 112 0;
#X connect 63 1 19 0;
#X connect 64 0 111 0;
#X connect 64 1 21 0;
#X connect 65 0 110 0;
#X connect 65 1 23 0;
#X connect 66 0 109 0;
#X connect 66 1 25 0;
#X connect 67 0 108 0;
#X connect 67 1 27 0;
#X connect 68 0 107 0;
#X connect 68 1 29 0;
#X connect 69 0 106 0;
#X connect 69 1 31 0;
#X connect 70 0 105 0;
#X connect 70 1 33 0;
#X connect 71 0 104 0;
#X connect 71 1 35 0;
#X connect 72 0 73 0;
#X connect 72 1 37 0;
#X connect 73 0 36 0;
#X connect 74 0 119 0;
#X connect 74 1 7 0;
#X connect 75 0 2 0;
#X connect 76 0 74 0;
#X connect 77 0 57 0;
#X connect 78 0 58 0;
#X connect 79 0 59 0;
#X connect 80 0 60 0;
#X connect 81 0 61 0;
#X connect 82 0 62 0;
#X connect 83 0 63 0;
#X connect 84 0 64 0;
#X connect 85 0 65 0;
#X connect 86 0 66 0;
#X connect 87 0 67 0;
#X connect 88 0 68 0;
#X connect 89 0 69 0;
#X connect 90 0 70 0;
#X connect 91 0 71 0;
#X connect 92 0 72 0;
#X connect 93 0 94 0;
#X connect 94 0 0 0;
#X connect 95 0 93 0;
#X connect 97 0 96 0;
#X connect 98 0 96 0;
#X connect 99 0 97 0;
#X connect 99 1 98 0;
#X connect 100 0 101 0;
#X connect 101 0 99 0;
#X connect 101 1 121 0;
#X connect 102 0 101 0;
#X connect 103 0 99 0;
#X connect 104 0 34 0;
#X connect 105 0 32 0;
#X connect 106 0 30 0;
#X connect 107 0 28 0;
#X connect 108 0 26 0;
#X connect 109 0 24 0;
#X connect 110 0 22 0;
#X connect 111 0 20 0;
#X connect 112 0 18 0;
#X connect 113 0 16 0;
#X connect 114 0 14 0;
#X connect 115 0 13 0;
#X connect 116 0 11 0;
#X connect 117 0 9 0;
#X connect 118 0 8 0;
#X connect 119 0 6 0;
#X connect 120 0 3 0;
#X connect 121 0 75 0;
#X connect 121 1 76 0;
#X connect 121 2 77 0;
#X connect 121 3 78 0;
#X connect 121 4 79 0;
#X connect 121 5 80 0;
#X connect 121 6 81 0;
#X connect 121 7 82 0;
#X connect 121 8 83 0;
#X connect 121 9 84 0;
#X connect 121 10 85 0;
#X connect 121 11 86 0;
#X connect 121 12 87 0;
#X connect 121 13 88 0;
#X connect 121 14 89 0;
#X connect 121 15 90 0;
#X connect 121 16 91 0;
#X connect 121 17 92 0;
