#N canvas 405 258 720 341 10;
#X obj 56 -33 t b b b b;
#X obj 50 -62 inlet;
#X obj 189 144 pack f f f f;
#X obj 190 178 outlet;
#X obj 435 69 iem_tab/tab_min_max \$1;
#X obj 49 67 PERC-array \$1 0.25;
#X obj 178 68 PERC-array \$1 0.5;
#X obj 303 67 PERC-array \$1 0.75;
#X connect 0 0 5 0;
#X connect 0 1 6 0;
#X connect 0 2 7 0;
#X connect 0 3 4 0;
#X connect 1 0 0 0;
#X connect 2 0 3 0;
#X connect 4 2 2 3;
#X connect 5 0 2 0;
#X connect 6 0 2 1;
#X connect 7 0 2 2;
