#N canvas 145 47 841 394 10;
#X obj 267 -85 table \$0-aux;
#X obj 31 -105 inlet;
#X obj 195 -108 inlet;
#X obj 183 13 * \$2;
#X obj 262 -46 arraysize \$1;
#X obj 259 49 s \$0-aux;
#X msg 260 -17 resize \$1;
#X obj 30 -49 tabdump \$1;
#X obj 30 -22 sort;
#X obj 30 47 prepend 0;
#X obj 31 79 s \$0-aux;
#X obj 31 -81 t b b;
#X obj 172 54 f;
#X obj 161 161 outlet;
#X obj 31 12 t b a;
#X obj 161 105 tabread \$0-aux;
#X connect 1 0 11 0;
#X connect 2 0 3 1;
#X connect 3 0 12 1;
#X connect 4 0 6 0;
#X connect 4 0 3 0;
#X connect 6 0 5 0;
#X connect 7 0 8 0;
#X connect 8 0 14 0;
#X connect 9 0 10 0;
#X connect 11 0 7 0;
#X connect 11 1 4 0;
#X connect 12 0 15 0;
#X connect 14 0 12 0;
#X connect 14 1 9 0;
#X connect 15 0 13 0;
