#N canvas 0 581 450 300 10;
#X obj 19 -1 inlet;
#X obj 59 -1 inlet;
#X obj 99 -1 inlet;
#N canvas 453 285 478 593 referencia_GA_beta 1;
#X obj -149 473 list-idx;
#X floatatom -131 326 5 0 0 0 - - -;
#X obj -149 493 l2s;
#X symbolatom -149 514 47 0 0 0 - - -;
#X obj -149 450 s2l;
#X obj -150 369 r best;
#X symbolatom -149 390 10 0 0 0 - - -;
#X obj -131 303 f 0;
#X obj -101 303 + 1;
#X obj -131 282 t b;
#X obj -149 429 spigot;
#X obj -116 410 tgl 15 0 empty empty empty 17 7 0 10 -262144 -1 -1
0 1;
#X obj -131 345 t b b b f;
#N canvas 0 22 578 642 tab_loop 0;
#X obj 235 9 inlet;
#X obj 529 607 outlet;
#X msg 65 67 /Users/ieysimurra/Desktop/sound_db/Oboe/ordinario/Ob-ord-A6-ff08.53.58.aif /Users/ieysimurra/Desktop/sound_db/Bb-Clarinet/ordinario/BbCl-ord-F#3-ff.aif
/Users/ieysimurra/Desktop/sound_db/Oboe/ordinario/Ob-ord-C#6-pp08.53.58.aif /Users/ieysimurra/Desktop/sound_db/Bb-Clarinet/ordinario/BbCl-ord-G#3+-mf.aif
/Users/ieysimurra/Desktop/sound_db/Oboe/ordinario/Ob-ord-D4-pp08.53.58.aif /Users/ieysimurra/Desktop/sound_db/Bb-Clarinet/ordinario/BbCl-ord-D#6+-mf.aif
;
#X obj 462 10 inlet;
#X obj 462 30 t b;
#X msg 462 50 set;
#X obj 65 9 r tab-chroma-mixture;
#X connect 0 0 2 0;
#X connect 2 0 1 0;
#X connect 3 0 4 0;
#X connect 4 0 5 0;
#X connect 5 0 2 0;
#X connect 6 0 2 0;
#X restore -151 81 pd tab_loop;
#X obj -151 101 list-idx;
#X obj -151 121 l2s;
#X floatatom -133 41 5 0 0 1 visualizar_melhor_ind - -;
#X symbolatom -151 141 31 0 0 1 best-first - -;
#X obj -99 202 s2l;
#X obj -99 222 length;
#X msg -116 182 0;
#X obj -151 160 s best;
#X obj -131 262 repeat;
#X floatatom -98 242 5 0 0 0 - - -;
#X obj -133 60 t b b b f b;
#X obj -149 533 outlet;
#X obj -133 20 inlet;
#X obj -83 20 inlet;
#X connect 0 0 2 0;
#X connect 1 0 12 0;
#X connect 2 0 3 0;
#X connect 3 0 25 0;
#X connect 4 0 0 0;
#X connect 5 0 6 0;
#X connect 6 0 10 0;
#X connect 7 0 8 0;
#X connect 7 0 1 0;
#X connect 8 0 7 1;
#X connect 9 0 7 0;
#X connect 10 0 4 0;
#X connect 11 0 10 1;
#X connect 12 0 11 0;
#X connect 12 1 6 0;
#X connect 12 2 11 0;
#X connect 12 3 0 1;
#X connect 13 0 14 0;
#X connect 14 0 15 0;
#X connect 15 0 17 0;
#X connect 16 0 24 0;
#X connect 17 0 21 0;
#X connect 17 0 18 0;
#X connect 18 0 19 0;
#X connect 19 0 23 0;
#X connect 20 0 7 1;
#X connect 22 0 9 0;
#X connect 23 0 22 1;
#X connect 24 0 22 0;
#X connect 24 1 20 0;
#X connect 24 2 13 0;
#X connect 24 3 14 1;
#X connect 26 0 24 0;
#X connect 27 0 13 1;
#X restore 29 208 pd referencia_GA_beta;
#X obj 29 152 counter;
#X obj 29 29 t b b;
#X obj 69 30 t b b;
#X obj 29 172 t f b;
#X obj 24 252 mixture-trans_II;
#X connect 0 0 5 0;
#X connect 1 0 6 0;
#X connect 2 0 8 2;
#X connect 3 0 8 0;
#X connect 4 0 7 0;
#X connect 5 0 4 0;
#X connect 5 1 8 3;
#X connect 6 0 8 1;
#X connect 6 1 4 2;
#X connect 6 1 3 1;
#X connect 7 0 3 0;
#X connect 7 1 8 1;
