#N canvas 28 500 450 300 10;
#X obj 19 -1 inlet;
#X obj 59 -1 inlet;
#X obj 99 -1 inlet;
#X obj 268 106 s~ pdplay;
#X obj 174 104 s newset;
#X obj 195 9 inlet;
#X obj 268 9 inlet;
#X obj 319 9 inlet;
#N canvas 146 209 827 569 player-to-score 0;
#X obj -29 244 outlet~;
#X obj 51 344 dac~;
#X obj 0 -128 inlet;
#X obj 0 -106 t b b b;
#X obj 44 -73 s rec;
#X obj 565 -78 soundfiler;
#X floatatom 565 -58 7 0 0 0 - - -;
#X obj 565 -128 inlet;
#X obj 58 143 count~;
#X obj 59 172 snapshot~;
#X msg 104 116 stop;
#X msg 168 75 range 0 \$1;
#X obj 138 128 bang~;
#X obj 138 149 spigot;
#X obj 189 128 tgl 15 0 empty empty empty 17 7 0 10 -262144 -1 -1 0
1;
#X msg 125 93 1;
#X msg 163 98 0;
#X obj 59 197 s guia_1;
#X obj 251 -93 r save-to-score;
#X symbolatom 251 -53 10 0 0 0 - - -;
#X obj 251 -34 s2l;
#X obj 251 -14 list trim;
#X obj 251 6 rtc/collect;
#X msg 314 -15 set;
#X msg 331 23;
#X obj 251 63 until;
#X obj 251 179 list-idx;
#X obj 251 83 counter;
#X obj 251 43 length;
#X msg 331 120;
#X obj 251 199 splitfilename /;
#X obj 338 219 rtc/collect;
#X msg 401 198 set;
#X msg 440 236;
#X obj 251 103 t b b f;
#X obj 251 326 soundfiler;
#X floatatom 251 346 7 0 0 0 - - -;
#X obj 251 -73 t b a b b b;
#X obj 104 -117 bng 15 250 50 0 empty empty empty 17 7 0 10 -262144
-1 -1;
#X obj 90 -87 arraysize mixture_III;
#X msg 565 -98 write -aiff render mixture_III;
#X obj 251 -113 loadbang;
#X msg 338 296 write -aiff Vn-ord-A6-pp-2c.aif&Va-ord-F#5-mf-2c.aif&Fl-ord-E5-ff.aif
mixture_III;
#X msg 338 276 set write -aiff \$1 mixture_III;
#X obj -29 -36 tabplay~ mixture_III;
#X obj 521 346 symbol;
#X obj 521 366 s filenames;
#X obj 521 406 partitura_ly;
#X obj 338 256 mergefilename &;
#X obj 51 295 *~;
#X obj 51 314 hip~ 5;
#X obj 71 265 r volume;
#X obj 131 265 loadbang;
#X msg 131 285 0.85;
#X obj 131 305 s vol_init;
#X connect 2 0 3 0;
#X connect 3 0 8 0;
#X connect 3 0 15 0;
#X connect 3 0 44 0;
#X connect 3 1 4 0;
#X connect 3 2 39 0;
#X connect 5 0 6 0;
#X connect 7 0 42 0;
#X connect 8 0 9 0;
#X connect 9 0 17 0;
#X connect 10 0 8 0;
#X connect 11 0 17 0;
#X connect 12 0 13 0;
#X connect 13 0 9 0;
#X connect 14 0 13 1;
#X connect 15 0 14 0;
#X connect 16 0 14 0;
#X connect 18 0 37 0;
#X connect 19 0 20 0;
#X connect 20 0 21 0;
#X connect 21 0 22 0;
#X connect 22 0 24 0;
#X connect 22 0 29 0;
#X connect 23 0 22 1;
#X connect 23 0 24 0;
#X connect 23 0 29 0;
#X connect 24 0 28 0;
#X connect 25 0 27 0;
#X connect 26 0 30 0;
#X connect 27 0 34 0;
#X connect 28 0 25 0;
#X connect 29 0 26 0;
#X connect 30 1 31 0;
#X connect 31 0 33 0;
#X connect 32 0 31 1;
#X connect 32 0 33 0;
#X connect 33 0 48 0;
#X connect 34 0 33 0;
#X connect 34 1 29 0;
#X connect 34 2 26 1;
#X connect 35 0 36 0;
#X connect 37 0 24 0;
#X connect 37 1 19 0;
#X connect 37 2 23 0;
#X connect 37 3 27 2;
#X connect 37 4 32 0;
#X connect 38 0 3 0;
#X connect 39 0 11 0;
#X connect 40 0 5 0;
#X connect 41 0 23 0;
#X connect 41 0 32 0;
#X connect 42 0 35 0;
#X connect 43 0 42 0;
#X connect 44 0 0 0;
#X connect 44 0 49 0;
#X connect 44 1 10 0;
#X connect 44 1 16 0;
#X connect 45 0 46 0;
#X connect 48 0 43 0;
#X connect 48 0 45 0;
#X connect 49 0 50 0;
#X connect 50 0 1 0;
#X connect 50 0 1 1;
#X connect 51 0 49 1;
#X connect 52 0 53 0;
#X connect 53 0 49 1;
#X connect 53 0 54 0;
#X restore 268 78 pd player-to-score;
#X obj 24 92 mixture-trans-gem_II;
#X connect 0 0 9 0;
#X connect 1 0 9 1;
#X connect 2 0 9 2;
#X connect 5 0 4 0;
#X connect 6 0 8 0;
#X connect 7 0 8 1;
#X connect 8 0 3 0;
