#N canvas 158 97 450 300 10;
#X obj 19 -1 inlet;
#X obj 59 -1 inlet;
#X obj 99 -1 inlet;
#N canvas 962 22 478 593 referencia_GA_beta 0;
#X obj -149 473 list-idx;
#X floatatom -131 326 5 0 0 0 - - -;
#X obj -149 493 l2s;
#X symbolatom -149 514 47 0 0 0 - - -;
#X obj -149 450 s2l;
#X obj -150 369 r best;
#X symbolatom -149 390 10 0 0 0 - - -;
#X obj -131 303 f 0;
#X obj -101 303 + 1;
#X obj -131 282 t b;
#X obj -149 429 spigot;
#X obj -116 410 tgl 15 0 empty empty empty 17 7 0 10 -262144 -1 -1
0 1;
#X obj -131 345 t b b b f;
#N canvas 0 22 578 642 tab_loop 0;
#X msg 65 30 /Users/ieysimurra/Desktop/sound_db2/percussion-philharmonia/suspended_cymbal/12_suspended_cymbal_999_3_9_33.aif
/Users/ieysimurra/Desktop/sound_db2/percussion-philharmonia/suspended_cymbal/18_suspended_cymbal_999_5_9_64.aif
/Users/ieysimurra/Desktop/sound_db2/percussion-philharmonia/Chinese_hand_cymbals/146_Chinese_hand_cymbals_999_6_8_51.aif
/Users/ieysimurra/Desktop/sound_db2/percussion-philharmonia/clash_cymbals/187_clash_cymbals_999_5_9_46.aif
/Users/ieysimurra/Desktop/sound_db2/percussion-philharmonia/clash_cymbals/21_clash_cymbals_999_4_10_40.aif
/Users/ieysimurra/Desktop/sound_db2/percussion-philharmonia/suspended_cymbal/17_suspended_cymbal_999_5_9_64.aif
/Users/ieysimurra/Desktop/sound_db2/percussion-philharmonia/suspended_cymbal/20_suspended_cymbal_999_2_8_45.aif
/Users/ieysimurra/Desktop/sound_db2/percussion-philharmonia/clash_cymbals/192_clash_cymbals_999_1_8_46.aif
/Users/ieysimurra/Desktop/sound_db2/percussion-philharmonia/clash_cymbals/186_clash_cymbals_999_3_9_45.aif
/Users/ieysimurra/Desktop/sound_db2/percussion-philharmonia/clash_cymbals/189_clash_cymbals_999_2_9_45.aif
/Users/ieysimurra/Desktop/sound_db2/percussion-philharmonia/suspended_cymbal/17_suspended_cymbal_999_5_9_64.aif
/Users/ieysimurra/Desktop/sound_db2/percussion-philharmonia/suspended_cymbal/17_suspended_cymbal_999_5_9_64.aif
/Users/ieysimurra/Desktop/sound_db2/percussion-philharmonia/Chinese_hand_cymbals/146_Chinese_hand_cymbals_999_6_8_51.aif
/Users/ieysimurra/Desktop/sound_db2/percussion-philharmonia/Chinese_hand_cymbals/149_Chinese_hand_cymbals_999_3_8_40.aif
/Users/ieysimurra/Desktop/sound_db2/percussion-philharmonia/Chinese_hand_cymbals/147_Chinese_hand_cymbals_999_5_8_51.aif
/Users/ieysimurra/Desktop/sound_db2/percussion-philharmonia/suspended_cymbal/12_suspended_cymbal_999_3_9_33.aif
/Users/ieysimurra/Desktop/sound_db2/percussion-philharmonia/Chinese_cymbal/16_Chinese_cymbal_999_2_9_45.aif
/Users/ieysimurra/Desktop/sound_db2/percussion-philharmonia/Chinese_hand_cymbals/149_Chinese_hand_cymbals_999_3_8_40.aif
/Users/ieysimurra/Desktop/sound_db2/percussion-philharmonia/clash_cymbals/189_clash_cymbals_999_2_9_45.aif
/Users/ieysimurra/Desktop/sound_db2/percussion-philharmonia/suspended_cymbal/18_suspended_cymbal_999_5_9_64.aif
/Users/ieysimurra/Desktop/sound_db2/percussion-philharmonia/Chinese_hand_cymbals/150_Chinese_hand_cymbals_999_4_9_40.aif
/Users/ieysimurra/Desktop/sound_db2/percussion-philharmonia/Chinese_hand_cymbals/149_Chinese_hand_cymbals_999_3_8_40.aif
/Users/ieysimurra/Desktop/sound_db2/percussion-philharmonia/clash_cymbals/192_clash_cymbals_999_1_8_46.aif
;
#X obj 155 9 inlet;
#X obj 529 607 outlet;
#X obj 65 9 r tab_mixture;
#X connect 0 0 2 0;
#X connect 1 0 0 0;
#X connect 3 0 0 0;
#X restore -151 81 pd tab_loop;
#X obj -151 101 list-idx;
#X obj -151 121 l2s;
#X floatatom -133 41 5 0 0 1 visualizar_melhor_ind - -;
#X symbolatom -151 141 31 0 0 1 best-first - -;
#X obj -99 202 s2l;
#X obj -99 222 length;
#X msg -116 182 0;
#X obj -151 160 s best;
#X obj -131 262 repeat;
#X floatatom -98 242 5 0 0 0 - - -;
#X obj -133 60 t b b b f b;
#X obj -149 533 outlet;
#X obj -133 20 inlet;
#X connect 0 0 2 0;
#X connect 1 0 12 0;
#X connect 2 0 3 0;
#X connect 3 0 25 0;
#X connect 4 0 0 0;
#X connect 5 0 6 0;
#X connect 6 0 10 0;
#X connect 7 0 8 0;
#X connect 7 0 1 0;
#X connect 8 0 7 1;
#X connect 9 0 7 0;
#X connect 10 0 4 0;
#X connect 11 0 10 1;
#X connect 12 0 11 0;
#X connect 12 1 6 0;
#X connect 12 2 11 0;
#X connect 12 3 0 1;
#X connect 13 0 14 0;
#X connect 14 0 15 0;
#X connect 15 0 17 0;
#X connect 16 0 24 0;
#X connect 17 0 21 0;
#X connect 17 0 18 0;
#X connect 18 0 19 0;
#X connect 19 0 23 0;
#X connect 20 0 7 1;
#X connect 22 0 9 0;
#X connect 23 0 22 1;
#X connect 24 0 22 0;
#X connect 24 1 20 0;
#X connect 24 2 13 0;
#X connect 24 3 14 1;
#X connect 26 0 24 0;
#X restore 19 198 pd referencia_GA_beta;
#X obj 19 142 counter;
#X obj 38 123 bng 15 250 50 0 empty empty empty 17 7 0 10 -262144 -1
-1;
#X obj 19 19 t b b;
#X obj 59 20 t b b;
#X obj 19 162 t f b;
#X obj 19 222 mixture-chroma_maxt;
#X connect 0 0 6 0;
#X connect 1 0 7 0;
#X connect 2 0 9 2;
#X connect 3 0 9 0;
#X connect 4 0 8 0;
#X connect 5 0 4 2;
#X connect 6 0 4 0;
#X connect 6 1 9 3;
#X connect 7 0 9 1;
#X connect 7 1 4 2;
#X connect 8 0 3 0;
#X connect 8 1 9 1;
