#N canvas 906 22 534 336 10;
#X obj 172 254 switch~;
#N canvas 2 22 527 510 table-rec 0;
#X obj 182 363 arraycopy block\$0;
#X obj 180 127 f;
#X obj 181 281 spigot;
#X obj 160 394 f;
#X msg 163 73 0;
#X obj 152 -43 inlet;
#X obj 35 58 inlet;
#X obj 206 127 + 512;
#X obj 182 312 pack f s f;
#X msg 182 337 copy \$2 \$1 +\$3;
#X obj 35 168 outlet;
#X obj 35 132 spigot;
#N canvas 208 24 412 364 zeropad 0;
#X obj 156 48 log;
#X obj 141 81 /;
#X obj 156 6 loadbang;
#X floatatom 142 199 5 0 0 0 - - -;
#X obj 141 130 fmod 1;
#X obj 191 131 int;
#X obj 141 154 > 0;
#X obj 142 177 +;
#X obj 141 102 t f f;
#X msg 156 27 2;
#X msg 142 219 2 \$1;
#X obj 142 245 pow;
#X obj 126 47 log;
#X obj 126 -22 inlet;
#X obj 142 304 outlet;
#X msg 142 268 set \$1 1 1;
#X connect 0 0 1 1;
#X connect 1 0 8 0;
#X connect 2 0 9 0;
#X connect 3 0 10 0;
#X connect 4 0 6 0;
#X connect 5 0 7 1;
#X connect 6 0 7 0;
#X connect 7 0 3 0;
#X connect 8 0 4 0;
#X connect 8 1 5 0;
#X connect 9 0 0 0;
#X connect 10 0 11 0;
#X connect 11 0 15 0;
#X connect 12 0 1 0;
#X connect 13 0 12 0;
#X connect 15 0 14 0;
#X restore 374 4 pd zeropad;
#X obj 374 27 outlet;
#X obj 236 35 s \$0window-size;
#X obj 288 61 s \$0hop-size;
#X obj 274 100 r \$0hop-size;
#X obj 238 291 r \$0window-size;
#X obj 449 27 s \$0interp;
#X obj 448 -14 b;
#X msg 449 7 1;
#X obj 65 431 s;
#X obj 65 398 prepend;
#X obj 35 101 t b b b l;
#X obj 152 -19 unpack s f s f f f;
#X obj 390 172 pack s f;
#X msg 390 195 \; \$1 resize \$2;
#X obj 252 159 *;
#X obj 231 185 +;
#X obj 174 12 t f f;
#X obj 186 395 + 1;
#X obj 252 137 - 1;
#X obj 215 230 <;
#X obj 152 43 t b b b s;
#X obj 180 167 t f f;
#X connect 1 0 7 0;
#X connect 1 0 34 0;
#X connect 2 0 8 0;
#X connect 3 0 22 1;
#X connect 3 0 30 0;
#X connect 4 0 3 0;
#X connect 5 0 24 0;
#X connect 6 0 23 0;
#X connect 7 0 1 1;
#X connect 8 0 9 0;
#X connect 9 0 0 0;
#X connect 11 0 10 0;
#X connect 12 0 13 0;
#X connect 16 0 7 1;
#X connect 16 0 27 1;
#X connect 17 0 8 2;
#X connect 19 0 20 0;
#X connect 20 0 18 0;
#X connect 22 0 21 0;
#X connect 23 0 11 0;
#X connect 23 1 1 0;
#X connect 23 2 3 0;
#X connect 23 3 22 0;
#X connect 24 0 33 0;
#X connect 24 1 29 0;
#X connect 24 2 21 1;
#X connect 24 2 25 0;
#X connect 24 3 25 1;
#X connect 24 3 31 0;
#X connect 24 4 12 0;
#X connect 24 4 14 0;
#X connect 24 5 19 0;
#X connect 24 5 15 0;
#X connect 25 0 26 0;
#X connect 27 0 28 1;
#X connect 28 0 32 1;
#X connect 29 0 1 0;
#X connect 29 1 28 0;
#X connect 30 0 3 1;
#X connect 31 0 27 0;
#X connect 32 0 11 1;
#X connect 32 0 2 1;
#X connect 33 0 10 0;
#X connect 33 1 4 0;
#X connect 33 3 8 1;
#X connect 34 0 2 0;
#X connect 34 1 32 0;
#X restore 131 180 pd table-rec;
#N canvas 512 22 454 856 analysis 0;
#X obj -37 -18 pow~ 1;
#X obj -4 -38 sig~ 1;
#X obj -88 -253 inlet~;
#X obj -4 -58 inlet;
#X obj 223 10 block~;
#X msg 223 -15 set \$1 1 1;
#X obj 177 -56 r \$0window-size;
#X obj -41 -253 tabreceive~ block\$0;
#X obj -41 -213 *~;
#X obj -26 -232 tabreceive~ \$0-hann;
#X obj -41 -193 rfft~;
#X obj -53 -164 *~;
#X obj -11 -169 *~;
#X obj -37 -141 +~;
#X obj -37 -119 sqrt~;
#X obj -37 -59 *~;
#X obj -22 -79 tabreceive~ \$0mask;
#X obj 0 34 tabsend~ one\$0;
#X obj -2 56 tabreceive~ \$0freq;
#X obj 0 12 rpole~ 1;
#X obj -27 86 *~;
#X obj -27 108 rpole~ 1;
#X obj -27 130 tabsend~ two\$0;
#X obj -37 -99 *~;
#X obj 18 150 bang~;
#X obj 177 164 / 2;
#X msg 117 175 clear;
#X obj 68 198 f;
#X obj 72 218 tabread one\$0;
#X obj 43 219 f;
#X obj 43 241 tabread two\$0;
#X obj 177 188 - 1;
#X obj 43 264 /;
#X obj 43 286 sig~;
#X obj -32 308 -~;
#X obj -32 333 *~;
#X obj -33 366 *~;
#X obj 84 367 *~;
#X obj -34 389 *~;
#X obj 83 390 rpole~ 1;
#X obj 83 412 tabsend~ three\$0;
#X obj 84 436 f;
#X obj 84 481 /;
#X obj 84 457 tabread three\$0;
#X obj 84 501 pow 2;
#X obj -34 410 rpole~ 1;
#X obj -33 456 f;
#X obj -33 501 /;
#X obj -34 432 tabsend~ four\$0;
#X obj -33 477 tabread four\$0;
#X obj 8 522 /;
#X obj 8 541 - 3;
#X obj 8 565 outlet;
#X obj 16 171 t b b b b b;
#X connect 0 0 19 0;
#X connect 0 0 20 0;
#X connect 0 0 38 1;
#X connect 0 0 37 1;
#X connect 1 0 0 1;
#X connect 2 0 8 0;
#X connect 3 0 1 0;
#X connect 5 0 4 0;
#X connect 6 0 5 0;
#X connect 6 0 25 0;
#X connect 7 0 8 0;
#X connect 8 0 10 0;
#X connect 9 0 8 1;
#X connect 10 0 11 0;
#X connect 10 0 11 1;
#X connect 10 1 12 0;
#X connect 10 1 12 1;
#X connect 11 0 13 0;
#X connect 12 0 13 1;
#X connect 13 0 14 0;
#X connect 14 0 23 0;
#X connect 14 0 23 1;
#X connect 15 0 0 0;
#X connect 16 0 15 1;
#X connect 18 0 20 1;
#X connect 18 0 34 0;
#X connect 19 0 17 0;
#X connect 20 0 21 0;
#X connect 21 0 22 0;
#X connect 23 0 15 0;
#X connect 24 0 53 0;
#X connect 25 0 31 0;
#X connect 26 0 45 0;
#X connect 26 0 39 0;
#X connect 26 0 21 0;
#X connect 26 0 19 0;
#X connect 27 0 28 0;
#X connect 28 0 32 1;
#X connect 28 0 42 1;
#X connect 28 0 47 1;
#X connect 29 0 30 0;
#X connect 30 0 32 0;
#X connect 31 0 27 1;
#X connect 31 0 29 1;
#X connect 31 0 41 1;
#X connect 31 0 46 1;
#X connect 32 0 33 0;
#X connect 33 0 34 1;
#X connect 34 0 35 1;
#X connect 34 0 35 0;
#X connect 35 0 36 1;
#X connect 35 0 36 0;
#X connect 35 0 37 0;
#X connect 36 0 38 0;
#X connect 37 0 39 0;
#X connect 38 0 45 0;
#X connect 39 0 40 0;
#X connect 41 0 43 0;
#X connect 42 0 44 0;
#X connect 43 0 42 0;
#X connect 44 0 50 1;
#X connect 45 0 48 0;
#X connect 46 0 49 0;
#X connect 47 0 50 0;
#X connect 49 0 47 0;
#X connect 50 0 51 0;
#X connect 51 0 52 0;
#X connect 53 0 46 0;
#X connect 53 1 41 0;
#X connect 53 2 29 0;
#X connect 53 3 27 0;
#X connect 53 4 26 0;
#X restore 132 127 pd analysis;
#X obj 317 18 table one\$0;
#X msg 305 121 resize \$1 \, const 0;
#X obj 305 174 s one\$0;
#X obj 315 38 table block\$0;
#X obj 303 194 s block\$0;
#X obj 305 97 r \$0window-size;
#X obj 392 18 table two\$0;
#X obj 358 173 s two\$0;
#N canvas 0 22 435 208 mask 0;
#N canvas 0 22 450 300 (subpatch) 0;
#X array \$0mask 1024 float 3;
#A 0 0 1 1 1 1 1 1 1 1 1 1 1 1 1 1 1 1 1 1 1 1 1 1 1 1 1 1 1 1 1 1
1 1 1 1 1 1 1 1 1 1 1 1 1 1 1 1 1 1 1 1 1 1 1 1 1 1 1 1 1 1 1 1 1 1
1 1 1 1 1 1 1 1 1 1 1 1 1 1 1 1 1 1 1 1 1 1 1 1 1 1 1 1 1 1 1 1 1 1
1 1 1 1 1 1 1 1 1 1 1 1 1 1 1 1 1 1 1 1 1 1 1 1 1 1 1 1 1 1 1 1 1 1
1 1 1 1 1 1 1 1 1 1 1 1 1 1 1 1 1 1 1 1 1 1 1 1 1 1 1 1 1 1 1 1 1 1
1 1 1 1 1 1 1 1 1 1 1 1 1 1 1 1 1 1 1 1 1 1 1 1 1 1 1 1 1 1 1 1 1 1
1 1 1 1 1 1 1 1 1 1 1 1 1 1 1 1 1 1 1 1 1 1 1 1 1 1 1 1 1 1 1 1 1 1
1 1 1 1 1 1 1 1 1 1 1 1 1 1 1 1 1 1 1 1 1 1 1 1 1 1 1 1 1 1 1 1 1 1
1 1 1 1 1 1 1 1 1 1 1 1 1 1 1 1 1 1 1 1 1 1 1 1 1 1 1 1 1 1 1 1 1 1
1 1 1 1 1 1 1 1 1 1 1 1 1 1 1 1 1 1 1 1 1 1 1 1 1 1 1 1 1 1 1 1 1 1
1 1 1 1 1 1 1 1 1 1 1 1 1 1 1 1 1 1 1 1 1 1 1 1 1 1 1 1 1 1 1 1 1 1
1 1 1 1 1 1 1 1 1 1 1 1 1 1 1 1 1 1 1 1 1 1 1 1 1 1 1 1 1 1 1 1 1 1
1 1 1 1 1 1 1 1 1 1 1 1 1 1 1 1 1 1 1 1 1 1 1 1 1 1 1 1 1 1 1 1 1 1
1 1 1 1 1 1 1 1 1 1 1 1 1 1 1 1 1 1 1 1 1 1 1 1 1 1 1 1 1 1 1 1 1 1
1 1 1 1 1 1 1 1 1 1 1 1 1 1 1 1 1 1 1 1 1 1 1 1 1 1 1 1 1 1 1 1 1 1
1 1 1 1 1 1 1 1 1 1 1 1 1 1 1 1 1 1 1 1 1 1 1 1 1 1 1 1 1 1 1 1 1 1
1 1 1 1 1 1 1 1 1 1 1 1 1 1 1 1 1 1 1 1 1 1 1 1 1 1 1 1 1 1 1 1 1 1
1 1 1 1 1 1 1 1 1 1 1 1 1 1 1 1 1 1 1 1 1 1 1 1 1 1 1 1 1 1 1 1 1 1
1 1 1 1 1 1 1 1 1 1 1 1 1 1 1 1 1 1 1 1 1 1 1 1 1 1 1 1 1 1 1 1 1 1
1 1 1 1 1 1 1 1 1 1 1 1 1 1 1 1 1 1 1 1 1 1 1 1 1 1 1 1 1 1 1 1 1 1
1 1 1 1 1 1 1 1 1 1 1 1 1 1 1 1 1 1 1 1 1 1 1 1 1 1 1 1 1 1 1 1 1 1
1 1 1 1 1 1 1 1 1 1 1 1 1 1 1 1 1 1 1 1 1 1 1 1 1 1 1 1 1 1 1 1 1 1
1 1 1 1 1 1 1 1 1 1 1 1 1 1 1 1 1 1 1 1 1 1 1 1 1 1 1 1 1 1 1 1 1 1
1 1 1 1 1 1 1 1 1 1 1 1 1 1 1 1 1 1 1 1 1 1 1 1 1 1 1 1 1 1 1 1 1 1
1 1 1 1 1 1 1 1 1 1 1 1 1 1 1 1 1 1 1 1 1 1 1 1 1 1 1 1 1 1 1 1 1 1
1 1 1 1 1 1 1 1 1 1 1 1 1 1 1 1 1 1 1 1 1 1 1 1 1 1 1 1 1 1 1 1 1 1
1 1 1 1 1 1 1 1 1 1 1 1 1 1 1 1 1 1 1 1 1 1 1 1 1 1 1 1 1 1 1 1 1 1
1 1 1 1 1 1 1 1 1 1 1 1 1 1 1 1 1 1 1 1 1 1 1 1 1 1 1 1 1 1 1 1 1 1
1 1 1 1 1 1 1 1 1 1 1 1 1 1 1 1 1 1 1 1 1 1 1 1 1 1 1 1 1 1 1 1 1 1
1 1 1 1 1 1 1 1 1 1 1 1 1 1 1 1 1;
#A 1000 1 1 1 1 1 1 1 1 1 1 1 1 1 1 1 1 1 1 1 1 1 1 1 1;
#X coords 0 1 1024 -1 200 140 1;
#X restore 218 42 graph;
#X obj 27 86 s \$0mask;
#X msg 27 59 resize \$1 \, const 1 \, 0 0;
#X obj 27 38 r \$0window-size;
#X connect 2 0 1 0;
#X connect 3 0 2 0;
#X restore 404 -3 pd mask;
#N canvas 572 342 507 248 Hann-window 0;
#N canvas 0 22 450 300 (subpatch) 0;
#X array \$0-hann 1024 float 0;
#X coords 0 1 1023 0 200 120 1;
#X restore 279 22 graph;
#X msg 165 58 resize \$1;
#X obj 165 82 s \$0-hann;
#X obj 29 -34 r \$0window-size;
#X obj 47 62 samplerate~;
#X obj 47 84 / 512;
#X obj 47 106 osc~;
#X obj 48 145 +~ 0.5;
#X obj 29 167 tabwrite~ \$0-hann;
#X msg 121 62 0;
#X obj 47 125 *~ -0.5;
#X obj 29 7 t b f;
#X obj 73 40 /;
#X obj 88 13 r \$0interp;
#X connect 1 0 2 0;
#X connect 3 0 11 0;
#X connect 4 0 5 0;
#X connect 5 0 6 0;
#X connect 6 0 10 0;
#X connect 7 0 8 0;
#X connect 9 0 6 1;
#X connect 10 0 7 0;
#X connect 11 0 9 0;
#X connect 11 0 4 0;
#X connect 11 0 8 0;
#X connect 11 1 12 0;
#X connect 11 1 1 0;
#X connect 12 0 5 1;
#X connect 13 0 12 1;
#X restore 317 -24 pd Hann-window;
#N canvas 540 276 469 231 freqwindow 0;
#N canvas 0 22 450 300 (subpatch) 0;
#X array \$0freq 1024 float 2;
#X coords 0 44100 1024 0 200 140 1;
#X restore 234 -35 graph;
#X msg 153 45 resize \$1;
#X obj 16 -29 r \$0window-size;
#X obj 35 51 samplerate~;
#X obj 36 74 / 512;
#X msg 109 51 0;
#X obj 16 -5 t b f;
#X obj 35 95 phasor~;
#X obj 34 118 *~;
#X obj 153 69 s \$0freq;
#X obj 17 143 tabwrite~ \$0freq;
#X obj 62 27 /;
#X obj 77 3 r \$0interp;
#X connect 1 0 9 0;
#X connect 2 0 6 0;
#X connect 3 0 8 1;
#X connect 3 0 4 0;
#X connect 4 0 7 0;
#X connect 5 0 7 1;
#X connect 6 0 5 0;
#X connect 6 0 3 0;
#X connect 6 0 10 0;
#X connect 6 1 1 0;
#X connect 6 1 11 0;
#X connect 7 0 8 0;
#X connect 8 0 10 0;
#X connect 11 0 4 1;
#X connect 12 0 11 1;
#X restore 316 -4 pd freqwindow;
#X obj 68 102 *~;
#X obj 129 19 route rt table norm off;
#X obj 228 146 b;
#X msg 228 170 0;
#N canvas 576 69 415 207 rt 0;
#X obj 183 158 outlet;
#X msg 183 121 set \$1 \$2;
#X obj 164 42 inlet;
#X obj 164 70 t b l l;
#X obj 137 158 outlet;
#X msg 137 126 1;
#X obj 261 145 s \$0window-size;
#X obj 261 117 unpack;
#X obj 295 170 s \$0interp;
#X connect 1 0 0 0;
#X connect 2 0 3 0;
#X connect 3 0 5 0;
#X connect 3 1 1 0;
#X connect 3 2 7 0;
#X connect 5 0 4 0;
#X connect 7 0 6 0;
#X connect 7 1 8 0;
#X restore 129 53 pd rt;
#X obj 167 51 t a b;
#X msg 205 82 0;
#X obj 129 -1 inlet;
#X obj 68 32 inlet~;
#X obj 62 272 outlet;
#X obj 402 38 table three\$0;
#X obj 418 173 s three\$0;
#X obj 402 58 table four\$0;
#X obj 418 193 s four\$0;
#X connect 1 0 0 0;
#X connect 1 1 0 0;
#X connect 2 0 23 0;
#X connect 2 0 1 0;
#X connect 4 0 5 0;
#X connect 4 0 7 0;
#X connect 4 0 10 0;
#X connect 4 0 25 0;
#X connect 4 0 27 0;
#X connect 8 0 4 0;
#X connect 14 0 2 0;
#X connect 15 0 18 0;
#X connect 15 1 19 0;
#X connect 15 2 2 1;
#X connect 15 3 16 0;
#X connect 16 0 17 0;
#X connect 17 0 0 0;
#X connect 18 0 0 0;
#X connect 18 0 14 1;
#X connect 18 1 0 0;
#X connect 19 0 1 1;
#X connect 19 1 20 0;
#X connect 20 0 14 1;
#X connect 20 0 0 0;
#X connect 21 0 15 0;
#X connect 22 0 14 0;
