#N canvas 552 23 888 811 10;
#X declare -lib iemmatrix;
#X declare -lib iemmatrix;
#X declare -lib iemmatrix;
#X declare -lib iemmatrix;
#X declare -lib iem_tab;
#X declare -lib iem_tab;
#X declare -lib iem_tab;
#X declare -lib iem_tab;
#X declare -lib iem_tab;
#X declare -lib iem_tab;
#X declare -lib iem_tab;
#X declare -lib iem_tab;
#N canvas -3 23 980 851 database 0;
#X obj -4 -9 inlet;
#X obj 246 -9 inlet;
#X obj 96 264 folder_list;
#X obj 96 240 makefilename %s/*;
#X obj 96 284 symbol2list /;
#X obj 96 306 t l l;
#X obj 141 326 list length;
#X obj 141 348 - 1;
#X obj 96 367 list-idx;
#X obj 39 141 tof/pmenu;
#X obj 39 -9 loadbang;
#X obj 96 180 symbol;
#X obj 117 432 list prepend;
#X obj 198 432 list;
#X obj 96 408 del 50;
#X obj 96 456 list;
#X obj 96 476 prepend add2 add;
#X obj 96 536 tof/pmenu;
#X obj 96 220 t a b;
#X msg 445 180 clear;
#X obj 96 387 t b a;
#X obj 96 496 t b a;
#X msg 236 476 set;
#N canvas 0 22 450 300 list 0;
#X obj 53 1 inlet;
#X msg 53 27;
#X obj 53 271 outlet;
#X connect 0 0 1 0;
#X connect 1 0 2 0;
#X restore 96 516 pd list;
#X obj 155 595 pack s s;
#X obj 153 575 t b b b a;
#X obj 155 645 spigot;
#X msg 188 617 1;
#X msg 218 617 0;
#X msg 155 685 /Users/Eiji/Documents/sound_db2/Flute/Contrabass-Flute-ordinario
;
#X msg 155 665 set \$1/\$2;
#X msg 245 572 set;
#X obj 218 540 t b b;
#X obj 155 704 folderspiller;
#X floatatom 39 722 5 0 0 0 - - -;
#X obj -44 758 spigot;
#X obj 6 758 spigot;
#X obj 56 758 spigot;
#X obj 106 758 spigot;
#X obj 156 758 spigot;
#X obj 206 758 spigot;
#X obj 256 758 spigot;
#X obj 306 758 spigot;
#X obj 356 758 spigot;
#X obj 406 758 spigot;
#X obj 456 758 spigot;
#X obj 506 758 spigot;
#X obj 556 758 spigot;
#X obj 606 758 spigot;
#X obj 656 758 spigot;
#X obj 706 758 spigot;
#X obj 39 161 unpack f s;
#X obj 96 555 unpack f s;
#X obj 39 11 t b b b b;
#N canvas 5 44 1160 856 accordion 0;
#X obj 82 6 inlet;
#X msg 82 78;
#X msg 138 37 set;
#X obj 138 6 loadbang;
#X obj 258 7 r clear;
#X obj 540 85 length;
#X floatatom 525 136 5 0 0 0 - - -;
#X obj 525 169 t b f;
#X symbolatom 495 230 80 0 0 0 - - -;
#X obj 495 201 list-idx 2;
#X msg 82 36 add2 \$1;
#X obj 525 109 urn;
#X obj 525 6 r gen_rdn;
#X obj 495 253 s accordion_rdn;
#X msg 653 142 set symbol;
#X obj 258 37 t b b;
#X obj 371 8 r activate;
#X obj 371 28 t b;
#X connect 0 0 10 0;
#X connect 1 0 9 0;
#X connect 1 0 5 0;
#X connect 2 0 1 0;
#X connect 3 0 2 0;
#X connect 4 0 15 0;
#X connect 5 0 11 1;
#X connect 6 0 7 0;
#X connect 7 0 1 0;
#X connect 7 1 9 1;
#X connect 8 0 13 0;
#X connect 9 0 8 0;
#X connect 10 0 1 0;
#X connect 11 0 6 0;
#X connect 12 0 11 0;
#X connect 14 0 8 0;
#X connect 15 0 2 0;
#X connect 15 1 14 0;
#X connect 16 0 17 0;
#X connect 17 0 1 0;
#X restore -44 779 pd accordion;
#N canvas 0 22 1436 701 Bass-Tuba 0;
#X obj 92 16 inlet;
#X msg 92 98;
#X msg 148 37 set;
#X obj 148 16 loadbang;
#X obj 208 17 r clear;
#X obj 208 37 t b;
#X obj 568 95 length;
#X floatatom 535 146 5 0 0 0 - - -;
#X obj 535 179 t b f;
#X symbolatom 505 240 80 0 0 0 - - -;
#X obj 505 211 list-idx 2;
#X msg 92 36 add2 \$1;
#X obj 535 119 urn;
#X obj 535 26 r gen_rdn;
#X obj 505 263 s Bass-Tuba_rdn;
#X obj 271 18 r activate;
#X obj 271 38 t b;
#X connect 0 0 11 0;
#X connect 1 0 10 0;
#X connect 1 0 6 0;
#X connect 2 0 1 0;
#X connect 3 0 2 0;
#X connect 4 0 5 0;
#X connect 5 0 2 0;
#X connect 6 0 12 1;
#X connect 7 0 8 0;
#X connect 8 0 1 0;
#X connect 8 1 10 1;
#X connect 9 0 14 0;
#X connect 10 0 9 0;
#X connect 11 0 1 0;
#X connect 12 0 7 0;
#X connect 13 0 12 0;
#X connect 15 0 16 0;
#X connect 16 0 1 0;
#X restore 6 799 pd Bass-Tuba;
#N canvas 0 22 991 662 Bassoon 0;
#X obj 102 26 inlet;
#X msg 102 118;
#X msg 158 47 set;
#X obj 158 26 loadbang;
#X obj 218 27 r clear;
#X obj 218 47 t b;
#X obj 588 115 length;
#X floatatom 525 156 5 0 0 0 - - -;
#X obj 525 189 t b f;
#X symbolatom 495 250 80 0 0 0 - - -;
#X obj 495 221 list-idx 2;
#X msg 102 46 add2 \$1;
#X obj 525 129 urn;
#X obj 525 39 r gen_rdn;
#X obj 495 273 s Bassoon_rdn;
#X obj 281 28 r activate;
#X obj 281 48 t b;
#X connect 0 0 11 0;
#X connect 1 0 10 0;
#X connect 1 0 6 0;
#X connect 2 0 1 0;
#X connect 3 0 2 0;
#X connect 4 0 5 0;
#X connect 5 0 2 0;
#X connect 6 0 12 1;
#X connect 7 0 8 0;
#X connect 8 0 1 0;
#X connect 8 1 10 1;
#X connect 9 0 14 0;
#X connect 10 0 9 0;
#X connect 11 0 1 0;
#X connect 12 0 7 0;
#X connect 13 0 12 0;
#X connect 15 0 16 0;
#X connect 16 0 1 0;
#X restore 56 779 pd Bassoon;
#N canvas 234 444 987 407 Bb-Clarinet 0;
#X obj 82 6 inlet;
#X msg 82 78;
#X msg 133 27 set;
#X obj 133 6 loadbang;
#X obj 203 6 r clear;
#X obj 203 26 t b;
#X obj 589 59 length;
#X msg 82 26 add2 \$1;
#X floatatom 515 126 5 0 0 0 - - -;
#X obj 515 159 t b f;
#X symbolatom 485 220 80 0 0 0 - - -;
#X obj 485 191 list-idx 2;
#X obj 515 99 urn;
#X obj 509 21 r gen_rdn;
#X obj 485 243 s Bb-Clarinet_rdn;
#X obj 261 6 r activate;
#X obj 261 26 t b;
#X connect 0 0 7 0;
#X connect 1 0 6 0;
#X connect 1 0 11 0;
#X connect 2 0 1 0;
#X connect 3 0 2 0;
#X connect 4 0 5 0;
#X connect 5 0 2 0;
#X connect 6 0 12 1;
#X connect 7 0 1 0;
#X connect 8 0 9 0;
#X connect 9 0 1 0;
#X connect 9 1 11 1;
#X connect 10 0 14 0;
#X connect 11 0 10 0;
#X connect 12 0 8 0;
#X connect 13 0 12 0;
#X connect 15 0 16 0;
#X connect 16 0 1 0;
#X restore 106 799 pd Bb-Clarinet;
#N canvas 0 22 520 389 C-Trumpet 0;
#X obj 2 6 inlet;
#X msg 2 118;
#X msg 58 27 set;
#X obj 58 6 loadbang;
#X obj 118 7 r clear;
#X obj 118 27 t b;
#X obj 478 85 length;
#X floatatom 445 136 5 0 0 0 - - -;
#X obj 445 169 t b f;
#X symbolatom 415 230 80 0 0 0 - - -;
#X obj 415 201 list-idx 2;
#X msg 2 26 add2 \$1;
#X obj 445 109 urn;
#X obj 445 49 r gen_rdn;
#X obj 415 253 s C-Trumpet_rdn;
#X obj 181 6 r activate;
#X obj 181 26 t b;
#X connect 0 0 11 0;
#X connect 1 0 10 0;
#X connect 1 0 6 0;
#X connect 2 0 1 0;
#X connect 3 0 2 0;
#X connect 4 0 5 0;
#X connect 5 0 2 0;
#X connect 6 0 12 1;
#X connect 7 0 8 0;
#X connect 8 0 1 0;
#X connect 8 1 10 1;
#X connect 9 0 14 0;
#X connect 10 0 9 0;
#X connect 11 0 1 0;
#X connect 12 0 7 0;
#X connect 13 0 12 0;
#X connect 15 0 16 0;
#X connect 16 0 1 0;
#X restore 156 818 pd C-Trumpet;
#N canvas 0 22 520 389 Contrabass 0;
#X obj 2 6 inlet;
#X msg 2 118;
#X msg 58 27 set;
#X obj 58 6 loadbang;
#X obj 118 7 r clear;
#X obj 118 27 t b;
#X obj 478 85 length;
#X floatatom 445 136 5 0 0 0 - - -;
#X obj 445 169 t b f;
#X symbolatom 415 230 80 0 0 0 - - -;
#X obj 415 201 list-idx 2;
#X msg 2 26 add2 \$1;
#X obj 445 109 urn;
#X obj 445 59 r gen_rdn;
#X obj 415 253 s Contrabass_rdn;
#X obj 191 16 r activate;
#X obj 191 36 t b;
#X connect 0 0 11 0;
#X connect 1 0 10 0;
#X connect 1 0 6 0;
#X connect 2 0 1 0;
#X connect 3 0 2 0;
#X connect 4 0 5 0;
#X connect 5 0 2 0;
#X connect 6 0 12 1;
#X connect 7 0 8 0;
#X connect 8 0 1 0;
#X connect 8 1 10 1;
#X connect 9 0 14 0;
#X connect 10 0 9 0;
#X connect 11 0 1 0;
#X connect 12 0 7 0;
#X connect 13 0 12 0;
#X connect 15 0 16 0;
#X connect 16 0 1 0;
#X restore 206 798 pd Contrabass;
#N canvas 0 22 520 389 Eb-Alto-Saxophone 0;
#X obj 2 6 inlet;
#X msg 2 108;
#X msg 58 27 set;
#X obj 58 6 loadbang;
#X obj 118 7 r clear;
#X obj 118 27 t b;
#X obj 478 85 length;
#X floatatom 445 136 5 0 0 0 - - -;
#X obj 445 169 t b f;
#X symbolatom 415 230 80 0 0 0 - - -;
#X obj 415 201 list-idx 2;
#X msg 2 26 add2 \$1;
#X obj 445 109 urn;
#X obj 445 59 r gen_rdn;
#X obj 415 253 s Eb-Alto-Saxophone_rdn;
#X obj 171 6 r activate;
#X obj 171 26 t b;
#X connect 0 0 11 0;
#X connect 1 0 10 0;
#X connect 1 0 6 0;
#X connect 2 0 1 0;
#X connect 3 0 2 0;
#X connect 4 0 5 0;
#X connect 5 0 2 0;
#X connect 6 0 12 1;
#X connect 7 0 8 0;
#X connect 8 0 1 0;
#X connect 8 1 10 1;
#X connect 9 0 14 0;
#X connect 10 0 9 0;
#X connect 11 0 1 0;
#X connect 12 0 7 0;
#X connect 13 0 12 0;
#X connect 15 0 16 0;
#X connect 16 0 1 0;
#X restore 256 818 pd Eb-Alto-Saxophone;
#N canvas 0 22 520 389 Flute 0;
#X obj 2 6 inlet;
#X msg 2 98;
#X msg 58 27 set;
#X obj 58 6 loadbang;
#X obj 118 7 r clear;
#X obj 118 27 t b;
#X obj 478 85 length;
#X floatatom 445 136 5 0 0 0 - - -;
#X obj 445 169 t b f;
#X symbolatom 415 230 80 0 0 0 - - -;
#X obj 415 201 list-idx 2;
#X msg 2 26 add2 \$1;
#X obj 445 109 urn;
#X obj 445 49 r gen_rdn;
#X obj 415 253 s Flute_rdn;
#X obj 171 6 r activate;
#X obj 171 26 t b;
#X connect 0 0 11 0;
#X connect 1 0 10 0;
#X connect 1 0 6 0;
#X connect 2 0 1 0;
#X connect 3 0 2 0;
#X connect 4 0 5 0;
#X connect 5 0 2 0;
#X connect 6 0 12 1;
#X connect 7 0 8 0;
#X connect 8 0 1 0;
#X connect 8 1 10 1;
#X connect 9 0 14 0;
#X connect 10 0 9 0;
#X connect 11 0 1 0;
#X connect 12 0 7 0;
#X connect 13 0 12 0;
#X connect 15 0 16 0;
#X connect 16 0 1 0;
#X restore 306 798 pd Flute;
#N canvas 0 22 981 492 Guitar 0;
#X obj 2 6 inlet;
#X msg 2 118;
#X msg 58 27 set;
#X obj 58 6 loadbang;
#X obj 118 7 r clear;
#X obj 118 27 t b;
#X obj 478 85 length;
#X floatatom 445 136 5 0 0 0 - - -;
#X obj 445 169 t b f;
#X symbolatom 415 230 80 0 0 0 - - -;
#X obj 415 201 list-idx 2;
#X msg 2 26 add2 \$1;
#X obj 445 109 urn;
#X obj 445 49 r gen_rdn;
#X obj 415 253 s Flute_rdn;
#X obj 181 16 r activate;
#X obj 181 36 t b;
#X connect 0 0 11 0;
#X connect 1 0 10 0;
#X connect 1 0 6 0;
#X connect 2 0 1 0;
#X connect 3 0 2 0;
#X connect 4 0 5 0;
#X connect 5 0 2 0;
#X connect 6 0 12 1;
#X connect 7 0 8 0;
#X connect 8 0 1 0;
#X connect 8 1 10 1;
#X connect 9 0 14 0;
#X connect 10 0 9 0;
#X connect 11 0 1 0;
#X connect 12 0 7 0;
#X connect 13 0 12 0;
#X connect 15 0 16 0;
#X connect 16 0 1 0;
#X restore 386 818 pd Guitar;
#N canvas 0 22 520 389 Harp 0;
#X obj 2 6 inlet;
#X msg 2 98;
#X msg 58 27 set;
#X obj 58 6 loadbang;
#X obj 118 7 r clear;
#X obj 118 27 t b;
#X obj 478 85 length;
#X floatatom 445 136 5 0 0 0 - - -;
#X obj 445 169 t b f;
#X symbolatom 415 230 80 0 0 0 - - -;
#X obj 415 201 list-idx 2;
#X msg 2 26 add2 \$1;
#X obj 445 109 urn;
#X obj 445 49 r gen_rdn;
#X obj 415 253 s Harp_rdn;
#X obj 171 6 r activate;
#X obj 171 26 t b;
#X connect 0 0 11 0;
#X connect 1 0 10 0;
#X connect 1 0 6 0;
#X connect 2 0 1 0;
#X connect 3 0 2 0;
#X connect 4 0 5 0;
#X connect 5 0 2 0;
#X connect 6 0 12 1;
#X connect 7 0 8 0;
#X connect 8 0 1 0;
#X connect 8 1 10 1;
#X connect 9 0 14 0;
#X connect 10 0 9 0;
#X connect 11 0 1 0;
#X connect 12 0 7 0;
#X connect 13 0 12 0;
#X connect 15 0 16 0;
#X connect 16 0 1 0;
#X restore 406 798 pd Harp;
#N canvas 0 22 520 389 Horn 0;
#X obj 2 -4 inlet;
#X msg 2 98;
#X msg 58 17 set;
#X obj 58 -4 loadbang;
#X obj 118 -3 r clear;
#X obj 118 17 t b;
#X obj 478 75 length;
#X floatatom 445 126 5 0 0 0 - - -;
#X obj 445 159 t b f;
#X symbolatom 415 220 80 0 0 0 - - -;
#X obj 415 191 list-idx 2;
#X msg 2 16 add2 \$1;
#X obj 445 99 urn;
#X obj 445 49 r gen_rdn;
#X obj 415 243 s Horn_rdn;
#X obj 171 -4 r activate;
#X obj 171 16 t b;
#X connect 0 0 11 0;
#X connect 1 0 10 0;
#X connect 1 0 6 0;
#X connect 2 0 1 0;
#X connect 3 0 2 0;
#X connect 4 0 5 0;
#X connect 5 0 2 0;
#X connect 6 0 12 1;
#X connect 7 0 8 0;
#X connect 8 0 1 0;
#X connect 8 1 10 1;
#X connect 9 0 14 0;
#X connect 10 0 9 0;
#X connect 11 0 1 0;
#X connect 12 0 7 0;
#X connect 13 0 12 0;
#X connect 15 0 16 0;
#X connect 16 0 1 0;
#X restore 456 818 pd Horn;
#N canvas 7 22 943 458 Oboe 0;
#X obj 2 6 inlet;
#X msg 2 108;
#X msg 58 27 set;
#X obj 58 6 loadbang;
#X obj 118 7 r clear;
#X obj 118 27 t b;
#X obj 478 85 length;
#X floatatom 445 136 5 0 0 0 - - -;
#X obj 445 169 t b f;
#X symbolatom 415 230 80 0 0 0 - - -;
#X obj 415 201 list-idx 2;
#X msg 2 26 add2 \$1;
#X obj 445 109 urn;
#X obj 445 29 r gen_rdn;
#X obj 398 69 bng 15 250 50 0 empty empty empty 17 7 0 10 -262144 -1
-1;
#X obj 415 253 s Oboe_rdn;
#X obj 181 6 r activate;
#X obj 181 26 t b;
#X connect 0 0 11 0;
#X connect 1 0 10 0;
#X connect 1 0 6 0;
#X connect 2 0 1 0;
#X connect 3 0 2 0;
#X connect 4 0 5 0;
#X connect 5 0 2 0;
#X connect 6 0 12 1;
#X connect 7 0 8 0;
#X connect 8 0 1 0;
#X connect 8 1 10 1;
#X connect 9 0 15 0;
#X connect 10 0 9 0;
#X connect 11 0 1 0;
#X connect 12 0 7 0;
#X connect 13 0 12 0;
#X connect 14 0 12 0;
#X connect 16 0 17 0;
#X connect 17 0 1 0;
#X restore 506 798 pd Oboe;
#N canvas 0 22 520 389 Trombone 0;
#X obj 2 6 inlet;
#X msg 2 98;
#X msg 58 27 set;
#X obj 58 6 loadbang;
#X obj 118 7 r clear;
#X obj 118 27 t b;
#X obj 478 85 length;
#X floatatom 445 136 5 0 0 0 - - -;
#X obj 445 169 t b f;
#X symbolatom 415 230 80 0 0 0 - - -;
#X obj 415 201 list-idx 2;
#X msg 2 26 add2 \$1;
#X obj 445 109 urn;
#X obj 445 49 r gen_rdn;
#X obj 415 253 s Trombone_rdn;
#X obj 181 6 r activate;
#X obj 181 26 t b;
#X connect 0 0 11 0;
#X connect 1 0 10 0;
#X connect 1 0 6 0;
#X connect 2 0 1 0;
#X connect 3 0 2 0;
#X connect 4 0 5 0;
#X connect 5 0 2 0;
#X connect 6 0 12 1;
#X connect 7 0 8 0;
#X connect 8 0 1 0;
#X connect 8 1 10 1;
#X connect 9 0 14 0;
#X connect 10 0 9 0;
#X connect 11 0 1 0;
#X connect 12 0 7 0;
#X connect 13 0 12 0;
#X connect 15 0 16 0;
#X connect 16 0 1 0;
#X restore 556 818 pd Trombone;
#N canvas 0 22 520 389 Viola 0;
#X obj 2 -4 inlet;
#X msg 2 88;
#X msg 58 17 set;
#X obj 58 -4 loadbang;
#X obj 118 -3 r clear;
#X obj 118 17 t b;
#X obj 478 75 length;
#X floatatom 445 126 5 0 0 0 - - -;
#X obj 445 159 t b f;
#X symbolatom 415 220 80 0 0 0 - - -;
#X obj 415 191 list-idx 2;
#X msg 2 16 add2 \$1;
#X obj 445 99 urn;
#X obj 445 39 r gen_rdn;
#X obj 415 243 s Viola_rdn;
#X obj 171 -4 r activate;
#X obj 171 16 t b;
#X connect 0 0 11 0;
#X connect 1 0 10 0;
#X connect 1 0 6 0;
#X connect 2 0 1 0;
#X connect 3 0 2 0;
#X connect 4 0 5 0;
#X connect 5 0 2 0;
#X connect 6 0 12 1;
#X connect 7 0 8 0;
#X connect 8 0 1 0;
#X connect 8 1 10 1;
#X connect 9 0 14 0;
#X connect 10 0 9 0;
#X connect 11 0 1 0;
#X connect 12 0 7 0;
#X connect 13 0 12 0;
#X connect 15 0 16 0;
#X connect 16 0 1 0;
#X restore 606 798 pd Viola;
#N canvas 20 22 906 449 Violin 0;
#X obj 2 -4 inlet;
#X msg 2 88;
#X msg 58 17 set;
#X obj 58 -4 loadbang;
#X obj 118 -3 r clear;
#X obj 118 17 t b;
#X obj 478 75 length;
#X floatatom 445 126 5 0 0 0 - - -;
#X obj 445 159 t b f;
#X symbolatom 415 220 80 0 0 0 - - -;
#X obj 415 191 list-idx 2;
#X msg 2 16 add2 \$1;
#X obj 445 99 urn;
#X obj 445 39 r gen_rdn;
#X obj 415 243 s Violin_rdn;
#X obj 181 6 r activate;
#X obj 181 26 t b;
#X connect 0 0 11 0;
#X connect 1 0 10 0;
#X connect 1 0 6 0;
#X connect 2 0 1 0;
#X connect 3 0 2 0;
#X connect 4 0 5 0;
#X connect 5 0 2 0;
#X connect 6 0 12 1;
#X connect 7 0 8 0;
#X connect 8 0 1 0;
#X connect 8 1 10 1;
#X connect 9 0 14 0;
#X connect 10 0 9 0;
#X connect 11 0 1 0;
#X connect 12 0 7 0;
#X connect 13 0 12 0;
#X connect 15 0 16 0;
#X connect 16 0 1 0;
#X restore 656 818 pd Violin;
#N canvas 0 22 642 334 Violoncello 0;
#X obj 2 -4 inlet;
#X msg 2 78;
#X msg 58 17 set;
#X obj 58 -4 loadbang;
#X obj 118 -3 r clear;
#X obj 118 17 t b;
#X obj 478 75 length;
#X floatatom 445 126 5 0 0 0 - - -;
#X obj 445 159 t b f;
#X symbolatom 415 220 80 0 0 0 - - -;
#X obj 415 191 list-idx 2;
#X msg 2 16 add2 \$1;
#X obj 445 99 urn;
#X obj 445 49 r gen_rdn;
#X obj 415 243 s Violoncello_rdn;
#X obj 181 -4 r activate;
#X obj 181 16 t b;
#X connect 0 0 11 0;
#X connect 1 0 10 0;
#X connect 1 0 6 0;
#X connect 2 0 1 0;
#X connect 3 0 2 0;
#X connect 4 0 5 0;
#X connect 5 0 2 0;
#X connect 6 0 12 1;
#X connect 7 0 8 0;
#X connect 8 0 1 0;
#X connect 8 1 10 1;
#X connect 9 0 14 0;
#X connect 10 0 9 0;
#X connect 11 0 1 0;
#X connect 12 0 7 0;
#X connect 13 0 12 0;
#X connect 15 0 16 0;
#X connect 16 0 1 0;
#X restore 706 798 pd Violoncello;
#X obj -11 738 == 0;
#X obj 39 738 == 1;
#X obj 89 738 == 2;
#X obj 139 738 == 3;
#X obj 189 738 == 4;
#X obj 239 738 == 5;
#X obj 289 738 == 6;
#X obj 339 738 == 7;
#X obj 389 738 == 8;
#X obj 439 738 == 9;
#X obj 489 738 == 10;
#X obj 539 738 == 11;
#X obj 589 738 == 12;
#X obj 639 738 == 13;
#X obj 689 738 == 14;
#X obj 739 738 == 15;
#X obj 436 -9 inlet;
#X obj 646 -9 inlet;
#X obj 436 21 t b;
#X obj 538 663 outlet;
#X obj 598 663 outlet;
#X obj 9 121 t b b b b;
#X msg 146 121 clear;
#X obj -44 -9 inlet;
#X obj 716 -9 inlet;
#X obj 716 11 t b b;
#X obj -44 11 t b;
#X obj -44 31 s activate;
#X obj 746 778 spigot;
#X obj 779 738 == 16;
#N canvas 0 22 642 334 Percussion 0;
#X obj 2 -4 inlet;
#X msg 2 78;
#X msg 58 17 set;
#X obj 58 -4 loadbang;
#X obj 118 -3 r clear;
#X obj 118 17 t b;
#X obj 478 75 length;
#X floatatom 445 126 5 0 0 0 - - -;
#X obj 445 159 t b f;
#X symbolatom 415 220 80 0 0 0 - - -;
#X obj 415 191 list-idx 2;
#X msg 2 16 add2 \$1;
#X obj 445 99 urn;
#X obj 445 49 r gen_rdn;
#X obj 181 -4 r activate;
#X obj 181 16 t b;
#X obj 415 243 s Percussion_rdn;
#X connect 0 0 11 0;
#X connect 1 0 10 0;
#X connect 1 0 6 0;
#X connect 2 0 1 0;
#X connect 3 0 2 0;
#X connect 4 0 5 0;
#X connect 5 0 2 0;
#X connect 6 0 12 1;
#X connect 7 0 8 0;
#X connect 8 0 1 0;
#X connect 8 1 10 1;
#X connect 9 0 16 0;
#X connect 10 0 9 0;
#X connect 11 0 1 0;
#X connect 12 0 7 0;
#X connect 13 0 12 0;
#X connect 14 0 15 0;
#X connect 15 0 1 0;
#X restore 746 818 pd Percussion;
#X obj 796 778 spigot;
#X obj 829 738 == 17;
#N canvas 0 22 642 334 Piano 0;
#X obj 2 -4 inlet;
#X msg 2 78;
#X msg 58 17 set;
#X obj 58 -4 loadbang;
#X obj 118 -3 r clear;
#X obj 118 17 t b;
#X obj 478 75 length;
#X floatatom 445 126 5 0 0 0 - - -;
#X obj 445 159 t b f;
#X symbolatom 415 220 80 0 0 0 - - -;
#X obj 415 191 list-idx 2;
#X msg 2 16 add2 \$1;
#X obj 445 99 urn;
#X obj 445 49 r gen_rdn;
#X obj 181 -4 r activate;
#X obj 181 16 t b;
#X obj 415 243 s Piano_rdn;
#X connect 0 0 11 0;
#X connect 1 0 10 0;
#X connect 1 0 6 0;
#X connect 2 0 1 0;
#X connect 3 0 2 0;
#X connect 4 0 5 0;
#X connect 5 0 2 0;
#X connect 6 0 12 1;
#X connect 7 0 8 0;
#X connect 8 0 1 0;
#X connect 8 1 10 1;
#X connect 9 0 16 0;
#X connect 10 0 9 0;
#X connect 11 0 1 0;
#X connect 12 0 7 0;
#X connect 13 0 12 0;
#X connect 14 0 15 0;
#X connect 15 0 1 0;
#X restore 796 798 pd Piano;
#X msg 634 310;
#X msg 634 290 set \$1;
#X obj 574 410 makefilename %s;
#X obj 574 330 list;
#X msg 574 350 set \$1/\$2;
#X msg 574 370;
#X obj 574 310 t b b a;
#X obj 574 390 symbol;
#X obj 634 250 r folderpanel;
#X obj 724 250 loadbang;
#X msg 724 290 set;
#X msg 39 31 add Accordion Bass-Tuba_Contrabass-Tuba Bassoon Bb-Clarinet_Bass-Clarinet_Contrabass-Clarinet_Clarinet-Eb
C-Trumpet Contrabass Eb-Alto-Saxophone Flute_Bass-Flute_Contrabass-Flute_Piccolo
Guitar Harp Horn Oboe_English-Horn Trombone_Bass-trombone Viola Violin
Violoncello percussion-philharmonia UMA_Piano;
#X connect 0 0 91 0;
#X connect 1 0 17 0;
#X connect 2 0 4 0;
#X connect 3 0 2 0;
#X connect 4 0 5 0;
#X connect 5 0 8 0;
#X connect 5 1 6 0;
#X connect 6 0 7 0;
#X connect 7 0 8 1;
#X connect 8 0 20 0;
#X connect 9 0 51 0;
#X connect 10 0 53 0;
#X connect 11 0 89 0;
#X connect 12 0 13 0;
#X connect 12 0 15 1;
#X connect 13 0 12 1;
#X connect 14 0 15 0;
#X connect 15 0 16 0;
#X connect 16 0 21 0;
#X connect 17 0 52 0;
#X connect 18 0 3 0;
#X connect 19 0 17 0;
#X connect 20 0 14 0;
#X connect 20 1 12 0;
#X connect 21 0 23 0;
#X connect 21 1 23 0;
#X connect 22 0 23 0;
#X connect 23 0 17 0;
#X connect 24 0 26 0;
#X connect 25 0 29 0;
#X connect 25 1 24 0;
#X connect 25 2 27 0;
#X connect 25 3 24 1;
#X connect 26 0 30 0;
#X connect 27 0 26 1;
#X connect 28 0 26 1;
#X connect 29 0 33 0;
#X connect 30 0 29 0;
#X connect 31 0 29 0;
#X connect 32 0 28 0;
#X connect 32 1 31 0;
#X connect 33 0 35 0;
#X connect 33 0 36 0;
#X connect 33 0 37 0;
#X connect 33 0 38 0;
#X connect 33 0 39 0;
#X connect 33 0 40 0;
#X connect 33 0 41 0;
#X connect 33 0 42 0;
#X connect 33 0 43 0;
#X connect 33 0 44 0;
#X connect 33 0 45 0;
#X connect 33 0 47 0;
#X connect 33 0 46 0;
#X connect 33 0 48 0;
#X connect 33 0 49 0;
#X connect 33 0 50 0;
#X connect 33 0 98 0;
#X connect 33 0 101 0;
#X connect 34 0 70 0;
#X connect 34 0 71 0;
#X connect 34 0 72 0;
#X connect 34 0 73 0;
#X connect 34 0 74 0;
#X connect 34 0 75 0;
#X connect 34 0 76 0;
#X connect 34 0 77 0;
#X connect 34 0 78 0;
#X connect 34 0 79 0;
#X connect 34 0 80 0;
#X connect 34 0 81 0;
#X connect 34 0 82 0;
#X connect 34 0 83 0;
#X connect 34 0 84 0;
#X connect 34 0 85 0;
#X connect 34 0 99 0;
#X connect 34 0 102 0;
#X connect 35 0 54 0;
#X connect 36 0 55 0;
#X connect 37 0 56 0;
#X connect 38 0 57 0;
#X connect 39 0 58 0;
#X connect 40 0 59 0;
#X connect 41 0 60 0;
#X connect 42 0 61 0;
#X connect 43 0 62 0;
#X connect 44 0 63 0;
#X connect 45 0 64 0;
#X connect 46 0 65 0;
#X connect 47 0 66 0;
#X connect 48 0 67 0;
#X connect 49 0 68 0;
#X connect 50 0 69 0;
#X connect 51 0 34 0;
#X connect 51 1 11 0;
#X connect 51 1 110 0;
#X connect 52 1 25 0;
#X connect 52 1 90 0;
#X connect 53 0 115 0;
#X connect 53 1 19 0;
#X connect 53 2 12 1;
#X connect 53 3 22 0;
#X connect 70 0 35 1;
#X connect 71 0 36 1;
#X connect 72 0 37 1;
#X connect 73 0 38 1;
#X connect 74 0 39 1;
#X connect 75 0 40 1;
#X connect 76 0 41 1;
#X connect 77 0 42 1;
#X connect 78 0 43 1;
#X connect 79 0 44 1;
#X connect 80 0 45 1;
#X connect 81 0 46 1;
#X connect 82 0 47 1;
#X connect 83 0 48 1;
#X connect 84 0 49 1;
#X connect 85 0 50 1;
#X connect 86 0 88 0;
#X connect 87 0 32 0;
#X connect 88 0 19 0;
#X connect 91 0 9 0;
#X connect 91 1 12 1;
#X connect 91 2 22 0;
#X connect 91 3 19 0;
#X connect 92 0 9 0;
#X connect 93 0 96 0;
#X connect 94 0 95 0;
#X connect 95 0 115 0;
#X connect 95 1 92 0;
#X connect 96 0 97 0;
#X connect 98 0 100 0;
#X connect 99 0 98 1;
#X connect 101 0 103 0;
#X connect 102 0 101 1;
#X connect 104 0 107 0;
#X connect 105 0 104 0;
#X connect 106 0 24 0;
#X connect 106 0 18 0;
#X connect 107 0 108 0;
#X connect 108 0 109 0;
#X connect 109 0 111 0;
#X connect 110 0 109 0;
#X connect 110 1 104 0;
#X connect 110 2 107 1;
#X connect 111 0 106 0;
#X connect 112 0 105 0;
#X connect 113 0 114 0;
#X connect 114 0 104 0;
#X connect 114 0 109 0;
#X connect 115 0 9 0;
#X restore 678 -15 pd database;
#X obj 690 -112 bng 15 250 50 0 empty empty Instrument 17 7 0 10 -262144
-1 -1;
#X obj 703 -92 bng 15 250 50 0 empty empty technique 17 7 0 10 -262144
-1 -1;
#X obj 728 -55 bng 15 250 50 0 clear empty clear-technique 17 7 0 10
-262144 -1 -1;
#X obj 715 -75 bng 15 250 50 0 clear_chroma_init empty clear 17 7 0
10 -262144 -1 -1;
#X symbolatom 678 9 0 0 0 0 - - -;
#X symbolatom 741 29 0 0 0 0 - - -;
#X obj 741 -35 bng 15 250 50 0 empty empty empty 17 7 0 10 -262144
-1 -1;
#X obj 678 49 s list_mut;
#X obj 678 69 s clean_list_mut;
#X obj 678 -132 bng 15 250 50 0 empty empty activate 17 7 0 10 -262144
-1 -1;
#X obj 473 -128 bng 15 250 50 0 empty empty iniciar_análise 17 7 0
10 -262144 -1 -1;
#X obj 143 -127 bng 15 250 50 0 empty empty descritor_1 0 -5 0 10 -262144
-1 -1;
#X symbolatom 372 -86 0 0 0 0 - - st_feature_2;
#X obj 303 -127 bng 15 250 50 0 empty empty descritor_2 0 -5 0 10 -262144
-1 -1;
#X obj 143 -67 table feature_1;
#X symbolatom 212 -87 0 0 0 0 - - st_feature_1;
#X obj 78 293 hsl 73 15 0 1 0 0 empty empty Transparência -2 -8 0
10 -262144 -1 -1 0 1;
#X obj 24 262 tgl 15 0 empty empty create_window 17 7 0 10 -262144
-1 -1 0 1;
#X obj 143 -87 s feat_1;
#X obj 303 -87 s feat_2;
#X obj 99 313 tgl 15 0 mouseover-on mouseover-on-set Mouseover 17 7
0 12 -262144 -1 -1 0 1;
#N canvas 11 22 485 856 play_gem 0;
#X obj 181 87 list prepend;
#X obj 181 67 list;
#X msg 250 68 matrix 2 \$1;
#X floatatom 250 48 5 0 0 0 - - -;
#X obj 181 107 list trim;
#X obj 181 187 list;
#X obj 181 207 list split 3;
#X obj 181 147 matrix;
#X obj 181 127 mtx_check;
#X obj 181 167 mtx_transpose;
#X obj 202 47 inlet;
#X obj 181 7 inlet;
#X obj 1 23 import iemmatrix;
#X obj 1 3 loadbang;
#X obj 215 427 rtc/collect;
#X msg 278 387 set;
#X symbolatom 215 248 5 0 0 0 - - -;
#X obj 261 224 length;
#X obj 242 327 s group;
#X obj 242 347 table group;
#X msg 261 244 \; group resize \$1 \; group normalize 1 \;;
#X obj 215 227 l2s;
#X obj 215 407 tabdump group;
#X obj 242 287 s2l;
#X obj 242 307 prepend 0;
#X obj 289 44 s bng_play_gem;
#X obj 278 367 r bng_play_gem;
#X obj 250 27 t b f;
#N canvas 502 26 478 343 acum-symbols 0;
#X obj 76 0 inlet;
#X obj 386 259 outlet;
#X msg -14 80;
#X obj 146 4 inlet;
#X obj 146 25 t b;
#X msg 146 46 set;
#X connect 0 0 2 0;
#X connect 2 0 1 0;
#X connect 3 0 4 0;
#X connect 4 0 5 0;
#X connect 5 0 2 0;
#X restore 215 447 pd acum-symbols;
#X obj 181 27 t a b;
#X obj 215 267 t b a;
#X obj 296 466 r gem_x;
#X obj 341 510 r gem_y;
#X obj 329 611 r gem_btn;
#X floatatom 296 506 5 0 0 0 - - -;
#X floatatom 341 571 5 0 0 0 - - -;
#X obj 296 591 pack f f;
#X obj 330 632 t b b b;
#X obj 329 652 tgl 15 0 empty empty empty 17 7 0 10 -262144 -1 -1 0
1;
#X obj 215 691 nearestPoint 2;
#X floatatom 215 711 5 0 0 0 - - -;
#X obj 296 671 spigot;
#X floatatom 296 711 5 0 0 0 - - -;
#X obj 341 530 * -1;
#X obj 341 550 + 1;
#X obj 215 467 list-group 2;
#X msg 140 674 clear;
#X obj 113 383 t b b;
#X obj 113 7 inlet;
#X obj 215 837 outlet;
#X obj 215 787 spigot;
#X obj 249 727 t b f;
#X floatatom 225 817 5 0 0 0 - - -;
#X obj 250 7 r pop;
#X obj 290 7 r pop1;
#X obj 145 817 s plot-mean;
#X obj 296 486 s space_x;
#X obj 381 567 s space_y;
#X obj 308 387 r set1;
#X obj 296 541 * 8;
#X obj 296 561 - 4;
#X obj 444 563 * 8;
#X obj 444 583 - 4;
#X obj 249 747 < 0.05;
#X obj 276 819 s hist_feat;
#X connect 0 0 4 0;
#X connect 1 0 0 0;
#X connect 2 0 0 1;
#X connect 3 0 2 0;
#X connect 4 0 8 0;
#X connect 5 0 6 0;
#X connect 6 1 17 0;
#X connect 6 1 21 0;
#X connect 7 0 9 0;
#X connect 8 0 7 0;
#X connect 9 0 5 0;
#X connect 10 0 1 1;
#X connect 11 0 29 0;
#X connect 13 0 12 0;
#X connect 14 0 28 0;
#X connect 15 0 14 1;
#X connect 15 0 28 1;
#X connect 16 0 30 0;
#X connect 17 0 20 0;
#X connect 21 0 16 0;
#X connect 22 0 14 0;
#X connect 23 0 24 0;
#X connect 24 0 18 0;
#X connect 26 0 15 0;
#X connect 27 0 3 0;
#X connect 27 1 3 0;
#X connect 28 0 45 0;
#X connect 29 0 1 0;
#X connect 29 1 25 0;
#X connect 30 0 22 0;
#X connect 30 1 23 0;
#X connect 31 0 34 0;
#X connect 31 0 56 0;
#X connect 32 0 43 0;
#X connect 33 0 37 0;
#X connect 34 0 59 0;
#X connect 35 0 61 0;
#X connect 36 0 41 0;
#X connect 37 0 38 0;
#X connect 37 1 36 0;
#X connect 37 2 38 0;
#X connect 38 0 41 1;
#X connect 39 0 40 0;
#X connect 39 1 42 0;
#X connect 40 0 50 0;
#X connect 41 0 39 1;
#X connect 42 0 51 0;
#X connect 43 0 44 0;
#X connect 44 0 35 0;
#X connect 44 0 57 0;
#X connect 45 0 39 0;
#X connect 46 0 39 0;
#X connect 47 0 28 0;
#X connect 47 1 46 0;
#X connect 48 0 47 0;
#X connect 50 0 49 0;
#X connect 50 0 52 0;
#X connect 50 0 64 0;
#X connect 50 0 55 0;
#X connect 51 0 40 0;
#X connect 51 1 63 0;
#X connect 54 0 27 0;
#X connect 58 0 15 0;
#X connect 59 0 60 0;
#X connect 60 0 36 0;
#X connect 61 0 62 0;
#X connect 62 0 36 1;
#X connect 63 0 50 1;
#X restore 24 -57 pd play_gem;
#X text 160 -125 X;
#X text 322 -127 Y;
#X obj 24 -97 bng 15 250 50 0 empty empty play-space 17 7 0 10 -262144
-1 -1;
#X obj 24 -136 bng 15 250 50 0 empty empty analysis 17 7 0 10 -262144
-1 -1;
#X obj 24 -117 t b b;
#X floatatom 494 -108 5 0 0 1 quantidade_de_sugestoes - -;
#X floatatom 515 -88 5 0 0 1 percentage_chroma - -;
#X obj 536 -68 bng 15 250 50 0 empty empty sel_pitch 17 7 0 10 -262144
-1 -1;
#X symbolatom 546 -24 0 0 0 0 - - -;
#X obj 544 -48 bng 15 250 50 0 reset_pitch_sel empty reset_pitch_sel
17 7 0 10 -262144 -1 -1;
#N canvas 302 23 485 553 play 0;
#X obj 30 12 inlet;
#X obj 340 12 inlet;
#N canvas 946 25 478 343 acum-symbols 0;
#X obj -14 2 inlet;
#X obj 386 259 outlet;
#X msg -14 80;
#X obj 37 4 r bng_set;
#X msg 37 44 set;
#X obj 37 24 t b;
#X obj 141 32 r tab-chroma-mixture;
#X connect 0 0 2 0;
#X connect 2 0 1 0;
#X connect 3 0 5 0;
#X connect 4 0 2 0;
#X connect 5 0 4 0;
#X connect 6 0 2 0;
#X restore 104 72 pd acum-symbols;
#X obj 104 92 list-idx;
#X obj 104 112 l2s;
#X floatatom 104 28 5 0 0 1 visualizar_melhor_ind - -;
#X symbolatom 104 132 13 0 0 1 - - -;
#X obj 156 193 s2l;
#X obj 156 213 length;
#X obj 106 464 list-idx;
#X floatatom 124 317 5 0 0 0 - - -;
#X obj 106 484 l2s;
#X symbolatom 106 505 13 0 0 0 - - -;
#X msg 139 173 0;
#X obj 104 151 s best;
#X obj 106 441 s2l;
#X obj 105 360 r best;
#X symbolatom 106 381 10 0 0 0 - - -;
#X obj 124 253 repeat;
#X floatatom 157 233 5 0 0 0 - - -;
#X obj 124 294 f 0;
#X obj 154 294 + 1;
#X obj 124 273 t b;
#X obj 106 420 spigot;
#X obj 139 401 tgl 15 0 empty empty empty 17 7 0 10 -262144 -1 -1 0
1;
#X obj 124 336 t b b b f;
#X floatatom 260 211 5 0 0 1 normalize - -;
#X msg 260 190 1;
#X obj 260 170 r ldbng;
#X msg 282 271 set 1024 2;
#X obj 304 231 bng 15 250 50 0 empty empty play 17 7 0 10 -262144 -1
-1;
#X obj 327 251 bng 15 250 50 0 empty empty record 17 7 0 10 -262144
-1 -1;
#X obj 154 151 s save-to-score;
#X obj 104 52 t b b b b b f b b;
#X obj 203 72 s bx;
#X obj 216 291 play-analysis-gem-III;
#X obj 243 72 s chroma;
#X connect 0 0 5 0;
#X connect 1 0 35 5;
#X connect 2 0 3 0;
#X connect 3 0 4 0;
#X connect 4 0 6 0;
#X connect 5 0 33 0;
#X connect 6 0 14 0;
#X connect 6 0 7 0;
#X connect 6 0 32 0;
#X connect 7 0 8 0;
#X connect 8 0 19 0;
#X connect 9 0 11 0;
#X connect 10 0 25 0;
#X connect 11 0 12 0;
#X connect 12 0 35 0;
#X connect 13 0 20 1;
#X connect 15 0 9 0;
#X connect 16 0 17 0;
#X connect 17 0 23 0;
#X connect 18 0 22 0;
#X connect 19 0 18 1;
#X connect 20 0 21 0;
#X connect 20 0 10 0;
#X connect 21 0 20 1;
#X connect 22 0 20 0;
#X connect 23 0 15 0;
#X connect 24 0 23 1;
#X connect 25 0 24 0;
#X connect 25 1 17 0;
#X connect 25 2 24 0;
#X connect 25 3 9 1;
#X connect 26 0 35 2;
#X connect 27 0 26 0;
#X connect 28 0 27 0;
#X connect 29 0 35 3;
#X connect 30 0 35 4;
#X connect 31 0 35 5;
#X connect 33 0 30 0;
#X connect 33 1 27 0;
#X connect 33 2 18 0;
#X connect 33 3 13 0;
#X connect 33 4 2 0;
#X connect 33 5 3 1;
#X connect 33 5 36 0;
#X connect 33 6 35 1;
#X connect 33 7 34 0;
#X restore 24 82 pd play;
#X obj 73 83 bng 15 250 50 0 empty empty record 17 7 0 10 -262144 -1
-1;
#N canvas 1014 22 426 229 loadbang 0;
#X obj 2 4 loadbang;
#X msg 33 44 1000;
#X msg 17 84 100;
#X msg 2 144 1;
#X obj 2 164 s norm-chroma;
#X obj 17 104 s min-chroma;
#X obj 33 64 s max-chroma;
#X msg 49 124 0.95;
#X obj 49 144 s Roll-Off_factor;
#X msg 159 41 250;
#X msg 159 61 500;
#X msg 159 81 500;
#X msg 159 101 1000;
#X msg 159 121 1000;
#X msg 159 141 2000;
#X msg 159 161 2000;
#X msg 159 181 4000;
#X obj 199 41 s 1-min-freq-init;
#X obj 199 81 s 2-min-freq-init;
#X obj 199 121 s 3-min-freq-init;
#X obj 199 161 s 4-min-freq-init;
#X obj 199 61 s 1-max-freq-init;
#X obj 199 101 s 2-max-freq-init;
#X obj 199 141 s 3-max-freq-init;
#X obj 199 181 s 4-max-freq-init;
#X obj 2 24 t b b b b b b;
#X obj 77 204 s set1;
#X obj 2 184 s norm_chroma;
#X connect 0 0 25 0;
#X connect 1 0 6 0;
#X connect 2 0 5 0;
#X connect 3 0 4 0;
#X connect 7 0 8 0;
#X connect 9 0 17 0;
#X connect 10 0 21 0;
#X connect 11 0 18 0;
#X connect 12 0 22 0;
#X connect 13 0 19 0;
#X connect 14 0 23 0;
#X connect 15 0 20 0;
#X connect 16 0 24 0;
#X connect 25 0 3 0;
#X connect 25 0 27 0;
#X connect 25 1 2 0;
#X connect 25 2 1 0;
#X connect 25 3 7 0;
#X connect 25 4 9 0;
#X connect 25 4 10 0;
#X connect 25 4 11 0;
#X connect 25 4 12 0;
#X connect 25 4 13 0;
#X connect 25 4 14 0;
#X connect 25 4 15 0;
#X connect 25 4 16 0;
#X connect 25 5 26 0;
#X restore 678 99 pd loadbang;
#X obj 473 303 tgl 15 0 empty C empty 4 23 0 10 -262144 -1 -1 0 1;
#X obj 488 303 tgl 15 0 empty Cs empty 4 23 0 10 -262144 -1 -1 0 1
;
#X obj 503 303 tgl 15 0 empty D empty 17 7 0 10 -262144 -1 -1 0 1;
#X obj 518 303 tgl 15 0 empty Ds empty 17 7 0 10 -262144 -1 -1 0 1
;
#X obj 533 303 tgl 15 0 empty E empty 17 7 0 10 -262144 -1 -1 0 1;
#X obj 548 303 tgl 15 0 empty F empty 17 7 0 10 -262144 -1 -1 0 1;
#X obj 563 303 tgl 15 0 empty Fs empty 17 7 0 10 -262144 -1 -1 0 1
;
#X obj 578 303 tgl 15 0 empty G empty 17 7 0 10 -262144 -1 -1 0 1;
#X obj 593 303 tgl 15 0 empty Gs empty 17 7 0 10 -262144 -1 -1 0 1
;
#X obj 608 303 tgl 15 0 empty A empty 17 7 0 10 -262144 -1 -1 0 1;
#X obj 623 303 tgl 15 0 empty As empty 17 7 0 10 -262144 -1 -1 0 1
;
#X obj 638 303 tgl 15 0 empty B empty 17 7 0 10 -262144 -1 -1 0 1;
#X text 471 321 C__C#_D_D#_E_F_F#_G_G#_A_A#_B;
#X floatatom 515 -4 5 0 0 1 sugestões_encontradas - -;
#X floatatom 676 216 5 0 1 1 Roll-Off_factor Roll-Off_factor rolloff-idx
;
#X floatatom 676 256 5 0 0 1 flatness-global_min-freq 1-min-freq-init
flatness-global-i;
#X floatatom 676 276 5 0 0 1 1-flatness-global_max-freq 4-max-freq-init
flatness-global-ii;
#N canvas 1 506 450 300 tables 0;
#X obj -255 5 table const_2;
#X obj -255 25 table const_1;
#X obj -255 45 table diff;
#X obj -255 105 table list_max;
#X obj -255 65 table mul;
#X obj -255 85 table sqrt;
#X obj -255 205 table mixture;
#N canvas 955 22 462 639 pool 0;
#X restore -255 125 pd pool;
#N canvas 185 22 450 300 pool_mix 0;
#X obj 0 0 table 0mix;
#X obj 0 20 table 1mix;
#X restore -255 145 pd pool_mix;
#N canvas 185 22 450 300 pool_chroma 0;
#X restore -255 165 pd pool_chroma;
#X obj -255 185 table chroma_mixed;
#N canvas 7 498 464 534 pool_chroma_mixture 0;
#X restore -255 245 pd pool_chroma_mixture;
#N canvas 1122 23 246 457 pool_mixture_II 0;
#X restore -255 265 pd pool_mixture_II;
#X obj -255 225 table mixture_III;
#X restore 678 120 pd tables;
#X obj 473 276 play-analysis-mixture_II;
#X text 21 330 comment;
#X msg 504 56 set;
#X obj 504 96 s ind-geracao;
#X obj 473 236 list-idx;
#X obj 473 -4 length;
#X obj 473 156 until;
#X obj 473 176 counter;
#N canvas 318 22 578 642 tab_loop 0;
#X msg 25 97;
#X obj 155 9 inlet;
#X obj 529 607 outlet;
#X obj 25 9 r tab-chroma-mixture;
#X msg 102 69 set;
#X obj 25 29 t a;
#X obj 195 9 inlet;
#X obj 195 29 t b;
#X connect 0 0 2 0;
#X connect 1 0 0 0;
#X connect 3 0 5 0;
#X connect 4 0 0 0;
#X connect 5 0 0 0;
#X connect 6 0 7 0;
#X connect 7 0 4 0;
#X restore 473 216 pd tab_loop;
#X obj 473 256 s2l;
#X floatatom 572 256 5 0 0 1 normalize - -;
#X msg 572 235 1;
#X obj 572 215 r ldbng;
#X obj 473 196 t b f b;
#X obj 504 76 s bng_set;
#X obj 504 16 r clear_chroma_init;
#X obj 504 36 t b;
#X obj 504 116 t b b b;
#X obj 473 136 t f f;
#X obj 513 136 s pop1;
#X obj 676 158 nbx 5 14 -1e+37 1e+37 0 0 empty space_x Stats-feature_X
0 -8 0 10 -203904 -1 -1 0 256;
#X obj 676 188 nbx 5 14 -1e+37 1e+37 0 0 empty space_y Stats-feature_Y
0 -8 0 10 -203904 -1 -1 0 256;
#X obj 473 -25 hpcp_init_3;
#X obj 473 -45 s pitch;
#X obj 473 -65 t b b b;
#X obj 143 -27 bng 15 250 50 0 empty empty descritor_3 0 -5 0 10 -262144
-1 -1;
#X obj 303 -27 bng 15 250 50 0 empty empty descritor_4 0 -5 0 10 -262144
-1 -1;
#X symbolatom 212 13 0 0 0 0 - - st_feature_1;
#X text 160 -25 X;
#X text 322 -27 Y;
#X obj 143 73 bng 15 250 50 0 empty empty descritor_5 0 -5 0 10 -262144
-1 -1;
#X obj 303 73 bng 15 250 50 0 empty empty descritor_6 0 -5 0 10 -262144
-1 -1;
#X symbolatom 212 113 0 0 0 0 - - st_feature_1;
#X text 160 75 X;
#X text 322 73 Y;
#X obj 143 173 bng 15 250 50 0 empty empty descritor_7 0 -5 0 10 -262144
-1 -1;
#X obj 303 173 bng 15 250 50 0 empty empty descritor_8 0 -5 0 10 -262144
-1 -1;
#X symbolatom 212 213 0 0 0 0 - - st_feature_1;
#X text 160 175 X;
#X text 322 173 Y;
#X obj 303 213 s feat_8;
#X obj 143 233 table feature_7;
#X obj 143 213 s feat_7;
#X obj 303 113 s feat_6;
#X obj 143 133 table feature_5;
#X obj 143 113 s feat_5;
#X symbolatom 372 14 0 0 0 0 - - st_feature_2;
#X symbolatom 372 114 0 0 0 0 - - st_feature_2;
#X symbolatom 372 214 0 0 0 0 - - st_feature_2;
#X obj 143 13 s feat_3;
#X obj 143 33 table feature_3;
#X obj 303 13 s feat_4;
#N canvas 11 22 485 856 play_gem2 0;
#X obj 181 87 list prepend;
#X obj 181 67 list;
#X msg 250 68 matrix 2 \$1;
#X floatatom 250 48 5 0 0 0 - - -;
#X obj 181 107 list trim;
#X obj 181 187 list;
#X obj 181 207 list split 3;
#X obj 181 147 matrix;
#X obj 181 127 mtx_check;
#X obj 181 167 mtx_transpose;
#X obj 202 47 inlet;
#X obj 181 7 inlet;
#X obj 1 23 import iemmatrix;
#X obj 1 3 loadbang;
#X obj 215 427 rtc/collect;
#X msg 278 387 set;
#X symbolatom 215 248 5 0 0 0 - - -;
#X obj 261 224 length;
#X obj 215 227 l2s;
#X obj 242 287 s2l;
#X obj 242 307 prepend 0;
#X obj 250 27 t b f;
#N canvas 502 26 478 343 acum-symbols 0;
#X obj 76 0 inlet;
#X obj 386 259 outlet;
#X msg -14 80;
#X obj 146 4 inlet;
#X obj 146 25 t b;
#X msg 146 46 set;
#X connect 0 0 2 0;
#X connect 2 0 1 0;
#X connect 3 0 4 0;
#X connect 4 0 5 0;
#X connect 5 0 2 0;
#X restore 215 447 pd acum-symbols;
#X obj 181 27 t a b;
#X obj 215 267 t b a;
#X obj 296 466 r gem_x;
#X obj 341 510 r gem_y;
#X obj 329 611 r gem_btn;
#X floatatom 296 506 5 0 0 0 - - -;
#X floatatom 341 571 5 0 0 0 - - -;
#X obj 296 591 pack f f;
#X obj 330 632 t b b b;
#X obj 329 652 tgl 15 0 empty empty empty 17 7 0 10 -262144 -1 -1 0
1;
#X obj 215 691 nearestPoint 2;
#X floatatom 215 711 5 0 0 0 - - -;
#X obj 296 671 spigot;
#X floatatom 296 711 5 0 0 0 - - -;
#X obj 341 530 * -1;
#X obj 341 550 + 1;
#X obj 215 467 list-group 2;
#X msg 140 674 clear;
#X obj 113 383 t b b;
#X obj 113 7 inlet;
#X obj 215 837 outlet;
#X obj 215 787 spigot;
#X obj 249 727 t b f;
#X floatatom 225 817 5 0 0 0 - - -;
#X obj 250 7 r pop;
#X obj 290 7 r pop1;
#X obj 145 817 s plot-mean;
#X obj 296 486 s space_x;
#X obj 381 567 s space_y;
#X obj 308 387 r set1;
#X obj 296 541 * 8;
#X obj 296 561 - 4;
#X obj 444 563 * 8;
#X obj 444 583 - 4;
#X obj 249 747 < 0.05;
#X obj 289 44 s bng_play_gem2;
#X obj 278 367 r bng_play_gem2;
#X msg 261 244 \; group2 resize \$1 \; group2 normalize 1 \;;
#X obj 242 327 s group2;
#X obj 242 347 table group2;
#X obj 215 407 tabdump group2;
#X obj 286 809 s hist_feat;
#X connect 0 0 4 0;
#X connect 1 0 0 0;
#X connect 2 0 0 1;
#X connect 3 0 2 0;
#X connect 4 0 8 0;
#X connect 5 0 6 0;
#X connect 6 1 17 0;
#X connect 6 1 18 0;
#X connect 7 0 9 0;
#X connect 8 0 7 0;
#X connect 9 0 5 0;
#X connect 10 0 1 1;
#X connect 11 0 23 0;
#X connect 13 0 12 0;
#X connect 14 0 22 0;
#X connect 15 0 14 1;
#X connect 15 0 22 1;
#X connect 16 0 24 0;
#X connect 17 0 60 0;
#X connect 18 0 16 0;
#X connect 19 0 20 0;
#X connect 20 0 61 0;
#X connect 21 0 3 0;
#X connect 21 1 3 0;
#X connect 22 0 39 0;
#X connect 23 0 1 0;
#X connect 23 1 58 0;
#X connect 24 0 63 0;
#X connect 24 1 19 0;
#X connect 25 0 28 0;
#X connect 25 0 50 0;
#X connect 26 0 37 0;
#X connect 27 0 31 0;
#X connect 28 0 53 0;
#X connect 29 0 55 0;
#X connect 30 0 35 0;
#X connect 31 0 32 0;
#X connect 31 1 30 0;
#X connect 31 2 32 0;
#X connect 32 0 35 1;
#X connect 33 0 34 0;
#X connect 33 1 36 0;
#X connect 34 0 44 0;
#X connect 35 0 33 1;
#X connect 36 0 45 0;
#X connect 37 0 38 0;
#X connect 38 0 29 0;
#X connect 38 0 51 0;
#X connect 39 0 33 0;
#X connect 40 0 33 0;
#X connect 41 0 22 0;
#X connect 41 1 40 0;
#X connect 42 0 41 0;
#X connect 44 0 43 0;
#X connect 44 0 46 0;
#X connect 44 0 64 0;
#X connect 44 0 49 0;
#X connect 45 0 34 0;
#X connect 45 1 57 0;
#X connect 48 0 21 0;
#X connect 52 0 15 0;
#X connect 53 0 54 0;
#X connect 54 0 30 0;
#X connect 55 0 56 0;
#X connect 56 0 30 1;
#X connect 57 0 44 1;
#X connect 59 0 15 0;
#X connect 63 0 14 0;
#X restore 24 -17 pd play_gem2;
#N canvas 11 22 485 856 play_gem3 0;
#X obj 181 87 list prepend;
#X obj 181 67 list;
#X msg 250 68 matrix 2 \$1;
#X floatatom 250 48 5 0 0 0 - - -;
#X obj 181 107 list trim;
#X obj 181 187 list;
#X obj 181 207 list split 3;
#X obj 181 147 matrix;
#X obj 181 127 mtx_check;
#X obj 181 167 mtx_transpose;
#X obj 202 47 inlet;
#X obj 181 7 inlet;
#X obj 1 23 import iemmatrix;
#X obj 1 3 loadbang;
#X obj 215 427 rtc/collect;
#X msg 278 387 set;
#X symbolatom 215 248 5 0 0 0 - - -;
#X obj 261 224 length;
#X obj 215 227 l2s;
#X obj 242 287 s2l;
#X obj 242 307 prepend 0;
#X obj 250 27 t b f;
#N canvas 502 26 478 343 acum-symbols 0;
#X obj 76 0 inlet;
#X obj 386 259 outlet;
#X msg -14 80;
#X obj 146 4 inlet;
#X obj 146 25 t b;
#X msg 146 46 set;
#X connect 0 0 2 0;
#X connect 2 0 1 0;
#X connect 3 0 4 0;
#X connect 4 0 5 0;
#X connect 5 0 2 0;
#X restore 215 447 pd acum-symbols;
#X obj 181 27 t a b;
#X obj 215 267 t b a;
#X obj 296 466 r gem_x;
#X obj 341 510 r gem_y;
#X obj 329 611 r gem_btn;
#X floatatom 296 506 5 0 0 0 - - -;
#X floatatom 341 571 5 0 0 0 - - -;
#X obj 296 591 pack f f;
#X obj 330 632 t b b b;
#X obj 329 652 tgl 15 0 empty empty empty 17 7 0 10 -262144 -1 -1 0
1;
#X obj 215 691 nearestPoint 2;
#X floatatom 215 711 5 0 0 0 - - -;
#X obj 296 671 spigot;
#X floatatom 296 711 5 0 0 0 - - -;
#X obj 341 530 * -1;
#X obj 341 550 + 1;
#X obj 215 467 list-group 2;
#X msg 140 674 clear;
#X obj 113 383 t b b;
#X obj 113 7 inlet;
#X obj 215 837 outlet;
#X obj 215 787 spigot;
#X obj 249 727 t b f;
#X floatatom 225 817 5 0 0 0 - - -;
#X obj 250 7 r pop;
#X obj 290 7 r pop1;
#X obj 145 817 s plot-mean;
#X obj 296 486 s space_x;
#X obj 381 567 s space_y;
#X obj 308 387 r set1;
#X obj 296 541 * 8;
#X obj 296 561 - 4;
#X obj 444 563 * 8;
#X obj 444 583 - 4;
#X obj 249 747 < 0.05;
#X obj 289 44 s bng_play_gem3;
#X msg 261 244 \; group3 resize \$1 \; group3 normalize 1 \;;
#X obj 242 327 s group3;
#X obj 242 347 table group3;
#X obj 278 367 r bng_play_gem3;
#X obj 215 407 tabdump group3;
#X obj 296 809 s hist_feat;
#X connect 0 0 4 0;
#X connect 1 0 0 0;
#X connect 2 0 0 1;
#X connect 3 0 2 0;
#X connect 4 0 8 0;
#X connect 5 0 6 0;
#X connect 6 1 17 0;
#X connect 6 1 18 0;
#X connect 7 0 9 0;
#X connect 8 0 7 0;
#X connect 9 0 5 0;
#X connect 10 0 1 1;
#X connect 11 0 23 0;
#X connect 13 0 12 0;
#X connect 14 0 22 0;
#X connect 15 0 14 1;
#X connect 15 0 22 1;
#X connect 16 0 24 0;
#X connect 17 0 59 0;
#X connect 18 0 16 0;
#X connect 19 0 20 0;
#X connect 20 0 60 0;
#X connect 21 0 3 0;
#X connect 21 1 3 0;
#X connect 22 0 39 0;
#X connect 23 0 1 0;
#X connect 23 1 58 0;
#X connect 24 0 63 0;
#X connect 24 1 19 0;
#X connect 25 0 28 0;
#X connect 25 0 50 0;
#X connect 26 0 37 0;
#X connect 27 0 31 0;
#X connect 28 0 53 0;
#X connect 29 0 55 0;
#X connect 30 0 35 0;
#X connect 31 0 32 0;
#X connect 31 1 30 0;
#X connect 31 2 32 0;
#X connect 32 0 35 1;
#X connect 33 0 34 0;
#X connect 33 1 36 0;
#X connect 34 0 44 0;
#X connect 35 0 33 1;
#X connect 36 0 45 0;
#X connect 37 0 38 0;
#X connect 38 0 29 0;
#X connect 38 0 51 0;
#X connect 39 0 33 0;
#X connect 40 0 33 0;
#X connect 41 0 22 0;
#X connect 41 1 40 0;
#X connect 42 0 41 0;
#X connect 44 0 43 0;
#X connect 44 0 46 0;
#X connect 44 0 64 0;
#X connect 44 0 49 0;
#X connect 45 0 34 0;
#X connect 45 1 57 0;
#X connect 48 0 21 0;
#X connect 52 0 15 0;
#X connect 53 0 54 0;
#X connect 54 0 30 0;
#X connect 55 0 56 0;
#X connect 56 0 30 1;
#X connect 57 0 44 1;
#X connect 62 0 15 0;
#X connect 63 0 14 0;
#X restore 24 23 pd play_gem3;
#N canvas 11 22 485 856 play_gem4 0;
#X obj 181 87 list prepend;
#X obj 181 67 list;
#X msg 250 68 matrix 2 \$1;
#X floatatom 250 48 5 0 0 0 - - -;
#X obj 181 107 list trim;
#X obj 181 187 list;
#X obj 181 207 list split 3;
#X obj 181 147 matrix;
#X obj 181 127 mtx_check;
#X obj 181 167 mtx_transpose;
#X obj 202 47 inlet;
#X obj 181 7 inlet;
#X obj 1 23 import iemmatrix;
#X obj 1 3 loadbang;
#X obj 215 427 rtc/collect;
#X msg 278 387 set;
#X symbolatom 215 248 5 0 0 0 - - -;
#X obj 261 224 length;
#X obj 215 227 l2s;
#X obj 242 287 s2l;
#X obj 242 307 prepend 0;
#X obj 250 27 t b f;
#N canvas 502 26 478 343 acum-symbols 0;
#X obj 76 0 inlet;
#X obj 386 259 outlet;
#X msg -14 80;
#X obj 146 4 inlet;
#X obj 146 25 t b;
#X msg 146 46 set;
#X connect 0 0 2 0;
#X connect 2 0 1 0;
#X connect 3 0 4 0;
#X connect 4 0 5 0;
#X connect 5 0 2 0;
#X restore 215 447 pd acum-symbols;
#X obj 181 27 t a b;
#X obj 215 267 t b a;
#X obj 296 466 r gem_x;
#X obj 341 510 r gem_y;
#X obj 329 611 r gem_btn;
#X floatatom 296 506 5 0 0 0 - - -;
#X floatatom 341 571 5 0 0 0 - - -;
#X obj 296 591 pack f f;
#X obj 330 632 t b b b;
#X obj 329 652 tgl 15 0 empty empty empty 17 7 0 10 -262144 -1 -1 0
1;
#X obj 215 691 nearestPoint 2;
#X floatatom 215 711 5 0 0 0 - - -;
#X obj 296 671 spigot;
#X floatatom 296 711 5 0 0 0 - - -;
#X obj 341 530 * -1;
#X obj 341 550 + 1;
#X obj 215 467 list-group 2;
#X msg 140 674 clear;
#X obj 113 383 t b b;
#X obj 113 7 inlet;
#X obj 215 837 outlet;
#X obj 215 787 spigot;
#X obj 249 727 t b f;
#X floatatom 225 817 5 0 0 0 - - -;
#X obj 250 7 r pop;
#X obj 290 7 r pop1;
#X obj 145 817 s plot-mean;
#X obj 296 486 s space_x;
#X obj 381 567 s space_y;
#X obj 308 387 r set1;
#X obj 296 541 * 8;
#X obj 296 561 - 4;
#X obj 444 563 * 8;
#X obj 444 583 - 4;
#X obj 249 747 < 0.05;
#X obj 289 44 s bng_play_gem4;
#X msg 261 244 \; group4 resize \$1 \; group4 normalize 1 \;;
#X obj 242 347 table group4;
#X obj 278 367 r bng_play_gem4;
#X obj 215 407 tabdump group4;
#X obj 242 327 s group4;
#X obj 306 809 s hist_feat;
#X connect 0 0 4 0;
#X connect 1 0 0 0;
#X connect 2 0 0 1;
#X connect 3 0 2 0;
#X connect 4 0 8 0;
#X connect 5 0 6 0;
#X connect 6 1 17 0;
#X connect 6 1 18 0;
#X connect 7 0 9 0;
#X connect 8 0 7 0;
#X connect 9 0 5 0;
#X connect 10 0 1 1;
#X connect 11 0 23 0;
#X connect 13 0 12 0;
#X connect 14 0 22 0;
#X connect 15 0 14 1;
#X connect 15 0 22 1;
#X connect 16 0 24 0;
#X connect 17 0 59 0;
#X connect 18 0 16 0;
#X connect 19 0 20 0;
#X connect 20 0 63 0;
#X connect 21 0 3 0;
#X connect 21 1 3 0;
#X connect 22 0 39 0;
#X connect 23 0 1 0;
#X connect 23 1 58 0;
#X connect 24 0 62 0;
#X connect 24 1 19 0;
#X connect 25 0 28 0;
#X connect 25 0 50 0;
#X connect 26 0 37 0;
#X connect 27 0 31 0;
#X connect 28 0 53 0;
#X connect 29 0 55 0;
#X connect 30 0 35 0;
#X connect 31 0 32 0;
#X connect 31 1 30 0;
#X connect 31 2 32 0;
#X connect 32 0 35 1;
#X connect 33 0 34 0;
#X connect 33 1 36 0;
#X connect 34 0 44 0;
#X connect 35 0 33 1;
#X connect 36 0 45 0;
#X connect 37 0 38 0;
#X connect 38 0 29 0;
#X connect 38 0 51 0;
#X connect 39 0 33 0;
#X connect 40 0 33 0;
#X connect 41 0 22 0;
#X connect 41 1 40 0;
#X connect 42 0 41 0;
#X connect 44 0 43 0;
#X connect 44 0 46 0;
#X connect 44 0 64 0;
#X connect 44 0 49 0;
#X connect 45 0 34 0;
#X connect 45 1 57 0;
#X connect 48 0 21 0;
#X connect 52 0 15 0;
#X connect 53 0 54 0;
#X connect 54 0 30 0;
#X connect 55 0 56 0;
#X connect 56 0 30 1;
#X connect 57 0 44 1;
#X connect 61 0 15 0;
#X connect 62 0 14 0;
#X restore 24 63 pd play_gem4;
#X obj 303 -66 table feature_0;
#X obj 303 34 table feature_2;
#X obj 303 134 table feature_4;
#X obj 303 235 table feature_6;
#X obj 143 -107 feature-1iiiq2;
#X obj 303 -107 feature-2iiiq2;
#X obj 143 -7 feature-3iiiq2;
#X obj 303 -7 feature-4iiiq2;
#X obj 143 93 feature-5iiiq2;
#X obj 303 93 feature-6iiiq2;
#X obj 143 193 feature-7iiiq2;
#X obj 303 193 feature-8iiiq2;
#X obj 24 312 visu_gem2q;
#X obj 24 103 bng 15 250 50 0 gera_partitura empty gera_partitura 17
7 0 10 -262144 -1 -1;
#X obj 24 -77 analysis1q4;
#X obj 24 -37 analysis2q4;
#X obj 24 3 analysis3q4;
#X obj 24 43 analysis4q4;
#N canvas 0 22 450 300 (subpatch) 0;
#X array hist_features 8 float 3;
#A 0 0.128616 0.128616 0.259819 0.259819 1 1 0.578424 0.578424;
#X coords 0 1 8 0 800 175 1;
#X restore 58 444 graph;
#N canvas 809 23 350 163 histograms 0;
#X obj 2 17 r 0f;
#X obj 32 17 r 1f;
#X obj 62 17 r 2f;
#X obj 92 17 r 3f;
#X obj 122 17 r 4f;
#X obj 152 17 r 5f;
#X obj 182 17 r 6f;
#X obj 212 17 r 7f;
#X obj 2 47 pack f f f f f f f f;
#X obj 2 87 s hist_features;
#X obj 2 67 list prepend 0;
#X connect 0 0 8 0;
#X connect 1 0 8 1;
#X connect 2 0 8 2;
#X connect 3 0 8 3;
#X connect 4 0 8 4;
#X connect 5 0 8 5;
#X connect 6 0 8 6;
#X connect 7 0 8 7;
#X connect 8 0 10 0;
#X connect 10 0 9 0;
#X restore 738 119 pd histograms;
#X text 674 239 Global_Spectral_Flatness;
#X obj 59 445 cnv 15 99 173 empty empty empty 20 12 0 14 -233017 -66577
0;
#X obj 159 445 cnv 15 99 173 empty empty empty 20 12 0 14 -128992 -66577
0;
#X obj 259 445 cnv 15 99 173 empty empty empty 20 12 0 14 -233017 -66577
0;
#X obj 359 445 cnv 15 98 173 empty empty empty 20 12 0 14 -128992 -66577
0;
#X obj 458 445 cnv 15 99 173 empty empty empty 20 12 0 14 -233017 -66577
0;
#X obj 558 445 cnv 15 99 173 empty empty empty 20 12 0 14 -128992 -66577
0;
#X obj 658 445 cnv 15 99 173 empty empty empty 20 12 0 14 -233017 -66577
0;
#X obj 758 445 cnv 15 99 173 empty empty empty 20 12 0 14 -128992 -66577
0;
#N canvas 0 22 450 300 (subpatch) 0;
#X array chroma_analysis 12 float 3;
#A 0 0.00246631 0.0314242 1 0.0914496 0.0654462 0.0157811 0.450144
0.127214 0.947009 0.00226286 0.0103037 0.0173174;
#X coords 0 1 12 0 196 140 1;
#X restore 234 285 graph;
#X obj 233 286 cnv 15 16 140 empty empty empty 20 12 0 14 -233017 -66577
0;
#X obj 249 286 cnv 15 16 140 empty empty empty 20 12 0 14 -162280 -66577
0;
#X obj 266 286 cnv 15 16 140 empty empty empty 20 12 0 14 -233017 -66577
0;
#X obj 282 286 cnv 15 16 140 empty empty empty 20 12 0 14 -162280 -66577
0;
#X obj 298 286 cnv 15 16 140 empty empty empty 20 12 0 14 -233017 -66577
0;
#X obj 314 286 cnv 15 16 140 empty empty empty 20 12 0 14 -162280 -66577
0;
#X obj 331 286 cnv 15 16 140 empty empty empty 20 12 0 14 -233017 -66577
0;
#X obj 347 286 cnv 15 16 140 empty empty empty 20 12 0 14 -162280 -66577
0;
#X obj 364 286 cnv 15 16 140 empty empty empty 20 12 0 14 -233017 -66577
0;
#X obj 380 286 cnv 15 16 140 empty empty empty 20 12 0 14 -162280 -66577
0;
#X obj 397 286 cnv 15 16 140 empty empty empty 20 12 0 14 -233017 -66577
0;
#X obj 413 286 cnv 15 16 140 empty empty empty 20 12 0 14 -162280 -66577
0;
#X text 232 421 C__C#_D__D#_E_F__F#_G_G#_A__A#_B;
#X obj 111 373 tgl 15 0 empty norm_chroma Norm_Chroma 17 7 0 10 -262144
-1 -1 1 1;
#X obj 24 352 bng 15 250 50 0 empty empty Chroma_12-analysis 17 7 0
10 -262144 -1 -1;
#N canvas 588 23 844 356 chromagram 0;
#X obj -455 -43 inlet;
#X obj -223 -43 inlet;
#X obj -223 -21 t b;
#X obj -14 -44 r write_chroma12;
#X obj -14 -18 t b;
#X obj -292 -33 bng 15 250 50 0 empty empty empty 17 7 0 10 -262144
-1 -1;
#X obj -455 17 iHPCP12;
#X obj -223 39 tgl 15 0 empty empty on/off 17 7 0 10 -262144 -1 -1
1 1;
#X msg -223 78 normalize \$1;
#X obj -223 59 tgl 15 0 empty empty empty 17 7 0 10 -262144 -1 -1 1
1;
#X obj -223 -1 loadbang;
#X msg -223 19 1;
#X obj -455 37 list prepend 0;
#X obj -455 -23 t b;
#X obj -408 -45 r chroma;
#X floatatom -408 -23 5 0 0 0 - - -;
#X obj -455 60 s chroma_analysis;
#X msg -14 45 \; chroma_analysis write chroma12.txt;
#X msg -455 -3 list \$1mixture_II 8192 0 44100 0;
#X connect 0 0 13 0;
#X connect 1 0 2 0;
#X connect 2 0 11 0;
#X connect 3 0 4 0;
#X connect 4 0 17 0;
#X connect 6 0 12 0;
#X connect 7 0 6 1;
#X connect 8 0 6 1;
#X connect 9 0 8 0;
#X connect 10 0 11 0;
#X connect 11 0 7 0;
#X connect 11 0 9 0;
#X connect 12 0 16 0;
#X connect 13 0 18 0;
#X connect 14 0 15 0;
#X connect 15 0 18 0;
#X connect 18 0 6 0;
#X restore 24 370 pd chromagram;
#X symbolatom 58 622 0 0 0 0 - st1_hist -;
#X obj 233 -107 s st2_hist;
#X obj 393 -107 s st1_hist;
#X obj 393 -7 s st3_hist;
#X obj 233 -7 s st4_hist;
#X obj 393 93 s st5_hist;
#X obj 233 93 s st6_hist;
#X obj 393 193 s st7_hist;
#X obj 233 193 s st8_hist;
#X symbolatom 159 622 0 0 0 0 - st2_hist -;
#X symbolatom 258 622 0 0 0 0 - st3_hist -;
#X symbolatom 359 622 0 0 0 0 - st4_hist -;
#X symbolatom 458 622 0 0 0 0 - st5_hist -;
#X symbolatom 558 622 0 0 0 0 - st6_hist -;
#X symbolatom 657 622 0 0 0 0 - st7_hist -;
#X symbolatom 758 622 0 0 0 0 - st8_hist -;
#X obj 46 403 hsl 73 15 0 1 0 0 volume vol_init Volume 17 7 0 10 -262144
-1 -1 6120 1;
#X text 122 401 max;
#X text 22 401 min;
#X obj 788 -112 tof/folderpanel;
#X obj 788 -132 bng 15 250 50 0 empty empty load-db 17 7 0 10 -262144
-1 -1;
#X obj 788 -92 s folderpanel;
#X connect 0 0 5 0;
#X connect 0 1 6 0;
#X connect 1 0 0 1;
#X connect 2 0 0 2;
#X connect 3 0 0 4;
#X connect 4 0 0 3;
#X connect 4 0 9 0;
#X connect 5 0 8 0;
#X connect 7 0 0 5;
#X connect 10 0 0 0;
#X connect 11 0 76 0;
#X connect 12 0 113 0;
#X connect 14 0 114 0;
#X connect 17 0 121 1;
#X connect 18 0 121 0;
#X connect 22 0 33 0;
#X connect 25 0 22 0;
#X connect 25 0 106 0;
#X connect 25 0 107 0;
#X connect 25 0 108 0;
#X connect 26 0 27 0;
#X connect 27 0 123 0;
#X connect 27 0 124 0;
#X connect 27 0 125 0;
#X connect 27 0 126 0;
#X connect 27 1 123 1;
#X connect 27 1 124 1;
#X connect 27 1 125 1;
#X connect 27 1 126 1;
#X connect 28 0 76 1;
#X connect 29 0 76 2;
#X connect 30 0 76 3;
#X connect 34 0 33 1;
#X connect 56 0 57 0;
#X connect 56 0 68 0;
#X connect 56 0 71 0;
#X connect 58 0 63 0;
#X connect 59 0 72 0;
#X connect 60 0 61 0;
#X connect 61 0 67 0;
#X connect 62 0 58 0;
#X connect 63 0 54 0;
#X connect 64 0 54 2;
#X connect 65 0 64 0;
#X connect 66 0 65 0;
#X connect 67 0 62 0;
#X connect 67 1 58 1;
#X connect 67 2 65 0;
#X connect 69 0 70 0;
#X connect 70 0 56 0;
#X connect 71 0 54 1;
#X connect 71 1 61 2;
#X connect 71 2 62 1;
#X connect 72 0 73 0;
#X connect 72 1 60 0;
#X connect 76 0 59 0;
#X connect 76 1 70 0;
#X connect 76 2 49 0;
#X connect 76 3 31 0;
#X connect 79 0 115 0;
#X connect 80 0 116 0;
#X connect 84 0 117 0;
#X connect 85 0 118 0;
#X connect 89 0 119 0;
#X connect 90 0 120 0;
#X connect 106 0 33 0;
#X connect 107 0 33 0;
#X connect 108 0 33 0;
#X connect 113 0 19 0;
#X connect 113 1 16 0;
#X connect 113 1 156 0;
#X connect 114 0 20 0;
#X connect 114 1 13 0;
#X connect 114 1 157 0;
#X connect 115 0 103 0;
#X connect 115 1 81 0;
#X connect 115 1 159 0;
#X connect 116 0 105 0;
#X connect 116 1 100 0;
#X connect 116 1 158 0;
#X connect 117 0 99 0;
#X connect 117 1 86 0;
#X connect 117 1 161 0;
#X connect 118 0 97 0;
#X connect 118 1 101 0;
#X connect 118 1 160 0;
#X connect 119 0 96 0;
#X connect 119 1 91 0;
#X connect 119 1 163 0;
#X connect 120 0 94 0;
#X connect 120 1 102 0;
#X connect 120 1 162 0;
#X connect 123 0 22 1;
#X connect 123 1 22 2;
#X connect 124 0 106 1;
#X connect 124 1 106 2;
#X connect 125 0 107 1;
#X connect 125 1 107 2;
#X connect 126 0 108 1;
#X connect 126 1 108 2;
#X connect 152 0 154 1;
#X connect 153 0 154 0;
#X connect 174 0 176 0;
#X connect 175 0 174 0;
