#N canvas 0 22 1141 497 10;
#X obj 36 12 bng 15 250 50 0 empty empty empty 17 7 0 10 -262144 -1
-1;
#X obj 43 -53 inlet;
#X obj -130 189 outlet;
#X obj 40 54 mean-array \$1;
#X obj 131 53 stdev-array \$1;
#X obj 303 60 PERC4-array \$1;
#X floatatom -129 153 5 0 0 2 min - -;
#X obj -120 72 s \$0-min;
#X obj -53 77 s \$0-max;
#X floatatom -48 156 5 0 0 2 max - -;
#X obj 41 85 s \$0-mean;
#X floatatom 49 161 5 0 0 2 mean - -;
#X floatatom 141 157 5 0 0 2 stdev - -;
#X obj 415 61 expr $f1/$f2;
#X obj 429 32 r \$0-mean;
#X obj 132 82 s \$0-stdev;
#X floatatom 434 151 5 0 0 2 dispersion - -;
#X obj 417 86 s \$0-disp;
#X obj 542 69 expr 3*($f3-$f1)/$f2;
#X obj 668 25 r \$0-mean;
#X obj 548 196 outlet;
#X obj -52 190 outlet;
#X obj 51 196 outlet;
#X obj 146 196 outlet;
#X obj 436 191 outlet;
#X obj -192 47 iem_tab/tab_min_max \$1;
#X obj 600 27 r \$0-stdev;
#X obj 545 108 s \$0-assimetry;
#X floatatom 548 152 5 0 0 2 assimetry - -;
#X obj 302 83 unpack f f f f;
#X floatatom 314 156 5 0 0 2 median - -;
#X obj 314 190 outlet;
#X obj 329 109 s \$0-median;
#X obj 524 29 r \$0-median;
#X obj 256 192 outlet;
#X floatatom 253 152 5 0 0 2 1stQ - -;
#X obj 371 192 outlet;
#X floatatom 368 152 5 0 0 2 3stQ - -;
#X obj 45 -23 t b b;
#X obj 839 12 r \$0-max;
#X obj 763 15 r \$0-min;
#X obj 737 206 outlet;
#X obj 738 67 expr $f3/($f2-$f1);
#X obj 874 26 r d-number;
#X floatatom 768 126 5 0 0 2 compression - -;
#X connect 0 0 4 0;
#X connect 0 0 5 0;
#X connect 0 0 25 0;
#X connect 1 0 38 0;
#X connect 3 0 10 0;
#X connect 3 0 11 0;
#X connect 4 0 12 0;
#X connect 4 0 15 0;
#X connect 4 0 13 0;
#X connect 5 0 29 0;
#X connect 6 0 2 0;
#X connect 9 0 21 0;
#X connect 11 0 22 0;
#X connect 12 0 23 0;
#X connect 13 0 17 0;
#X connect 13 0 16 0;
#X connect 14 0 13 1;
#X connect 16 0 24 0;
#X connect 18 0 27 0;
#X connect 18 0 28 0;
#X connect 19 0 18 2;
#X connect 25 1 7 0;
#X connect 25 1 6 0;
#X connect 25 2 8 0;
#X connect 25 2 9 0;
#X connect 26 0 18 1;
#X connect 28 0 20 0;
#X connect 29 0 35 0;
#X connect 29 1 30 0;
#X connect 29 1 32 0;
#X connect 29 2 37 0;
#X connect 30 0 31 0;
#X connect 33 0 18 0;
#X connect 35 0 34 0;
#X connect 37 0 36 0;
#X connect 38 0 0 0;
#X connect 38 1 3 0;
#X connect 39 0 42 1;
#X connect 40 0 42 0;
#X connect 42 0 41 0;
#X connect 42 0 44 0;
#X connect 43 0 42 2;
