#N canvas 516 43 594 313 10;
#X obj 146 13 / 1;
#X obj 70 -53 t b b;
#X obj 73 -106 bng 15 250 50 0 empty empty calc-media 17 7 0 10 -262144
-1 -1;
#X obj 68 -24 iem_tab/tab_sum \$1;
#X obj 212 -40 arraysize \$1;
#X obj 72 -136 inlet;
#X obj 211 29 s \$0-aux;
#X msg 210 -2 resize \$1;
#X obj 323 -77 iem_tab/tab_mul \$0-aux \$0-aux \$0-aux;
#X obj 325 -47 iem_tab/tab_sum \$0-aux;
#X obj 327 4 /;
#X obj 169 123 outlet;
#X obj 292 60 sqrt;
#X obj 360 130 outlet;
#X obj 139 41 t b f;
#X msg 178 68 const \$1;
#X obj 326 -115 iem_tab/tab_sub \$1 \$0-aux \$0-aux;
#X floatatom 241 98 5 0 0 2 STDdev - -;
#X floatatom 361 87 5 0 0 2 variance - -;
#X obj 172 -123 table \$0-aux;
#X connect 0 0 14 0;
#X connect 1 0 3 0;
#X connect 1 1 4 0;
#X connect 2 0 1 0;
#X connect 3 1 0 0;
#X connect 4 0 0 1;
#X connect 4 0 7 0;
#X connect 4 0 10 1;
#X connect 5 0 2 0;
#X connect 7 0 6 0;
#X connect 8 0 9 0;
#X connect 9 1 10 0;
#X connect 10 0 12 0;
#X connect 10 0 18 0;
#X connect 12 0 17 0;
#X connect 14 0 16 0;
#X connect 14 1 15 0;
#X connect 15 0 6 0;
#X connect 16 0 8 0;
#X connect 17 0 11 0;
#X connect 18 0 13 0;
