#N canvas 25 361 265 531 10;
#X declare -lib iem_tab;
#X obj 29 494 outlet;
#X msg -14 64 resize \$1;
#X obj -51 197 t f f;
#X obj -50 218 + 1;
#X obj -53 177 for++ 0 1000;
#X obj -53 37 t b f f;
#X obj -53 -6 inlet;
#X obj 109 0 import iem_tab;
#X obj -14 86 s one\$0;
#X obj -14 107 s two\$0;
#X obj -17 128 table one\$0;
#X obj -16 150 table two\$0;
#X obj 29 362 /;
#X obj 17 -6 inlet;
#X obj 29 392 / 44.1;
#X floatatom 29 413 9 0 0 0 millisenconds - -;
#X obj 129 424 print;
#X obj -53 16 arraysize \$1;
#X obj -55 240 tabwrite one\$0;
#X obj -31 269 tab_mul \$1 \$1 two\$0;
#X obj -31 292 tab_mul one\$0 two\$0 one\$0;
#X obj -31 315 tab_sum two\$0;
#X obj -31 337 tab_sum one\$0;
#X msg 81 217 src1 \$1;
#X msg 141 217 src2 \$1;
#X connect 1 0 8 0;
#X connect 1 0 9 0;
#X connect 2 0 3 0;
#X connect 2 1 18 1;
#X connect 3 0 18 0;
#X connect 4 0 2 0;
#X connect 4 1 19 0;
#X connect 5 0 4 0;
#X connect 5 1 4 1;
#X connect 5 2 1 0;
#X connect 6 0 17 0;
#X connect 12 0 14 0;
#X connect 13 0 17 1;
#X connect 13 0 23 0;
#X connect 13 0 24 0;
#X connect 14 0 15 0;
#X connect 14 0 0 0;
#X connect 17 0 5 0;
#X connect 19 0 20 0;
#X connect 20 0 21 0;
#X connect 21 0 22 0;
#X connect 21 1 12 1;
#X connect 22 1 12 0;
#X connect 23 0 19 0;
#X connect 24 0 19 0;
