#N canvas 17 23 770 600 10;
#X obj -20 7 inlet;
#X obj -25 288 cnv 15 100 60 empty empty empty 20 12 0 14 -195568 -66577
0;
#N canvas 17 125 682 317 gemwin 0;
#X obj 132 49 inlet;
#X msg 198 119 destroy;
#X msg 132 119 create \, 1;
#X obj 132 71 sel 1 0;
#X msg 379 119 dimen 550 550;
#X msg 278 119 offset 800 100;
#X obj 132 136 gemwin 30;
#X obj 132 98 t b b;
#X obj 240 48 r fullscreen;
#X msg 240 73 fullscreen \$1;
#X msg 467 119 color 0 0 0;
#X connect 0 0 3 0;
#X connect 1 0 6 0;
#X connect 2 0 6 0;
#X connect 3 0 7 0;
#X connect 3 1 1 0;
#X connect 4 0 6 0;
#X connect 5 0 6 0;
#X connect 7 0 2 0;
#X connect 7 1 5 0;
#X connect 7 1 4 0;
#X connect 7 1 10 0;
#X connect 8 0 9 0;
#X connect 9 0 6 0;
#X connect 10 0 6 0;
#X restore -20 327 pd gemwin;
#X text -24 287 Create window:;
#X obj -20 199 tgl 15 0 empty empty empty 17 7 0 10 -262144 -1 -1 1
1;
#N canvas 914 64 472 580 mouseover 0;
#X obj 62 411 translateXYZ;
#X obj 80 457 r lb1;
#X obj 162 479 r mouse-radius;
#X obj 62 510 circle 0.1;
#X obj 76 90 r lb1;
#X msg 76 111 0;
#X obj 62 139 gemhead 70;
#X obj 62 160 alpha;
#X msg 80 479 draw fill;
#X obj 62 190 color 0 1 0 0.2;
#X obj 85 228 gemmouse 1 1;
#N canvas 364 207 223 257 draw-prep-x 0;
#X obj 85 58 inlet;
#X obj 85 169 outlet;
#X obj 85 129 - 4;
#X obj 85 108 * 8;
#X connect 0 0 3 0;
#X connect 2 0 1 0;
#X connect 3 0 2 0;
#X restore 85 314 pd draw-prep-x;
#N canvas 364 207 223 257 draw-prep-y 0;
#X obj 37 30 inlet;
#X obj 37 161 outlet;
#X obj 37 131 - 4;
#X obj 37 110 * 8;
#X obj 37 67 swap 1;
#X obj 37 89 -;
#X connect 0 0 4 0;
#X connect 2 0 1 0;
#X connect 3 0 2 0;
#X connect 4 0 5 0;
#X connect 4 1 5 1;
#X connect 5 0 3 0;
#X restore 185 314 pd draw-prep-y;
#X obj 62 22 r mouseover-on;
#X obj 95 254 s gem_x;
#X obj 195 254 s gem_y;
#X obj 119 288 s gem_btn;
#X floatatom 285 278 5 0 0 0 - - -;
#X obj 363 277 * -1;
#X obj 363 297 + 1;
#X obj 285 301 * 2;
#X obj 324 341 - 1;
#X floatatom 285 361 5 0 0 0 space_x - space_x;
#X obj 363 317 * 2;
#X obj 402 357 - 1;
#X floatatom 363 377 5 0 0 0 space_y - space_y;
#X obj 285 321 moses 1.001;
#X obj 363 337 moses 1.001;
#X connect 0 0 3 0;
#X connect 1 0 8 0;
#X connect 2 0 3 1;
#X connect 4 0 5 0;
#X connect 5 0 6 0;
#X connect 6 0 7 0;
#X connect 7 0 9 0;
#X connect 8 0 3 0;
#X connect 9 0 0 0;
#X connect 10 0 11 0;
#X connect 10 0 14 0;
#X connect 10 0 17 0;
#X connect 10 1 12 0;
#X connect 10 1 15 0;
#X connect 10 1 18 0;
#X connect 10 2 16 0;
#X connect 11 0 0 1;
#X connect 12 0 0 2;
#X connect 13 0 6 0;
#X connect 17 0 20 0;
#X connect 18 0 19 0;
#X connect 19 0 23 0;
#X connect 20 0 26 0;
#X connect 21 0 22 0;
#X connect 23 0 27 0;
#X connect 24 0 25 0;
#X connect 26 0 22 0;
#X connect 26 1 21 0;
#X connect 27 0 25 0;
#X connect 27 1 24 0;
#X restore -15 351 pd mouseover;
#X obj -20 177 t b b;
#X floatatom 477 177 5 0 0 0 - - -;
#X obj 480 158 hsl 67 15 0 1 0 0 empty empty transparencia_i -2 -8
0 10 -262144 -1 -1 0 1;
#X floatatom 477 227 5 0 0 0 - - -;
#X obj 480 208 hsl 67 15 0 1 0 0 empty empty transparencia_ii -2 -8
0 10 -262144 -1 -1 0 1;
#X floatatom 477 277 5 0 0 0 - - -;
#X obj 480 258 hsl 67 15 0 1 0 0 empty empty transparencia_iii -2 -8
0 10 -262144 -1 -1 0 1;
#X floatatom 477 327 5 0 0 0 - - -;
#X obj 480 308 hsl 67 15 0 1 0 0 empty empty transparencia_iv -2 -8
0 10 -262144 -1 -1 0 1;
#X obj 57 158 bng 15 250 50 0 empty empty empty 17 7 0 10 -262144 -1
-1;
#X floatatom 230 177 5 0 0 0 - - -;
#X obj 233 158 hsl 67 15 0 1 0 0 empty empty R -2 -8 0 10 -262144 -1
-1 0 1;
#X floatatom 310 177 5 0 0 0 - - -;
#X obj 313 158 hsl 67 15 0 1 0 0 empty empty G -2 -8 0 10 -262144 -1
-1 0 1;
#X floatatom 400 177 5 0 0 0 - - -;
#X obj 403 158 hsl 67 15 0 1 0 0 empty empty B -2 -8 0 10 -262144 -1
-1 0 1;
#X floatatom 230 227 5 0 0 0 - - -;
#X obj 233 208 hsl 67 15 0 1 0 0 empty empty R -2 -8 0 10 -262144 -1
-1 0 1;
#X floatatom 310 227 5 0 0 0 - - -;
#X obj 313 208 hsl 67 15 0 1 0 0 empty empty G -2 -8 0 10 -262144 -1
-1 0 1;
#X floatatom 400 227 5 0 0 0 - - -;
#X obj 403 208 hsl 67 15 0 1 0 0 empty empty B -2 -8 0 10 -262144 -1
-1 0 1;
#X floatatom 230 277 5 0 0 0 - - -;
#X obj 233 258 hsl 67 15 0 1 0 0 empty empty R -2 -8 0 10 -262144 -1
-1 0 1;
#X floatatom 310 277 5 0 0 0 - - -;
#X obj 313 258 hsl 67 15 0 1 0 0 empty empty G -2 -8 0 10 -262144 -1
-1 0 1;
#X floatatom 400 277 5 0 0 0 - - -;
#X obj 403 258 hsl 67 15 0 1 0 0 empty empty B -2 -8 0 10 -262144 -1
-1 0 1;
#X floatatom 230 327 5 0 0 0 - - -;
#X obj 233 308 hsl 67 15 0 1 0 0 empty empty R -2 -8 0 10 -262144 -1
-1 0 1;
#X floatatom 310 327 5 0 0 0 - - -;
#X obj 313 308 hsl 67 15 0 1 0 0 empty empty G -2 -8 0 10 -262144 -1
-1 0 1;
#X floatatom 400 327 5 0 0 0 - - -;
#X obj 403 308 hsl 67 15 0 1 0 0 empty empty B -2 -8 0 10 -262144 -1
-1 0 1;
#X obj -20 217 gemhead 10;
#X obj 132 193 visuq1;
#X obj 132 243 visuq2;
#X obj 132 293 visuq3;
#X obj 132 343 visuq4;
#X obj 477 127 inlet;
#X obj -20 496 curve 2;
#X msg -1 456 0 4 0;
#X msg 19 476 0 -4 0;
#X msg -20 416 draw point;
#X obj -20 556 curve 2;
#X msg 19 536 -4 0 0;
#X msg -1 516 4 0 0;
#X obj -20 376 gemhead;
#X obj -20 396 loadbang;
#X msg -20 436 res 93;
#X connect 0 0 6 0;
#X connect 4 0 2 0;
#X connect 4 0 40 0;
#X connect 6 0 4 0;
#X connect 7 0 41 4;
#X connect 8 0 7 0;
#X connect 9 0 42 4;
#X connect 10 0 9 0;
#X connect 11 0 43 4;
#X connect 12 0 11 0;
#X connect 13 0 44 4;
#X connect 14 0 13 0;
#X connect 15 0 6 0;
#X connect 16 0 41 1;
#X connect 17 0 16 0;
#X connect 18 0 41 2;
#X connect 19 0 18 0;
#X connect 20 0 41 3;
#X connect 21 0 20 0;
#X connect 22 0 42 1;
#X connect 23 0 22 0;
#X connect 24 0 42 2;
#X connect 25 0 24 0;
#X connect 26 0 42 3;
#X connect 27 0 26 0;
#X connect 28 0 43 1;
#X connect 29 0 28 0;
#X connect 30 0 43 2;
#X connect 31 0 30 0;
#X connect 32 0 43 3;
#X connect 33 0 32 0;
#X connect 34 0 44 1;
#X connect 35 0 34 0;
#X connect 36 0 44 2;
#X connect 37 0 36 0;
#X connect 38 0 44 3;
#X connect 39 0 38 0;
#X connect 40 0 41 0;
#X connect 40 0 42 0;
#X connect 40 0 43 0;
#X connect 40 0 44 0;
#X connect 45 0 7 0;
#X connect 45 0 9 0;
#X connect 45 0 11 0;
#X connect 45 0 13 0;
#X connect 47 0 46 1;
#X connect 48 0 46 2;
#X connect 49 0 46 0;
#X connect 49 0 50 0;
#X connect 51 0 50 2;
#X connect 52 0 50 1;
#X connect 53 0 46 0;
#X connect 53 0 50 0;
#X connect 54 0 49 0;
#X connect 54 0 47 0;
#X connect 54 0 48 0;
#X connect 54 0 52 0;
#X connect 54 0 51 0;
#X connect 54 0 55 0;
#X connect 55 0 46 0;
#X connect 55 0 50 0;
