#N canvas 611 296 825 604 10;
#X obj 69 150 t a a;
#X obj 69 194 route float;
#X obj 69 171 route gem_state;
#X obj 132 217 b;
#X obj 132 247 f;
#X obj 59 363 gemlist;
#X obj 107 320 + 1;
#N canvas 893 638 516 245 position 0;
#X obj 110 -28 inlet;
#X obj 110 143 outlet;
#X obj 280 140 outlet;
#X obj 110 25 v count1;
#X obj 280 25 v count1;
#X obj 110 -6 t b b b;
#X msg 401 -1 set \$1;
#X msg 451 -1 set \$1;
#X obj 401 -21 inlet;
#X obj 451 -21 inlet;
#X obj 110 52 tabread \$1;
#X obj 280 52 tabread \$1;
#X obj 140 72 * 4;
#X floatatom 110 123 5 0 0 0 - - -;
#X floatatom 280 120 5 0 0 0 - - -;
#X obj 310 76 * 4;
#X obj 140 92 - 4;
#X obj 310 96 - 4;
#X connect 0 0 5 0;
#X connect 3 0 10 0;
#X connect 4 0 11 0;
#X connect 5 0 3 0;
#X connect 5 1 4 0;
#X connect 6 0 10 0;
#X connect 7 0 11 0;
#X connect 8 0 6 0;
#X connect 9 0 7 0;
#X connect 10 0 13 0;
#X connect 11 0 14 0;
#X connect 12 0 16 0;
#X connect 13 0 1 0;
#X connect 14 0 2 0;
#X connect 15 0 17 0;
#X restore 181 435 pd position;
#X obj 88 119 f 0;
#X obj 132 269 until;
#X obj 147 286 t b b b b;
#X obj 24 303 v count1;
#X obj 124 136 v count1;
#X obj 59 452 translateXYZ;
#X obj 59 390 separator;
#X obj 212 230 arraysize \$1;
#X obj 212 168 symbol \$1;
#X symbolatom 412 152 10 0 0 0 - - -;
#X msg 239 211 set \$1;
#X obj 212 189 t b s;
#X symbolatom 522 152 10 0 0 0 - - -;
#X text 412 131 Eixo X:;
#X text 522 131 Eixo Y:;
#X obj 322 168 symbol \$1;
#X obj 59 510 alpha 1;
#X obj 413 207 hsl 128 15 0 1 0 0 empty empty empty -2 -8 0 10 -262144
-1 -1 0 1;
#X text 411 112 Define Vetores da Visualização:;
#X obj 551 386 inlet;
#X obj 412 77 l2s;
#X obj 522 77 l2s;
#X obj 69 -3 inlet;
#X obj 59 540 circle 0.03;
#X obj 511 386 inlet;
#X obj 471 386 inlet;
#X obj 421 386 inlet;
#X obj 69 99 t a b b;
#X msg 412 54 norm_feature_5;
#X obj 59 483 colorRGB 1 0 1 0.1;
#X msg 522 54 norm_feature_4;
#X connect 0 0 2 0;
#X connect 0 1 5 1;
#X connect 1 1 3 0;
#X connect 2 0 1 0;
#X connect 3 0 4 0;
#X connect 4 0 9 0;
#X connect 5 0 14 0;
#X connect 6 0 11 0;
#X connect 7 0 13 1;
#X connect 7 1 13 2;
#X connect 8 0 12 0;
#X connect 9 0 10 0;
#X connect 10 0 11 0;
#X connect 10 1 5 0;
#X connect 10 2 7 0;
#X connect 11 0 6 0;
#X connect 13 0 37 0;
#X connect 14 0 13 0;
#X connect 15 0 4 1;
#X connect 16 0 19 0;
#X connect 16 0 7 1;
#X connect 17 0 16 0;
#X connect 18 0 15 0;
#X connect 19 0 15 0;
#X connect 19 1 18 0;
#X connect 20 0 23 0;
#X connect 23 0 7 2;
#X connect 24 0 31 0;
#X connect 25 0 37 4;
#X connect 27 0 37 4;
#X connect 28 0 17 0;
#X connect 29 0 20 0;
#X connect 30 0 35 0;
#X connect 32 0 37 3;
#X connect 33 0 37 2;
#X connect 34 0 37 1;
#X connect 35 0 0 0;
#X connect 35 1 8 0;
#X connect 35 2 36 0;
#X connect 35 2 38 0;
#X connect 36 0 28 0;
#X connect 37 0 24 0;
#X connect 38 0 29 0;
