#N canvas 221 -7 421 697 10;
#N canvas 698 213 454 339 barkwindow 0;
#X obj 22 139 expr 13*atan($f1*0.00076)+3.5*atan(pow($f1/7500 \, 2))
;
#X obj 22 187 change;
#X obj 22 161 i;
#X obj 23 232 i;
#N canvas 0 0 450 300 (subpatch) 0;
#X array \$0bark 25 float 3;
#A 0 0 5 10 15 20 25 31 37 43 51 59 68 79 92 107 126 150 178 212 252
298 354 426 531 1023;
#X coords 0 1024 25 0 200 140 1;
#X restore 232 -3 graph;
#X obj 23 280 tabwrite \$0bark;
#X obj 23 256 min 1023;
#X obj 67 234 expr ($f1/2)-1;
#X obj 23 10 inlet;
#X obj 23 207 b;
#X obj 22 116 expr ($f1)*(44100.0/float($f2));
#X obj 23 64 until;
#X obj 25 88 f;
#X obj 55 89 + 1;
#X msg 61 67 0;
#X obj 23 33 t f b f;
#X floatatom 213 278 5 0 0 0 - - -;
#X floatatom 242 184 5 0 0 0 - - -;
#X obj 219 240 tabread \$0bark;
#X connect 0 0 2 0;
#X connect 1 0 9 0;
#X connect 2 0 5 1;
#X connect 2 0 1 0;
#X connect 3 0 6 0;
#X connect 6 0 5 0;
#X connect 7 0 6 1;
#X connect 8 0 15 0;
#X connect 9 0 3 0;
#X connect 10 0 0 0;
#X connect 11 0 12 0;
#X connect 12 0 13 0;
#X connect 12 0 3 1;
#X connect 12 0 10 0;
#X connect 13 0 12 1;
#X connect 14 0 12 1;
#X connect 15 0 11 0;
#X connect 15 1 14 0;
#X connect 15 2 10 1;
#X connect 15 2 7 0;
#X connect 17 0 18 0;
#X connect 18 0 16 0;
#X restore 314 56 pd barkwindow;
#X obj 206 -83 loadbang;
#X obj 246 -10 pack f f;
#X msg 246 14 set \$1 \$2;
#X obj 206 -32 \$1;
#X obj 233 -32 \$2;
#X msg 204 59 resize \$1;
#X obj 49 15 *~;
#X obj 74 12 *~;
#X obj 55 37 +~;
#X obj 55 58 sqrt~;
#X obj 49 -21 rfft~;
#X obj 50 -95 inlet~;
#X obj 277 -97 inlet;
#X obj 50 -48 *~;
#X obj 65 -72 tabreceive~ \$0-hann;
#X obj 52 569 outlet;
#X obj 55 140 tabsend~ one\$0;
#X obj 204 103 table one\$0;
#X obj 204 81 s one\$0;
#X obj 52 503 list prepend;
#X obj 52 546 t l b;
#X obj 52 526 list split 24;
#X obj 206 -64 t b b;
#X obj 246 36 switch~;
#X obj 277 -77 route set;
#X obj 277 -57 unpack;
#N canvas 231 171 489 192 Hann-window 0;
#N canvas 0 0 450 300 (subpatch) 0;
#X array \$0-hann 1 float 0;
#X coords 0 1 1 0 200 120 1;
#X restore 262 37 graph;
#X msg 97 59 resize \$1;
#X obj 97 83 s \$0-hann;
#X obj 18 126 expr ((cos($f1*6.283185))* -0.5)+0.5;
#X obj 18 151 tabwrite \$0-hann;
#X obj 18 104 / 2048;
#X obj 18 11 inlet;
#X obj 19 60 until;
#X obj 19 84 f;
#X obj 48 83 + 1;
#X msg 56 59 0;
#X obj 18 38 t f b f;
#X connect 1 0 2 0;
#X connect 3 0 4 0;
#X connect 5 0 3 0;
#X connect 6 0 11 0;
#X connect 7 0 8 0;
#X connect 8 0 9 0;
#X connect 8 0 4 1;
#X connect 8 0 5 0;
#X connect 9 0 8 1;
#X connect 10 0 8 1;
#X connect 11 0 7 0;
#X connect 11 1 10 0;
#X connect 11 2 1 0;
#X connect 11 2 5 1;
#X restore 315 8 pd Hann-window;
#N canvas 166 161 450 189 mask 0;
#N canvas 0 0 450 300 (subpatch) 0;
#X array \$0mask 1 float 3;
#A 0 0;
#X coords 0 1 1 -1 200 140 1;
#X restore 218 42 graph;
#X obj 27 38 inlet;
#X obj 27 86 s \$0mask;
#X msg 27 59 resize \$1 \, const 1 \, 0 0;
#X connect 1 0 3 0;
#X connect 3 0 2 0;
#X restore 315 35 pd mask;
#X obj 52 230 until;
#X obj 85 255 + 1;
#X obj 52 256 f;
#X msg 91 230 0;
#X obj 55 96 *~;
#X obj 70 76 tabreceive~ \$0mask;
#X obj 52 332 tabread \$0bark;
#X obj 52 279 t f f;
#X obj 52 357 tabread one\$0;
#X obj 55 117 rpole~ 1;
#X obj 52 183 t b b;
#X msg 89 184 clear;
#X obj 52 160 bang~;
#X obj 79 408 tabread \$0bark;
#X obj 79 433 tabread one\$0;
#X obj 52 456 -;
#X obj 52 480 /;
#X msg 52 206 24;
#X obj 52 305 + 1;
#X connect 1 0 23 0;
#X connect 2 0 3 0;
#X connect 3 0 24 0;
#X connect 4 0 2 0;
#X connect 4 0 0 0;
#X connect 4 0 27 0;
#X connect 4 0 28 0;
#X connect 4 0 45 1;
#X connect 4 0 6 0;
#X connect 5 0 2 1;
#X connect 6 0 19 0;
#X connect 7 0 9 0;
#X connect 8 0 9 1;
#X connect 9 0 10 0;
#X connect 10 0 33 0;
#X connect 11 0 7 0;
#X connect 11 0 7 1;
#X connect 11 1 8 0;
#X connect 11 1 8 1;
#X connect 12 0 14 0;
#X connect 13 0 25 0;
#X connect 14 0 11 0;
#X connect 15 0 14 1;
#X connect 20 0 22 0;
#X connect 21 0 16 0;
#X connect 21 1 20 1;
#X connect 22 0 21 0;
#X connect 22 2 20 1;
#X connect 23 0 4 0;
#X connect 23 1 5 0;
#X connect 25 0 26 0;
#X connect 25 1 24 0;
#X connect 26 0 4 0;
#X connect 26 1 5 0;
#X connect 29 0 31 0;
#X connect 30 0 31 1;
#X connect 31 0 30 0;
#X connect 31 0 36 0;
#X connect 32 0 31 1;
#X connect 33 0 38 0;
#X connect 34 0 33 1;
#X connect 35 0 37 0;
#X connect 36 0 47 0;
#X connect 36 1 42 0;
#X connect 37 0 44 0;
#X connect 38 0 17 0;
#X connect 39 0 46 0;
#X connect 39 1 40 0;
#X connect 39 1 32 0;
#X connect 40 0 38 0;
#X connect 41 0 39 0;
#X connect 42 0 43 0;
#X connect 43 0 44 1;
#X connect 44 0 45 0;
#X connect 45 0 20 0;
#X connect 46 0 29 0;
#X connect 47 0 35 0;
