#N canvas 121 84 469 575 10;
#X obj 375 73 openpanel;
#X obj 375 54 bng 15 250 50 0 empty empty insert_sound 17 7 0 10 -262144
-1 -1;
#X floatatom 21 535 9 0 0 0 - - -;
#N canvas 0 0 215 159 sound1 0;
#X obj 51 119 soundfiler;
#X obj 51 76 pack s s;
#X obj 51 40 t a b;
#X obj 51 16 inlet;
#X msg 51 96 read -resize \$1 sound1;
#X connect 1 0 4 0;
#X connect 2 0 1 0;
#X connect 3 0 2 0;
#X connect 4 0 0 0;
#X restore 375 94 pd sound1;
#X obj 375 219 nbx 5 14 -1e+037 1e+037 0 1 scale empty Scale(Hz) 0
-8 0 10 -262144 -1 -1 20000 256;
#X obj 114 446 tgl 15 0 empty empty on/off 17 7 0 10 -262144 -1 -1
0 1;
#N canvas 108 51 304 268 player 0;
#X obj 56 101 outlet~;
#X obj 81 -12 tabplay~ sound1;
#X obj 136 -63 arraysize sound1;
#X obj 80 -82 t b b b;
#X obj 53 55 dac~;
#X obj 80 -104 inlet;
#X obj 101 -55 s rec;
#X obj 116 121 s guia;
#X msg 188 18 range 0 \$1;
#X obj 201 66 bang~;
#X msg 136 -40 \; loudness resize \$1;
#X msg 153 31 1;
#X msg 182 41 0;
#X obj 200 92 spigot;
#X obj 174 113 f;
#X obj 205 116 + 64;
#X connect 1 0 4 0;
#X connect 1 0 4 1;
#X connect 1 0 0 0;
#X connect 1 1 12 0;
#X connect 2 0 10 0;
#X connect 2 0 8 0;
#X connect 3 0 1 0;
#X connect 3 0 11 0;
#X connect 3 1 6 0;
#X connect 3 2 2 0;
#X connect 5 0 3 0;
#X connect 8 0 7 0;
#X connect 9 0 13 0;
#X connect 11 0 13 1;
#X connect 12 0 13 1;
#X connect 12 0 14 1;
#X connect 13 0 14 0;
#X connect 14 0 15 0;
#X connect 14 0 7 0;
#X connect 15 0 14 1;
#X restore 22 462 pd player;
#X obj 22 437 bng 15 250 50 0 empty empty Play 17 7 0 10 -262144 -1
-1;
#X obj 20 48 hsl 345 300 0 102642 0 0 empty guia empty -2 -8 0 10 -262144
-258113 -1 0 1;
#N canvas 0 0 450 300 (subpatch) 0;
#X array loudness 1 float 3;
#A 0 0;
#X coords 0 1 1 0 350 140 1;
#X restore 17 207 graph;
#X floatatom 24 366 8 0 0 1 Sample - -;
#X floatatom 339 367 8 0 0 1 Time(ms) - -;
#X floatatom 181 367 8 0 0 1 Block - -;
#X floatatom 24 411 8 0 0 1 - - -;
#N canvas 519 471 645 210 graph 0;
#X obj 16 31 t b f;
#X obj 16 90 pack f 5000;
#X msg 16 120 bounds 0 \$2 \$1 0;
#X obj 16 10 r scale;
#X obj 471 54 * 44.1;
#X obj 333 53 * 512;
#X text 369 53 FFTSize/interp.;
#X obj 387 140 s guia;
#X obj 203 36 inlet;
#X obj 335 27 inlet;
#X obj 473 27 inlet;
#X obj 289 128 outlet;
#X obj 16 61 arraysize loudness;
#X obj 15 150 s loudness;
#X obj 204 73 tabread loudness;
#X obj 334 74 tabread loudness;
#X obj 471 76 tabread loudness;
#X connect 0 0 12 0;
#X connect 0 1 1 1;
#X connect 1 0 2 0;
#X connect 2 0 13 0;
#X connect 3 0 0 0;
#X connect 4 0 7 0;
#X connect 4 0 16 0;
#X connect 5 0 7 0;
#X connect 5 0 15 0;
#X connect 8 0 7 0;
#X connect 8 0 14 0;
#X connect 9 0 5 0;
#X connect 10 0 4 0;
#X connect 12 0 1 0;
#X connect 14 0 11 0;
#X connect 15 0 11 0;
#X connect 16 0 11 0;
#X restore 24 386 pd graph --------------------------------------------
;
#N canvas 0 0 450 300 (subpatch) 0;
#X array sound1 1 float 2;
#X coords 0 1 1 -1 350 140 1;
#X restore 17 48 graph;
#N canvas 0 0 264 132 rec 0;
#X obj 36 21 inlet;
#X obj 39 78 outlet;
#X obj 85 41 sig~;
#X obj 96 64 r rec;
#X obj 86 86 tabwrite~ loudness;
#X connect 0 0 2 0;
#X connect 0 0 1 0;
#X connect 2 0 4 0;
#X connect 3 0 4 0;
#X restore 21 515 pd rec;
#X text 192 479 Arguments and the message set are;
#X msg 124 470 set 1024 2;
#X text 194 506 as in switch~ and block~ objects;
#X text 193 492 window size and overlappling \,;
#X text 14 -15 Loudness - Mesures the human perception of loudness
;
#X text 13 12 based on (Pereira \, 2009);
#X obj 21 491 Loudness~ 2048 4;
#X text 132 544 by Adriano Monteiro (10/2010) - monteiro.adc@gmail.com
;
#X connect 0 0 3 0;
#X connect 1 0 0 0;
#X connect 5 0 23 1;
#X connect 6 0 23 0;
#X connect 7 0 6 0;
#X connect 10 0 14 0;
#X connect 11 0 14 2;
#X connect 12 0 14 1;
#X connect 14 0 13 0;
#X connect 16 0 2 0;
#X connect 18 0 23 1;
#X connect 23 0 16 0;
