#N canvas 152 140 441 411 10;
#N canvas 397 245 497 338 ear-modelling 0;
#N canvas 0 0 450 300 (subpatch) 0;
#X array \$0earmodel 1 float 3;
#A 0 0.00443504;
#X coords 0 10 1 0 200 140 1;
#X restore 238 17 graph;
#X obj 21 248 tabwrite \$0earmodel;
#X obj 18 51 inlet;
#X obj 120 122 s \$0earmodel;
#X msg 120 94 resize \$1;
#X obj 21 198 expr pow(10 \, ((-0.6 * 3.64 * pow($f1 \, -0.8)) + (6.5*exp(-0.6*(pow($f1-3.3
\, 2)))) - (pow(10 \, -3)* pow($f1 \, 3.6)))/20) \;;
#X obj 21 172 expr ($f1*(44100.0/float($f2)))/1000;
#X obj 18 75 t f b f;
#X obj 51 141 + 1;
#X obj 23 138 f;
#X obj 22 116 until;
#X msg 66 115 0;
#X connect 2 0 7 0;
#X connect 4 0 3 0;
#X connect 5 0 1 0;
#X connect 6 0 5 0;
#X connect 7 0 10 0;
#X connect 7 1 11 0;
#X connect 7 2 4 0;
#X connect 7 2 6 1;
#X connect 8 0 9 1;
#X connect 9 0 8 0;
#X connect 9 0 1 1;
#X connect 9 0 6 0;
#X connect 10 0 9 0;
#X connect 11 0 9 1;
#X restore 333 20 pd ear-modelling;
#X obj 47 -21 *~;
#X obj 46 6 rfft~;
#X obj 38 35 *~;
#X obj 81 39 *~;
#X obj 52 60 +~;
#X obj 233 -94 loadbang;
#X obj 48 -92 inlet~;
#X obj 233 -48 \$1;
#X obj 260 -49 \$2;
#X obj 266 3 pack f f;
#X obj 63 -51 tabreceive~ \$0-hann;
#X msg 266 25 set \$1 \$2;
#X msg 233 66 resize \$1;
#X obj 207 148 / 2;
#X obj 233 -74 t b b;
#X obj 233 91 s one\$0;
#X obj 233 114 table one\$0;
#X obj 52 174 bang~;
#X obj 52 267 outlet;
#X obj 293 -123 inlet;
#X obj 293 -96 route set;
#X obj 293 -76 unpack;
#X obj 266 45 switch~;
#X obj 143 253 /;
#N canvas 231 171 489 192 Hann-window 0;
#N canvas 0 0 450 300 (subpatch) 0;
#X array \$0-hann 1 float 0;
#X coords 0 1 1 0 200 120 1;
#X restore 262 37 graph;
#X msg 97 59 resize \$1;
#X obj 97 83 s \$0-hann;
#X obj 18 126 expr ((cos($f1*6.283185))* -0.5)+0.5;
#X obj 18 151 tabwrite \$0-hann;
#X obj 18 104 / 2048;
#X obj 18 11 inlet;
#X obj 19 60 until;
#X obj 19 84 f;
#X obj 48 83 + 1;
#X msg 56 59 0;
#X obj 18 38 t f b f;
#X connect 1 0 2 0;
#X connect 3 0 4 0;
#X connect 5 0 3 0;
#X connect 6 0 11 0;
#X connect 7 0 8 0;
#X connect 8 0 9 0;
#X connect 8 0 4 1;
#X connect 8 0 5 0;
#X connect 9 0 8 1;
#X connect 10 0 8 1;
#X connect 11 0 7 0;
#X connect 11 1 10 0;
#X connect 11 2 1 0;
#X connect 11 2 5 1;
#X restore 335 -1 pd Hann-window;
#X obj 51 147 tabsend~ one\$0;
#X obj 52 104 *~;
#X obj 66 80 tabreceive~ \$0earmodel;
#X obj 52 220 f;
#X obj 52 243 tabread one\$0;
#X obj 52 198 t b b;
#X msg 90 199 clear;
#X obj 51 125 rpole~ 1;
#X obj 205 170 - 1;
#X connect 1 0 2 0;
#X connect 2 0 3 0;
#X connect 2 0 3 1;
#X connect 2 1 4 0;
#X connect 2 1 4 1;
#X connect 3 0 5 0;
#X connect 4 0 5 1;
#X connect 5 0 27 0;
#X connect 6 0 15 0;
#X connect 7 0 1 0;
#X connect 8 0 10 0;
#X connect 8 0 14 0;
#X connect 8 0 0 0;
#X connect 8 0 25 0;
#X connect 8 0 13 0;
#X connect 9 0 10 1;
#X connect 10 0 12 0;
#X connect 11 0 1 1;
#X connect 12 0 23 0;
#X connect 13 0 16 0;
#X connect 14 0 34 0;
#X connect 15 0 8 0;
#X connect 15 1 9 0;
#X connect 18 0 31 0;
#X connect 20 0 21 0;
#X connect 21 0 22 0;
#X connect 21 1 23 0;
#X connect 22 0 8 0;
#X connect 22 1 9 0;
#X connect 27 0 33 0;
#X connect 28 0 27 1;
#X connect 29 0 30 0;
#X connect 30 0 19 0;
#X connect 31 0 29 0;
#X connect 31 1 32 0;
#X connect 32 0 33 0;
#X connect 33 0 26 0;
#X connect 34 0 29 1;
