#N canvas 613 0 429 600 10;
#X obj 224 -77 loadbang;
#X obj 81 -47 inlet~;
#X obj 252 32 pack f f;
#X msg 252 56 set \$1 \$2;
#X msg 225 96 resize \$1;
#X obj 62 -103 bang~;
#X obj 94 127 /;
#X obj 107 466 outlet;
#X obj 225 -10 \$1;
#X obj 254 -10 \$2;
#X obj 225 121 s one\$0;
#X obj 289 119 table one\$0;
#X obj 96 43 tabsend~ one\$0;
#X obj 224 -51 t b b;
#X obj 252 76 switch~;
#X obj 295 -59 route set;
#X obj 294 -39 unpack;
#X obj 295 -80 inlet;
#X obj 94 149 sqrt;
#X obj 82 -9 *~;
#X obj 226 139 s two\$0;
#X obj 107 425 /;
#X obj 289 142 table two\$0;
#X obj 107 445 - 3;
#X obj 171 376 /;
#X obj 56 386 /;
#X obj 171 401 pow 2;
#X obj 95 20 rpole~ 1;
#X obj 62 -81 t b b b b;
#X msg 131 -35 clear;
#X obj 94 100 tabread one\$0;
#X obj 94 77 \$1;
#X obj 94 172 sig~;
#X obj 81 209 -~;
#X obj 76 234 *~;
#X obj 55 260 *~;
#X obj 168 275 rpole~ 1;
#X obj 171 326 \$1;
#X obj 169 298 tabsend~ two\$0;
#X obj 171 349 tabread two\$0;
#X obj 56 291 rpole~ 1;
#X obj 58 340 \$1;
#X obj 56 314 tabsend~ three\$0;
#X obj 56 360 tabread three\$0;
#X obj 225 160 s three\$0;
#X obj 289 164 table three\$0;
#X connect 0 0 13 0;
#X connect 1 0 19 1;
#X connect 1 0 19 0;
#X connect 2 0 3 0;
#X connect 3 0 14 0;
#X connect 4 0 10 0;
#X connect 4 0 20 0;
#X connect 4 0 44 0;
#X connect 5 0 28 0;
#X connect 6 0 18 0;
#X connect 8 0 2 0;
#X connect 8 0 6 1;
#X connect 8 0 4 0;
#X connect 8 0 24 1;
#X connect 8 0 25 1;
#X connect 8 0 31 1;
#X connect 8 0 41 1;
#X connect 8 0 37 1;
#X connect 9 0 2 1;
#X connect 13 0 8 0;
#X connect 13 1 9 0;
#X connect 15 0 16 0;
#X connect 15 1 14 0;
#X connect 16 0 8 0;
#X connect 16 1 9 0;
#X connect 17 0 15 0;
#X connect 18 0 32 0;
#X connect 19 0 27 0;
#X connect 19 0 33 0;
#X connect 21 0 23 0;
#X connect 23 0 7 0;
#X connect 24 0 26 0;
#X connect 25 0 21 0;
#X connect 26 0 21 1;
#X connect 27 0 12 0;
#X connect 28 0 41 0;
#X connect 28 1 37 0;
#X connect 28 2 31 0;
#X connect 28 3 29 0;
#X connect 29 0 27 0;
#X connect 29 0 40 0;
#X connect 29 0 36 0;
#X connect 30 0 6 0;
#X connect 31 0 30 0;
#X connect 32 0 33 1;
#X connect 33 0 34 1;
#X connect 33 0 34 0;
#X connect 34 0 35 1;
#X connect 34 0 35 0;
#X connect 34 0 36 0;
#X connect 35 0 40 0;
#X connect 36 0 38 0;
#X connect 37 0 39 0;
#X connect 39 0 24 0;
#X connect 40 0 42 0;
#X connect 41 0 43 0;
#X connect 43 0 25 0;
