#N canvas 525 15 468 559 10;
#X declare -lib iem_tab;
#X obj 370 11 bng 15 250 50 0 empty empty insert_sound 17 7 0 10 -262144
-1 -1;
#X floatatom 23 483 9 0 0 0 - - -;
#X obj 374 179 nbx 5 14 -1e+037 1e+037 0 1 scale empty Scale(Hz) 0
-8 0 10 -262144 -1 -1 0.5 256;
#X obj 122 399 tgl 15 0 empty empty on/off 17 7 0 10 -262144 -1 -1
0 1;
#N canvas 563 203 282 268 player 0;
#X obj 33 168 outlet~;
#X obj 53 -16 t b b b;
#X obj 30 132 dac~;
#X obj 53 -38 inlet;
#X obj 74 11 s rec;
#X obj 89 187 s guia;
#X obj 88 133 count~;
#X obj 89 162 snapshot~;
#X msg 134 106 stop;
#X msg 198 65 range 0 \$1;
#X obj 168 118 bang~;
#X obj 168 139 spigot;
#X obj 219 118 tgl 15 0 empty empty empty 17 7 0 10 -262144 -1 -1 0
1;
#X msg 155 83 1;
#X msg 193 88 0;
#X obj 54 64 tabplay~ \$0sound;
#X obj 109 3 arraysize \$0sound;
#X msg 109 26 \; EnergyKurtosis resize \$1;
#X connect 1 0 6 0;
#X connect 1 0 13 0;
#X connect 1 0 15 0;
#X connect 1 1 4 0;
#X connect 1 2 16 0;
#X connect 3 0 1 0;
#X connect 6 0 7 0;
#X connect 7 0 5 0;
#X connect 8 0 6 0;
#X connect 9 0 5 0;
#X connect 10 0 11 0;
#X connect 11 0 7 0;
#X connect 12 0 11 1;
#X connect 13 0 12 0;
#X connect 14 0 12 0;
#X connect 15 0 2 0;
#X connect 15 0 2 1;
#X connect 15 0 0 0;
#X connect 15 1 8 0;
#X connect 15 1 14 0;
#X connect 16 0 17 0;
#X connect 16 0 9 0;
#X restore 23 420 pd player;
#X obj 23 400 bng 15 250 50 0 empty empty Play 17 7 0 10 -262144 -1
-1;
#X obj 19 8 hsl 345 300 0 345076 0 0 empty guia empty -2 -8 0 10 -262144
-258113 -1 0 1;
#N canvas 0 0 450 300 (subpatch) 0;
#X array EnergyKurtosis 1 float 3;
#A 0 0;
#X coords 0 0.5 1 0 350 140 1;
#X restore 16 167 graph;
#X floatatom 23 326 8 0 0 1 Sample - -;
#X floatatom 338 327 8 0 0 1 Time(ms) - -;
#X floatatom 180 327 8 0 0 1 Block - -;
#X floatatom 23 371 8 0 0 1 - - -;
#N canvas 519 471 644 210 graph 0;
#X obj 16 31 t b f;
#X obj 16 90 pack f 5000;
#X msg 16 120 bounds 0 \$2 \$1 0;
#X obj 16 10 r scale;
#X obj 471 54 * 44.1;
#X obj 333 53 * 512;
#X text 369 53 FFTSize/interp.;
#X obj 387 140 s guia;
#X obj 203 36 inlet;
#X obj 335 27 inlet;
#X obj 473 27 inlet;
#X obj 289 128 outlet;
#X obj 15 60 arraysize EnergyKurtosis;
#X obj 15 150 s EnergyKurtosis;
#X obj 203 73 tabread EnergyKurtosis;
#X obj 334 74 tabread EnergyKurtosis;
#X obj 471 76 tabread EnergyKurtosis;
#X connect 0 0 12 0;
#X connect 0 1 1 1;
#X connect 1 0 2 0;
#X connect 2 0 13 0;
#X connect 3 0 0 0;
#X connect 4 0 7 0;
#X connect 4 0 16 0;
#X connect 5 0 7 0;
#X connect 5 0 15 0;
#X connect 8 0 7 0;
#X connect 8 0 14 0;
#X connect 9 0 5 0;
#X connect 10 0 4 0;
#X connect 12 0 1 0;
#X connect 14 0 11 0;
#X connect 15 0 11 0;
#X connect 16 0 11 0;
#X restore 23 346 pd graph --------------------------------------------
;
#N canvas 0 0 450 300 (subpatch) 0;
#X array \$0sound 1 float 2;
#X coords 0 1 1 -1 350 140 1;
#X restore 16 8 graph;
#N canvas 0 0 264 132 rec 0;
#X obj 36 21 inlet;
#X obj 39 78 outlet;
#X obj 85 41 sig~;
#X obj 96 64 r rec;
#X obj 86 87 tabwrite~ EnergyKurtosis;
#X connect 0 0 2 0;
#X connect 0 0 1 0;
#X connect 2 0 4 0;
#X connect 3 0 4 0;
#X restore 23 463 pd rec;
#N canvas 136 89 215 205 sample 0;
#X obj 50 143 soundfiler;
#X obj 50 13 inlet;
#X obj 50 34 openpanel;
#X obj 50 100 pack s f;
#X obj 50 54 t a b;
#X obj 95 79 \$0;
#X msg 50 120 read -resize \$1 \$2sound;
#X connect 1 0 2 0;
#X connect 2 0 4 0;
#X connect 3 0 6 0;
#X connect 4 0 3 0;
#X connect 4 1 5 0;
#X connect 5 0 3 1;
#X connect 6 0 0 0;
#X restore 370 29 pd sample;
#X text 210 420 Arguments and the message set are;
#X msg 133 422 set 1024 2;
#X text 212 447 as in switch~ and block~ objects;
#X text 211 433 window size and overlappling \,;
#X text 8 -51 Energy Kurtosis;
#X obj 23 442 Ekurtosis~ 2048 4;
#X text 136 488 by Adriano Monteiro (10/2010)- monteiro.adc@gmail.com
;
#X connect 0 0 15 0;
#X connect 3 0 21 1;
#X connect 4 0 21 0;
#X connect 5 0 4 0;
#X connect 8 0 12 0;
#X connect 9 0 12 2;
#X connect 10 0 12 1;
#X connect 12 0 11 0;
#X connect 14 0 1 0;
#X connect 17 0 21 1;
#X connect 21 0 14 0;
