#N canvas 613 265 340 312 10;
#X obj 198 -51 loadbang;
#X obj 20 -43 inlet~;
#X obj 210 54 pack f f;
#X msg 210 78 set \$1 \$2;
#X obj 29 26 bang~;
#X obj 32 192 /;
#X obj 32 233 outlet;
#X obj 198 15 \$1;
#X obj 224 16 \$2;
#X obj 21 124 tabsend~ one\$0;
#X obj 198 -25 t b b;
#X obj 210 98 switch~;
#X obj 269 -33 route set;
#X obj 268 -13 unpack;
#X obj 269 -54 inlet;
#X obj 32 213 sqrt;
#X obj 21 -12 *~;
#X obj 22 101 rpole~ 1;
#X obj 29 48 t b b;
#X msg 56 73 clear;
#X obj 193 168 table one\$0;
#X obj 192 146 s one\$0;
#X msg 192 124 resize \$1;
#X obj 32 149 \$1;
#X obj 32 170 tabread one\$0;
#X connect 0 0 10 0;
#X connect 1 0 16 1;
#X connect 1 0 16 0;
#X connect 2 0 3 0;
#X connect 3 0 11 0;
#X connect 4 0 18 0;
#X connect 5 0 15 0;
#X connect 7 0 2 0;
#X connect 7 0 5 1;
#X connect 7 0 22 0;
#X connect 7 0 23 1;
#X connect 8 0 2 1;
#X connect 10 0 7 0;
#X connect 10 1 8 0;
#X connect 12 0 13 0;
#X connect 12 1 11 0;
#X connect 13 0 7 0;
#X connect 13 1 8 0;
#X connect 14 0 12 0;
#X connect 15 0 6 0;
#X connect 16 0 17 0;
#X connect 17 0 9 0;
#X connect 18 0 23 0;
#X connect 18 1 19 0;
#X connect 19 0 17 0;
#X connect 22 0 21 0;
#X connect 23 0 24 0;
#X connect 24 0 5 0;
