#N canvas 152 34 325 522 10;
#X obj 254 -2 inlet;
#X obj 192 13 loadbang;
#X obj 46 -6 inlet~;
#X obj 190 69 \$1;
#X obj 219 70 \$2;
#X obj 218 103 pack f f;
#X msg 218 127 set \$1 \$2;
#X msg 190 167 resize \$1;
#X obj 192 189 s one\$0;
#X obj 190 210 s two\$0;
#X obj 189 231 table one\$0;
#X obj 189 251 table two\$0;
#X obj 64 467 outlet;
#X obj 64 67 bang~;
#X obj 84 235 /;
#X obj 74 161 tabsend~ one\$0;
#X obj 94 447 - 1;
#X obj 192 35 t b b;
#X obj 254 21 route set;
#X obj 251 42 unpack f f;
#X obj 218 147 switch~;
#X obj 46 38 *~;
#X obj 84 255 sqrt;
#X obj 73 137 rpole~ 1;
#X msg 102 112 clear;
#X obj 83 212 tabread one\$0;
#X obj 83 190 \$1;
#X obj 84 280 sig~;
#X obj 64 90 t b b b;
#X obj 46 306 -~;
#X obj 40 334 *~;
#X obj 64 445 /;
#X obj 39 354 rpole~ 1;
#X obj 64 402 \$1;
#X obj 64 423 tabread two\$0;
#X obj 40 378 tabsend~ two\$0;
#X connect 0 0 18 0;
#X connect 1 0 17 0;
#X connect 2 0 21 1;
#X connect 2 0 21 0;
#X connect 3 0 5 0;
#X connect 3 0 7 0;
#X connect 3 0 14 1;
#X connect 3 0 16 0;
#X connect 3 0 26 1;
#X connect 3 0 33 1;
#X connect 4 0 5 1;
#X connect 5 0 6 0;
#X connect 6 0 20 0;
#X connect 7 0 8 0;
#X connect 7 0 9 0;
#X connect 13 0 28 0;
#X connect 14 0 22 0;
#X connect 16 0 31 1;
#X connect 17 0 3 0;
#X connect 17 1 4 0;
#X connect 18 0 19 0;
#X connect 18 1 20 0;
#X connect 19 0 3 0;
#X connect 19 1 4 0;
#X connect 21 0 23 0;
#X connect 21 0 29 0;
#X connect 22 0 27 0;
#X connect 23 0 15 0;
#X connect 24 0 23 0;
#X connect 24 0 32 0;
#X connect 25 0 14 0;
#X connect 26 0 25 0;
#X connect 27 0 29 1;
#X connect 28 0 33 0;
#X connect 28 1 26 0;
#X connect 28 2 24 0;
#X connect 29 0 30 1;
#X connect 29 0 30 0;
#X connect 30 0 32 0;
#X connect 31 0 12 0;
#X connect 32 0 35 0;
#X connect 33 0 34 0;
#X connect 34 0 31 0;
