#N canvas 568 11 481 648 10;
#X obj 370 11 bng 15 250 50 0 empty empty insert_sound 17 7 0 10 -262144
-1 -1;
#X obj 374 179 nbx 5 14 -1e+037 1e+037 0 1 scale empty Scale 0 -8 0
10 -262144 -1 -1 0.3 256;
#X obj 122 414 tgl 15 0 empty empty on/off 17 7 0 10 -262144 -1 -1
0 1;
#N canvas 557 202 332 285 player 0;
#X obj 54 146 outlet~;
#X obj 74 -8 t b b b;
#X obj 53 115 dac~;
#X obj 74 -30 inlet;
#X obj 95 19 s rec;
#X obj 110 195 s guia;
#X obj 109 141 count~;
#X obj 110 170 snapshot~;
#X msg 155 114 stop;
#X msg 219 73 range 0 \$1;
#X obj 189 126 bang~;
#X obj 189 147 spigot;
#X obj 240 126 tgl 15 0 empty empty empty 17 7 0 10 -262144 -1 -1 0
1;
#X msg 176 91 1;
#X msg 214 96 0;
#X obj 75 72 tabplay~ \$0sound;
#X obj 130 11 arraysize \$0sound;
#X msg 130 34 \; EnergyVariance resize \$1;
#X connect 1 0 6 0;
#X connect 1 0 13 0;
#X connect 1 0 15 0;
#X connect 1 1 4 0;
#X connect 1 2 16 0;
#X connect 3 0 1 0;
#X connect 6 0 7 0;
#X connect 7 0 5 0;
#X connect 8 0 6 0;
#X connect 9 0 5 0;
#X connect 10 0 11 0;
#X connect 11 0 7 0;
#X connect 12 0 11 1;
#X connect 13 0 12 0;
#X connect 14 0 12 0;
#X connect 15 0 2 0;
#X connect 15 0 2 1;
#X connect 15 0 0 0;
#X connect 15 1 8 0;
#X connect 15 1 14 0;
#X connect 16 0 17 0;
#X connect 16 0 9 0;
#X restore 23 428 pd player;
#X obj 23 403 bng 15 250 50 0 empty empty Play 17 7 0 10 -262144 -1
-1;
#X obj 19 8 hsl 345 300 0 345076 0 0 empty guia empty -2 -8 0 10 -262144
-258113 -1 0 1;
#N canvas 0 0 450 300 (subpatch) 0;
#X array EnergyVariance 1 float 2;
#X coords 0 0.3 1 0 350 140 1;
#X restore 16 167 graph;
#X floatatom 23 326 8 0 0 1 Sample - -;
#X floatatom 338 327 8 0 0 1 Time(ms) - -;
#X floatatom 180 327 8 0 0 1 Block - -;
#X floatatom 23 371 8 0 0 1 - - -;
#N canvas 344 435 807 210 graph 0;
#X obj 16 31 t b f;
#X obj 16 90 pack f 5000;
#X msg 16 120 bounds 0 \$2 \$1 0;
#X obj 16 10 r scale;
#X obj 574 64 * 44.1;
#X obj 375 43 * 512;
#X text 375 55 FFTSize/interp.;
#X obj 387 140 s guia;
#X obj 191 38 inlet;
#X obj 377 17 inlet;
#X obj 575 36 inlet;
#X obj 289 128 outlet;
#X obj 16 60 arraysize EnergyVariance;
#X obj 15 150 s EnergyVariance;
#X obj 192 75 tabread EnergyVariance;
#X obj 377 77 tabread EnergyVariance;
#X obj 575 84 tabread EnergyVariance;
#X connect 0 0 12 0;
#X connect 0 1 1 1;
#X connect 1 0 2 0;
#X connect 2 0 13 0;
#X connect 3 0 0 0;
#X connect 4 0 7 0;
#X connect 4 0 16 0;
#X connect 5 0 7 0;
#X connect 5 0 15 0;
#X connect 8 0 7 0;
#X connect 8 0 14 0;
#X connect 9 0 5 0;
#X connect 10 0 4 0;
#X connect 12 0 1 0;
#X connect 14 0 11 0;
#X connect 15 0 11 0;
#X connect 16 0 11 0;
#X restore 23 346 pd graph --------------------------------------------
;
#N canvas 0 0 450 300 (subpatch) 0;
#X array \$0sound 1 float 2;
#X coords 0 1 1 -1 350 140 1;
#X restore 16 8 graph;
#N canvas 169 151 308 149 rec 0;
#X obj 36 21 inlet;
#X obj 36 47 sig~;
#X obj 47 70 r rec;
#X obj 37 92 tabwrite~ EnergyVariance;
#X connect 0 0 1 0;
#X connect 1 0 3 0;
#X connect 2 0 3 0;
#X restore 137 573 pd rec;
#N canvas 136 89 215 205 sample 0;
#X obj 50 143 soundfiler;
#X obj 50 13 inlet;
#X obj 50 34 openpanel;
#X obj 50 100 pack s f;
#X obj 50 54 t a b;
#X obj 95 79 \$0;
#X msg 50 120 read -resize \$1 \$2sound;
#X connect 1 0 2 0;
#X connect 2 0 4 0;
#X connect 3 0 6 0;
#X connect 4 0 3 0;
#X connect 4 1 5 0;
#X connect 5 0 3 1;
#X connect 6 0 0 0;
#X restore 370 29 pd sample;
#X obj 215 473 sqrt;
#X floatatom 215 495 9 0 0 1 Energy_Standard_deviation - -;
#X msg 135 434 set 1024 2;
#X text 208 419 Arguments and message set are;
#X text 209 434 block size and interpolation;
#X text 209 448 as in block~ and switch~ objects;
#X text 13 -27 Based on Libxtract by Jamie Bullock;
#X text 12 -41 Energy Variance (Spread);
#X obj 23 456 EVariance~ 2048 4;
#X floatatom 23 486 9 0 200 1 Energy_Variance - -;
#X obj 23 534 spigot;
#X obj 215 536 spigot;
#X obj 66 534 abs;
#X obj 142 512 hradio 15 1 0 2 empty empty empty 0 -8 0 10 -262144
-1 -1 0;
#X obj 92 534 - 1;
#X text 149 592 by Adriano Monteiro (10/2010)- monteiro.adc@gmail.com
;
#X connect 0 0 14 0;
#X connect 2 0 23 1;
#X connect 3 0 23 0;
#X connect 4 0 3 0;
#X connect 7 0 11 0;
#X connect 8 0 11 2;
#X connect 9 0 11 1;
#X connect 11 0 10 0;
#X connect 15 0 16 0;
#X connect 16 0 26 0;
#X connect 17 0 23 1;
#X connect 23 0 24 0;
#X connect 23 0 15 0;
#X connect 24 0 25 0;
#X connect 25 0 13 0;
#X connect 26 0 13 0;
#X connect 27 0 25 1;
#X connect 28 0 26 1;
#X connect 28 0 29 0;
#X connect 29 0 27 0;
