#N canvas 627 266 481 372 10;
#X obj 308 -210 loadbang;
#X obj 1 -216 inlet~;
#X obj 263 -197 z~ 1;
#X obj 29 33 outlet;
#X obj 28 -157 bang~;
#X msg 309 -107 resize \$1;
#X obj 308 -188 t b b;
#X obj 308 -151 \$1;
#X obj 334 -153 \$2;
#X obj 387 -123 pack;
#X msg 388 -101 set \$1 \$2;
#X obj 380 -238 inlet;
#X obj 380 -210 route set;
#X obj 381 -184 unpack;
#X obj 387 -80 switch~;
#X obj 29 12 /;
#X obj 0 -176 expr~ abs(if($v1>=0 \, 1 \, -1) - if($v2>=0 \, 1 \, -1))
;
#X obj 46 -8 * 2;
#X obj 28 -135 t b b;
#X obj 307 -62 table one\$0;
#X obj 308 -83 s one\$0;
#X obj 29 -31 tabread one\$0;
#X obj 29 -52 \$1;
#X msg 55 -115 clear;
#X obj 0 -77 tabsend~ one\$0;
#X obj 0 -97 rpole~ 1;
#X connect 0 0 6 0;
#X connect 1 0 2 0;
#X connect 1 0 16 0;
#X connect 2 0 16 1;
#X connect 4 0 18 0;
#X connect 5 0 20 0;
#X connect 6 0 7 0;
#X connect 6 1 8 0;
#X connect 7 0 5 0;
#X connect 7 0 9 0;
#X connect 7 0 17 0;
#X connect 7 0 22 1;
#X connect 8 0 9 1;
#X connect 9 0 10 0;
#X connect 10 0 14 0;
#X connect 11 0 12 0;
#X connect 12 0 13 0;
#X connect 12 1 14 0;
#X connect 13 0 7 0;
#X connect 13 1 8 0;
#X connect 15 0 3 0;
#X connect 16 0 25 0;
#X connect 17 0 15 1;
#X connect 18 0 22 0;
#X connect 18 1 23 0;
#X connect 21 0 15 0;
#X connect 22 0 21 0;
#X connect 23 0 25 0;
#X connect 25 0 24 0;
