#N canvas 171 46 607 481 10;
#X obj 34 -33 inlet~;
#X obj 69 404 outlet;
#N canvas 249 115 167 320 normalize 0;
#X obj 52 -148 list split 1;
#X obj 86 -124 list;
#X obj 52 -85 max;
#X obj 52 -107 abs;
#X obj 80 -85 f;
#X msg 68 -169 0;
#X obj 35 -15 /;
#X obj 70 -35 list;
#X obj 33 48 t l b;
#X obj 35 -59 list split 1;
#X obj 35 7 list append;
#X obj 34 -192 t l l b;
#X obj 34 -215 inlet;
#X obj 33 70 outlet;
#X obj 33 28 list split 24;
#X connect 0 0 3 0;
#X connect 0 1 1 0;
#X connect 1 0 0 0;
#X connect 2 0 4 0;
#X connect 2 0 6 1;
#X connect 3 0 2 0;
#X connect 4 0 2 1;
#X connect 5 0 2 1;
#X connect 6 0 10 0;
#X connect 7 0 9 0;
#X connect 8 0 13 0;
#X connect 8 1 10 1;
#X connect 9 0 6 0;
#X connect 9 1 7 0;
#X connect 10 0 14 0;
#X connect 11 0 9 0;
#X connect 11 1 0 0;
#X connect 11 2 5 0;
#X connect 12 0 11 0;
#X connect 14 0 8 0;
#X connect 14 2 10 1;
#X restore 126 368 pd normalize;
#N canvas 25 0 1249 580 acum 0;
#X obj -33 212 +;
#X obj -8 211 f;
#X obj 22 212 +;
#X obj 47 211 f;
#X obj 82 212 +;
#X obj 110 212 f;
#X obj 142 210 +;
#X obj 171 209 f;
#X obj 474 16 inlet;
#X obj 1221 44 inlet;
#X msg 1221 99 0;
#X obj 204 211 +;
#X obj 231 211 f;
#X obj 257 209 +;
#X obj 284 209 f;
#X obj 315 205 +;
#X obj 342 205 f;
#X obj 377 202 +;
#X obj 404 202 f;
#X obj 435 204 +;
#X obj 462 204 f;
#X obj 496 204 +;
#X obj 523 204 f;
#X obj 560 202 +;
#X obj 587 202 f;
#X obj 621 201 +;
#X obj 648 201 f;
#X obj 586 451 outlet;
#X obj 1221 70 t b b;
#X obj 552 428 list split 1;
#X floatatom -17 287 5 0 0 0 - - -;
#X obj 475 47 route 0 0.5 1 1.5 2 2.5 3 3.5 4 4.5 5 5.5 6 6.5 7 7.5
8 8.5 9 9.5 10 10.5 11 11.5;
#X obj 552 399 pack 0 f f f f f f f f f f f f f f f f f f f f f f f
f;
#X obj 684 200 +;
#X obj 709 199 f;
#X obj 739 200 +;
#X obj 764 199 f;
#X obj 799 200 +;
#X obj 827 200 f;
#X obj 859 198 +;
#X obj 888 197 f;
#X obj 921 199 +;
#X obj 948 199 f;
#X obj 974 197 +;
#X obj 1001 197 f;
#X obj 1032 193 +;
#X obj 1059 193 f;
#X obj 1094 190 +;
#X obj 1121 190 f;
#X obj 1152 192 +;
#X obj 1179 192 f;
#X obj 1213 192 +;
#X obj 1240 192 f;
#X obj 1277 190 +;
#X obj 1304 190 f;
#X obj 1338 189 +;
#X obj 1365 189 f;
#X connect 0 0 1 0;
#X connect 0 0 30 0;
#X connect 0 0 32 1;
#X connect 1 0 0 1;
#X connect 2 0 3 0;
#X connect 2 0 32 2;
#X connect 3 0 2 1;
#X connect 4 0 5 0;
#X connect 4 0 32 3;
#X connect 5 0 4 1;
#X connect 6 0 7 0;
#X connect 6 0 32 4;
#X connect 7 0 6 1;
#X connect 8 0 31 0;
#X connect 9 0 28 0;
#X connect 10 0 0 1;
#X connect 10 0 2 1;
#X connect 10 0 4 1;
#X connect 10 0 6 1;
#X connect 10 0 11 1;
#X connect 10 0 13 1;
#X connect 10 0 15 1;
#X connect 10 0 17 1;
#X connect 10 0 19 1;
#X connect 10 0 21 1;
#X connect 10 0 23 1;
#X connect 10 0 25 1;
#X connect 10 0 33 1;
#X connect 10 0 35 1;
#X connect 10 0 37 1;
#X connect 10 0 39 1;
#X connect 10 0 41 1;
#X connect 10 0 43 1;
#X connect 10 0 45 1;
#X connect 10 0 47 1;
#X connect 10 0 49 1;
#X connect 10 0 51 1;
#X connect 10 0 53 1;
#X connect 10 0 55 1;
#X connect 11 0 12 0;
#X connect 11 0 32 5;
#X connect 12 0 11 1;
#X connect 13 0 14 0;
#X connect 13 0 32 6;
#X connect 14 0 13 1;
#X connect 15 0 16 0;
#X connect 15 0 32 7;
#X connect 16 0 15 1;
#X connect 17 0 18 0;
#X connect 17 0 32 8;
#X connect 18 0 17 1;
#X connect 19 0 20 0;
#X connect 19 0 32 9;
#X connect 20 0 19 1;
#X connect 21 0 22 0;
#X connect 21 0 32 10;
#X connect 22 0 21 1;
#X connect 23 0 24 0;
#X connect 23 0 32 11;
#X connect 24 0 23 1;
#X connect 25 0 26 0;
#X connect 25 0 32 12;
#X connect 26 0 25 1;
#X connect 28 0 10 0;
#X connect 28 1 32 0;
#X connect 29 1 27 0;
#X connect 31 0 0 0;
#X connect 31 1 2 0;
#X connect 31 2 4 0;
#X connect 31 3 6 0;
#X connect 31 4 11 0;
#X connect 31 5 13 0;
#X connect 31 6 15 0;
#X connect 31 7 17 0;
#X connect 31 8 19 0;
#X connect 31 9 21 0;
#X connect 31 10 23 0;
#X connect 31 11 25 0;
#X connect 31 12 33 0;
#X connect 31 13 35 0;
#X connect 31 14 37 0;
#X connect 31 15 39 0;
#X connect 31 16 41 0;
#X connect 31 17 43 0;
#X connect 31 18 45 0;
#X connect 31 19 47 0;
#X connect 31 20 49 0;
#X connect 31 21 51 0;
#X connect 31 22 53 0;
#X connect 31 23 55 0;
#X connect 32 0 29 0;
#X connect 33 0 34 0;
#X connect 33 0 32 13;
#X connect 34 0 33 1;
#X connect 35 0 36 0;
#X connect 35 0 32 14;
#X connect 36 0 35 1;
#X connect 37 0 38 0;
#X connect 37 0 32 15;
#X connect 38 0 37 1;
#X connect 39 0 40 0;
#X connect 39 0 32 16;
#X connect 40 0 39 1;
#X connect 41 0 42 0;
#X connect 41 0 32 17;
#X connect 42 0 41 1;
#X connect 43 0 44 0;
#X connect 43 0 32 18;
#X connect 44 0 43 1;
#X connect 45 0 46 0;
#X connect 45 0 32 19;
#X connect 46 0 45 1;
#X connect 47 0 48 0;
#X connect 47 0 32 20;
#X connect 48 0 47 1;
#X connect 49 0 50 0;
#X connect 49 0 32 21;
#X connect 50 0 49 1;
#X connect 51 0 52 0;
#X connect 51 0 32 22;
#X connect 52 0 51 1;
#X connect 53 0 54 0;
#X connect 53 0 32 23;
#X connect 54 0 53 1;
#X connect 55 0 56 0;
#X connect 55 0 32 24;
#X connect 56 0 55 1;
#X restore 69 284 pd acum;
#X obj 116 306 == 0;
#X obj 69 261 pack f f;
#X obj 282 134 switch~;
#X obj 346 116 loadbang;
#X obj 195 88 inlet;
#X floatatom 435 210 5 0 0 0 - - -;
#X obj 346 141 \$4;
#X obj 69 59 ftom;
#X obj 96 182 -;
#X obj 96 203 abs;
#X obj 35 -8 sigmund~ -npts \$1 -hop \$2 -maxfreq \$3 -npeak \$4 peaks
;
#X obj 69 105 t f f;
#X obj 35 24 unpack f f f;
#X obj 69 156 t f f;
#X obj 101 230 expr $f2*if($f1<=$f3 \, pow(cos(($f1/$f3)*1.57079) \,
2) \, 0);
#X obj 35 226 sel;
#X obj 346 165 - 1;
#X obj 69 339 spigot 1;
#X obj 127 342 spigot 0;
#X obj 195 110 route normalize;
#X obj 483 136 bng 15 250 50 0 empty empty empty 17 7 0 10 -262144
-1 -1;
#X obj 436 183 expr 0.5*pow(2 \, 2/12.0);
#N canvas 0 0 230 281 fmod 0;
#X obj 62 46 inlet;
#X obj 62 265 outlet;
#X obj 92 132 int;
#X obj 62 106 t f f;
#X obj 62 158 -;
#X obj 62 185 moses 0;
#X obj 62 213 + 1;
#X obj 62 74 / 12;
#X obj 61 240 * 12;
#X connect 0 0 7 0;
#X connect 2 0 4 1;
#X connect 3 0 4 0;
#X connect 3 1 2 0;
#X connect 4 0 5 0;
#X connect 5 0 6 0;
#X connect 5 1 8 0;
#X connect 6 0 8 0;
#X connect 7 0 3 0;
#X connect 8 0 1 0;
#X restore 69 83 pd fmod 12;
#N canvas 138 107 450 300 quantize 0;
#X obj 170 172 / 2;
#X obj 139 202 >;
#X obj 57 219 +;
#X obj 57 246 *;
#X obj 207 202 t a;
#X obj 57 119 t a a;
#X obj 57 172 /;
#X obj 57 195 int;
#X obj 136 120 t a a a a;
#X obj 57 49 inlet;
#X obj 57 272 outlet;
#X obj 137 64 loadbang;
#X text 203 159 if remainder is > 1/2 \,;
#X text 204 173 quantize to next snappoint;
#X text 192 167 <;
#N canvas 0 0 230 281 fmod 0;
#X obj 62 46 inlet;
#X obj 62 265 outlet;
#X obj 120 46 inlet;
#X obj 62 74 / \$1;
#X obj 62 240 * \$1;
#X obj 92 132 int;
#X obj 62 106 t f f;
#X obj 62 158 -;
#X obj 62 185 moses 0;
#X obj 62 213 + 1;
#X connect 0 0 3 0;
#X connect 2 0 3 1;
#X connect 2 0 4 1;
#X connect 3 0 6 0;
#X connect 4 0 1 0;
#X connect 5 0 7 1;
#X connect 6 0 7 0;
#X connect 6 1 5 0;
#X connect 7 0 8 0;
#X connect 8 0 9 0;
#X connect 8 1 4 0;
#X connect 9 0 4 0;
#X restore 113 172 pd fmod;
#X msg 137 87 0.5;
#X connect 0 0 1 1;
#X connect 1 0 2 1;
#X connect 2 0 3 0;
#X connect 3 0 10 0;
#X connect 4 0 3 1;
#X connect 5 0 6 0;
#X connect 5 1 15 0;
#X connect 6 0 7 0;
#X connect 7 0 2 0;
#X connect 8 0 6 1;
#X connect 8 1 15 1;
#X connect 8 2 0 0;
#X connect 8 3 4 0;
#X connect 9 0 5 0;
#X connect 11 0 16 0;
#X connect 15 0 1 0;
#X connect 16 0 8 0;
#X restore 69 130 pd quantize 0.5;
#X connect 0 0 14 0;
#X connect 2 0 1 0;
#X connect 3 0 21 0;
#X connect 3 0 22 0;
#X connect 4 0 21 1;
#X connect 5 0 3 0;
#X connect 7 0 10 0;
#X connect 7 0 25 0;
#X connect 8 0 23 0;
#X connect 9 0 18 2;
#X connect 10 0 20 0;
#X connect 11 0 26 0;
#X connect 12 0 13 0;
#X connect 13 0 18 0;
#X connect 14 0 16 0;
#X connect 15 0 27 0;
#X connect 15 1 12 1;
#X connect 16 0 19 0;
#X connect 16 1 11 0;
#X connect 16 2 18 1;
#X connect 17 0 5 0;
#X connect 17 1 12 0;
#X connect 18 0 5 1;
#X connect 19 0 3 1;
#X connect 20 0 19 1;
#X connect 21 0 1 0;
#X connect 22 0 2 0;
#X connect 23 0 4 0;
#X connect 23 0 22 1;
#X connect 23 1 6 0;
#X connect 24 0 25 0;
#X connect 25 0 9 0;
#X connect 26 0 15 0;
#X connect 27 0 17 0;
