#N canvas 627 29 468 572 10;
#X obj 370 11 bng 15 250 50 0 empty empty insert_sound 17 7 0 10 -262144
-1 -1;
#X floatatom 23 486 9 0 0 0 - - -;
#X obj 374 179 nbx 5 14 -1e+037 1e+037 0 1 scale empty Scale 0 -8 0
10 -262144 -1 -1 23 256;
#N canvas 557 202 413 268 player 0;
#X obj 23 144 outlet~;
#X obj 48 -16 t b b b;
#X obj 20 108 dac~;
#X obj 48 -38 inlet;
#X obj 69 11 s rec;
#X obj 84 187 s guia;
#X obj 83 133 count~;
#X obj 84 162 snapshot~;
#X msg 129 106 stop;
#X msg 193 65 range 0 \$1;
#X obj 163 118 bang~;
#X obj 163 139 spigot;
#X obj 214 118 tgl 15 0 empty empty empty 17 7 0 10 -262144 -1 -1 0
1;
#X msg 150 83 1;
#X msg 188 88 0;
#X obj 49 64 tabplay~ \$0sound;
#X obj 104 3 arraysize \$0sound;
#X msg 104 26 \; Inharmonicity resize \$1;
#X connect 1 0 6 0;
#X connect 1 0 13 0;
#X connect 1 0 15 0;
#X connect 1 1 4 0;
#X connect 1 2 16 0;
#X connect 3 0 1 0;
#X connect 6 0 7 0;
#X connect 7 0 5 0;
#X connect 8 0 6 0;
#X connect 9 0 5 0;
#X connect 10 0 11 0;
#X connect 11 0 7 0;
#X connect 12 0 11 1;
#X connect 13 0 12 0;
#X connect 14 0 12 0;
#X connect 15 0 2 0;
#X connect 15 0 2 1;
#X connect 15 0 0 0;
#X connect 15 1 8 0;
#X connect 15 1 14 0;
#X connect 16 0 17 0;
#X connect 16 0 9 0;
#X restore 23 423 pd player;
#X obj 23 403 bng 15 250 50 0 empty empty Play 17 7 0 10 -262144 -1
-1;
#X obj 19 8 hsl 345 300 0 51265 0 0 empty guia empty -2 -8 0 10 -262144
-258113 -1 34399 1;
#N canvas 0 0 450 300 (subpatch) 0;
#X array Inharmonicity 1 float 3;
#A 0 0;
#X coords 0 23 1 0 350 140 1;
#X restore 16 167 graph;
#X floatatom 23 326 8 0 0 1 Sample - -;
#X floatatom 338 327 8 0 0 1 Time(ms) - -;
#X floatatom 180 327 8 0 0 1 Block - -;
#X floatatom 23 371 8 0 0 1 - - -;
#N canvas 468 353 645 210 graph 0;
#X obj 16 31 t b f;
#X obj 16 90 pack f 5000;
#X msg 16 120 bounds 0 \$2 \$1 0;
#X obj 16 10 r scale;
#X obj 464 8 * 44.1;
#X obj 339 55 * 512;
#X text 375 55 FFTSize/interp.;
#X obj 387 140 s guia;
#X obj 178 -24 inlet;
#X obj 341 29 inlet;
#X obj 464 -15 inlet;
#X obj 289 128 outlet;
#X obj 16 60 arraysize Inharmonicity;
#X obj 16 149 s Inharmonicity;
#X obj 178 13 tabread Inharmonicity;
#X obj 340 74 tabread Inharmonicity;
#X obj 464 29 tabread Inharmonicity;
#X connect 0 0 12 0;
#X connect 0 1 1 1;
#X connect 1 0 2 0;
#X connect 2 0 13 0;
#X connect 3 0 0 0;
#X connect 4 0 7 0;
#X connect 4 0 16 0;
#X connect 5 0 7 0;
#X connect 5 0 15 0;
#X connect 8 0 7 0;
#X connect 8 0 14 0;
#X connect 9 0 5 0;
#X connect 10 0 4 0;
#X connect 12 0 1 0;
#X connect 14 0 11 0;
#X connect 15 0 11 0;
#X connect 16 0 11 0;
#X restore 23 346 pd graph --------------------------------------------
;
#N canvas 0 0 450 300 (subpatch) 0;
#X array \$0sound 1 float 2;
#X coords 0 1 1 -1 350 140 1;
#X restore 16 8 graph;
#N canvas 0 0 330 129 rec 0;
#X obj 36 21 inlet;
#X obj 39 78 outlet;
#X obj 85 41 sig~;
#X obj 96 64 r rec;
#X obj 86 86 tabwrite~ Inharmonicity;
#X connect 0 0 2 0;
#X connect 0 0 1 0;
#X connect 2 0 4 0;
#X connect 3 0 4 0;
#X restore 23 466 pd rec;
#N canvas 136 89 215 167 sample 0;
#X obj 50 143 soundfiler;
#X obj 50 13 inlet;
#X obj 50 34 openpanel;
#X obj 50 100 pack s f;
#X obj 50 54 t a b;
#X obj 95 79 \$0;
#X msg 50 120 read -resize \$1 \$2sound;
#X connect 1 0 2 0;
#X connect 2 0 4 0;
#X connect 3 0 6 0;
#X connect 4 0 3 0;
#X connect 4 1 5 0;
#X connect 5 0 3 1;
#X connect 6 0 0 0;
#X restore 370 29 pd sample;
#X text 188 495 by Adriano Monteiro - monteiro.adc@gmail.com;
#X text 212 387 1) FFT Size;
#X text 191 372 Arguments are:;
#X text 15 -63 Inharmonicity;
#X obj 147 421 tgl 15 0 empty empty On/Off 17 7 0 10 -262144 -1 -1
1 1;
#X text 14 -47 It represents the divergence of the signal spectral
peaks;
#X text 16 -33 From a purely harmonic signal.;
#X obj 24 445 Inharmonicity~ 512 20;
#X text 281 389 (Hop-size = FFTsize/2);
#X text 213 403 2) Number of peaks to find;
#X connect 0 0 14 0;
#X connect 3 0 22 0;
#X connect 4 0 3 0;
#X connect 7 0 11 0;
#X connect 8 0 11 2;
#X connect 9 0 11 1;
#X connect 11 0 10 0;
#X connect 13 0 1 0;
#X connect 19 0 22 1;
#X connect 22 0 13 0;
