#N canvas 390 166 386 495 10;
#X obj 33 5 inlet~;
#X obj 114 412 outlet;
#X obj 139 80 unpack f f f;
#X obj 71 166 *;
#X obj 71 201 expr abs($f2-$f1)*$f3;
#X obj 212 154 pow 2;
#X obj 71 268 +;
#X obj 102 269 f;
#X obj 193 275 +;
#X obj 225 276 f;
#X obj 56 330 * 2;
#X obj 193 329 *;
#X obj 114 385 /;
#X obj 71 142 t f f;
#X obj 56 303 f;
#X obj 178 299 f;
#X obj 98 222 t b b;
#X msg 98 243 0;
#X obj 323 30 switch~;
#X obj 324 7 inlet;
#X obj 34 28 fiddle~ \$1 1 \$2 \$2;
#X obj 249 33 loadbang;
#X obj 249 63 expr (\$1/2)/88.2;
#X obj 143 112 pipe f f f 11.6;
#X obj 86 54 unpack f f;
#X obj 98 170 sel 1;
#X connect 0 0 20 0;
#X connect 2 0 23 0;
#X connect 2 1 23 1;
#X connect 2 2 23 2;
#X connect 3 0 4 0;
#X connect 4 0 6 0;
#X connect 5 0 4 2;
#X connect 5 0 8 0;
#X connect 6 0 7 0;
#X connect 6 0 14 1;
#X connect 7 0 6 1;
#X connect 8 0 9 0;
#X connect 8 0 15 1;
#X connect 9 0 8 1;
#X connect 10 0 12 0;
#X connect 11 0 12 1;
#X connect 12 0 1 0;
#X connect 13 0 3 0;
#X connect 13 1 25 0;
#X connect 14 0 10 0;
#X connect 15 0 11 0;
#X connect 16 0 17 0;
#X connect 16 1 14 0;
#X connect 16 1 15 0;
#X connect 17 0 6 1;
#X connect 17 0 8 1;
#X connect 19 0 18 0;
#X connect 20 2 24 0;
#X connect 20 4 2 0;
#X connect 21 0 22 0;
#X connect 22 0 23 3;
#X connect 23 0 13 0;
#X connect 23 1 4 1;
#X connect 23 2 5 0;
#X connect 24 0 3 1;
#X connect 24 0 11 1;
#X connect 25 0 16 0;
