#N canvas 703 61 439 381 10;
#X obj 34 -33 inlet~;
#X obj 172 314 outlet;
#X obj 140 19 unpack f f f;
#X obj 234 69 pow 2;
#X obj 134 207 +;
#X obj 165 208 f;
#X obj 256 214 +;
#X obj 287 215 f;
#X obj 172 287 /;
#X obj 140 42 t f f;
#X obj 119 242 f;
#X obj 241 238 f;
#X obj 161 161 t b b;
#X msg 161 182 0;
#X obj 381 89 switch~;
#X obj 381 66 inlet;
#X obj 140 68 mod 2;
#X obj 154 111 pack f f;
#X obj 154 133 route 1 0;
#X obj 186 70 sel 1;
#X obj 35 -11 fiddle~ \$1 1 \$2 \$2;
#X connect 0 0 20 0;
#X connect 2 0 9 0;
#X connect 2 2 3 0;
#X connect 3 0 17 1;
#X connect 4 0 5 0;
#X connect 4 0 10 1;
#X connect 5 0 4 1;
#X connect 6 0 7 0;
#X connect 6 0 11 1;
#X connect 7 0 6 1;
#X connect 8 0 1 0;
#X connect 9 0 16 0;
#X connect 9 1 19 0;
#X connect 10 0 8 0;
#X connect 11 0 8 1;
#X connect 12 0 13 0;
#X connect 12 1 10 0;
#X connect 12 1 11 0;
#X connect 13 0 4 1;
#X connect 13 0 6 1;
#X connect 15 0 14 0;
#X connect 16 0 17 0;
#X connect 17 0 18 0;
#X connect 18 0 4 0;
#X connect 18 1 6 0;
#X connect 19 0 12 0;
#X connect 20 4 2 0;
