#N canvas 542 57 478 381 10;
#X obj 13 -32 inlet~;
#X obj 54 315 outlet;
#X obj 325 73 unpack f f f;
#X obj 69 212 pow 2;
#X obj 394 203 +;
#X obj 425 204 f;
#X obj 54 288 /;
#X obj 54 241 f;
#X obj 379 227 f;
#X obj 325 153 t b b;
#X msg 325 178 0;
#X obj 423 -1 switch~;
#X obj 423 -24 inlet;
#X obj 14 -10 fiddle~ \$1 1 \$2 \$2;
#X obj 12 97 unpack f f;
#X obj 394 105 pow 2;
#X obj 325 101 sel \$2;
#X obj 133 315 outlet;
#X obj 133 288 /;
#X obj 237 315 outlet;
#X obj 237 288 /;
#X obj 119 18 t l l;
#X obj 12 64 route 1 2 3 4;
#X obj 92 97 unpack f f;
#X obj 149 154 pow 2;
#X obj 149 214 +;
#X obj 180 215 f;
#X obj 134 238 f;
#X obj 252 216 +;
#X obj 280 218 f;
#X obj 237 240 f;
#X obj 252 163 pow 2;
#X obj 183 99 unpack f f f;
#X connect 0 0 13 0;
#X connect 2 0 16 0;
#X connect 2 2 15 0;
#X connect 3 0 7 1;
#X connect 4 0 5 0;
#X connect 4 0 8 1;
#X connect 5 0 4 1;
#X connect 6 0 1 0;
#X connect 7 0 6 0;
#X connect 8 0 6 1;
#X connect 8 0 18 1;
#X connect 8 0 20 1;
#X connect 9 0 10 0;
#X connect 9 1 7 0;
#X connect 9 1 8 0;
#X connect 9 1 27 0;
#X connect 9 1 30 0;
#X connect 10 0 4 1;
#X connect 10 0 25 1;
#X connect 10 0 28 1;
#X connect 12 0 11 0;
#X connect 13 4 21 0;
#X connect 14 1 3 0;
#X connect 15 0 4 0;
#X connect 16 0 9 0;
#X connect 18 0 17 0;
#X connect 20 0 19 0;
#X connect 21 0 22 0;
#X connect 21 1 2 0;
#X connect 22 0 14 0;
#X connect 22 1 23 0;
#X connect 22 2 23 0;
#X connect 22 3 23 0;
#X connect 22 4 32 0;
#X connect 23 1 24 0;
#X connect 24 0 25 0;
#X connect 25 0 26 0;
#X connect 25 0 27 1;
#X connect 26 0 25 1;
#X connect 27 0 18 0;
#X connect 28 0 29 0;
#X connect 28 0 30 1;
#X connect 29 0 28 1;
#X connect 30 0 20 0;
#X connect 31 0 28 0;
#X connect 32 2 31 0;
