#N canvas 485 48 660 541 10;
#X obj 253 -23 bng 15 250 50 0 empty empty insert_sound 17 7 0 10 -262144
-1 -1;
#X floatatom 354 248 0 0 0 0 T1 - -;
#X obj 320 28 nbx 5 14 -1e+037 1e+037 0 1 scale empty Scale 0 -8 0
10 -262144 -1 -1 1 256;
#N canvas 557 202 413 268 player 0;
#X obj 18 192 outlet~;
#X obj 48 -16 t b b b;
#X obj 15 156 dac~;
#X obj 48 -38 inlet;
#X obj 69 11 s rec;
#X obj 79 235 s guia;
#X obj 78 181 count~;
#X obj 79 210 snapshot~;
#X msg 124 154 stop;
#X msg 188 113 range 0 \$1;
#X obj 158 166 bang~;
#X obj 158 187 spigot;
#X obj 209 166 tgl 15 0 empty empty empty 17 7 0 10 -262144 -1 -1 0
1;
#X msg 145 131 1;
#X msg 183 136 0;
#X obj 44 112 tabplay~ \$0sound;
#X obj 104 3 arraysize \$0sound;
#X msg 104 27 \; Tristimulus-1 resize \$1 \; Tristimulus-2 resize \$1
\; Tristimulus-3 resize \$1;
#X connect 1 0 6 0;
#X connect 1 0 13 0;
#X connect 1 0 15 0;
#X connect 1 1 4 0;
#X connect 1 2 16 0;
#X connect 3 0 1 0;
#X connect 6 0 7 0;
#X connect 7 0 5 0;
#X connect 8 0 6 0;
#X connect 9 0 5 0;
#X connect 10 0 11 0;
#X connect 11 0 7 0;
#X connect 12 0 11 1;
#X connect 13 0 12 0;
#X connect 14 0 12 0;
#X connect 15 0 2 0;
#X connect 15 0 2 1;
#X connect 15 0 0 0;
#X connect 15 1 8 0;
#X connect 15 1 14 0;
#X connect 16 0 9 0;
#X connect 16 0 17 0;
#X restore 406 175 pd player;
#X obj 406 155 bng 15 250 50 0 empty empty Play 17 7 0 10 -262144 -1
-1;
#X obj 12 16 hsl 295 450 0 1 0 0 empty guia empty -2 -8 0 10 -262144
-258113 -1 0 1;
#N canvas 0 0 450 300 (subpatch) 0;
#X array Tristimulus-1 1 float 2;
#X coords 0 1 1 0 300 100 1;
#X restore 8 131 graph;
#X floatatom 340 370 0 0 0 1 Sample - -;
#X floatatom 541 369 0 0 0 1 Time(ms) - -;
#X floatatom 440 369 0 0 0 1 Block - -;
#X floatatom 340 415 0 0 0 3 Tristimulus-1 - -;
#N canvas 0 0 450 300 (subpatch) 0;
#X array \$0sound 1 float 2;
#X coords 0 1 1 -1 300 100 1;
#X restore 9 16 graph;
#N canvas 0 0 330 129 rec 0;
#X obj 36 21 inlet;
#X obj 39 78 outlet;
#X obj 85 41 sig~;
#X obj 96 64 r rec;
#X obj 85 86 tabwrite~ Tristimulus-1;
#X connect 0 0 2 0;
#X connect 0 0 1 0;
#X connect 2 0 4 0;
#X connect 3 0 4 0;
#X restore 354 224 pd rec;
#N canvas 136 89 215 167 sample 0;
#X obj 50 143 soundfiler;
#X obj 50 13 inlet;
#X obj 50 34 openpanel;
#X obj 50 100 pack s f;
#X obj 50 54 t a b;
#X obj 95 79 \$0;
#X msg 50 120 read -resize \$1 \$2sound;
#X connect 1 0 2 0;
#X connect 2 0 4 0;
#X connect 3 0 6 0;
#X connect 4 0 3 0;
#X connect 4 1 5 0;
#X connect 5 0 3 1;
#X connect 6 0 0 0;
#X restore 253 -5 pd sample;
#X text 389 467 by Adriano Monteiro - monteiro.adc@gmail.com;
#X text 353 296 1) FFT Size;
#X text 329 278 Arguments are:;
#X obj 524 176 tgl 15 0 empty empty On/Off 17 7 0 10 -262144 -1 -1
0 1;
#X text 7 -18 based on (Peeters 2004);
#X text 423 297 (Hop-size = FFT size/2);
#X text 353 312 2) Number of peaks to find;
#X obj 407 197 tristimulus~ 2048 20;
#X floatatom 455 248 0 0 0 0 T2 - -;
#N canvas 0 0 330 129 rec 0;
#X obj 36 21 inlet;
#X obj 39 78 outlet;
#X obj 85 41 sig~;
#X obj 96 64 r rec;
#X obj 85 86 tabwrite~ Tristimulus-2;
#X connect 0 0 2 0;
#X connect 0 0 1 0;
#X connect 2 0 4 0;
#X connect 3 0 4 0;
#X restore 455 228 pd rec;
#X floatatom 559 252 0 0 0 0 T3 - -;
#N canvas 0 0 330 129 rec 0;
#X obj 36 21 inlet;
#X obj 39 78 outlet;
#X obj 85 41 sig~;
#X obj 96 64 r rec;
#X obj 85 86 tabwrite~ Tristimulus-3;
#X connect 0 0 2 0;
#X connect 0 0 1 0;
#X connect 2 0 4 0;
#X connect 3 0 4 0;
#X restore 559 232 pd rec;
#N canvas 468 353 645 283 graph 0;
#X obj 16 31 t b f;
#X obj 16 90 pack f 5000;
#X msg 16 120 bounds 0 \$2 \$1 0;
#X obj 16 10 r scale;
#X obj 464 8 * 44.1;
#X obj 345 2 * 512;
#X text 375 55 FFTSize/interp.;
#X obj 357 35 s guia;
#X obj 178 -16 inlet;
#X obj 347 -24 inlet;
#X obj 464 -15 inlet;
#X obj 226 144 outlet;
#X obj 16 60 arraysize Tristimulus-1;
#X obj 16 149 s Tristimulus-1;
#X obj 221 92 tabread Tristimulus-1;
#X obj 16 171 s Tristimulus-2;
#X obj 15 193 s Tristimulus-3;
#X obj 306 150 outlet;
#X obj 381 151 outlet;
#X obj 304 111 tabread Tristimulus-2;
#X obj 381 127 tabread Tristimulus-3;
#X connect 0 0 12 0;
#X connect 0 1 1 1;
#X connect 1 0 2 0;
#X connect 2 0 13 0;
#X connect 2 0 15 0;
#X connect 2 0 16 0;
#X connect 3 0 0 0;
#X connect 4 0 7 0;
#X connect 4 0 14 0;
#X connect 4 0 19 0;
#X connect 4 0 20 0;
#X connect 5 0 7 0;
#X connect 5 0 19 0;
#X connect 5 0 14 0;
#X connect 5 0 20 0;
#X connect 8 0 7 0;
#X connect 8 0 14 0;
#X connect 8 0 20 0;
#X connect 8 0 19 0;
#X connect 9 0 5 0;
#X connect 10 0 4 0;
#X connect 12 0 1 0;
#X connect 14 0 11 0;
#X connect 19 0 17 0;
#X connect 20 0 18 0;
#X restore 340 390 pd graph -------------------------;
#N canvas 0 0 450 300 (subpatch) 0;
#X array Tristimulus-2 1 float 2;
#X coords 0 1 1 0 300 100 1;
#X restore 8 249 graph;
#N canvas 0 0 450 300 (subpatch) 0;
#X array Tristimulus-3 1 float 2;
#X coords 0 1 1 0 300 100 1;
#X restore 8 366 graph;
#X floatatom 440 416 0 0 0 3 Tristimulus-2 - -;
#X floatatom 541 415 0 0 0 3 Tristimulus-3 - -;
#X text 5 -56 Tristimulus - consists of three features that measure
the relative weigths of differents harmonics.;
#X text 355 52 Tristimulus 1 measures the relative weight;
#X text 355 62 of the first harmonic;
#X text 354 80 Tristimulus 2 measures the relative weight;
#X text 355 92 of the second \, third and fourth harmonics;
#X text 354 112 Tristimulus 3 measures the relative weight;
#X text 356 126 of harmonics equal or greater than the fifth one;
#X connect 0 0 13 0;
#X connect 3 0 21 0;
#X connect 4 0 3 0;
#X connect 7 0 26 0;
#X connect 8 0 26 2;
#X connect 9 0 26 1;
#X connect 12 0 1 0;
#X connect 17 0 21 1;
#X connect 21 0 12 0;
#X connect 21 1 23 0;
#X connect 21 2 25 0;
#X connect 23 0 22 0;
#X connect 25 0 24 0;
#X connect 26 0 10 0;
#X connect 26 1 29 0;
#X connect 26 2 30 0;
