#N canvas 501 58 468 565 10;
#X declare -lib iem_tab;
#X obj 398 -34 dsp~;
#X floatatom 398 -12 5 0 0 1 %_CPU - -;
#X obj 370 11 bng 15 250 50 0 empty empty insert_sound 17 7 0 10 -262144
-1 -1;
#X floatatom 21 490 9 0 0 0 - - -;
#X obj 374 179 nbx 5 14 -1e+037 1e+037 0 1 scale empty Scale(Hz) 0
-8 0 10 -262144 -1 -1 4000 256;
#X obj 120 405 tgl 15 0 empty empty on/off 17 7 0 10 -262144 -1 -1
0 1;
#N canvas 557 202 257 268 player 0;
#X obj 7 162 outlet~;
#X obj 25 -13 t b b b;
#X obj 4 126 dac~;
#X obj 25 -38 inlet;
#X obj 46 14 s rec;
#X obj 61 190 s guia;
#X obj 60 136 count~;
#X obj 61 165 snapshot~;
#X msg 106 109 stop;
#X msg 170 68 range 0 \$1;
#X obj 140 121 bang~;
#X obj 140 142 spigot;
#X obj 191 121 tgl 15 0 empty empty empty 17 7 0 10 -262144 -1 -1 0
1;
#X msg 127 86 1;
#X msg 165 91 0;
#X obj 26 67 tabplay~ \$0sound;
#X obj 81 6 arraysize \$0sound;
#X msg 81 29 \; Centroid resize \$1;
#X connect 1 0 6 0;
#X connect 1 0 13 0;
#X connect 1 0 15 0;
#X connect 1 1 4 0;
#X connect 1 2 16 0;
#X connect 3 0 1 0;
#X connect 6 0 7 0;
#X connect 7 0 5 0;
#X connect 8 0 6 0;
#X connect 9 0 5 0;
#X connect 10 0 11 0;
#X connect 11 0 7 0;
#X connect 12 0 11 1;
#X connect 13 0 12 0;
#X connect 14 0 12 0;
#X connect 15 0 2 0;
#X connect 15 0 2 1;
#X connect 15 0 0 0;
#X connect 15 1 8 0;
#X connect 15 1 14 0;
#X connect 16 0 17 0;
#X connect 16 0 9 0;
#X restore 21 421 pd player;
#X obj 21 402 bng 15 250 50 0 empty empty Play 17 7 0 10 -262144 -1
-1;
#X obj 19 8 hsl 345 300 0 203610 0 0 empty guia empty -2 -8 0 10 -262144
-258113 -1 0 1;
#N canvas 0 0 450 300 (subpatch) 0;
#X array Centroid 2 float 3;
#A 0 0 0;
#X coords 0 4000 2 0 350 140 1;
#X restore 16 167 graph;
#X floatatom 23 326 8 0 0 1 Sample - -;
#X floatatom 338 327 8 0 0 1 Time(ms) - -;
#X floatatom 180 327 8 0 0 1 Block - -;
#X floatatom 23 371 8 0 0 1 Hz - -;
#N canvas 519 471 645 210 graph 0;
#X obj 16 31 t b f;
#X obj 16 90 pack f 5000;
#X msg 16 120 bounds 0 \$2 \$1 0;
#X obj 16 10 r scale;
#X obj 471 54 * 44.1;
#X obj 333 53 * 512;
#X text 369 53 FFTSize/interp.;
#X obj 387 140 s guia;
#X obj 203 36 inlet;
#X obj 335 27 inlet;
#X obj 473 27 inlet;
#X obj 289 128 outlet;
#X obj 15 150 s Centroid;
#X obj 203 73 tabread Centroid;
#X obj 334 74 tabread Centroid;
#X obj 471 76 tabread Centroid;
#X obj 16 61 arraysize Centroid;
#X connect 0 0 16 0;
#X connect 0 1 1 1;
#X connect 1 0 2 0;
#X connect 2 0 12 0;
#X connect 3 0 0 0;
#X connect 4 0 7 0;
#X connect 4 0 15 0;
#X connect 5 0 7 0;
#X connect 5 0 14 0;
#X connect 8 0 7 0;
#X connect 8 0 13 0;
#X connect 9 0 5 0;
#X connect 10 0 4 0;
#X connect 13 0 11 0;
#X connect 14 0 11 0;
#X connect 15 0 11 0;
#X connect 16 0 1 0;
#X restore 23 346 pd graph --------------------------------------------
;
#N canvas 0 0 450 300 (subpatch) 0;
#X array \$0sound 2 float 2;
#X coords 0 1 2 -1 350 140 1;
#X restore 16 8 graph;
#N canvas 0 0 264 132 rec 0;
#X obj 36 21 inlet;
#X obj 39 78 outlet;
#X obj 85 41 sig~;
#X obj 96 64 r rec;
#X obj 86 86 tabwrite~ Centroid;
#X connect 0 0 2 0;
#X connect 0 0 1 0;
#X connect 2 0 4 0;
#X connect 3 0 4 0;
#X restore 21 470 pd rec;
#N canvas 136 89 215 205 sample 0;
#X obj 50 143 soundfiler;
#X obj 50 13 inlet;
#X obj 50 34 openpanel;
#X obj 50 100 pack s f;
#X obj 50 54 t a b;
#X obj 95 79 \$0;
#X msg 50 120 read -resize \$1 \$2sound;
#X connect 1 0 2 0;
#X connect 2 0 4 0;
#X connect 3 0 6 0;
#X connect 4 0 3 0;
#X connect 4 1 5 0;
#X connect 5 0 3 1;
#X connect 6 0 0 0;
#X restore 370 29 pd sample;
#X obj 21 448 centroid2~ 2048 4;
#X msg 130 426 set 1024 2;
#X text 201 425 Arguments and message set are;
#X text 201 439 the window size and overlapping;
#X text 202 454 as in switch~ and block~ objects;
#X text 191 495 by Adriano Monteiro - monteiro.adc@gmail.com;
#X text 13 -50 Spectral Frequency Centroid - Norm L2;
#X text 13 -35 based on (Pereira \, 2009) - Master's dissertation;
#X connect 0 0 1 0;
#X connect 2 0 17 0;
#X connect 5 0 18 1;
#X connect 6 0 18 0;
#X connect 7 0 6 0;
#X connect 10 0 14 0;
#X connect 11 0 14 2;
#X connect 12 0 14 1;
#X connect 14 0 13 0;
#X connect 16 0 3 0;
#X connect 18 0 16 0;
#X connect 19 0 18 1;
