#N canvas 756 62 500 597 10;
#X msg 269 94 resize \$1;
#X obj 24 -27 *~;
#X obj 49 -30 *~;
#X obj 30 -5 +~;
#X obj 31 19 sqrt~;
#X obj 24 -63 rfft~;
#X obj 25 -115 inlet~;
#X obj 25 -90 *~;
#X obj 70 -114 tabreceive~ \$0-hann;
#X obj 30 69 tabsend~ one\$0;
#X obj 325 118 table one\$0;
#X obj 269 116 s one\$0;
#N canvas 587 252 486 185 Hann-window 0;
#N canvas 0 0 450 300 (subpatch) 0;
#X array \$0-hann 1 float 0;
#X coords 0 1 1 0 200 120 1;
#X restore 262 37 graph;
#X msg 132 52 resize \$1;
#X obj 132 76 s \$0-hann;
#X obj 30 113 expr ((cos($f1*6.283185))* -0.5)+0.5;
#X obj 30 138 tabwrite \$0-hann;
#X obj 30 91 / 2048;
#X obj 32 -27 inlet;
#X obj 30 37 until;
#X obj 60 63 + 1;
#X obj 30 62 f 0;
#X obj 32 -6 t f b f;
#X obj 51 17 0;
#X connect 1 0 2 0;
#X connect 3 0 4 0;
#X connect 5 0 3 0;
#X connect 6 0 10 0;
#X connect 7 0 9 0;
#X connect 8 0 9 1;
#X connect 9 0 8 0;
#X connect 9 0 4 1;
#X connect 9 0 5 0;
#X connect 10 0 7 0;
#X connect 10 1 11 0;
#X connect 10 2 1 0;
#X connect 10 2 5 1;
#X connect 11 0 9 1;
#X restore 371 20 pd Hann-window;
#X obj 44 453 outlet;
#X obj 43 101 bang~;
#X obj 44 137 t b b;
#X obj 71 182 s one\$0;
#X msg 71 162 0 0;
#N canvas 249 115 167 320 normalize 0;
#X obj 52 -148 list split 1;
#X obj 86 -124 list;
#X obj 52 -85 max;
#X obj 52 -107 abs;
#X obj 80 -85 f;
#X msg 68 -169 0;
#X obj 35 -15 /;
#X obj 70 -35 list;
#X obj 33 48 t l b;
#X obj 35 -59 list split 1;
#X obj 35 7 list append;
#X obj 34 -192 t l l b;
#X obj 34 -215 inlet;
#X obj 33 70 outlet;
#X obj 33 28 list split 12;
#X connect 0 0 3 0;
#X connect 0 1 1 0;
#X connect 1 0 0 0;
#X connect 2 0 4 0;
#X connect 2 0 6 1;
#X connect 3 0 2 0;
#X connect 4 0 2 1;
#X connect 5 0 2 1;
#X connect 6 0 10 0;
#X connect 7 0 9 0;
#X connect 8 0 13 0;
#X connect 8 1 10 1;
#X connect 9 0 6 0;
#X connect 9 1 7 0;
#X connect 10 0 14 0;
#X connect 11 0 9 0;
#X connect 11 1 0 0;
#X connect 11 2 5 0;
#X connect 12 0 11 0;
#X connect 14 0 8 0;
#X connect 14 2 10 1;
#X restore 101 417 pd normalize;
#N canvas 551 73 677 587 chromawindow 0;
#N canvas 0 0 450 300 (subpatch) 0;
#X array \$0chroma 1 float 3;
#A 0 0;
#X coords 0 12 1 0 200 140 1;
#X restore 233 17 graph;
#X obj 23 10 inlet;
#X obj 25 203 expr ($f1)*(($f2)/float($f3));
#X obj 26 244 ftom;
#X floatatom 26 225 5 0 0 0 - - -;
#X floatatom 26 267 5 0 0 0 - - -;
#X floatatom 24 178 5 0 0 0 - - -;
#X obj 144 82 s \$0chroma;
#X msg 144 59 resize \$1;
#X obj 62 401 tabwrite \$0chroma;
#X floatatom 347 454 5 0 0 0 - - -;
#X obj 37 431 -;
#X obj 37 452 abs;
#X obj 26 361 t f f;
#X obj 347 427 expr 0.5*pow(2 \, 2/12.0);
#X obj 37 477 expr if($f1<=$f2 \, pow(cos(($f1/$f2)*1.57079) \, 2)
\, 0);
#X obj 26 315 t f f;
#X obj 347 401 loadbang;
#N canvas 0 0 450 300 (subpatch) 0;
#X array \$0mask 1 float 3;
#A 0 1;
#X coords 0 1 1 0 200 140 1;
#X restore 232 180 graph;
#X obj 24 149 t f f f;
#X obj 37 502 tabwrite \$0mask;
#X obj 144 101 s \$0mask;
#X msg 109 166 44100;
#X obj 24 99 until;
#X obj 54 125 + 1;
#X obj 24 124 f 0;
#X msg 43 74 0;
#X obj 23 33 t f b b f f;
#X msg 120 25 8192;
#N canvas 0 0 230 281 fmod 0;
#X obj 62 46 inlet;
#X obj 62 265 outlet;
#X obj 92 132 int;
#X obj 62 106 t f f;
#X obj 62 158 -;
#X obj 62 185 moses 0;
#X obj 62 213 + 1;
#X obj 62 74 / 12;
#X obj 61 240 * 12;
#X connect 0 0 7 0;
#X connect 2 0 4 1;
#X connect 3 0 4 0;
#X connect 3 1 2 0;
#X connect 4 0 5 0;
#X connect 5 0 6 0;
#X connect 5 1 8 0;
#X connect 6 0 8 0;
#X connect 7 0 3 0;
#X connect 8 0 1 0;
#X restore 27 291 pd fmod 12;
#N canvas 138 107 450 300 quantize 0;
#X obj 170 172 / 2;
#X obj 139 202 >;
#X obj 57 219 +;
#X obj 57 246 *;
#X obj 207 202 t a;
#X obj 57 119 t a a;
#X obj 57 172 /;
#X obj 57 195 int;
#X obj 136 120 t a a a a;
#X obj 57 49 inlet;
#X obj 57 272 outlet;
#X obj 137 64 loadbang;
#X msg 137 87 1;
#X text 203 159 if remainder is > 1/2 \,;
#X text 204 173 quantize to next snappoint;
#X text 192 167 <;
#N canvas 0 0 230 281 fmod 0;
#X obj 62 46 inlet;
#X obj 62 265 outlet;
#X obj 120 46 inlet;
#X obj 62 74 / \$1;
#X obj 62 240 * \$1;
#X obj 92 132 int;
#X obj 62 106 t f f;
#X obj 62 158 -;
#X obj 62 185 moses 0;
#X obj 62 213 + 1;
#X connect 0 0 3 0;
#X connect 2 0 3 1;
#X connect 2 0 4 1;
#X connect 3 0 6 0;
#X connect 4 0 1 0;
#X connect 5 0 7 1;
#X connect 6 0 7 0;
#X connect 6 1 5 0;
#X connect 7 0 8 0;
#X connect 8 0 9 0;
#X connect 8 1 4 0;
#X connect 9 0 4 0;
#X restore 113 172 pd fmod;
#X connect 0 0 1 1;
#X connect 1 0 2 1;
#X connect 2 0 3 0;
#X connect 3 0 10 0;
#X connect 4 0 3 1;
#X connect 5 0 6 0;
#X connect 5 1 16 0;
#X connect 6 0 7 0;
#X connect 7 0 2 0;
#X connect 8 0 6 1;
#X connect 8 1 16 1;
#X connect 8 2 0 0;
#X connect 8 3 4 0;
#X connect 9 0 5 0;
#X connect 11 0 12 0;
#X connect 12 0 8 0;
#X connect 16 0 1 0;
#X restore 26 336 pd quantize 1;
#X connect 1 0 27 0;
#X connect 2 0 4 0;
#X connect 3 0 5 0;
#X connect 4 0 3 0;
#X connect 5 0 29 0;
#X connect 6 0 2 0;
#X connect 8 0 7 0;
#X connect 8 0 21 0;
#X connect 10 0 15 1;
#X connect 11 0 12 0;
#X connect 12 0 15 0;
#X connect 13 0 11 0;
#X connect 13 1 9 0;
#X connect 14 0 10 0;
#X connect 15 0 20 0;
#X connect 16 0 30 0;
#X connect 16 1 11 1;
#X connect 17 0 14 0;
#X connect 19 0 6 0;
#X connect 19 1 20 1;
#X connect 19 2 9 1;
#X connect 22 0 2 1;
#X connect 23 0 25 0;
#X connect 24 0 25 1;
#X connect 25 0 24 0;
#X connect 25 0 19 0;
#X connect 26 0 25 1;
#X connect 27 0 23 0;
#X connect 27 1 26 0;
#X connect 27 2 22 0;
#X connect 27 3 2 2;
#X connect 27 4 8 0;
#X connect 28 0 27 0;
#X connect 29 0 16 0;
#X connect 30 0 13 0;
#X restore 373 38 pd chromawindow;
#X obj 71 264 tabread one\$0;
#X obj 44 242 t f f;
#X obj 44 289 tabread \$0chroma;
#X obj 91 355 == 0;
#X obj 44 310 pack f f;
#X obj 124 99 inlet;
#X obj 172 99 inlet;
#X obj 299 63 switch~;
#X msg 299 39 set \$1 \$2;
#X obj 268 -80 loadbang;
#X obj 268 -26 \$1;
#X obj 296 -27 \$2;
#X obj 298 17 pack;
#X obj 268 -55 t b b;
#X obj 271 41 / 2;
#X obj 335 -81 route set normalize;
#X obj 325 -55 unpack;
#X obj 337 -106 inlet;
#X obj 44 388 spigot 1;
#X obj 102 391 spigot 0;
#N canvas 311 17 719 356 acum 0;
#X obj 200 43 route 0 1 2 3 4 5 6 7 8 9 10 11;
#X obj -33 212 +;
#X obj -8 211 f;
#X obj 22 212 +;
#X obj 47 211 f;
#X obj 82 212 +;
#X obj 110 212 f;
#X obj 142 210 +;
#X obj 171 209 f;
#X obj 200 12 inlet;
#X obj 452 -6 inlet;
#X msg 452 49 0;
#X obj 204 211 +;
#X obj 231 211 f;
#X obj 257 209 +;
#X obj 284 209 f;
#X obj 315 205 +;
#X obj 342 205 f;
#X obj 377 202 +;
#X obj 404 202 f;
#X obj 435 204 +;
#X obj 462 204 f;
#X obj 496 204 +;
#X obj 523 204 f;
#X obj 560 202 +;
#X obj 587 202 f;
#X obj 621 201 +;
#X obj 648 201 f;
#X obj 170 337 outlet;
#X obj 136 285 pack 0 f f f f f f f f f f f f;
#X obj 452 20 t b b;
#X obj 136 314 list split 1;
#X floatatom -17 287 5 0 0 0 - - -;
#X connect 0 0 1 0;
#X connect 0 1 3 0;
#X connect 0 2 5 0;
#X connect 0 3 7 0;
#X connect 0 4 12 0;
#X connect 0 5 14 0;
#X connect 0 6 16 0;
#X connect 0 7 18 0;
#X connect 0 8 20 0;
#X connect 0 9 22 0;
#X connect 0 10 24 0;
#X connect 0 11 26 0;
#X connect 1 0 2 0;
#X connect 1 0 29 1;
#X connect 1 0 32 0;
#X connect 2 0 1 1;
#X connect 3 0 4 0;
#X connect 3 0 29 2;
#X connect 4 0 3 1;
#X connect 5 0 6 0;
#X connect 5 0 29 3;
#X connect 6 0 5 1;
#X connect 7 0 8 0;
#X connect 7 0 29 4;
#X connect 8 0 7 1;
#X connect 9 0 0 0;
#X connect 10 0 30 0;
#X connect 11 0 1 1;
#X connect 11 0 3 1;
#X connect 11 0 5 1;
#X connect 11 0 7 1;
#X connect 11 0 12 1;
#X connect 11 0 14 1;
#X connect 11 0 16 1;
#X connect 11 0 18 1;
#X connect 11 0 20 1;
#X connect 11 0 22 1;
#X connect 11 0 24 1;
#X connect 11 0 26 1;
#X connect 12 0 13 0;
#X connect 12 0 29 5;
#X connect 13 0 12 1;
#X connect 14 0 15 0;
#X connect 14 0 29 6;
#X connect 15 0 14 1;
#X connect 16 0 17 0;
#X connect 16 0 29 7;
#X connect 17 0 16 1;
#X connect 18 0 19 0;
#X connect 18 0 29 8;
#X connect 19 0 18 1;
#X connect 20 0 21 0;
#X connect 20 0 29 9;
#X connect 21 0 20 1;
#X connect 22 0 23 0;
#X connect 22 0 29 10;
#X connect 23 0 22 1;
#X connect 24 0 25 0;
#X connect 24 0 29 11;
#X connect 25 0 24 1;
#X connect 26 0 27 0;
#X connect 26 0 29 12;
#X connect 27 0 26 1;
#X connect 29 0 31 0;
#X connect 30 0 11 0;
#X connect 30 1 29 0;
#X connect 31 1 28 0;
#X restore 46 333 pd acum;
#X obj 31 45 *~;
#X obj 74 20 tabreceive~ \$0mask;
#X text 214 449 Adriano Monteiro - monteiro.adc@gmail.com;
#X obj 45 218 for++ 0 2048;
#X connect 0 0 11 0;
#X connect 1 0 3 0;
#X connect 2 0 3 1;
#X connect 3 0 4 0;
#X connect 4 0 41 0;
#X connect 5 0 1 0;
#X connect 5 0 1 1;
#X connect 5 1 2 0;
#X connect 5 1 2 1;
#X connect 6 0 7 0;
#X connect 7 0 5 0;
#X connect 8 0 7 1;
#X connect 14 0 15 0;
#X connect 15 0 44 0;
#X connect 15 1 17 0;
#X connect 17 0 16 0;
#X connect 18 0 13 0;
#X connect 20 0 24 1;
#X connect 21 0 22 0;
#X connect 21 1 20 0;
#X connect 22 0 24 0;
#X connect 23 0 38 1;
#X connect 24 0 40 0;
#X connect 25 0 44 0;
#X connect 26 0 44 1;
#X connect 28 0 27 0;
#X connect 29 0 33 0;
#X connect 30 0 32 0;
#X connect 30 0 34 0;
#X connect 30 0 12 0;
#X connect 30 0 19 0;
#X connect 31 0 32 1;
#X connect 32 0 28 0;
#X connect 33 0 30 0;
#X connect 33 1 31 0;
#X connect 34 0 0 0;
#X connect 35 0 36 0;
#X connect 35 1 23 0;
#X connect 35 1 39 1;
#X connect 35 2 27 0;
#X connect 36 0 30 0;
#X connect 36 1 31 0;
#X connect 37 0 35 0;
#X connect 38 0 13 0;
#X connect 39 0 18 0;
#X connect 40 0 38 0;
#X connect 40 0 39 0;
#X connect 41 0 9 0;
#X connect 42 0 41 1;
#X connect 44 0 21 0;
#X connect 44 1 40 1;
