#N canvas 68 0 622 721 10;
#X obj 188 586 tgl 15 0 empty empty on/off 17 7 0 10 -262144 -1 -1
0 1;
#X msg 187 682 normalize \$1;
#X obj 187 661 tgl 15 0 empty empty empty 17 7 0 10 -262144 -1 -1 0
1;
#X floatatom 52 575 5 0 0 0 - - -;
#X floatatom 91 575 5 0 0 0 - - -;
#N canvas 0 0 368 194 player 0;
#X obj 57 67 dac~;
#X obj 35 93 outlet~;
#X obj 218 5 openpanel;
#X obj 218 50 soundfiler;
#X msg 218 28 read -resize \$1 sound;
#X obj 217 70 table sound;
#X obj 52 6 s next;
#X obj 35 29 tabplay~ sound;
#X obj 35 -20 inlet;
#X obj 217 -30 inlet;
#X connect 2 0 4 0;
#X connect 4 0 3 0;
#X connect 7 0 0 0;
#X connect 7 0 0 1;
#X connect 7 0 1 0;
#X connect 8 0 7 0;
#X connect 8 0 6 0;
#X connect 9 0 2 0;
#X restore 21 478 pd player;
#X obj 72 459 bng 15 250 50 0 empty empty open-file 17 7 0 10 -262144
-1 -1;
#X obj 21 445 bng 15 250 50 0 empty empty Play 17 7 0 10 -262144 -1
-1;
#X obj 35 652 s chroma;
#X text 263 632 as in switch~ and block~ objects;
#X text 263 621 window size and overlappling \,;
#X text 263 610 arguments and the message 'set \$1 \$2' are;
#N canvas 64 58 317 170 bins 0;
#X obj 138 42 t b f;
#X obj 48 27 inlet;
#X obj 142 0 inlet;
#X obj 49 130 outlet;
#X obj 173 129 outlet;
#X obj 249 87 inlet;
#X obj 48 86 expr int($f1/(44100/$f3)) \; int($f2/(44100/$f3));
#X obj 206 39 loadbang;
#X msg 212 64 8192;
#X connect 0 0 6 0;
#X connect 0 1 6 1;
#X connect 1 0 6 0;
#X connect 2 0 0 0;
#X connect 5 0 6 2;
#X connect 6 0 3 0;
#X connect 6 1 4 0;
#X connect 7 0 8 0;
#X connect 8 0 6 2;
#X restore 52 546 pd bins;
#X floatatom 52 500 6 0 0 1 min_freq - -;
#X floatatom 71 519 6 0 0 1 max_freq - -;
#X text 176 479 Maximum frequency: samplerate/2;
#X msg 125 553 2048;
#X msg 188 616 set 2048 2;
#X text 167 550 just if you change the window size bellow;
#X text 269 681 normalize the chroma vector between 0 and 1;
#X text 261 644 ** Usually bigger windows are better for chroma extraction.
;
#X text 343 703 by Adriano Monteiro - monteiro.adc@gmail.com;
#X text 176 497 ** For chord detection \, it's usual to set the lower
cutoff frequency aroud 100Hz a the higher cutoff frequency more or
less between 2000Hz and 5000Hz to avoid transients and because the
main partials are probably in this region.;
#N canvas 0 0 450 300 (subpatch) 0;
#X array chroma 24 float 3;
#A 0 0 0 0 0 0 0 0 0 0 0 0 0 0 0 0 0 0 0 0 0 0 0 0 0;
#X coords 0 1 24 0 392 140 1;
#X restore 107 89 graph;
#X obj 106 89 cnv 15 16 140 empty empty empty 20 12 0 14 -233017 -66577
0;
#X obj 122 89 cnv 15 16 140 empty empty empty 20 12 0 14 -162280 -66577
0;
#X obj 139 89 cnv 15 16 140 empty empty empty 20 12 0 14 -233017 -66577
0;
#X obj 155 89 cnv 15 16 140 empty empty empty 20 12 0 14 -162280 -66577
0;
#X obj 171 89 cnv 15 16 140 empty empty empty 20 12 0 14 -233017 -66577
0;
#X obj 187 89 cnv 15 16 140 empty empty empty 20 12 0 14 -162280 -66577
0;
#X obj 204 89 cnv 15 16 140 empty empty empty 20 12 0 14 -233017 -66577
0;
#X obj 220 89 cnv 15 16 140 empty empty empty 20 12 0 14 -162280 -66577
0;
#X obj 237 89 cnv 15 16 140 empty empty empty 20 12 0 14 -233017 -66577
0;
#X obj 253 89 cnv 15 16 140 empty empty empty 20 12 0 14 -162280 -66577
0;
#X obj 270 89 cnv 15 16 140 empty empty empty 20 12 0 14 -233017 -66577
0;
#X obj 286 89 cnv 15 16 140 empty empty empty 20 12 0 14 -162280 -66577
0;
#X obj 303 89 cnv 15 16 140 empty empty empty 20 12 0 14 -233017 -66577
0;
#X obj 319 89 cnv 15 16 140 empty empty empty 20 12 0 14 -162280 -66577
0;
#X obj 336 89 cnv 15 16 140 empty empty empty 20 12 0 14 -233017 -66577
0;
#X obj 352 89 cnv 15 16 140 empty empty empty 20 12 0 14 -162280 -66577
0;
#X obj 368 89 cnv 15 16 140 empty empty empty 20 12 0 14 -233017 -66577
0;
#X obj 384 89 cnv 15 16 140 empty empty empty 20 12 0 14 -162280 -66577
0;
#X obj 401 89 cnv 15 16 140 empty empty empty 20 12 0 14 -233017 -66577
0;
#X obj 417 89 cnv 15 16 140 empty empty empty 20 12 0 14 -162280 -66577
0;
#X obj 434 89 cnv 15 16 140 empty empty empty 20 12 0 14 -233017 -66577
0;
#X obj 450 89 cnv 15 16 140 empty empty empty 20 12 0 14 -162280 -66577
0;
#X obj 467 89 cnv 15 16 140 empty empty empty 20 12 0 14 -233017 -66577
0;
#X obj 483 89 cnv 15 16 140 empty empty empty 20 12 0 14 -162280 -66577
0;
#X text 110 227 C_C-_C#_C+_D_D-_D#_D+_E_E-_F_F-_F#_F+_G_G-_G#_G+_A_A-_A#_A+_
;
#X text 470 228 B_B-;
#N canvas 0 0 450 300 (subpatch) 0;
#X array chromagram 24 float 3;
#A 0 0.128408 0.106022 0.360725 0.13649 0.13178 0.723967 0.18852 1
0.256585 0.278899 0.935283 0.243777 0 0 0 0 0 0 0 0 0 0 0 0;
#X coords 0 1 24 0 392 140 1;
#X restore 107 258 graph;
#X obj 106 258 cnv 15 16 140 empty empty empty 20 12 0 14 -233017 -66577
0;
#X obj 122 258 cnv 15 16 140 empty empty empty 20 12 0 14 -162280 -66577
0;
#X obj 139 258 cnv 15 16 140 empty empty empty 20 12 0 14 -233017 -66577
0;
#X obj 155 258 cnv 15 16 140 empty empty empty 20 12 0 14 -162280 -66577
0;
#X obj 171 258 cnv 15 16 140 empty empty empty 20 12 0 14 -233017 -66577
0;
#X obj 187 258 cnv 15 16 140 empty empty empty 20 12 0 14 -162280 -66577
0;
#X obj 204 258 cnv 15 16 140 empty empty empty 20 12 0 14 -233017 -66577
0;
#X obj 220 258 cnv 15 16 140 empty empty empty 20 12 0 14 -162280 -66577
0;
#X obj 237 258 cnv 15 16 140 empty empty empty 20 12 0 14 -233017 -66577
0;
#X obj 253 258 cnv 15 16 140 empty empty empty 20 12 0 14 -162280 -66577
0;
#X obj 270 258 cnv 15 16 140 empty empty empty 20 12 0 14 -233017 -66577
0;
#X obj 286 258 cnv 15 16 140 empty empty empty 20 12 0 14 -162280 -66577
0;
#X obj 303 258 cnv 15 16 140 empty empty empty 20 12 0 14 -233017 -66577
0;
#X obj 319 258 cnv 15 16 140 empty empty empty 20 12 0 14 -162280 -66577
0;
#X obj 336 258 cnv 15 16 140 empty empty empty 20 12 0 14 -233017 -66577
0;
#X obj 352 258 cnv 15 16 140 empty empty empty 20 12 0 14 -162280 -66577
0;
#X obj 368 258 cnv 15 16 140 empty empty empty 20 12 0 14 -233017 -66577
0;
#X obj 384 258 cnv 15 16 140 empty empty empty 20 12 0 14 -162280 -66577
0;
#X obj 401 258 cnv 15 16 140 empty empty empty 20 12 0 14 -233017 -66577
0;
#X obj 417 258 cnv 15 16 140 empty empty empty 20 12 0 14 -162280 -66577
0;
#X obj 434 258 cnv 15 16 140 empty empty empty 20 12 0 14 -233017 -66577
0;
#X obj 450 258 cnv 15 16 140 empty empty empty 20 12 0 14 -162280 -66577
0;
#X obj 467 258 cnv 15 16 140 empty empty empty 20 12 0 14 -233017 -66577
0;
#X obj 483 258 cnv 15 16 140 empty empty empty 20 12 0 14 -162280 -66577
0;
#X text 110 396 C_C-_C#_C+_D_D-_D#_D+_E_E-_F_F-_F#_F+_G_G-_G#_G+_A_A-_A#_A+_
;
#X text 470 397 B_B-;
#X text 2 35 Spec-chorma24 outputs a vector of twenty-four quarter-tones
calculated in the frequency domain.;
#X text 3 -6 CHROMA or PCP (Pitch Class Profile) is the measure over
time of the spectral energy divided in spectral bands related to pitches
.;
#X text 107 410 Chromagram is a histogram of successive Chroma vectors
in a period of time;
#X obj 35 633 list prepend 0;
#N canvas 547 194 388 408 chromagram 0;
#X obj 112 45 r next;
#X obj 34 29 inlet;
#N canvas 0 0 450 300 list 0;
#N canvas 0 0 199 262 drip 0;
#X obj 53 174 list split 1;
#X obj 53 91 until;
#X obj 53 129 list append;
#X obj 79 58 t b l;
#X obj 135 176 bang;
#X obj 79 31 inlet;
#X obj 53 199 outlet;
#X connect 0 0 6 0;
#X connect 0 1 2 1;
#X connect 0 2 4 0;
#X connect 1 0 2 0;
#X connect 2 0 0 0;
#X connect 3 0 1 0;
#X connect 3 1 2 1;
#X connect 4 0 1 1;
#X connect 5 0 3 0;
#X restore 152 84 pd drip;
#X obj 153 219 list prepend;
#X obj 251 219 t a;
#N canvas 0 0 450 300 dripslow 0;
#X obj 158 196 list split 1;
#X obj 158 171 list append;
#X obj 158 247 outlet;
#X obj 158 47 inlet;
#X obj 239 247 outlet;
#X obj 232 45 inlet;
#X obj 158 82 b;
#X text 275 46 list;
#X text 113 47 bang;
#X text 283 247 EOL;
#X text 99 246 element;
#X obj 239 217 b;
#X connect 0 0 2 0;
#X connect 0 1 1 1;
#X connect 0 2 11 0;
#X connect 1 0 0 0;
#X connect 3 0 6 0;
#X connect 5 0 1 1;
#X connect 6 0 1 0;
#X connect 11 0 4 0;
#X restore 205 141 pd dripslow;
#X obj 268 106 inlet;
#X obj 152 110 t f b;
#X obj 132 254 list;
#X obj 152 182 + 0;
#X obj 133 24 inlet;
#X obj 132 274 outlet;
#X obj 132 50 t b a b;
#X msg 167 157 0;
#X connect 0 0 5 0;
#X connect 1 0 2 0;
#X connect 1 0 6 1;
#X connect 2 0 1 1;
#X connect 3 0 7 1;
#X connect 4 0 3 1;
#X connect 5 0 7 0;
#X connect 5 1 3 0;
#X connect 6 0 9 0;
#X connect 7 0 1 0;
#X connect 8 0 10 0;
#X connect 10 0 6 0;
#X connect 10 1 0 0;
#X connect 10 2 1 1;
#X connect 10 2 11 0;
#X connect 11 0 7 1;
#X restore 34 76 pd list add;
#X obj 112 77 list;
#N canvas 0 0 579 459 list 0;
#X obj 138 130 route float;
#X obj 116 232 f;
#X obj 116 259 outlet;
#X obj 116 20 inlet;
#N canvas 0 0 450 300 once 0;
#X obj 110 75 inlet;
#X obj 105 187 spigot 1;
#X obj 110 104 t b f;
#X msg 125 151 0;
#X msg 165 99 1;
#X obj 165 63 inlet;
#X obj 102 219 outlet;
#X connect 0 0 2 0;
#X connect 1 0 6 0;
#X connect 2 0 3 0;
#X connect 2 1 1 0;
#X connect 3 0 1 1;
#X connect 4 0 1 1;
#X connect 5 0 4 0;
#X restore 204 158 pd once;
#X obj 177 199 f;
#X obj 146 198 max;
#X obj 116 40 t b a b;
#X text 331 193 prime [min] and [max] with first item once;
#X obj 138 160 t a a;
#N canvas 0 0 199 243 drip 0;
#X obj 53 174 list split 1;
#X obj 53 91 until;
#X obj 53 129 list append;
#X obj 79 58 t b l;
#X obj 135 176 bang;
#X obj 79 31 inlet;
#X obj 53 199 outlet;
#X connect 0 0 6 0;
#X connect 0 1 2 1;
#X connect 0 2 4 0;
#X connect 1 0 2 0;
#X connect 2 0 0 0;
#X connect 3 0 1 0;
#X connect 3 1 2 1;
#X connect 4 0 1 1;
#X connect 5 0 3 0;
#X restore 137 98 pd drip;
#X connect 0 0 9 0;
#X connect 1 0 2 0;
#X connect 3 0 7 0;
#X connect 4 0 6 1;
#X connect 5 0 6 1;
#X connect 6 0 5 0;
#X connect 6 0 1 1;
#X connect 7 0 1 0;
#X connect 7 1 10 0;
#X connect 7 2 4 1;
#X connect 9 0 6 0;
#X connect 9 1 4 0;
#X connect 10 0 0 0;
#X restore 90 125 pd list max;
#X obj 34 102 t l l;
#X obj 112 153 /;
#X obj 35 207 s chromagram;
#N canvas 381 107 467 423 list 0;
#X obj 96 43 inlet;
#X obj 285 62 inlet;
#X obj 161 362 outlet;
#X obj 180 258 outlet;
#X obj 161 327 list;
#X obj 285 225 list prepend;
#X obj 364 195 t a;
#X obj 161 165 t b a a b;
#X obj 96 68 route bang;
#X obj 96 93 b;
#X obj 161 94 t b a;
#X obj 161 134 list;
#N canvas 0 0 199 262 drip 0;
#X obj 53 174 list split 1;
#X obj 53 91 until;
#X obj 53 129 list append;
#X obj 79 58 t b l;
#X obj 135 176 bang;
#X obj 79 31 inlet;
#X obj 53 199 outlet;
#X connect 0 0 6 0;
#X connect 0 1 2 1;
#X connect 0 2 4 0;
#X connect 1 0 2 0;
#X connect 2 0 0 0;
#X connect 3 0 1 0;
#X connect 3 1 2 1;
#X connect 4 0 1 1;
#X connect 5 0 3 0;
#X restore 179 218 pd drip;
#X connect 0 0 8 0;
#X connect 1 0 5 0;
#X connect 4 0 2 0;
#X connect 5 0 6 0;
#X connect 5 0 4 1;
#X connect 6 0 5 1;
#X connect 7 0 4 0;
#X connect 7 1 12 0;
#X connect 7 2 4 1;
#X connect 7 3 5 1;
#X connect 8 0 9 0;
#X connect 8 1 10 0;
#X connect 9 0 11 0;
#X connect 10 0 11 0;
#X connect 10 1 11 1;
#X connect 11 0 7 0;
#X connect 12 0 3 0;
#X restore 35 155 pd list map;
#X obj 36 180 list prepend 0;
#X connect 0 0 3 0;
#X connect 1 0 2 0;
#X connect 2 0 3 0;
#X connect 2 0 5 0;
#X connect 3 0 2 1;
#X connect 4 0 6 1;
#X connect 5 0 8 0;
#X connect 5 1 4 0;
#X connect 6 0 8 1;
#X connect 8 0 9 0;
#X connect 8 1 6 0;
#X connect 9 0 7 0;
#X restore 22 680 pd chromagram;
#X obj 22 602 chroma24~ 8192 2;
#X connect 0 0 82 3;
#X connect 1 0 82 3;
#X connect 2 0 1 0;
#X connect 3 0 82 1;
#X connect 4 0 82 2;
#X connect 5 0 82 0;
#X connect 6 0 5 1;
#X connect 7 0 5 0;
#X connect 12 0 3 0;
#X connect 12 1 4 0;
#X connect 13 0 12 0;
#X connect 14 0 12 1;
#X connect 16 0 12 2;
#X connect 17 0 82 3;
#X connect 80 0 8 0;
#X connect 82 0 80 0;
#X connect 82 0 81 0;
