#N canvas 411 -8 477 699 10;
#N canvas 231 171 488 206 Hann-window 0;
#N canvas 0 0 450 300 (subpatch) 0;
#X array \$0-hann 1 float 0;
#X coords 0 1 1 0 200 120 1;
#X restore 262 37 graph;
#X msg 111 52 resize \$1;
#X obj 111 76 s \$0-hann;
#X obj 30 119 expr ((cos($f1*6.283185))* -0.5)+0.5;
#X obj 30 144 tabwrite \$0-hann;
#X obj 30 97 / 2048;
#X obj 31 0 inlet;
#X obj 31 71 f;
#X obj 57 71 + 1;
#X obj 31 22 t f b f;
#X msg 73 50 0;
#X obj 31 47 until;
#X connect 1 0 2 0;
#X connect 3 0 4 0;
#X connect 5 0 3 0;
#X connect 6 0 9 0;
#X connect 7 0 8 0;
#X connect 7 0 4 1;
#X connect 7 0 5 0;
#X connect 8 0 7 1;
#X connect 9 0 11 0;
#X connect 9 1 10 0;
#X connect 9 2 1 0;
#X connect 10 0 7 1;
#X connect 11 0 7 0;
#X restore 316 81 pd Hann-window;
#X obj 32 -13 *~;
#X obj 30 12 rfft~;
#X obj 22 41 *~;
#X obj 65 45 *~;
#X obj 36 90 sqrt~;
#X obj 36 66 +~;
#X obj 198 -66 loadbang;
#X obj 33 -54 inlet~;
#X obj 250 35 pack f f;
#X obj 46 -34 tabreceive~ \$0-hann;
#X msg 250 59 set \$1 \$2;
#X msg 199 98 resize \$1;
#X obj 202 125 s one\$0;
#X obj 201 144 s two\$0;
#X obj 203 191 table one\$0;
#X obj 203 213 table two\$0;
#X obj -21 397 bang~;
#X obj 198 -16 \$1;
#X obj 225 -17 \$2;
#X obj 52 115 z~ \$1;
#X obj 198 -43 t b b;
#X obj 233 397 / 2;
#X obj 270 -83 inlet;
#X obj 269 -42 unpack;
#X obj 270 -62 route set;
#X obj 250 79 switch~;
#X obj 202 237 table three\$0;
#X obj 201 166 s three\$0;
#X obj 37 142 -~;
#X obj 66 173 abs~;
#X obj 66 199 *~;
#X obj 52 228 -~;
#X obj -6 229 +~;
#X obj -6 252 *~ 0.5;
#X obj 53 251 *~ 0.5;
#X obj -6 279 abs~;
#X obj 54 277 abs~;
#X obj 54 304 *~;
#X obj -7 304 *~;
#X obj 55 328 rpole~ 1;
#X obj -7 329 rpole~ 1;
#X obj 137 461 f;
#X obj 54 350 tabsend~ three\$0;
#X obj -8 372 tabsend~ two\$0;
#X obj 137 482 tabread three\$0;
#X obj 45 459 f;
#X obj 45 481 tabread two\$0;
#X obj 45 501 sqrt;
#X obj 136 501 sqrt;
#X obj 111 223 rpole~ 1;
#X obj 112 245 tabsend~ one\$0;
#X obj -52 459 f;
#X obj -52 501 sqrt;
#X obj -52 481 tabread one\$0;
#X obj -51 553 outlet;
#X obj -51 531 expr ((($f2-$f3)+abs($f2-$f3))/2)/abs($f1-$f2);
#X obj 233 421 - 1;
#X obj -21 418 t b b b b;
#X msg 44 418 clear;
#X connect 1 0 2 0;
#X connect 2 0 3 0;
#X connect 2 0 3 1;
#X connect 2 1 4 0;
#X connect 2 1 4 1;
#X connect 3 0 6 0;
#X connect 4 0 6 1;
#X connect 5 0 20 0;
#X connect 5 0 29 0;
#X connect 6 0 5 0;
#X connect 7 0 21 0;
#X connect 8 0 1 0;
#X connect 9 0 11 0;
#X connect 10 0 1 1;
#X connect 11 0 26 0;
#X connect 12 0 13 0;
#X connect 12 0 14 0;
#X connect 12 0 28 0;
#X connect 17 0 58 0;
#X connect 18 0 9 0;
#X connect 18 0 22 0;
#X connect 18 0 0 0;
#X connect 18 0 12 0;
#X connect 18 0 20 1;
#X connect 19 0 9 1;
#X connect 20 0 29 1;
#X connect 21 0 18 0;
#X connect 21 1 19 0;
#X connect 22 0 57 0;
#X connect 23 0 25 0;
#X connect 24 0 18 0;
#X connect 24 1 19 0;
#X connect 25 0 24 0;
#X connect 25 1 26 0;
#X connect 29 0 30 0;
#X connect 29 0 32 0;
#X connect 29 0 33 0;
#X connect 30 0 31 1;
#X connect 30 0 31 0;
#X connect 31 0 32 1;
#X connect 31 0 33 1;
#X connect 31 0 50 0;
#X connect 32 0 35 0;
#X connect 33 0 34 0;
#X connect 34 0 36 0;
#X connect 35 0 37 0;
#X connect 36 0 39 1;
#X connect 36 0 39 0;
#X connect 37 0 38 1;
#X connect 37 0 38 0;
#X connect 38 0 40 0;
#X connect 39 0 41 0;
#X connect 40 0 43 0;
#X connect 41 0 44 0;
#X connect 42 0 45 0;
#X connect 45 0 49 0;
#X connect 46 0 47 0;
#X connect 47 0 48 0;
#X connect 48 0 56 1;
#X connect 49 0 56 2;
#X connect 50 0 51 0;
#X connect 52 0 54 0;
#X connect 53 0 56 0;
#X connect 54 0 53 0;
#X connect 56 0 55 0;
#X connect 57 0 52 1;
#X connect 57 0 46 1;
#X connect 57 0 42 1;
#X connect 58 0 52 0;
#X connect 58 1 46 0;
#X connect 58 2 42 0;
#X connect 58 3 59 0;
#X connect 59 0 50 0;
#X connect 59 0 40 0;
#X connect 59 0 41 0;
