#N canvas 619 74 468 557 10;
#X obj 370 11 bng 15 250 50 0 empty empty insert_sound 17 7 0 10 -262144
-1 -1;
#X floatatom 23 487 9 0 0 0 - - -;
#X obj 374 179 nbx 5 14 -1e+037 1e+037 0 1 scale empty Scale(Hz) 0
-8 0 10 -262144 -1 -1 4000 256;
#X obj 86 402 tgl 15 0 empty empty on/off 17 7 0 10 -262144 -1 -1 0
1;
#N canvas 557 202 318 268 player 0;
#X obj 15 169 outlet~;
#X obj 51 -16 t b b b;
#X obj 12 133 dac~;
#X obj 51 -38 inlet;
#X obj 72 11 s rec;
#X obj 87 187 s guia;
#X obj 86 133 count~;
#X obj 87 162 snapshot~;
#X msg 132 106 stop;
#X msg 196 65 range 0 \$1;
#X obj 166 118 bang~;
#X obj 166 139 spigot;
#X obj 217 118 tgl 15 0 empty empty empty 17 7 0 10 -262144 -1 -1 0
1;
#X msg 153 83 1;
#X msg 191 88 0;
#X obj 52 64 tabplay~ \$0sound;
#X obj 107 3 arraysize \$0sound;
#X msg 107 26 \; HFC resize \$1;
#X connect 1 0 6 0;
#X connect 1 0 13 0;
#X connect 1 0 15 0;
#X connect 1 1 4 0;
#X connect 1 2 16 0;
#X connect 3 0 1 0;
#X connect 6 0 7 0;
#X connect 7 0 5 0;
#X connect 8 0 6 0;
#X connect 9 0 5 0;
#X connect 10 0 11 0;
#X connect 11 0 7 0;
#X connect 12 0 11 1;
#X connect 13 0 12 0;
#X connect 14 0 12 0;
#X connect 15 0 2 0;
#X connect 15 0 2 1;
#X connect 15 0 0 0;
#X connect 15 1 8 0;
#X connect 15 1 14 0;
#X connect 16 0 17 0;
#X connect 16 0 9 0;
#X restore 23 418 pd player;
#X obj 23 396 bng 15 250 50 0 empty empty Play 17 7 0 10 -262144 -1
-1;
#X obj 19 8 hsl 345 300 0 203610 0 0 empty guia empty -2 -8 0 10 -262144
-258113 -1 0 1;
#N canvas 0 0 450 300 (subpatch) 0;
#X array HFC 2 float 3;
#A 0 0 0;
#X coords 0 4000 2 0 350 140 1;
#X restore 16 167 graph;
#X floatatom 23 326 8 0 0 1 Sample - -;
#X floatatom 338 327 8 0 0 1 Time(ms) - -;
#X floatatom 180 327 8 0 0 1 Block - -;
#X floatatom 23 371 8 0 0 1 - - -;
#N canvas 519 471 645 210 graph 0;
#X obj 16 31 t b f;
#X obj 16 90 pack f 5000;
#X msg 16 120 bounds 0 \$2 \$1 0;
#X obj 16 10 r scale;
#X obj 471 54 * 44.1;
#X obj 333 53 * 512;
#X text 369 53 FFTSize/interp.;
#X obj 387 140 s guia;
#X obj 203 36 inlet;
#X obj 335 27 inlet;
#X obj 473 27 inlet;
#X obj 289 128 outlet;
#X obj 16 61 arraysize HFC;
#X obj 15 150 s HFC;
#X obj 203 73 tabread HFC;
#X obj 334 74 tabread HFC;
#X obj 471 76 tabread HFC;
#X connect 0 0 12 0;
#X connect 0 1 1 1;
#X connect 1 0 2 0;
#X connect 2 0 13 0;
#X connect 3 0 0 0;
#X connect 4 0 7 0;
#X connect 4 0 16 0;
#X connect 5 0 7 0;
#X connect 5 0 15 0;
#X connect 8 0 7 0;
#X connect 8 0 14 0;
#X connect 9 0 5 0;
#X connect 10 0 4 0;
#X connect 12 0 1 0;
#X connect 14 0 11 0;
#X connect 15 0 11 0;
#X connect 16 0 11 0;
#X restore 23 346 pd graph --------------------------------------------
;
#N canvas 0 0 450 300 (subpatch) 0;
#X array \$0sound 2 float 2;
#X coords 0 1 2 -1 350 140 1;
#X restore 16 8 graph;
#N canvas 0 0 264 132 rec 0;
#X obj 36 21 inlet;
#X obj 39 78 outlet;
#X obj 85 41 sig~;
#X obj 96 64 r rec;
#X obj 86 86 tabwrite~ HFC;
#X connect 0 0 2 0;
#X connect 0 0 1 0;
#X connect 2 0 4 0;
#X connect 3 0 4 0;
#X restore 23 467 pd rec;
#N canvas 136 89 215 205 sample 0;
#X obj 50 143 soundfiler;
#X obj 50 13 inlet;
#X obj 50 34 openpanel;
#X obj 50 100 pack s f;
#X obj 50 54 t a b;
#X obj 95 79 \$0;
#X msg 50 120 read -resize \$1 \$2sound;
#X connect 1 0 2 0;
#X connect 2 0 4 0;
#X connect 3 0 6 0;
#X connect 4 0 3 0;
#X connect 4 1 5 0;
#X connect 5 0 3 1;
#X connect 6 0 0 0;
#X restore 370 29 pd sample;
#X obj 23 446 HFC~ 2048 4;
#X text 9 -49 High Frequency Content;
#X text 182 448 as in switch~ and block~ objects;
#X text 182 433 window size and overlappling \,;
#X text 181 420 arguments and the message 'set \$1 \$2' are;
#X text 9 -32 Based on (Bello et al. \, 2005);
#X msg 100 424 set 1024 2;
#X text 130 490 by Adriano Monteiro (10/2010) - monteiro.adc@gmail.com
;
#X connect 0 0 15 0;
#X connect 3 0 16 1;
#X connect 4 0 16 0;
#X connect 5 0 4 0;
#X connect 8 0 12 0;
#X connect 9 0 12 2;
#X connect 10 0 12 1;
#X connect 12 0 11 0;
#X connect 14 0 1 0;
#X connect 16 0 14 0;
#X connect 22 0 16 1;
