#N canvas 313 94 453 429 10;
#N canvas 322 402 450 172 freqwindow 0;
#N canvas 0 0 450 300 (subpatch) 0;
#X array \$0freq 1 float 3;
#A 0 0;
#X coords 0 10000 1 0 200 140 1;
#X restore 238 17 graph;
#X obj 14 115 tabwrite \$0freq;
#X obj 130 79 symbol \$0freq;
#X msg 130 125 \; \$1 resize \$2;
#X obj 130 58 t b f;
#X obj 130 102 pack s f;
#X obj 14 7 inlet;
#X obj 14 54 until;
#X obj 14 29 t f b f;
#X obj 14 80 f;
#X msg 56 53 0;
#X obj 43 81 + 1;
#X connect 2 0 5 0;
#X connect 4 0 2 0;
#X connect 4 1 5 1;
#X connect 5 0 3 0;
#X connect 6 0 8 0;
#X connect 7 0 9 0;
#X connect 8 0 7 0;
#X connect 8 1 10 0;
#X connect 8 2 4 0;
#X connect 9 0 1 1;
#X connect 9 0 1 0;
#X connect 9 0 11 0;
#X connect 10 0 9 1;
#X connect 11 0 9 1;
#X restore 231 107 pd freqwindow;
#N canvas 231 171 489 190 Hann-window 0;
#N canvas 0 0 450 300 (subpatch) 0;
#X array \$0-hann 1 float 0;
#X coords 0 1 1 0 200 120 1;
#X restore 262 37 graph;
#X msg 131 65 resize \$1;
#X obj 131 89 s \$0-hann;
#X obj 31 134 expr ((cos($f1*6.283185))* -0.5)+0.5;
#X obj 31 159 tabwrite \$0-hann;
#X obj 31 112 / 2048;
#X obj 30 6 inlet;
#X obj 31 58 until;
#X obj 31 84 f;
#X msg 73 57 0;
#X obj 60 85 + 1;
#X obj 30 27 t f b f;
#X connect 1 0 2 0;
#X connect 3 0 4 0;
#X connect 5 0 3 0;
#X connect 6 0 11 0;
#X connect 7 0 8 0;
#X connect 8 0 10 0;
#X connect 8 0 4 1;
#X connect 8 0 5 0;
#X connect 9 0 8 1;
#X connect 10 0 8 1;
#X connect 11 0 7 0;
#X connect 11 1 9 0;
#X connect 11 2 1 0;
#X connect 11 2 5 1;
#X restore 231 87 pd Hann-window;
#X obj -45 -1 *~;
#X obj 128 -39 loadbang;
#X obj -45 -41 inlet~;
#X obj 156 60 pack f f;
#X obj -30 -20 tabreceive~ \$0-hann;
#X msg 156 84 set \$1 \$2;
#X msg 131 124 resize \$1;
#X obj -116 132 bang~;
#X obj -48 308 /;
#X obj -48 328 outlet;
#X obj -45 17 rfft~;
#X obj -57 46 *~;
#X obj -15 41 *~;
#X obj -41 69 +~;
#X obj -42 91 sqrt~;
#X obj 128 14 \$1;
#X obj 156 15 \$2;
#X obj 130 102 / 2;
#X obj 130 170 table one\$0;
#X obj 131 149 s one\$0;
#X obj 128 -18 t b b;
#X obj 156 104 switch~;
#X obj 194 -59 inlet;
#X obj 194 -38 route set;
#X obj 194 -17 unpack;
#X obj -41 116 abs~;
#X obj -47 144 *~;
#X obj -47 186 *~;
#X obj -33 165 tabreceive~ \$0freq;
#X obj -48 234 tabsend~ one\$0;
#X obj -48 285 tabread one\$0;
#X obj -48 262 f;
#X obj -22 263 - 1;
#X obj -116 154 t b b;
#X obj -47 213 rpole~ 1;
#X msg -90 175 clear;
#X connect 2 0 12 0;
#X connect 3 0 22 0;
#X connect 4 0 2 0;
#X connect 5 0 7 0;
#X connect 6 0 2 1;
#X connect 7 0 23 0;
#X connect 8 0 21 0;
#X connect 9 0 35 0;
#X connect 10 0 11 0;
#X connect 12 0 13 0;
#X connect 12 0 13 1;
#X connect 12 1 14 0;
#X connect 12 1 14 1;
#X connect 13 0 15 0;
#X connect 14 0 15 1;
#X connect 15 0 16 0;
#X connect 16 0 27 0;
#X connect 17 0 5 0;
#X connect 17 0 19 0;
#X connect 17 0 1 0;
#X connect 17 0 0 0;
#X connect 18 0 5 1;
#X connect 19 0 8 0;
#X connect 19 0 10 1;
#X connect 19 0 34 0;
#X connect 22 0 17 0;
#X connect 22 1 18 0;
#X connect 24 0 25 0;
#X connect 25 0 26 0;
#X connect 25 1 23 0;
#X connect 26 0 17 0;
#X connect 26 1 18 0;
#X connect 27 0 28 1;
#X connect 27 0 28 0;
#X connect 28 0 29 0;
#X connect 29 0 36 0;
#X connect 30 0 29 1;
#X connect 32 0 10 0;
#X connect 33 0 32 0;
#X connect 34 0 33 1;
#X connect 35 0 33 0;
#X connect 35 1 37 0;
#X connect 36 0 31 0;
#X connect 37 0 36 0;
