#N canvas 220 174 350 406 10;
#X obj 191 -83 loadbang;
#X obj 190 21 pack f f;
#X msg 190 45 set \$1 \$2;
#X obj 25 -86 inlet~;
#X obj 253 -108 inlet;
#X obj 25 -61 *~;
#X obj 69 -85 tabreceive~ \$0-hann;
#N canvas 231 171 489 184 Hann-window 0;
#N canvas 0 0 450 300 (subpatch) 0;
#X array \$0-hann 2 float 0;
#X coords 0 1 1 0 200 120 1;
#X restore 262 37 graph;
#X msg 132 52 resize \$1;
#X obj 132 76 s \$0-hann;
#X obj 30 113 expr ((cos($f1*6.283185))* -0.5)+0.5;
#X obj 30 138 tabwrite \$0-hann;
#X obj 30 64 for++ 0 2048 1;
#X obj 30 91 / 2048;
#X obj 30 21 inlet;
#X obj 30 42 t b f;
#X connect 1 0 2 0;
#X connect 3 0 4 0;
#X connect 5 0 4 1;
#X connect 5 0 6 0;
#X connect 6 0 3 0;
#X connect 7 0 8 0;
#X connect 8 0 5 0;
#X connect 8 1 1 0;
#X connect 8 1 5 1;
#X connect 8 1 6 1;
#X restore 253 4 pd Hann-window;
#X obj 191 -60 t b b;
#X obj 191 -16 \$1;
#X obj 218 -15 \$2;
#X obj 190 68 switch~;
#X obj 253 -86 route set;
#X obj 253 -64 unpack;
#X obj 35 190 pack~;
#X obj 35 242 outlet;
#X obj 24 67 log~ 10;
#X obj 35 216 list split 1024;
#X obj 167 34 / 2;
#X obj 14 -2 *~;
#X obj 23 22 sqrt~;
#X obj 43 -2 *~;
#X obj 26 -33 rfft~;
#X obj 25 89 rfft~;
#X obj 24 120 *~;
#X obj 33 144 sqrt~;
#X obj 53 120 *~;
#X obj 23 43 /~ 2048;
#X obj 33 165 /~ 2048;
#X connect 0 0 8 0;
#X connect 1 0 2 0;
#X connect 2 0 11 0;
#X connect 3 0 5 0;
#X connect 4 0 12 0;
#X connect 5 0 22 0;
#X connect 6 0 5 1;
#X connect 8 0 9 0;
#X connect 8 1 10 0;
#X connect 9 0 1 0;
#X connect 9 0 7 0;
#X connect 9 0 18 0;
#X connect 9 0 27 1;
#X connect 9 0 28 1;
#X connect 10 0 1 1;
#X connect 12 0 13 0;
#X connect 12 1 11 0;
#X connect 13 0 9 0;
#X connect 13 1 10 0;
#X connect 14 0 17 0;
#X connect 16 0 23 0;
#X connect 17 0 15 0;
#X connect 18 0 17 1;
#X connect 19 0 20 0;
#X connect 20 0 27 0;
#X connect 21 0 20 0;
#X connect 22 0 19 1;
#X connect 22 0 19 0;
#X connect 22 1 21 1;
#X connect 22 1 21 0;
#X connect 23 0 24 0;
#X connect 23 0 24 1;
#X connect 23 1 26 0;
#X connect 23 1 26 1;
#X connect 24 0 25 0;
#X connect 25 0 28 0;
#X connect 26 0 25 0;
#X connect 27 0 16 0;
#X connect 28 0 14 0;
