#N canvas 653 35 466 567 10;
#X obj 373 6 dsp~;
#X floatatom 373 28 5 0 0 1 %_CPU - -;
#X obj 375 73 openpanel;
#X obj 375 54 bng 15 250 50 0 empty empty insert_sound 17 7 0 10 -262144
-1 -1;
#N canvas 0 0 215 159 sound1 0;
#X obj 51 119 soundfiler;
#X obj 51 40 t a b;
#X obj 51 16 inlet;
#X obj 95 57 \$0;
#X msg 51 96 read -resize \$1 \$2sound;
#X obj 51 76 pack s f;
#X connect 1 0 5 0;
#X connect 1 1 3 0;
#X connect 2 0 1 0;
#X connect 3 0 5 1;
#X connect 4 0 0 0;
#X connect 5 0 4 0;
#X restore 375 94 pd sound1;
#X obj 375 219 nbx 5 14 -1e+037 1e+037 0 1 scale empty Scale(Hz) 0
-8 0 10 -262144 -1 -1 12 256;
#X obj 120 401 tgl 15 0 empty empty on/off 17 7 0 10 -262144 -1 -1
1 1;
#X obj 20 49 hsl 345 140 0 441000 0 0 empty guia empty -2 -8 0 10 -262144
-258113 -1 0 1;
#N canvas 0 0 450 300 (subpatch) 0;
#X array RealCepstrum 200 float 1;
#A 0 -10 0 0 0 0 0 0 0 0 0 0 0 0 0 0 0 0 0 0 0 0 0 0 0 0 0 0 0 0 0
0 0 0 0 0 0 0 0 0 0 0 0 0 0 0 0 0 0 0 0 0 0 0 0 0 0 0 0 0 0 0 0 0 0
0 0 0 0 0 0 0 0 0 0 0 0 0 0 0 0 0 0 0 0 0 0 0 0 0 0 0 0 0 0 0 0 0 0
0 0 0 0 0 0 0 0 0 0 0 0 0 0 0 0 0 0 0 0 0 0 0 0 0 0 0 0 0 0 0 0 0 0
0 0 0 0 0 0 0 0 0 0 0 0 0 0 0 0 0 0 0 0 0 0 0 0 0 0 0 0 0 0 0 0 0 0
0 0 0 0 0 0 0 0 0 0 0 0 0 0 0 0 0 0 0 0 0 0 0 0 0 0 0 0 0 0 0 0 0 0
;
#X coords 0 12 200 -12 350 140 1;
#X restore 17 207 graph;
#N canvas 0 0 450 300 (subpatch) 0;
#X array \$0sound 1 float 2;
#X coords 0 1 1 -1 350 140 1;
#X restore 17 48 graph;
#N canvas 680 158 423 302 player 0;
#X obj 52 169 outlet~;
#X obj 49 133 dac~;
#X obj 70 -38 inlet;
#X obj 106 187 s guia;
#X obj 105 133 count~;
#X obj 106 162 snapshot~;
#X msg 151 106 stop;
#X msg 191 58 range 0 \$1;
#X obj 185 118 bang~;
#X obj 185 139 spigot;
#X obj 221 119 tgl 15 0 empty empty empty 17 7 0 10 -262144 -1 -1 0
1;
#X msg 169 80 1;
#X msg 210 88 0;
#X obj 70 47 tabplay~ \$0sound;
#X obj 71 -15 t b b;
#X obj 171 19 arraysize \$0sound;
#X obj 273 78 r scale;
#X obj 272 103 t b f;
#X obj 271 126 arraysize RealCepstrum;
#X obj 270 221 s RealCepstrum;
#X obj 344 144 * -1;
#X obj 271 166 pack f 5000 f;
#X msg 271 196 bounds 0 \$2 \$1 \$3;
#X connect 2 0 14 0;
#X connect 4 0 5 0;
#X connect 5 0 3 0;
#X connect 6 0 4 0;
#X connect 7 0 3 0;
#X connect 8 0 9 0;
#X connect 9 0 5 0;
#X connect 10 0 9 1;
#X connect 11 0 10 0;
#X connect 12 0 10 0;
#X connect 13 0 1 0;
#X connect 13 0 1 1;
#X connect 13 0 0 0;
#X connect 13 1 6 0;
#X connect 13 1 12 0;
#X connect 14 0 4 0;
#X connect 14 0 11 0;
#X connect 14 0 13 0;
#X connect 14 1 15 0;
#X connect 15 0 7 0;
#X connect 16 0 17 0;
#X connect 17 0 18 0;
#X connect 17 1 20 0;
#X connect 17 1 21 1;
#X connect 18 0 21 0;
#X connect 20 0 21 2;
#X connect 21 0 22 0;
#X connect 22 0 19 0;
#X restore 21 379 pd player;
#X obj 21 361 bng 15 250 50 0 empty empty Play 17 7 0 10 -262144 -1
-1;
#X text 152 473 as in switch~ and block~ objects;
#X text 175 513 by Adriano Monteiro - monteiro.adc@gmail.com;
#X text 152 458 window size and overlappling \,;
#X text 154 442 arguments and the message 'set \$1 \$2' are;
#X msg 128 419 set 1024 2;
#X floatatom 208 379 5 0 0 1 plot_resolution - -;
#X text 16 -7 based on (Klapuri & Davy 2006);
#X obj 21 470 list prepend 0;
#X msg 208 400 \; RealCepstrum resize \$1;
#X text 15 -33 Real Cepstrum;
#X obj 21 492 s RealCepstrum;
#X obj 21 447 Rcepstrum~ 2048 4;
#X connect 0 0 1 0;
#X connect 2 0 4 0;
#X connect 3 0 2 0;
#X connect 6 0 23 1;
#X connect 10 0 23 0;
#X connect 11 0 10 0;
#X connect 16 0 23 1;
#X connect 17 0 20 0;
#X connect 19 0 22 0;
#X connect 23 0 19 0;
