#N canvas 177 30 458 625 10;
#X declare -lib iem_tab;
#X obj 355 98 import iem_tab;
#X obj 255 -23 loadbang;
#X obj 294 77 pack f f;
#X msg 294 101 set \$1 \$2;
#X obj 254 31 \$1;
#X obj 282 30 \$2;
#X msg 254 153 resize \$1;
#X obj 44 206 bang~;
#X obj 42 70 *~;
#X obj 67 67 *~;
#X obj 48 92 +~;
#X obj 49 116 sqrt~;
#X obj 42 34 rfft~;
#X obj 43 -28 inlet~;
#X obj 321 -58 inlet;
#X obj 43 7 *~;
#X obj 88 -26 tabreceive~ \$0-hann;
#X obj 176 211 inlet;
#X obj 138 516 outlet;
#X obj 87 140 tabsend~ one\$0;
#X obj 304 176 table one\$0;
#X obj 254 176 s one\$0;
#X obj 238 222 inlet;
#X obj 231 289 -;
#X obj 217 263 t b f;
#X obj 153 464 /;
#X obj 138 492 /;
#X obj 255 -4 t b b;
#X obj 321 -36 route set;
#X obj 321 -15 unpack;
#X obj 292 130 switch~;
#N canvas 231 171 489 192 Hann-window 0;
#N canvas 0 0 450 300 (subpatch) 0;
#X array \$0-hann 1 float 0;
#X coords 0 1 1 0 200 120 1;
#X restore 262 37 graph;
#X msg 97 59 resize \$1;
#X obj 97 83 s \$0-hann;
#X obj 18 126 expr ((cos($f1*6.283185))* -0.5)+0.5;
#X obj 18 151 tabwrite \$0-hann;
#X obj 18 104 / 2048;
#X obj 18 11 inlet;
#X obj 19 60 until;
#X obj 19 84 f;
#X obj 48 83 + 1;
#X msg 56 59 0;
#X obj 18 38 t f b f;
#X connect 1 0 2 0;
#X connect 3 0 4 0;
#X connect 5 0 3 0;
#X connect 6 0 11 0;
#X connect 7 0 8 0;
#X connect 8 0 9 0;
#X connect 8 0 4 1;
#X connect 8 0 5 0;
#X connect 9 0 8 1;
#X connect 10 0 8 1;
#X connect 11 0 7 0;
#X connect 11 1 10 0;
#X connect 11 2 1 0;
#X connect 11 2 5 1;
#X restore 356 75 pd Hann-window;
#X obj 254 201 s two\$0;
#X obj 305 201 table two\$0;
#X obj 43 346 until;
#X obj 43 373 f;
#X obj 77 372 + 1;
#X obj 43 322 t f b;
#X obj 43 422 max;
#X obj 72 422 f;
#X obj 43 399 tabread one\$0;
#X obj 83 347 f;
#X msg 105 375 0;
#X obj 43 301 f;
#X msg 113 228 clear;
#X obj 49 162 rpole~ 1;
#X obj 49 185 tabsend~ two\$0;
#X obj 173 247 - 1;
#X obj 137 329 f;
#X obj 229 328 f;
#X obj 150 415 -;
#X obj 44 226 t b b b b;
#X obj 173 269 max 0;
#X obj 137 357 tabread two\$0;
#X obj 229 356 tabread two\$0;
#X connect 1 0 27 0;
#X connect 2 0 3 0;
#X connect 3 0 30 0;
#X connect 4 0 2 0;
#X connect 4 0 31 0;
#X connect 4 0 6 0;
#X connect 5 0 2 1;
#X connect 6 0 21 0;
#X connect 6 0 32 0;
#X connect 7 0 51 0;
#X connect 8 0 10 0;
#X connect 9 0 10 1;
#X connect 10 0 11 0;
#X connect 11 0 19 0;
#X connect 11 0 45 0;
#X connect 12 0 8 0;
#X connect 12 0 8 1;
#X connect 12 1 9 0;
#X connect 12 1 9 1;
#X connect 13 0 15 0;
#X connect 14 0 28 0;
#X connect 15 0 12 0;
#X connect 16 0 15 1;
#X connect 17 0 24 0;
#X connect 17 0 41 1;
#X connect 17 0 47 0;
#X connect 22 0 23 0;
#X connect 22 0 48 1;
#X connect 23 0 25 1;
#X connect 23 0 43 1;
#X connect 24 0 23 0;
#X connect 24 1 23 1;
#X connect 25 0 26 1;
#X connect 26 0 18 0;
#X connect 27 0 4 0;
#X connect 27 1 5 0;
#X connect 28 0 29 0;
#X connect 28 1 30 0;
#X connect 29 0 4 0;
#X connect 29 1 5 0;
#X connect 34 0 35 0;
#X connect 35 0 36 0;
#X connect 35 0 40 0;
#X connect 36 0 35 1;
#X connect 37 0 34 0;
#X connect 37 1 41 0;
#X connect 37 1 42 0;
#X connect 38 0 39 0;
#X connect 38 0 26 0;
#X connect 39 0 38 1;
#X connect 40 0 38 0;
#X connect 41 0 35 1;
#X connect 42 0 38 1;
#X connect 43 0 37 0;
#X connect 44 0 45 0;
#X connect 45 0 46 0;
#X connect 47 0 52 0;
#X connect 48 0 53 0;
#X connect 49 0 54 0;
#X connect 50 0 25 0;
#X connect 51 0 43 0;
#X connect 51 1 48 0;
#X connect 51 2 49 0;
#X connect 51 3 44 0;
#X connect 52 0 49 1;
#X connect 53 0 50 0;
#X connect 54 0 50 1;
