#N canvas 668 12 471 701 10;
#X declare -lib iem_tab;
#X obj 370 11 bng 15 250 50 0 empty empty insert_sound 17 7 0 10 -262144
-1 -1;
#X floatatom 23 640 9 0 0 0 - - -;
#X obj 374 179 nbx 5 14 -1e+037 1e+037 0 1 scale empty Scale 0 -8 0
10 -262144 -1 -1 20 256;
#X obj 104 554 tgl 15 0 empty empty on/off 17 7 0 10 -262144 -1 -1
0 1;
#N canvas 570 195 300 268 player 0;
#X obj 28 169 outlet~;
#X obj 44 -16 t b b b;
#X obj 25 133 dac~;
#X obj 44 -38 inlet;
#X obj 65 11 s rec;
#X obj 80 187 s guia;
#X msg 189 65 range 0 \$1;
#X obj 159 118 bang~;
#X obj 159 139 spigot;
#X obj 210 118 tgl 15 0 empty empty empty 17 7 0 10 -262144 -1 -1 0
1;
#X msg 146 83 1;
#X msg 184 88 0;
#X obj 45 64 tabplay~ \$0sound;
#X obj 100 3 arraysize \$0sound;
#X msg 100 26 \; SpectralCrest resize \$1;
#X obj 138 168 f;
#X obj 185 174 + 64;
#X connect 1 0 10 0;
#X connect 1 0 12 0;
#X connect 1 1 4 0;
#X connect 1 2 13 0;
#X connect 3 0 1 0;
#X connect 6 0 5 0;
#X connect 7 0 8 0;
#X connect 8 0 15 0;
#X connect 9 0 8 1;
#X connect 10 0 9 0;
#X connect 11 0 9 0;
#X connect 11 0 15 1;
#X connect 12 0 2 0;
#X connect 12 0 2 1;
#X connect 12 0 0 0;
#X connect 12 1 11 0;
#X connect 13 0 14 0;
#X connect 13 0 6 0;
#X connect 15 0 16 0;
#X connect 15 0 5 0;
#X connect 16 0 15 1;
#X restore 24 423 pd player;
#X obj 25 401 bng 15 250 50 0 empty empty Play 17 7 0 10 -262144 -1
-1;
#X obj 19 7 hsl 345 300 0 203610 0 0 empty guia empty -2 -8 0 10 -262144
-258113 -1 0 1;
#N canvas 0 0 450 300 (subpatch) 0;
#X array SpectralCrest 2 float 3;
#A 0 0 0;
#X coords 0 20 2 0 350 140 1;
#X restore 16 167 graph;
#X floatatom 23 326 8 0 0 1 Sample - -;
#X floatatom 338 327 8 0 0 1 Time(ms) - -;
#X floatatom 180 327 8 0 0 1 Block - -;
#X floatatom 23 371 8 0 0 1 - - -;
#N canvas 519 471 645 210 graph 0;
#X obj 16 31 t b f;
#X obj 16 90 pack f 5000;
#X msg 16 120 bounds 0 \$2 \$1 0;
#X obj 16 10 r scale;
#X obj 471 54 * 44.1;
#X obj 333 53 * 512;
#X text 369 53 FFTSize/interp.;
#X obj 387 140 s guia;
#X obj 196 33 inlet;
#X obj 335 27 inlet;
#X obj 473 27 inlet;
#X obj 289 128 outlet;
#X obj 16 61 arraysize SpectralCrest;
#X obj 196 70 tabread SpectralCrest;
#X obj 334 74 tabread SpectralCrest;
#X obj 471 76 tabread Spectralcrest;
#X obj 15 150 s SpectralCrest;
#X connect 0 0 12 0;
#X connect 0 1 1 1;
#X connect 1 0 2 0;
#X connect 2 0 16 0;
#X connect 3 0 0 0;
#X connect 4 0 7 0;
#X connect 4 0 15 0;
#X connect 5 0 7 0;
#X connect 5 0 14 0;
#X connect 8 0 7 0;
#X connect 8 0 13 0;
#X connect 9 0 5 0;
#X connect 10 0 4 0;
#X connect 12 0 1 0;
#X connect 13 0 11 0;
#X connect 14 0 11 0;
#X connect 15 0 11 0;
#X restore 23 346 pd graph --------------------------------------------
;
#N canvas 0 0 450 300 (subpatch) 0;
#X array \$0sound 2 float 2;
#X coords 0 1 2 -1 350 140 1;
#X restore 16 8 graph;
#N canvas 0 0 264 132 rec 0;
#X obj 36 21 inlet;
#X obj 39 78 outlet;
#X obj 85 41 sig~;
#X obj 96 64 r rec;
#X obj 86 86 tabwrite~ SpectralCrest;
#X connect 0 0 2 0;
#X connect 0 0 1 0;
#X connect 2 0 4 0;
#X connect 3 0 4 0;
#X restore 23 620 pd rec;
#N canvas 136 89 215 205 sample 0;
#X obj 50 143 soundfiler;
#X obj 50 13 inlet;
#X obj 50 34 openpanel;
#X obj 50 100 pack s f;
#X obj 50 54 t a b;
#X obj 95 79 \$0;
#X msg 50 120 read -resize \$1 \$2sound;
#X connect 1 0 2 0;
#X connect 2 0 4 0;
#X connect 3 0 6 0;
#X connect 4 0 3 0;
#X connect 4 1 5 0;
#X connect 5 0 3 1;
#X connect 6 0 0 0;
#X restore 370 29 pd sample;
#X obj 23 599 Screst~ 2048 4;
#X floatatom 164 534 8 0 0 0 - - -;
#X floatatom 329 533 8 0 0 0 - - -;
#X obj 303 483 t b f;
#X obj 164 465 i;
#X obj 164 500 expr ($f1+1)*(44100/2048.0) \; ($f2+1)*(44100/2048.0)
;
#X floatatom 50 449 5 0 1023 1 min_bin - -;
#X floatatom 77 467 5 0 1023 1 max_bin - -;
#X text 189 549 min/max analisys bandwidth frequencies;
#X text 131 425 set the analysis band in bins (min and max);
#X text 13 -40 Spectral Crest Mesure;
#X text 14 -24 based on (Peeters \, 2004) - CUIDADO Paper;
#X text 206 601 as in switch~ and block~ objects;
#X text 205 586 window size and overlappling \,;
#X text 206 573 arguments and the message 'set \$1 \$2' are;
#X msg 135 575 set 1024 2;
#X text 132 646 by Adriano Monteiro (10/2010) - monteiro.adc@gmail.com
;
#X connect 0 0 15 0;
#X connect 3 0 16 3;
#X connect 4 0 16 0;
#X connect 5 0 4 0;
#X connect 8 0 12 0;
#X connect 9 0 12 2;
#X connect 10 0 12 1;
#X connect 12 0 11 0;
#X connect 14 0 1 0;
#X connect 16 0 14 0;
#X connect 19 0 21 0;
#X connect 19 1 21 1;
#X connect 20 0 21 0;
#X connect 21 0 17 0;
#X connect 21 1 18 0;
#X connect 22 0 20 0;
#X connect 22 0 16 1;
#X connect 23 0 19 0;
#X connect 23 0 16 2;
#X connect 31 0 16 3;
