#N canvas 513 44 461 607 10;
#X declare -lib iem_tab;
#X obj 370 11 bng 15 250 50 0 empty empty insert_sound 17 7 0 10 -262144
-1 -1;
#X floatatom 24 488 9 0 0 0 - - -;
#X obj 374 179 nbx 5 14 -1e+037 1e+037 0 1 scale empty Scale 0 -8 0
10 -262144 -1 -1 1 256;
#X obj 123 393 tgl 15 0 empty empty on/off 17 7 0 10 -262144 -1 -1
0 1;
#N canvas 557 202 308 268 player 0;
#X obj 30 152 outlet~;
#X obj 62 -16 t b b b;
#X obj 27 116 dac~;
#X obj 62 -38 inlet;
#X obj 83 11 s rec;
#X obj 98 187 s guia;
#X obj 97 133 count~;
#X obj 98 162 snapshot~;
#X msg 143 106 stop;
#X msg 207 65 range 0 \$1;
#X obj 177 118 bang~;
#X obj 177 139 spigot;
#X obj 228 118 tgl 15 0 empty empty empty 17 7 0 10 -262144 -1 -1 0
1;
#X msg 164 83 1;
#X msg 202 88 0;
#X obj 63 64 tabplay~ \$0sound;
#X obj 118 3 arraysize \$0sound;
#X msg 117 26 \; SpectralDecrease resize \$1;
#X connect 1 0 6 0;
#X connect 1 0 13 0;
#X connect 1 0 15 0;
#X connect 1 1 4 0;
#X connect 1 2 16 0;
#X connect 3 0 1 0;
#X connect 6 0 7 0;
#X connect 7 0 5 0;
#X connect 8 0 6 0;
#X connect 9 0 5 0;
#X connect 10 0 11 0;
#X connect 11 0 7 0;
#X connect 12 0 11 1;
#X connect 13 0 12 0;
#X connect 14 0 12 0;
#X connect 15 0 2 0;
#X connect 15 0 2 1;
#X connect 15 0 0 0;
#X connect 15 1 8 0;
#X connect 15 1 14 0;
#X connect 16 0 17 0;
#X connect 16 0 9 0;
#X restore 24 424 pd player;
#X obj 24 400 bng 15 250 50 0 empty empty Play 17 7 0 10 -262144 -1
-1;
#X obj 19 8 hsl 345 300 0 87736 0 0 empty guia empty -2 -8 0 10 -262144
-258113 -1 0 1;
#N canvas 0 0 450 300 (subpatch) 0;
#X array SpectralDecrease 1 float 3;
#A 0 0;
#X coords 0 1 1 0 350 70 1;
#X restore 16 167 graph;
#X floatatom 23 326 8 0 0 1 Sample - -;
#X floatatom 338 327 8 0 0 1 Time(ms) - -;
#X floatatom 180 327 8 0 0 1 Block - -;
#X floatatom 23 371 8 0 0 1 - - -;
#N canvas 519 471 645 210 graph 0;
#X obj 16 31 t b f;
#X obj 16 90 pack f 5000;
#X msg 16 120 bounds 0 \$2 \$1 0;
#X obj 16 10 r scale;
#X obj 487 51 * 44.1;
#X obj 333 53 * 512;
#X text 369 53 FFTSize/interp.;
#X obj 387 140 s guia;
#X obj 179 40 inlet;
#X obj 335 27 inlet;
#X obj 489 24 inlet;
#X obj 272 135 outlet;
#X obj 15 60 arraysize SpectralDecrease;
#X obj 15 150 s SpectralDecrease;
#X obj 178 75 tabread SpectralDecrease;
#X obj 334 73 tabread SpectralDecrease;
#X obj 487 72 tabread SpectralDecrease;
#X connect 0 0 12 0;
#X connect 0 1 1 1;
#X connect 1 0 2 0;
#X connect 2 0 13 0;
#X connect 3 0 0 0;
#X connect 4 0 7 0;
#X connect 4 0 16 0;
#X connect 5 0 7 0;
#X connect 5 0 15 0;
#X connect 8 0 7 0;
#X connect 8 0 14 0;
#X connect 9 0 5 0;
#X connect 10 0 4 0;
#X connect 12 0 1 0;
#X connect 14 0 11 0;
#X connect 15 0 11 0;
#X connect 16 0 11 0;
#X restore 23 346 pd graph --------------------------------------------
;
#N canvas 0 0 450 300 (subpatch) 0;
#X array \$0sound 1 float 2;
#X coords 0 1 1 -1 350 140 1;
#X restore 16 8 graph;
#N canvas 0 0 264 132 rec 0;
#X obj 36 21 inlet;
#X obj 39 78 outlet;
#X obj 85 41 sig~;
#X obj 96 64 r rec;
#X obj 86 86 tabwrite~ SpectralDecrease;
#X connect 0 0 2 0;
#X connect 0 0 1 0;
#X connect 2 0 4 0;
#X connect 3 0 4 0;
#X restore 24 468 pd rec;
#N canvas 136 89 215 205 sample 0;
#X obj 50 143 soundfiler;
#X obj 50 13 inlet;
#X obj 50 34 openpanel;
#X obj 50 100 pack s f;
#X obj 50 54 t a b;
#X obj 95 79 \$0;
#X msg 50 120 read -resize \$1 \$2sound;
#X connect 1 0 2 0;
#X connect 2 0 4 0;
#X connect 3 0 6 0;
#X connect 4 0 3 0;
#X connect 4 1 5 0;
#X connect 5 0 3 1;
#X connect 6 0 0 0;
#X restore 370 29 pd sample;
#N canvas 0 0 450 300 (subpatch) 0;
#X coords 0 0 2 -1 350 70 1;
#X restore 16 237 graph;
#X text 211 450 as in switch~ and block~ objects;
#X text 211 435 window size and overlappling \,;
#X text 210 422 arguments and the message 'set \$1 \$2' are;
#X text 15 -30 based on (Peeters \, 2004) - CUIDADO Paper;
#X text 10 -83 Spectral Decrease - Extract the Amount of spectral Magnitude
Decreasing (like Spectral Slope \, but it supposed to be more correlated
to human perception);
#X obj 24 445 Sdecrease~ 2048 4;
#X msg 141 424 set 1024 2;
#X text 124 505 by Adriano Monteiro (10/2010) - monteiro.adc@gmail.com
;
#X connect 0 0 15 0;
#X connect 3 0 22 1;
#X connect 4 0 22 0;
#X connect 5 0 4 0;
#X connect 8 0 12 0;
#X connect 9 0 12 2;
#X connect 10 0 12 1;
#X connect 12 0 11 0;
#X connect 14 0 1 0;
#X connect 22 0 14 0;
#X connect 23 0 22 1;
