#N canvas 654 110 492 557 10;
#X obj 69 -49 *~;
#X obj 67 -24 rfft~;
#X obj 59 5 *~;
#X obj 102 9 *~;
#X obj 73 60 sqrt~;
#X obj 73 30 +~;
#X obj 70 -90 inlet~;
#X obj 83 -70 tabreceive~ \$0-hann;
#X obj 70 107 bang~;
#X obj 11 248 tabsend~ one\$0;
#X msg 186 146 1;
#N canvas 231 171 488 184 Hann-window 0;
#N canvas 0 0 450 300 (subpatch) 0;
#X array \$0-hann 1 float 0;
#X coords 0 1 1 0 200 120 1;
#X restore 262 37 graph;
#X msg 133 57 resize \$1;
#X obj 133 81 s \$0-hann;
#X obj 31 118 expr ((cos($f1*6.283185))* -0.5)+0.5;
#X obj 31 143 tabwrite \$0-hann;
#X obj 31 96 / 2048;
#X obj 29 -20 inlet;
#X obj 31 38 until;
#X obj 31 69 f;
#X obj 58 70 + 1;
#X msg 73 40 0;
#X obj 29 1 t f b f;
#X connect 1 0 2 0;
#X connect 3 0 4 0;
#X connect 5 0 3 0;
#X connect 6 0 11 0;
#X connect 7 0 8 0;
#X connect 8 0 9 0;
#X connect 8 0 4 1;
#X connect 8 0 5 0;
#X connect 9 0 8 1;
#X connect 10 0 8 1;
#X connect 11 0 7 0;
#X connect 11 1 10 0;
#X connect 11 2 1 0;
#X restore 395 35 pd Hann-window;
#N canvas 586 324 450 186 binwindow 0;
#N canvas 0 0 450 300 (subpatch) 0;
#X array \$0bin 1 float 3;
#A 0 -1;
#X coords 0 44100 1 0 200 140 1;
#X restore 238 17 graph;
#X obj 26 122 - 1;
#X obj 26 146 tabwrite \$0bin;
#X obj 25 10 inlet;
#X obj 26 62 until;
#X obj 26 93 f;
#X obj 53 94 + 1;
#X msg 68 64 0;
#X obj 26 35 t f b f;
#X obj 107 102 s \$0bin;
#X msg 107 82 resize \$1;
#X connect 1 0 2 0;
#X connect 3 0 8 0;
#X connect 4 0 5 0;
#X connect 5 0 6 0;
#X connect 5 0 2 1;
#X connect 5 0 1 0;
#X connect 6 0 5 1;
#X connect 7 0 5 1;
#X connect 8 0 4 0;
#X connect 8 1 7 0;
#X connect 8 2 10 0;
#X connect 10 0 9 0;
#X restore 401 62 pd binwindow;
#X obj 292 -60 loadbang;
#X obj 326 38 pack f f;
#X msg 326 62 set \$1 \$2;
#X msg 290 102 resize \$1;
#X obj 291 127 s one\$0;
#X obj 290 146 s two\$0;
#X obj 291 189 table one\$0;
#X obj 291 211 table two\$0;
#X obj 291 -7 \$1;
#X obj 317 -7 \$2;
#X obj 253 44 / 2;
#X obj 291 -40 t b b;
#X obj 326 82 switch~;
#X obj 358 -77 inlet;
#X obj 358 -36 unpack;
#X obj 358 -56 route set;
#N canvas 0 0 450 168 mul 0;
#N canvas 0 0 450 300 (subpatch) 0;
#X array \$0mul 1 float 3;
#A 0 0;
#X coords 0 1 1 -1 200 140 1;
#X restore 223 22 graph;
#X obj 50 28 inlet;
#X obj 50 73 s \$0mul;
#X msg 50 53 resize \$1 \, const 1 \, 0 0 0;
#X connect 1 0 3 0;
#X connect 3 0 2 0;
#X restore 400 85 pd mul;
#X obj 253 67 - 1;
#X obj 70 129 t b b b b;
#X obj 171 196 -~;
#X obj 184 261 tabreceive~ \$0bin;
#X obj 170 285 /~;
#X obj 11 227 rpole~ 1;
#X obj 10 202 *~;
#X obj 27 178 tabreceive~ \$0mul;
#X msg 121 154 clear;
#X obj 169 241 *~;
#X obj 184 217 tabreceive~ \$0mul;
#X obj 11 301 tabread one\$0;
#X obj 11 275 f;
#X obj 169 309 rpole~ 1;
#X obj 169 330 tabsend~ two\$0;
#X obj 167 354 f;
#X obj 167 380 tabread two\$0;
#X obj 11 331 expr float(1)/$f1;
#X obj 114 402 *;
#X obj 114 424 outlet;
#X obj 131 77 tabsend~ three\$0;
#X obj 293 232 table three\$0;
#X obj 292 165 s three\$0;
#X obj 186 171 tabread three\$0;
#X connect 0 0 1 0;
#X connect 1 0 2 0;
#X connect 1 0 2 1;
#X connect 1 1 3 0;
#X connect 1 1 3 1;
#X connect 2 0 5 0;
#X connect 3 0 5 1;
#X connect 4 0 32 0;
#X connect 4 0 36 0;
#X connect 4 0 50 0;
#X connect 5 0 4 0;
#X connect 6 0 0 0;
#X connect 7 0 0 1;
#X connect 8 0 31 0;
#X connect 10 0 53 0;
#X connect 13 0 24 0;
#X connect 14 0 15 0;
#X connect 15 0 25 0;
#X connect 16 0 17 0;
#X connect 16 0 18 0;
#X connect 16 0 52 0;
#X connect 21 0 23 0;
#X connect 21 0 14 0;
#X connect 21 0 11 0;
#X connect 21 0 12 0;
#X connect 21 0 29 0;
#X connect 21 0 16 0;
#X connect 22 0 14 1;
#X connect 23 0 30 0;
#X connect 24 0 21 0;
#X connect 24 1 22 0;
#X connect 26 0 28 0;
#X connect 27 0 21 0;
#X connect 27 1 22 0;
#X connect 28 0 27 0;
#X connect 28 1 25 0;
#X connect 30 0 42 1;
#X connect 30 0 45 1;
#X connect 31 0 42 0;
#X connect 31 1 45 0;
#X connect 31 2 10 0;
#X connect 31 3 38 0;
#X connect 32 0 39 0;
#X connect 33 0 34 1;
#X connect 34 0 43 0;
#X connect 35 0 9 0;
#X connect 36 0 35 0;
#X connect 37 0 36 1;
#X connect 38 0 35 0;
#X connect 38 0 43 0;
#X connect 39 0 34 0;
#X connect 40 0 39 1;
#X connect 41 0 47 0;
#X connect 42 0 41 0;
#X connect 43 0 44 0;
#X connect 45 0 46 0;
#X connect 46 0 48 1;
#X connect 47 0 48 0;
#X connect 48 0 49 0;
#X connect 53 0 32 1;
