#N canvas 648 30 468 559 10;
#X obj 370 11 bng 15 250 50 0 empty empty insert_sound 17 7 0 10 -262144
-1 -1;
#X floatatom 23 483 9 0 0 0 - - -;
#X obj 374 179 nbx 5 14 -1e+037 1e+037 0 1 scale empty Scale(Hz) 0
-8 0 10 -262144 -1 -1 4000 256;
#X obj 134 399 tgl 15 0 empty empty on/off 17 7 0 10 -262144 -1 -1
0 1;
#N canvas 518 204 306 251 player 0;
#X obj 33 168 outlet~;
#X obj 53 -16 t b b b;
#X obj 30 132 dac~;
#X obj 53 -38 inlet;
#X obj 74 11 s rec;
#X obj 89 187 s guia;
#X msg 198 65 range 0 \$1;
#X obj 168 118 bang~;
#X obj 168 139 spigot;
#X obj 219 118 tgl 15 0 empty empty empty 17 7 0 10 -262144 -1 -1 0
1;
#X msg 155 83 1;
#X msg 193 88 0;
#X obj 54 64 tabplay~ \$0sound;
#X obj 109 3 arraysize \$0sound;
#X msg 109 26 \; SpectralFrequencykurtosis resize \$1;
#X obj 169 164 f;
#X obj 200 163 + 64;
#X connect 1 0 10 0;
#X connect 1 0 12 0;
#X connect 1 1 4 0;
#X connect 1 2 13 0;
#X connect 3 0 1 0;
#X connect 6 0 5 0;
#X connect 7 0 8 0;
#X connect 8 0 15 0;
#X connect 9 0 8 1;
#X connect 10 0 9 0;
#X connect 11 0 9 0;
#X connect 12 0 2 0;
#X connect 12 0 2 1;
#X connect 12 0 0 0;
#X connect 12 1 11 0;
#X connect 13 0 14 0;
#X connect 13 0 6 0;
#X connect 15 0 16 0;
#X connect 15 0 5 0;
#X connect 16 0 15 1;
#X restore 23 420 pd player;
#X obj 23 400 bng 15 250 50 0 empty empty Play 17 7 0 10 -262144 -1
-1;
#X obj 19 8 hsl 345 300 0 203610 0 0 empty guia empty -2 -8 0 10 -262144
-258113 -1 0 1;
#N canvas 0 0 450 300 (subpatch) 0;
#X array SpectralFrequencykurtosis 1 float 3;
#A 0 0;
#X coords 0 4000 1 0 350 140 1;
#X restore 16 167 graph;
#X floatatom 23 326 8 0 0 1 Sample - -;
#X floatatom 338 327 8 0 0 1 Time(ms) - -;
#X floatatom 180 327 8 0 0 1 Block - -;
#X floatatom 23 371 8 0 0 1 - - -;
#N canvas 519 471 645 210 graph 0;
#X obj 16 31 t b f;
#X obj 16 90 pack f 5000;
#X msg 16 120 bounds 0 \$2 \$1 0;
#X obj 16 10 r scale;
#X obj 471 54 * 44.1;
#X obj 333 53 * 512;
#X text 369 53 FFTSize/interp.;
#X obj 387 140 s guia;
#X obj 203 36 inlet;
#X obj 335 27 inlet;
#X obj 473 27 inlet;
#X obj 277 177 outlet;
#X obj 17 63 arraysize SpectralFrequencykurtosis;
#X obj 15 150 s SpectralFrequencykurtosis;
#X obj 186 91 tabread SpectralFrequencykurtosis;
#X obj 334 74 tabread SpectralFrequencykurtosis;
#X obj 463 99 tabread SpectralFrequencykurtosis;
#X connect 0 0 12 0;
#X connect 0 1 1 1;
#X connect 1 0 2 0;
#X connect 2 0 13 0;
#X connect 3 0 0 0;
#X connect 4 0 7 0;
#X connect 4 0 16 0;
#X connect 5 0 7 0;
#X connect 5 0 15 0;
#X connect 8 0 7 0;
#X connect 8 0 14 0;
#X connect 9 0 5 0;
#X connect 10 0 4 0;
#X connect 12 0 1 0;
#X connect 14 0 11 0;
#X connect 15 0 11 0;
#X connect 16 0 11 0;
#X restore 23 346 pd graph --------------------------------------------
;
#N canvas 0 0 450 300 (subpatch) 0;
#X array \$0sound 2 float 2;
#X coords 0 1 2 -1 350 140 1;
#X restore 16 8 graph;
#N canvas 0 0 264 132 rec 0;
#X obj 36 21 inlet;
#X obj 39 78 outlet;
#X obj 85 41 sig~;
#X obj 96 64 r rec;
#X obj 86 86 tabwrite~ SpectralFrequencykurtosis;
#X connect 0 0 2 0;
#X connect 0 0 1 0;
#X connect 2 0 4 0;
#X connect 3 0 4 0;
#X restore 23 463 pd rec;
#N canvas 136 89 215 205 sample 0;
#X obj 50 143 soundfiler;
#X obj 50 13 inlet;
#X obj 50 34 openpanel;
#X obj 50 100 pack s f;
#X obj 50 54 t a b;
#X obj 95 79 \$0;
#X msg 50 120 read -resize \$1 \$2sound;
#X connect 1 0 2 0;
#X connect 2 0 4 0;
#X connect 3 0 6 0;
#X connect 4 0 3 0;
#X connect 4 1 5 0;
#X connect 5 0 3 1;
#X connect 6 0 0 0;
#X restore 370 29 pd sample;
#X text 220 420 Arguments and the message set are;
#X msg 144 422 set 1024 2;
#X text 222 447 as in switch~ and block~ objects;
#X text 221 433 window size and overlappling \,;
#X obj 23 442 SFkurtosis2~ 2048 4;
#X text 13 -54 Spectral Frequency Kurtosis - Norm L2;
#X text 141 487 by Adriano Monteiro (10/2010)- monteiro.adc@gmail.com
;
#X connect 0 0 15 0;
#X connect 3 0 20 1;
#X connect 4 0 20 0;
#X connect 5 0 4 0;
#X connect 8 0 12 0;
#X connect 9 0 12 2;
#X connect 10 0 12 1;
#X connect 12 0 11 0;
#X connect 14 0 1 0;
#X connect 17 0 20 1;
#X connect 20 0 14 0;
