#N canvas 617 0 486 721 10;
#X obj 370 11 bng 15 250 50 0 empty empty insert_sound 17 7 0 10 -262144
-1 -1;
#X obj 374 179 nbx 5 14 -1e+037 1e+037 0 1 scale empty Scale 0 -8 0
10 -262144 -1 -1 1 256;
#X obj 130 544 tgl 15 0 empty empty on/off 17 7 0 10 -262144 -1 -1
0 1;
#N canvas 557 202 333 285 player 0;
#X obj 36 176 outlet~;
#X obj 57 -15 t b b b;
#X obj 33 140 dac~;
#X obj 57 -37 inlet;
#X obj 78 12 s rec;
#X obj 93 188 s guia;
#X msg 202 66 range 0 \$1;
#X obj 172 119 bang~;
#X obj 172 140 spigot;
#X obj 223 119 tgl 15 0 empty empty empty 17 7 0 10 -262144 -1 -1 0
1;
#X msg 159 84 1;
#X msg 197 89 0;
#X obj 58 65 tabplay~ \$0sound;
#X obj 113 4 arraysize \$0sound;
#X msg 113 27 \; SpectralFlatness resize \$1;
#X obj 166 165 f;
#X obj 195 167 + 64;
#X connect 1 0 10 0;
#X connect 1 0 12 0;
#X connect 1 1 4 0;
#X connect 1 2 13 0;
#X connect 3 0 1 0;
#X connect 6 0 5 0;
#X connect 7 0 8 0;
#X connect 8 0 15 0;
#X connect 9 0 8 1;
#X connect 10 0 9 0;
#X connect 11 0 9 0;
#X connect 11 0 15 1;
#X connect 12 0 2 0;
#X connect 12 0 2 1;
#X connect 12 0 0 0;
#X connect 12 1 11 0;
#X connect 13 0 14 0;
#X connect 13 0 6 0;
#X connect 15 0 16 0;
#X connect 15 0 5 0;
#X connect 16 0 15 1;
#X restore 24 416 pd player;
#X obj 24 397 bng 15 250 50 0 empty empty Play 17 7 0 10 -262144 -1
-1;
#X obj 19 7 hsl 345 300 0 203610 0 0 empty guia empty -2 -8 0 10 -262144
-258113 -1 0 1;
#N canvas 0 0 450 300 (subpatch) 0;
#X array SpectralFlatness 2 float 3;
#A 0 0 0;
#X coords 0 1 2 0 350 140 1;
#X restore 16 167 graph;
#X floatatom 23 326 8 0 0 1 Sample - -;
#X floatatom 338 327 8 0 0 1 Time(ms) - -;
#X floatatom 180 327 8 0 0 1 Block - -;
#X floatatom 23 371 8 0 0 1 - - -;
#N canvas 344 435 807 210 graph 0;
#X obj 16 31 t b f;
#X obj 16 90 pack f 5000;
#X msg 16 120 bounds 0 \$2 \$1 0;
#X obj 16 10 r scale;
#X obj 574 64 * 44.1;
#X obj 375 43 * 512;
#X text 375 55 FFTSize/interp.;
#X obj 387 140 s guia;
#X obj 191 38 inlet;
#X obj 377 17 inlet;
#X obj 575 36 inlet;
#X obj 289 128 outlet;
#X obj 16 59 arraysize SpectralFlatness;
#X obj 15 148 s SpectralFlatness;
#X obj 192 75 tabread SpectralFlatness;
#X obj 376 77 tabread SpectralFlatness;
#X obj 575 84 tabread SpectralFlatness;
#X connect 0 0 12 0;
#X connect 0 1 1 1;
#X connect 1 0 2 0;
#X connect 2 0 13 0;
#X connect 3 0 0 0;
#X connect 4 0 7 0;
#X connect 4 0 16 0;
#X connect 5 0 7 0;
#X connect 5 0 15 0;
#X connect 8 0 7 0;
#X connect 8 0 14 0;
#X connect 9 0 5 0;
#X connect 10 0 4 0;
#X connect 12 0 1 0;
#X connect 14 0 11 0;
#X connect 15 0 11 0;
#X connect 16 0 11 0;
#X restore 23 346 pd graph --------------------------------------------
;
#N canvas 0 0 450 300 (subpatch) 0;
#X array \$0sound 2 float 2;
#X coords 0 1 2 -1 350 140 1;
#X restore 16 8 graph;
#N canvas 0 0 308 149 rec 0;
#X obj 36 21 inlet;
#X obj 39 78 outlet;
#X obj 85 41 sig~;
#X obj 96 64 r rec;
#X obj 86 86 tabwrite~ SpectralFlatness;
#X connect 0 0 2 0;
#X connect 0 0 1 0;
#X connect 2 0 4 0;
#X connect 3 0 4 0;
#X restore 25 607 pd rec;
#N canvas 136 89 215 205 sample 0;
#X obj 50 143 soundfiler;
#X obj 50 13 inlet;
#X obj 50 34 openpanel;
#X obj 50 100 pack s f;
#X obj 50 54 t a b;
#X obj 95 79 \$0;
#X msg 50 120 read -resize \$1 \$2sound;
#X connect 1 0 2 0;
#X connect 2 0 4 0;
#X connect 3 0 6 0;
#X connect 4 0 3 0;
#X connect 4 1 5 0;
#X connect 5 0 3 1;
#X connect 6 0 0 0;
#X restore 370 29 pd sample;
#X floatatom 60 500 5 0 1024 1 min_bin - -;
#X floatatom 99 521 5 0 1024 1 max_bin - -;
#X msg 141 563 1024 2;
#X text 187 588 as in switch~ and block~ objects;
#X text 187 573 window size and overlappling \,;
#X text 187 562 arguments and the message 'set \$1 \$2' are;
#X floatatom 25 627 9 0 200 1 - - -;
#N canvas 64 58 317 170 bins 0;
#X obj 138 42 t b f;
#X obj 48 27 inlet;
#X obj 142 0 inlet;
#X obj 49 130 outlet;
#X obj 173 129 outlet;
#X obj 249 87 inlet;
#X obj 48 86 expr int($f1/(44100/$f3)) \; int($f2/(44100/$f3));
#X obj 206 39 loadbang;
#X msg 212 64 2048;
#X connect 0 0 6 0;
#X connect 0 1 6 1;
#X connect 1 0 6 0;
#X connect 2 0 0 0;
#X connect 5 0 6 2;
#X connect 6 0 3 0;
#X connect 6 1 4 0;
#X connect 7 0 8 0;
#X connect 8 0 6 2;
#X restore 60 473 pd bins;
#X floatatom 60 437 6 0 0 1 min_freq - -;
#X floatatom 79 455 6 0 0 1 max_freq - -;
#X text 14 -66 Spectral Flatness - extract the relation noise-like/tone-like
of a spectrum band determined by the user;
#X text 14 -26 based on (Peeters \, 2004)- CUIDADO Paper;
#X text 195 516 set the initial and final bins;
#X msg 141 478 1024;
#X text 172 477 if you change the window size bellow;
#X text 169 446 Maximum frequency: samplerate/2;
#X text 195 530 (maximum bin: window-size/2);
#X text 154 639 by Adriano Monteiro (10/2010) - monteiro.adc@gmail.com
;
#X obj 25 585 Sflatness~ 2048 4;
#X connect 0 0 14 0;
#X connect 2 0 33 3;
#X connect 3 0 33 0;
#X connect 4 0 3 0;
#X connect 7 0 11 0;
#X connect 8 0 11 2;
#X connect 9 0 11 1;
#X connect 11 0 10 0;
#X connect 13 0 21 0;
#X connect 15 0 33 1;
#X connect 16 0 33 2;
#X connect 17 0 33 3;
#X connect 22 0 15 0;
#X connect 22 1 16 0;
#X connect 23 0 22 0;
#X connect 24 0 22 1;
#X connect 28 0 22 2;
#X connect 33 0 13 0;
