#N canvas 139 32 444 607 10;
#N canvas 231 171 488 181 Hann-window 0;
#N canvas 0 0 450 300 (subpatch) 0;
#X array \$0-hann 1 float 0;
#X coords 0 1 1 0 200 120 1;
#X restore 262 37 graph;
#X msg 94 45 resize \$1;
#X obj 94 69 s \$0-hann;
#X obj 21 110 expr ((cos($f1*6.283185))* -0.5)+0.5;
#X obj 21 135 tabwrite \$0-hann;
#X obj 21 88 / 2048;
#X obj 18 -14 inlet;
#X obj 18 11 t f b f;
#X obj 18 36 until;
#X obj 19 60 f;
#X obj 45 61 + 1;
#X msg 57 37 0;
#X connect 1 0 2 0;
#X connect 3 0 4 0;
#X connect 5 0 3 0;
#X connect 6 0 7 0;
#X connect 7 0 8 0;
#X connect 7 1 11 0;
#X connect 7 2 1 0;
#X connect 7 2 5 1;
#X connect 8 0 9 0;
#X connect 9 0 10 0;
#X connect 9 0 4 1;
#X connect 9 0 5 0;
#X connect 10 0 9 1;
#X connect 11 0 9 1;
#X restore 342 78 pd Hann-window;
#X obj 46 -19 *~;
#X obj 44 6 rfft~;
#X obj 36 35 *~;
#X obj 79 39 *~;
#X obj 50 84 sqrt~;
#X obj 50 60 +~;
#X obj 253 -66 loadbang;
#X obj 47 -60 inlet~;
#X obj 282 29 pack f f;
#X obj 60 -40 tabreceive~ \$0-hann;
#X msg 282 56 set \$1 \$2;
#X msg 252 95 resize \$1;
#X obj 255 121 s one\$0;
#X obj 254 140 s two\$0;
#X obj 255 184 table one\$0;
#X obj 255 206 table two\$0;
#X obj 77 254 bang~;
#X obj 256 227 table three\$0;
#X obj 92 232 tabsend~ one\$0;
#X obj 254 160 s three\$0;
#X obj 252 -8 \$1;
#X obj 279 -9 \$2;
#X obj 152 117 z~ \$1;
#X obj 153 210 tabsend~ two\$0;
#X obj 252 -46 t b b;
#X obj 252 262 / 2;
#X obj 282 76 switch~;
#X obj 333 -82 inlet;
#X obj 333 -35 unpack;
#X obj 333 -58 route set;
#X obj 26 160 *~;
#X obj 92 161 *~;
#X obj 152 162 *~;
#X obj 152 185 rpole~ 1;
#X obj 91 185 rpole~ 1;
#X obj 27 186 rpole~ 1;
#X obj 164 332 f;
#X obj 164 356 tabread two\$0;
#X obj 99 353 f;
#X obj 99 377 tabread one\$0;
#X obj 24 307 f;
#X obj 24 331 tabread three\$0;
#X obj 28 208 tabsend~ three\$0;
#X obj 252 287 - 1;
#X obj 77 276 t b b b b;
#X msg 139 275 clear;
#X obj 99 400 sqrt;
#X obj 164 398 sqrt;
#X obj 99 425 *;
#X obj 83 450 /;
#X obj 81 475 expr 1-$f1;
#X obj 82 498 outlet;
#X connect 1 0 2 0;
#X connect 2 0 3 0;
#X connect 2 0 3 1;
#X connect 2 1 4 0;
#X connect 2 1 4 1;
#X connect 3 0 6 0;
#X connect 4 0 6 1;
#X connect 5 0 23 0;
#X connect 5 0 31 0;
#X connect 5 0 32 1;
#X connect 5 0 32 0;
#X connect 6 0 5 0;
#X connect 7 0 25 0;
#X connect 8 0 1 0;
#X connect 9 0 11 0;
#X connect 10 0 1 1;
#X connect 11 0 27 0;
#X connect 12 0 13 0;
#X connect 12 0 14 0;
#X connect 12 0 20 0;
#X connect 17 0 45 0;
#X connect 21 0 9 0;
#X connect 21 0 26 0;
#X connect 21 0 0 0;
#X connect 21 0 12 0;
#X connect 22 0 9 1;
#X connect 23 0 31 1;
#X connect 23 0 33 1;
#X connect 23 0 33 0;
#X connect 25 0 21 0;
#X connect 25 1 22 0;
#X connect 26 0 44 0;
#X connect 28 0 30 0;
#X connect 29 0 21 0;
#X connect 29 0 23 1;
#X connect 29 1 22 0;
#X connect 30 0 29 0;
#X connect 30 1 27 0;
#X connect 31 0 36 0;
#X connect 32 0 35 0;
#X connect 33 0 34 0;
#X connect 34 0 24 0;
#X connect 35 0 19 0;
#X connect 36 0 43 0;
#X connect 37 0 38 0;
#X connect 38 0 48 0;
#X connect 39 0 40 0;
#X connect 40 0 47 0;
#X connect 41 0 42 0;
#X connect 42 0 50 0;
#X connect 44 0 37 1;
#X connect 44 0 39 1;
#X connect 44 0 41 1;
#X connect 45 0 41 0;
#X connect 45 1 39 0;
#X connect 45 2 37 0;
#X connect 45 3 46 0;
#X connect 46 0 34 0;
#X connect 46 0 35 0;
#X connect 46 0 36 0;
#X connect 47 0 49 0;
#X connect 48 0 49 1;
#X connect 49 0 50 1;
#X connect 50 0 51 0;
#X connect 51 0 52 0;
