#N canvas 247 145 438 481 10;
#N canvas 231 171 488 242 Hann-window 0;
#N canvas 0 0 450 300 (subpatch) 0;
#X array \$0-hann 1 float 0;
#X coords 0 1 1 0 200 120 1;
#X restore 262 37 graph;
#X msg 132 58 resize \$1;
#X obj 132 82 s \$0-hann;
#X obj 30 119 expr ((cos($f1*6.283185))* -0.5)+0.5;
#X obj 30 144 tabwrite \$0-hann;
#X obj 30 97 / 2048;
#X obj 30 -5 inlet;
#X obj 30 16 t f b f;
#X obj 29 46 until;
#X obj 27 71 f;
#X obj 57 71 + 1;
#X msg 69 46 0;
#X connect 1 0 2 0;
#X connect 3 0 4 0;
#X connect 5 0 3 0;
#X connect 6 0 7 0;
#X connect 7 0 8 0;
#X connect 7 1 11 0;
#X connect 7 2 1 0;
#X connect 8 0 9 0;
#X connect 9 0 10 0;
#X connect 9 0 4 1;
#X connect 9 0 5 0;
#X connect 10 0 9 1;
#X connect 11 0 9 1;
#X restore 347 41 pd Hann-window;
#X obj 32 -13 *~;
#X obj 30 12 rfft~;
#X obj 22 41 *~;
#X obj 65 45 *~;
#X obj 36 90 sqrt~;
#X obj 36 66 +~;
#X obj 237 -64 loadbang;
#X obj 33 -54 inlet~;
#X obj 289 37 pack f f;
#X obj 46 -34 tabreceive~ \$0-hann;
#X msg 289 61 set \$1 \$2;
#X msg 238 100 resize \$1;
#X obj 238 122 s one\$0;
#X obj 239 145 table one\$0;
#X obj 37 261 bang~;
#X obj 36 239 tabsend~ one\$0;
#X obj 237 -14 \$1;
#X obj 264 -15 \$2;
#X obj 48 113 z~ \$1;
#X obj 237 -41 t b b;
#X obj 204 169 / 2;
#X obj 309 -81 inlet;
#X obj 308 -40 unpack;
#X obj 309 -60 route set;
#X obj 289 81 switch~;
#X obj 34 140 -~;
#X obj 35 162 abs~;
#X obj 35 189 *~;
#X obj 37 310 f;
#X obj 203 196 - 1;
#X obj 37 284 t b b;
#X obj 37 331 tabread one\$0;
#X msg 75 285 clear;
#X obj 35 214 rpole~ 1;
#X obj 37 374 outlet;
#X obj 37 351 sqrt;
#X connect 1 0 2 0;
#X connect 2 0 3 0;
#X connect 2 0 3 1;
#X connect 2 1 4 0;
#X connect 2 1 4 1;
#X connect 3 0 6 0;
#X connect 4 0 6 1;
#X connect 5 0 19 0;
#X connect 5 0 26 0;
#X connect 6 0 5 0;
#X connect 7 0 20 0;
#X connect 8 0 1 0;
#X connect 9 0 11 0;
#X connect 10 0 1 1;
#X connect 11 0 25 0;
#X connect 12 0 13 0;
#X connect 15 0 31 0;
#X connect 17 0 9 0;
#X connect 17 0 21 0;
#X connect 17 0 0 0;
#X connect 17 0 19 1;
#X connect 17 0 12 0;
#X connect 18 0 9 1;
#X connect 19 0 26 1;
#X connect 20 0 17 0;
#X connect 20 1 18 0;
#X connect 21 0 30 0;
#X connect 22 0 24 0;
#X connect 23 0 17 0;
#X connect 23 1 18 0;
#X connect 24 0 23 0;
#X connect 24 1 25 0;
#X connect 26 0 27 0;
#X connect 27 0 28 1;
#X connect 27 0 28 0;
#X connect 28 0 34 0;
#X connect 29 0 32 0;
#X connect 30 0 29 1;
#X connect 31 0 29 0;
#X connect 31 1 33 0;
#X connect 32 0 36 0;
#X connect 33 0 34 0;
#X connect 34 0 16 0;
#X connect 36 0 35 0;
