#N canvas 99 10 508 703 10;
#N canvas 334 271 450 195 freqwindow 0;
#N canvas 0 0 450 300 (subpatch) 0;
#X array \$0freq 1 float 2;
#X coords 0 44100 1 0 200 140 1;
#X restore 238 17 graph;
#X obj 19 159 tabwrite \$0freq;
#X obj 18 33 inlet;
#X obj 133 95 s \$0freq;
#X msg 134 73 resize \$1;
#X obj 19 57 t f b f;
#X obj 19 81 until;
#X obj 19 104 f;
#X obj 47 106 + 1;
#X obj 19 131 expr ($f1)*(44100.0/float($f2));
#X msg 57 82 0;
#X connect 2 0 5 0;
#X connect 4 0 3 0;
#X connect 5 0 6 0;
#X connect 5 1 10 0;
#X connect 5 2 4 0;
#X connect 5 2 9 1;
#X connect 6 0 7 0;
#X connect 7 0 8 0;
#X connect 7 0 1 1;
#X connect 7 0 9 0;
#X connect 8 0 7 1;
#X connect 9 0 1 0;
#X connect 10 0 7 1;
#X restore 267 82 pd freqwindow;
#N canvas 231 171 489 192 Hann-window 0;
#N canvas 0 0 450 300 (subpatch) 0;
#X array \$0-hann 1 float 0;
#X coords 0 1 1 0 200 120 1;
#X restore 262 37 graph;
#X msg 97 59 resize \$1;
#X obj 97 83 s \$0-hann;
#X obj 18 126 expr ((cos($f1*6.283185))* -0.5)+0.5;
#X obj 18 151 tabwrite \$0-hann;
#X obj 18 104 / 2048;
#X obj 18 11 inlet;
#X obj 19 60 until;
#X obj 19 84 f;
#X obj 48 83 + 1;
#X msg 56 59 0;
#X obj 18 38 t f b f;
#X connect 1 0 2 0;
#X connect 3 0 4 0;
#X connect 5 0 3 0;
#X connect 6 0 11 0;
#X connect 7 0 8 0;
#X connect 8 0 9 0;
#X connect 8 0 4 1;
#X connect 8 0 5 0;
#X connect 9 0 8 1;
#X connect 10 0 8 1;
#X connect 11 0 7 0;
#X connect 11 1 10 0;
#X connect 11 2 1 0;
#X connect 11 2 5 1;
#X restore 268 104 pd Hann-window;
#X obj 22 -10 *~;
#X obj 173 -51 loadbang;
#X obj 22 -50 inlet~;
#X obj 201 58 pack f f;
#X obj 37 -29 tabreceive~ \$0-hann;
#X msg 201 82 set \$1 \$2;
#X msg 175 128 resize \$1;
#X obj 234 275 bang~;
#X obj 22 8 rfft~;
#X obj 10 37 *~;
#X obj 52 32 *~;
#X obj 26 60 +~;
#X obj 25 82 sqrt~;
#X obj 174 15 \$1;
#X obj 199 16 \$2;
#X obj 175 153 s one\$0;
#X obj 174 174 s two\$0;
#X obj 232 153 table one\$0;
#X obj 230 174 table two\$0;
#X obj 43 199 tabsend~ one\$0;
#X obj 173 -25 t b b;
#X obj 179 272 / 2;
#X obj 201 102 switch~;
#X obj 244 -33 route set;
#X obj 243 -13 unpack;
#X obj 244 -54 inlet;
#N canvas 0 0 450 189 mask 0;
#N canvas 0 0 450 300 (subpatch) 0;
#X array \$0mask 1 float 3;
#A 0 0;
#X coords 0 1 1 -1 200 140 1;
#X restore 218 42 graph;
#X obj 27 38 inlet;
#X obj 27 86 s \$0mask;
#X msg 27 59 resize \$1 \, const 1 \, 0 0;
#X connect 1 0 3 0;
#X connect 3 0 2 0;
#X restore 270 126 pd mask;
#X obj 26 150 *~;
#X obj 42 125 tabreceive~ \$0mask;
#X obj 26 241 *~;
#X obj 41 221 tabreceive~ \$0freq;
#X obj 43 177 rpole~ 1;
#X obj 26 263 rpole~ 1;
#X obj 26 285 tabsend~ two\$0;
#X msg 141 353 clear;
#X obj 298 342 f;
#X obj 298 364 tabread one\$0;
#X obj 234 371 f;
#X obj 234 393 tabread two\$0;
#X obj 179 296 - 1;
#X obj 234 422 /;
#X obj 171 445 sig~;
#X obj 64 482 -~;
#X obj 61 506 *~;
#X obj 45 534 *~;
#X obj 28 560 *~;
#X obj 105 530 *~;
#X obj 104 556 rpole~ 1;
#X obj 104 578 tabsend~ three\$0;
#X obj 28 590 rpole~ 1;
#X obj 344 441 f;
#X obj 28 612 tabsend~ four\$0;
#X obj 348 463 tabread three\$0;
#X obj 231 472 f;
#X obj 231 494 tabread four\$0;
#X obj 348 486 /;
#X obj 231 516 /;
#X obj 348 510 pow 1.5;
#X obj 233 540 /;
#X obj 231 569 outlet;
#X obj 234 300 t b b b b b;
#X obj 177 195 s three\$0;
#X obj 176 216 s four\$0;
#X obj 239 196 table three\$0;
#X obj 236 218 table four\$0;
#X obj 26 109 *~;
#X connect 2 0 10 0;
#X connect 3 0 22 0;
#X connect 4 0 2 0;
#X connect 5 0 7 0;
#X connect 6 0 2 1;
#X connect 7 0 24 0;
#X connect 8 0 17 0;
#X connect 8 0 18 0;
#X connect 8 0 63 0;
#X connect 8 0 64 0;
#X connect 9 0 62 0;
#X connect 10 0 11 0;
#X connect 10 0 11 1;
#X connect 10 1 12 0;
#X connect 10 1 12 1;
#X connect 11 0 13 0;
#X connect 12 0 13 1;
#X connect 13 0 14 0;
#X connect 14 0 67 1;
#X connect 14 0 67 0;
#X connect 15 0 5 0;
#X connect 15 0 23 0;
#X connect 15 0 0 0;
#X connect 15 0 1 0;
#X connect 15 0 28 0;
#X connect 15 0 8 0;
#X connect 16 0 5 1;
#X connect 22 0 15 0;
#X connect 22 1 16 0;
#X connect 23 0 41 0;
#X connect 25 0 26 0;
#X connect 25 1 24 0;
#X connect 26 0 15 0;
#X connect 26 1 16 0;
#X connect 27 0 25 0;
#X connect 29 0 31 0;
#X connect 29 0 33 0;
#X connect 29 0 47 0;
#X connect 29 0 48 0;
#X connect 30 0 29 1;
#X connect 31 0 34 0;
#X connect 32 0 31 1;
#X connect 32 0 44 0;
#X connect 33 0 21 0;
#X connect 34 0 35 0;
#X connect 36 0 33 0;
#X connect 36 0 34 0;
#X connect 36 0 51 0;
#X connect 36 0 49 0;
#X connect 37 0 38 0;
#X connect 38 0 42 1;
#X connect 38 0 57 1;
#X connect 38 0 58 1;
#X connect 39 0 40 0;
#X connect 40 0 42 0;
#X connect 41 0 37 1;
#X connect 41 0 39 1;
#X connect 41 0 52 1;
#X connect 41 0 55 1;
#X connect 42 0 43 0;
#X connect 43 0 44 1;
#X connect 44 0 45 1;
#X connect 44 0 45 0;
#X connect 44 0 46 0;
#X connect 45 0 46 1;
#X connect 45 0 48 1;
#X connect 46 0 47 1;
#X connect 47 0 51 0;
#X connect 48 0 49 0;
#X connect 49 0 50 0;
#X connect 51 0 53 0;
#X connect 52 0 54 0;
#X connect 54 0 57 0;
#X connect 55 0 56 0;
#X connect 56 0 58 0;
#X connect 57 0 59 0;
#X connect 58 0 60 0;
#X connect 59 0 60 1;
#X connect 60 0 61 0;
#X connect 62 0 55 0;
#X connect 62 1 52 0;
#X connect 62 2 39 0;
#X connect 62 3 37 0;
#X connect 62 4 36 0;
#X connect 67 0 29 0;
